<?xml version="1.0" encoding="UTF-8" standalone="yes"?>
<svg xmlns="http://www.w3.org/2000/svg" xmlns:v="http://schemas.microsoft.com/visio/2003/SVGExtensions/" xml:space="preserve" xmlns:xlink="http://www.w3.org/1999/xlink" width="23.80315in" height="11.692913in" viewBox="0 0 1713.8268 841.8898">
 <g id="SFixTitle"/>
 <g id="SContent">
  <g>
   <g transform="matrix(1,0,0,-1,0,841.8898)">
    <g transform="matrix(1,0,0,1,59.039993,46.799988)" v:mID="1">
     <title>Sheet.1</title>
     <g transform="matrix(1,0,0,1,0,0)" v:mID="1">
      <title>Sheet.1</title>
      <path d="M15.840000153,0 L405.360015869,0 L405.360015869,0 C409.559417725,0.000002162 413.591125488,1.669995666 416.560577393,4.639433861 L416.560577393,4.639433861 C419.529998779,7.60887289 421.199981689,11.640590668 421.199981689,15.840008736 L421.199981689,15.840000153 L421.199981689,707.760009766 L421.199981689,707.760009766 C421.199981689,711.959350586 419.529998779,715.991088867 416.560577393,718.960571289 L416.560577393,718.960571289 C413.591125488,721.930053711 409.559417725,723.600036621 405.360015869,723.600036621 L405.360015869,723.600036621 C405.360015869,723.600036621 405.360015869,723.600036621 405.360015869,723.600036621 L405.360015869,723.600036621 L15.839999199,723.600036621 L15.839999199,723.600036621 C11.640581131,723.600036621 7.608864307,721.930053711 4.639427662,718.960571289 L4.639427662,718.960571289 C1.669991016,715.991088867 -0.000000142,711.959350586 0,707.760009766 L0,707.760009766 L0,15.840000153 L0,15.840000153 C-0,11.640582085 1.669991732,7.608865738 4.639428616,4.639428616 L4.639428616,4.639428616 C7.608865738,1.669991732 11.640582085,0 15.840000153,0 Z" stroke="#000000" stroke-width="0.6" stroke-linecap="round" fill="none" stroke-opacity="0"/>
     </g>
     <path d="M15.840000153,0 L405.360015869,0 L405.360015869,0 C409.559417725,0.000002162 413.591125488,1.669995666 416.560577393,4.639433861 L416.560577393,4.639433861 C419.529998779,7.60887289 421.199981689,11.640590668 421.199981689,15.840008736 L421.199981689,15.840000153 L421.199981689,707.760009766 L421.199981689,707.760009766 C421.199981689,711.959350586 419.529998779,715.991088867 416.560577393,718.960571289 L416.560577393,718.960571289 C413.591125488,721.930053711 409.559417725,723.600036621 405.360015869,723.600036621 L405.360015869,723.600036621 C405.360015869,723.600036621 405.360015869,723.600036621 405.360015869,723.600036621 L405.360015869,723.600036621 L15.839999199,723.600036621 L15.839999199,723.600036621 C11.640581131,723.600036621 7.608864307,721.930053711 4.639427662,718.960571289 L4.639427662,718.960571289 C1.669991016,715.991088867 -0.000000142,711.959350586 0,707.760009766 L0,707.760009766 L0,15.840000153 L0,15.840000153 C-0,11.640582085 1.669991732,7.608865738 4.639428616,4.639428616 L4.639428616,4.639428616 C7.608865738,1.669991732 11.640582085,0 15.840000153,0 Z" stroke="#F2F7F9" stroke-width="0.6" stroke-linecap="round" fill="#FAFDFE"  fill-rule="evenodd"/>
    </g>
    <g transform="matrix(-0,-1,1,0,306,664.56)" v:mID="12">
     <title>Sheet.12</title>
     <path d="M33.983997345,-2.880000114 L39.455997467,0 L33.983997345,2.880000114 Z" stroke="#1C5C8B" stroke-width="2" fill="#1C5C8B"  fill-rule="evenodd" transform="matrix(1,0,0,1,0,0)"/>
     <path d="M0,0 L38.879997253,0 " stroke="#1C5C8B" stroke-width="2" stroke-linecap="round" fill="none"/>
    </g>
    <g transform="matrix(-0,-1,1,0,306,547.2)" v:mID="13">
     <title>Sheet.13</title>
     <path d="M37.583999634,-2.880000114 L43.055999756,0 L37.583999634,2.880000114 Z" stroke="#1C5C8B" stroke-width="2" fill="#1C5C8B"  fill-rule="evenodd" transform="matrix(1,0,0,1,0,0)"/>
     <path d="M0,0 L42.479999542,0 " stroke="#1C5C8B" stroke-width="2" stroke-linecap="round" fill="none"/>
    </g>
    <g transform="matrix(-0,-1,1,0,306,426.23996)" v:mID="14">
     <title>Sheet.14</title>
     <path d="M38.304000854,-2.880000114 L43.775997162,0 L38.304000854,2.880000114 Z" stroke="#1C5C8B" stroke-width="2" fill="#1C5C8B"  fill-rule="evenodd" transform="matrix(1,0,0,1,0,0)"/>
     <path d="M0,0 L43.199996948,0 " stroke="#1C5C8B" stroke-width="2" stroke-linecap="round" fill="none"/>
    </g>
    <g transform="matrix(-0,-1,1,0,306,304.55997)" v:mID="15">
     <title>Sheet.15</title>
     <path d="M36.144001007,-2.880000114 L41.616001129,0 L36.144001007,2.880000114 Z" stroke="#1C5C8B" stroke-width="2" fill="#1C5C8B"  fill-rule="evenodd" transform="matrix(1,0,0,1,0,0)"/>
     <path d="M0,0 L41.040000916,0 " stroke="#1C5C8B" stroke-width="2" stroke-linecap="round" fill="none"/>
    </g>
    <g transform="matrix(-0,-1,1,0,306,185.03998)" v:mID="16">
     <title>Sheet.16</title>
     <path d="M40.464004517,-2.880000114 L45.936000824,0 L40.464004517,2.880000114 Z" stroke="#5D9E56" stroke-width="2" fill="#5D9E56"  fill-rule="evenodd" transform="matrix(1,0,0,1,0,0)"/>
     <path d="M0,0 L45.36000061,0 " stroke="#5D9E56" stroke-width="2" stroke-linecap="round" fill="none"/>
    </g>
    <g transform="matrix(1,0,0,1,536.39996,699.84)" v:mID="17">
     <title>Sheet.17</title>
     <path d="M0,0 L154.800003052,0 " stroke="#1C5C8B" stroke-width="1.7" stroke-linecap="round" fill="none"/>
    </g>
    <g transform="matrix(0.93120354,-0.36449966,0.36449966,0.93120354,691.2,699.84)" v:mID="18">
     <title>Sheet.18</title>
     <path d="M262.841522217,-2.880000114 L268.313537598,0 L262.841522217,2.880000114 Z" stroke="#1C5C8B" stroke-width="1.7" fill="#1C5C8B"  fill-rule="evenodd" transform="matrix(1,0,0,1,0,0)"/>
     <path d="M0,0 L267.737548828,0 " stroke="#1C5C8B" stroke-width="1.7" stroke-linecap="round" fill="none"/>
    </g>
    <g transform="matrix(-1,0,0,-1,691.2,699.84)" v:mID="19">
     <title>Sheet.19</title>
     <path d="M165.024002075,-2.880000114 L170.496002197,0 L165.024002075,2.880000114 Z" stroke="#1C5C8B" stroke-width="1.7" fill="#1C5C8B"  fill-rule="evenodd" transform="matrix(1,0,0,1,0,0)"/>
     <path d="M0,0 L169.920013428,0 " stroke="#1C5C8B" stroke-width="1.7" stroke-linecap="round" fill="none"/>
    </g>
    <g transform="matrix(1,0,0,1,793.44006,658.8)" v:mID="20">
     <title>Sheet.20</title>
     <g transform="matrix(1,0,0,1,0,0)">
      <text x="15.121582" y="10.2" class="TextStyle0" fill="#1C5C8B" opacity="1" transform="matrix(1,0,0,-1,0,19.5)">Fail</text>
     </g>
    </g>
    <g transform="matrix(1,0,0,1,536.4,584.64)" v:mID="21">
     <title>Sheet.21</title>
     <path d="M402.62399292,-2.880000114 L408.095977783,0 L402.62399292,2.880000114 Z" stroke="#1C5C8B" stroke-width="1.8000001" fill="#1C5C8B"  fill-rule="evenodd" transform="matrix(1,0,0,1,0,0)"/>
     <path d="M0,0 L407.519989014,0 " stroke="#1C5C8B" stroke-width="1.8000001" stroke-linecap="round" fill="none"/>
    </g>
    <g transform="matrix(1,0,0,1,698.39996,588.95996)" v:mID="22">
     <title>Sheet.22</title>
     <g transform="matrix(1,0,0,1,0,0)">
      <text x="26.288427" y="10.2" class="TextStyle0" fill="#1C5C8B" opacity="1" transform="matrix(1,0,0,-1,0,17.7)">Pass</text>
     </g>
    </g>
    <g transform="matrix(1,0,0,1,536.4,459.36002)" v:mID="23">
     <title>Sheet.23</title>
     <path d="M0,0 L169.199996948,0 " stroke="#1C5C8B" stroke-width="1.7" stroke-linecap="round" fill="none"/>
    </g>
    <g transform="matrix(0.9303797,0.36659735,-0.36659735,0.9303797,705.60004,459.36002)" v:mID="24">
     <title>Sheet.24</title>
     <path d="M251.472991943,-2.880000114 L256.945007324,0 L251.472991943,2.880000114 Z" stroke="#1C5C8B" stroke-width="1.7" fill="#1C5C8B"  fill-rule="evenodd" transform="matrix(1,0,0,1,0,0)"/>
     <path d="M0,0 L256.369018555,0 " stroke="#1C5C8B" stroke-width="1.7" stroke-linecap="round" fill="none"/>
    </g>
    <g transform="matrix(-1,0,0,-1,705.6,459.36002)" v:mID="25">
     <title>Sheet.25</title>
     <path d="M179.423995972,-2.880000114 L184.895996094,0 L179.423995972,2.880000114 Z" stroke="#1C5C8B" stroke-width="1.7" fill="#1C5C8B"  fill-rule="evenodd" transform="matrix(1,0,0,1,0,0)"/>
     <path d="M0,0 L184.319992065,0 " stroke="#1C5C8B" stroke-width="1.7" stroke-linecap="round" fill="none"/>
    </g>
    <g transform="matrix(1,0,0,1,752.4,505.43997)" v:mID="26">
     <title>Sheet.26</title>
     <g transform="matrix(1,0,0,1,0,0)">
      <text x="16.762014" y="10.2" class="TextStyle0" fill="#1C5C8B" opacity="1" transform="matrix(1,0,0,-1,0,19.5)">Success</text>
     </g>
    </g>
    <g transform="matrix(0.90236205,-0.43097886,0.43097886,0.90236205,705.6,459.36002)" v:mID="27">
     <title>Sheet.27</title>
     <path d="M259.522460938,-2.880000114 L264.994476318,0 L259.522460938,2.880000114 Z" stroke="#1C5C8B" stroke-width="1.7" fill="#1C5C8B"  fill-rule="evenodd" transform="matrix(1,0,0,1,0,0)"/>
     <path d="M0,0 L264.418487549,0 " stroke="#1C5C8B" stroke-width="1.7" stroke-linecap="round" fill="none"/>
    </g>
    <g transform="matrix(1,0,0,1,788.39996,421.2)" v:mID="28">
     <title>Sheet.28</title>
     <g transform="matrix(1,0,0,1,0,0)">
      <text x="21.936037" y="10.2" class="TextStyle0" fill="#1C5C8B" opacity="1" transform="matrix(1,0,0,-1,0,19.5)">Consistency</text>
     </g>
    </g>
    <g transform="matrix(1,0,0,1,536.4,342)" v:mID="29">
     <title>Sheet.29</title>
     <path d="M402.62399292,-2.880000114 L408.095977783,0 L402.62399292,2.880000114 Z" stroke="#1C5C8B" stroke-width="1.8000001" fill="#1C5C8B"  fill-rule="evenodd" transform="matrix(1,0,0,1,0,0)"/>
     <path d="M0,0 L407.519989014,0 " stroke="#1C5C8B" stroke-width="1.8000001" stroke-linecap="round" fill="none"/>
    </g>
    <g transform="matrix(1,0,0,1,680.4,345.59998)" v:mID="30">
     <title>Sheet.30</title>
     <g transform="matrix(1,0,0,1,0,0)">
      <text x="29.36201" y="10.2" class="TextStyle0" fill="#1C5C8B" opacity="1" transform="matrix(1,0,0,-1,0,17.7)">Success</text>
     </g>
    </g>
    <g transform="matrix(1,0,0,1,536.4,219.59999)" v:mID="31">
     <title>Sheet.31</title>
     <path d="M0,0 L169.199996948,0 " stroke="#5D9E56" stroke-width="1.7" stroke-linecap="round" fill="none"/>
    </g>
    <g transform="matrix(0.9387253,0.3446663,-0.3446663,0.9387253,705.60004,219.6)" v:mID="32">
     <title>Sheet.32</title>
     <path d="M249.168182373,-2.880000114 L254.640182495,0 L249.168182373,2.880000114 Z" stroke="#5D9E56" stroke-width="1.7" fill="#5D9E56"  fill-rule="evenodd" transform="matrix(1,0,0,1,0,0)"/>
     <path d="M0,0 L254.064193726,0 " stroke="#5D9E56" stroke-width="1.7" stroke-linecap="round" fill="none"/>
    </g>
    <g transform="matrix(-1,0,0,-1,705.6,219.59999)" v:mID="33">
     <title>Sheet.33</title>
     <path d="M179.423995972,-2.880000114 L184.895996094,0 L179.423995972,2.880000114 Z" stroke="#5D9E56" stroke-width="1.7" fill="#5D9E56"  fill-rule="evenodd" transform="matrix(1,0,0,1,0,0)"/>
     <path d="M0,0 L184.319992065,0 " stroke="#5D9E56" stroke-width="1.7" stroke-linecap="round" fill="none"/>
    </g>
    <g transform="matrix(1,0,0,1,766.8,250.56)" v:mID="34">
     <title>Sheet.34</title>
     <g transform="matrix(1,0,0,1,0,0)">
      <text x="18.721582" y="10.2" class="TextStyle0" fill="#1C5C8B" opacity="1" transform="matrix(1,0,0,-1,0,19.5)">Fail</text>
     </g>
    </g>
    <g transform="matrix(1,0,0,1,536.4,99.36)" v:mID="35">
     <title>Sheet.35</title>
     <path d="M402.62399292,-2.880000114 L408.095977783,0 L402.62399292,2.880000114 Z" stroke="#5D9E56" stroke-width="1.7" fill="#5D9E56"  fill-rule="evenodd" transform="matrix(1,0,0,1,0,0)"/>
     <path d="M0,0 L407.519989014,0 " stroke="#5D9E56" stroke-width="1.7" stroke-linecap="round" fill="none"/>
    </g>
    <g transform="matrix(1,0,0,1,658.8,59.760002)" v:mID="36">
     <title>Sheet.36</title>
     <g transform="matrix(1,0,0,1,0,0)">
      <text x="29.281347" y="9" class="TextStyle1" fill="#1C5C8B" opacity="1" transform="matrix(1,0,0,-1,0,17.1)">Auto-resolve</text>
     </g>
    </g>
    <g transform="matrix(1,0,0,1,1072.8,584.64)" v:mID="37">
     <title>Sheet.37</title>
     <path d="M39.02399826,-2.880000114 L44.495998383,0 L39.02399826,2.880000114 Z" stroke="#1C5C8B" stroke-width="1.8000001" fill="#1C5C8B"  fill-rule="evenodd" transform="matrix(1,0,0,1,0,0)"/>
     <path d="M0,0 L43.919998169,0 " stroke="#1C5C8B" stroke-width="1.8000001" stroke-linecap="round" fill="none"/>
    </g>
    <g transform="matrix(1,0,0,1,1139.04,568.07996)" v:mID="38">
     <title>Sheet.38</title>
     <g transform="matrix(1,0,0,1,0,0)">
      <text x="4" y="14.400001" class="TextStyle2" fill="#000000" opacity="1" transform="matrix(1,0,0,-1,0,23.4)">AI Agent</text>
     </g>
    </g>
    <g transform="matrix(-0,-1,1,0,1009.44006,525.6)" v:mID="39">
     <title>Sheet.39</title>
     <path d="M118.223999023,-2.880000114 L123.696006775,0 L118.223999023,2.880000114 Z" stroke="#1C5C8B" stroke-width="2" fill="#1C5C8B"  fill-rule="evenodd" transform="matrix(1,0,0,1,0,0)"/>
     <path d="M0,0 L123.120002747,0 " stroke="#1C5C8B" stroke-width="2" stroke-linecap="round" fill="none"/>
    </g>
    <g transform="matrix(1,0,0,1,1020.96,450)" v:mID="40">
     <title>Sheet.40</title>
     <g transform="matrix(1,0,0,1,0,0)">
      <text x="4" y="9.6" class="TextStyle3" fill="#1C5C8B" opacity="1" transform="matrix(1,0,0,-1,0,17.400002)">Fail</text>
     </g>
    </g>
    <g transform="matrix(1,0,0,1,1072.8,344.16)" v:mID="41">
     <title>Sheet.41</title>
     <path d="M39.02399826,-2.880000114 L44.495998383,0 L39.02399826,2.880000114 Z" stroke="#1C5C8B" stroke-width="1.8000001" fill="#1C5C8B"  fill-rule="evenodd" transform="matrix(1,0,0,1,0,0)"/>
     <path d="M0,0 L43.919998169,0 " stroke="#1C5C8B" stroke-width="1.8000001" stroke-linecap="round" fill="none"/>
    </g>
    <g transform="matrix(1,0,0,1,1139.04,327.6)" v:mID="42">
     <title>Sheet.42</title>
     <g transform="matrix(1,0,0,1,0,0)">
      <text x="4" y="14.400001" class="TextStyle2" fill="#000000" opacity="1" transform="matrix(1,0,0,-1,0,23.4)">Fail</text>
     </g>
    </g>
    <g transform="matrix(-0,-1,1,0,1009.44006,288.00003)" v:mID="43">
     <title>Sheet.43</title>
     <path d="M125.423995972,-2.880000114 L130.896011353,0 L125.423995972,2.880000114 Z" stroke="#5D9E56" stroke-width="2" fill="#5D9E56"  fill-rule="evenodd" transform="matrix(1,0,0,1,0,0)"/>
     <path d="M0,0 L130.320007324,0 " stroke="#5D9E56" stroke-width="2" stroke-linecap="round" fill="none"/>
    </g>
    <g transform="matrix(1,0,0,1,1020.96,206.64)" v:mID="44">
     <title>Sheet.44</title>
     <g transform="matrix(1,0,0,1,0,0)">
      <text x="4" y="9.6" class="TextStyle3" fill="#1C5C8B" opacity="1" transform="matrix(1,0,0,-1,0,17.400002)">Fail</text>
     </g>
    </g>
    <g transform="matrix(1,0,0,1,1072.8,99.36)" v:mID="45">
     <title>Sheet.45</title>
     <path d="M39.02399826,-2.880000114 L44.495998383,0 L39.02399826,2.880000114 Z" stroke="#5D9E56" stroke-width="1.7" fill="#5D9E56"  fill-rule="evenodd" transform="matrix(1,0,0,1,0,0)"/>
     <path d="M0,0 L43.919998169,0 " stroke="#5D9E56" stroke-width="1.7" stroke-linecap="round" fill="none"/>
    </g>
    <g transform="matrix(1,0,0,1,1160.64,75.6)" v:mID="46">
     <title>Sheet.46</title>
     <g transform="matrix(1,0,0,1,0,0)">
      <text x="4" y="0" class="TextStyle2" fill="#000000" opacity="1" transform="matrix(1,0,0,-1,0,36)">Human</text>
      <text x="4" y="28.800001" class="TextStyle2" fill="#000000" opacity="1" transform="matrix(1,0,0,-1,0,36)">Queue</text>
     </g>
    </g>
    <g transform="matrix(1,0,0,1,410.4,105.840004)" v:mID="47">
     <title>Sheet.47</title>
     <ellipse cx="31.68" cy="9" rx="31.68000030517578" ry="9" stroke="#1C5C8B" stroke-width="2" stroke-linecap="round" fill="#145B99"  fill-rule="evenodd"/>
    </g>
    <g transform="matrix(-0,-1,1,0,410.4,115.19999)" v:mID="48">
     <title>Sheet.48</title>
     <path d="M0,0 L46.799999237,0 " stroke="#FFFFFF" stroke-width="2" stroke-linecap="round" fill="none"/>
    </g>
    <g transform="matrix(-0,-1,1,0,473.76,115.19999)" v:mID="49">
     <title>Sheet.49</title>
     <path d="M0,0 L46.799999237,0 " stroke="#FFFFFF" stroke-width="2" stroke-linecap="round" fill="none"/>
    </g>
    <g transform="matrix(1,0,0,1,410.4,88.56)" v:mID="50">
     <title>Sheet.50</title>
     <ellipse cx="31.68" cy="9" rx="31.68000030517578" ry="9" stroke="#FFFFFF" stroke-width="2" stroke-linecap="round" fill="none"/>
    </g>
    <g transform="matrix(1,0,0,1,410.4,70.56)" v:mID="51">
     <title>Sheet.51</title>
     <ellipse cx="31.68" cy="9" rx="31.68000030517578" ry="9" stroke="#FFFFFF" stroke-width="2" stroke-linecap="round" fill="none"/>
    </g>
    <g transform="matrix(1,0,0,1,410.4,52.56)" v:mID="52">
     <title>Sheet.52</title>
     <ellipse cx="31.68" cy="9" rx="31.68000030517578" ry="9" stroke="#FFFFFF" stroke-width="2" stroke-linecap="round" fill="none"/>
    </g>
    <g transform="matrix(1,0,0,1,460.8,82.08)" v:mID="53">
     <title>Sheet.53</title>
     <ellipse cx="2.1599999999999864" cy="2.160000000000018" rx="2.1599998474121094" ry="2.1599998474121094" stroke="#FFFFFF" stroke-width="1" stroke-linecap="round" fill="#FFFFFF"  fill-rule="evenodd"/>
    </g>
    <g transform="matrix(1,0,0,1,460.8,62.639996)" v:mID="54">
     <title>Sheet.54</title>
     <ellipse cx="2.1599999999999864" cy="2.160000000000018" rx="2.1599998474121094" ry="2.1599998474121094" stroke="#FFFFFF" stroke-width="1" stroke-linecap="round" fill="#FFFFFF"  fill-rule="evenodd"/>
    </g>
    <g transform="matrix(-0,-1,1,0,975.60004,596.16003)" v:mID="55">
     <title>Sheet.55</title>
     <path d="M0,0 L38.159996033,0 " stroke="#1C5C8B" stroke-width="3" stroke-linecap="round" fill="none"/>
    </g>
    <g transform="matrix(-0,-1,1,0,1044,596.1601)" v:mID="56">
     <title>Sheet.56</title>
     <path d="M0,0 L38.159996033,0 " stroke="#1C5C8B" stroke-width="3" stroke-linecap="round" fill="none"/>
    </g>
    <g transform="matrix(1,0,0,1,995.04004,620.64)" v:mID="57">
     <title>Sheet.57</title>
     <path d="M0,0 L28.800001144,0 " stroke="#1C5C8B" stroke-width="2.5" stroke-linecap="round" fill="none"/>
    </g>
    <g transform="matrix(-0,-1,1,0,1009.44006,637.2001)" v:mID="58">
     <title>Sheet.58</title>
     <path d="M0,0 L16.559999466,0 " stroke="#1C5C8B" stroke-width="2.5" stroke-linecap="round" fill="none"/>
    </g>
    <g transform="matrix(1,0,0,1,1005.12,635.04004)" v:mID="59">
     <title>Sheet.59</title>
     <ellipse cx="4.680000000000028" cy="4.679999999999964" rx="4.679999828338623" ry="4.679999828338623" stroke="#1C5C8B" stroke-width="2" stroke-linecap="round" fill="#1C5C8B"  fill-rule="evenodd"/>
    </g>
    <g transform="matrix(1,0,0,1,980.63995,566.64)" v:mID="60">
     <title>Sheet.60</title>
     <path d="M5.759999752,0 L53.279998779,0 L53.279998779,0 C54.807060242,0.000000148 56.273139954,0.607270002 57.352935791,1.687065363 L57.352935791,1.687065363 C58.432735443,2.766860485 59.040000916,4.232939243 59.040000916,5.760000229 L59.040000916,5.759999752 L59.040000916,36 L59.040000916,36 C59.040000916,37.527061462 58.432735443,38.993141174 57.352935791,40.072937012 L57.352935791,40.072937012 C56.273139954,41.152732849 54.807060242,41.759998322 53.279998779,41.759998322 L53.279998779,41.759998322 C53.279998779,41.759998322 53.279998779,41.759998322 53.279998779,41.759998322 L53.279998779,41.759998322 L5.759999752,41.759998322 L5.759999752,41.759998322 C4.232938766,41.759998322 2.766860008,41.152732849 1.687064886,40.072937012 L1.687064886,40.072937012 C0.607269704,38.993141174 0,37.527061462 0,36 L0,36 C-0,36 0,36 0,36 L0,36 L0,5.759999752 L0,5.759999752 C-0,4.232938766 0.607269704,2.766860008 1.687064886,1.687064886 L1.687064886,1.687064886 C2.766860008,0.607269704 4.232938766,0 5.759999752,0 Z" stroke="#1C5C8B" stroke-width="2.5" stroke-linecap="round" fill="none"/>
    </g>
    <g transform="matrix(1,0,0,1,995.04004,578.16003)" v:mID="61">
     <title>Sheet.61</title>
     <path d="M3.600000143,0 L27.36000061,0 L27.36000061,0 C28.314413071,-0.000000077 29.230710983,0.379543394 29.905582428,1.054415345 L29.905582428,1.054415345 C30.58045578,1.729287386 30.960000992,2.645586729 30.960000992,3.599999905 L30.960000992,3.600000143 L30.960000992,12.239999771 L30.960000992,12.239999771 C30.960000992,13.194414139 30.58045578,14.110713005 29.905582428,14.785585403 L29.905582428,14.785585403 C29.230710983,15.460456848 28.314413071,15.840000153 27.36000061,15.840000153 L27.36000061,15.840000153 L3.600000143,15.840000153 L3.600000143,15.840000153 C2.645586967,15.840000153 1.729287624,15.460456848 1.054415584,14.785585403 L1.054415584,14.785585403 C0.379543543,14.110713005 0,13.194414139 0,12.239999771 L0,12.239999771 C-0,12.239999771 -0,12.239999771 0,12.239999771 L0,12.239999771 L0,3.600000143 L0,3.600000143 C-0,2.645586967 0.379543543,1.729287624 1.054415584,1.054415584 L1.054415584,1.054415584 C1.729287624,0.379543543 2.645586967,0 3.600000143,0 Z" stroke="#1C5C8B" stroke-width="2.5" stroke-linecap="round" fill="#1C5C8B"  fill-rule="evenodd"/>
    </g>
    <g transform="matrix(1,0,0,1,1002.24,584.63995)" v:mID="62">
     <title>Sheet.62</title>
     <ellipse cx="2.5200000000000102" cy="2.519999999999946" rx="2.5199999809265137" ry="2.5199999809265137" stroke="#FFFFFF" stroke-width="1.5" stroke-linecap="round" fill="#FFFFFF"  fill-rule="evenodd"/>
    </g>
    <g transform="matrix(1,0,0,1,1016.63995,584.63995)" v:mID="63">
     <title>Sheet.63</title>
     <ellipse cx="2.5200000000000102" cy="2.519999999999946" rx="2.5199999809265137" ry="2.5199999809265137" stroke="#FFFFFF" stroke-width="1.5" stroke-linecap="round" fill="#FFFFFF"  fill-rule="evenodd"/>
    </g>
    <g transform="matrix(1,0,0,1,1034.64,342)" v:mID="64">
     <title>Sheet.64</title>
     <path d="M0,0 L13.680000305,0 " stroke="#1C5C8B" stroke-width="3" stroke-linecap="round" fill="none"/>
    </g>
    <g transform="matrix(0.8660254,-0.5,0.5,0.8660254,1031.2639,329.40002)" v:mID="65">
     <title>Sheet.65</title>
     <path d="M0,0 L13.680000305,0 " stroke="#1C5C8B" stroke-width="3" stroke-linecap="round" fill="none"/>
    </g>
    <g transform="matrix(0.5,-0.8660254,0.8660254,0.5,1022.04,320.17624)" v:mID="66">
     <title>Sheet.66</title>
     <path d="M0,0 L13.680000305,0 " stroke="#1C5C8B" stroke-width="3" stroke-linecap="round" fill="none"/>
    </g>
    <g transform="matrix(-0,-1,1,0,1009.44006,316.79996)" v:mID="67">
     <title>Sheet.67</title>
     <path d="M0,0 L13.680000305,0 " stroke="#1C5C8B" stroke-width="3" stroke-linecap="round" fill="none"/>
    </g>
    <g transform="matrix(-0.5,-0.8660254,0.8660254,-0.5,996.8399,320.17624)" v:mID="68">
     <title>Sheet.68</title>
     <path d="M0,0 L13.680000305,0 " stroke="#1C5C8B" stroke-width="3" stroke-linecap="round" fill="none"/>
    </g>
    <g transform="matrix(-0.8660254,-0.5,0.5,-0.8660254,987.61615,329.40005)" v:mID="69">
     <title>Sheet.69</title>
     <path d="M0,0 L13.680000305,0 " stroke="#1C5C8B" stroke-width="3" stroke-linecap="round" fill="none"/>
    </g>
    <g transform="matrix(-1,0,0,-1,984.24,342)" v:mID="70">
     <title>Sheet.70</title>
     <path d="M0,0 L13.680000305,0 " stroke="#1C5C8B" stroke-width="3" stroke-linecap="round" fill="none"/>
    </g>
    <g transform="matrix(-0.8660254,0.5,-0.5,-0.8660254,987.6162,354.59998)" v:mID="71">
     <title>Sheet.71</title>
     <path d="M0,0 L13.680000305,0 " stroke="#1C5C8B" stroke-width="3" stroke-linecap="round" fill="none"/>
    </g>
    <g transform="matrix(-0.5,0.8660254,-0.8660254,-0.5,996.8399,363.82382)" v:mID="72">
     <title>Sheet.72</title>
     <path d="M0,0 L13.680000305,0 " stroke="#1C5C8B" stroke-width="3" stroke-linecap="round" fill="none"/>
    </g>
    <g transform="matrix(0,1,-1,-0,1009.44006,367.20004)" v:mID="73">
     <title>Sheet.73</title>
     <path d="M0,0 L13.680000305,0 " stroke="#1C5C8B" stroke-width="3" stroke-linecap="round" fill="none"/>
    </g>
    <g transform="matrix(0.5,0.8660254,-0.8660254,0.5,1022.04,363.82382)" v:mID="74">
     <title>Sheet.74</title>
     <path d="M0,0 L13.680000305,0 " stroke="#1C5C8B" stroke-width="3" stroke-linecap="round" fill="none"/>
    </g>
    <g transform="matrix(0.8660254,0.5,-0.5,0.8660254,1031.2639,354.59998)" v:mID="75">
     <title>Sheet.75</title>
     <path d="M0,0 L13.680000305,0 " stroke="#1C5C8B" stroke-width="3" stroke-linecap="round" fill="none"/>
    </g>
    <g transform="matrix(1,0,0,1,975.60004,308.16)" v:mID="76">
     <title>Sheet.76</title>
     <ellipse cx="33.839999999999996" cy="33.839999999999996" rx="33.84000015258789" ry="33.84000015258789" stroke="#1C5C8B" stroke-width="2.5" stroke-linecap="round" fill="none"/>
    </g>
    <g transform="matrix(1,0,0,1,996.48004,329.04)" v:mID="77">
     <title>Sheet.77</title>
     <ellipse cx="12.959999999999999" cy="12.959999999999999" rx="12.960000991821289" ry="12.960000991821289" stroke="#1C5C8B" stroke-width="2.5" stroke-linecap="round" fill="none"/>
    </g>
    <g transform="matrix(1,0,0,1,982.07996,67.68)" v:mID="78">
     <title>Sheet.78</title>
     <path d="M2.159999847,0 L46.799999237,0 L46.799999237,0 C47.372646332,-0.000000468 47.922424316,0.227725193 48.327346802,0.63264811 L48.327346802,0.63264811 C48.732269287,1.037570953 48.95999527,1.587350368 48.95999527,2.159998178 L48.959999084,2.159999847 L48.959999084,61.200000763 L48.95999527,61.200000763 C48.95999527,61.772651672 48.732269287,62.322429657 48.327346802,62.727355957 L48.327346802,62.727355957 C47.922424316,63.132278442 47.372646332,63.36000061 46.799999237,63.36000061 L46.799999237,63.36000061 L2.159999847,63.36000061 L2.159999847,63.36000061 C1.587352037,63.36000061 1.037572622,63.132274628 0.632649362,62.727348328 L0.632649362,62.727348328 C0.227726147,62.322425842 0,61.772651672 0,61.200000763 L0,61.200000763 C-0,61.200000763 -0,61.200000763 0,61.200000763 L0,61.200000763 L0,2.159999847 L0,2.159999847 C-0,1.587352037 0.227726147,1.037572622 0.632649362,0.632649362 L0.632649362,0.632649362 C1.037572622,0.227726147 1.587352037,0 2.159999847,0 Z" stroke="#1C5C8B" stroke-width="2.5" stroke-linecap="round" fill="none"/>
    </g>
    <g transform="matrix(1,0,0,1,995.0399,128.16)" v:mID="79">
     <title>Sheet.79</title>
     <path d="M1.439999938,0 L21.600000381,0 L21.600000381,0 C21.981767654,0.000000219 22.348287582,0.151817843 22.618236542,0.421766818 L22.618236542,0.421766818 C22.888183594,0.691715777 23.040000916,1.058235526 23.040000916,1.440000772 L23.039999008,1.439999938 L23.039999008,7.200000286 L23.040000916,7.199999809 C23.040000916,7.581764698 22.888181686,7.948284149 22.618234634,8.218233109 L22.618234634,8.218233109 C22.348285675,8.488182068 21.981767654,8.63999939 21.600000381,8.63999939 L21.600000381,8.63999939 C21.600000381,8.63999939 21.600000381,8.63999939 21.600000381,8.63999939 L21.600000381,8.63999939 L1.439999938,8.63999939 L1.439999938,8.63999939 C1.058234692,8.63999939 0.691715002,8.488182068 0.421766222,8.218233109 L0.421766222,8.218233109 C0.151817426,7.948284149 0,7.581764698 0,7.199999809 L0,7.199999809 C-0,7.199999809 -0,7.199999809 0,7.199999809 L0,7.200000286 L0,1.439999938 L0,1.439999938 C-0,1.058234692 0.151817426,0.691715002 0.421766222,0.421766222 L0.421766222,0.421766222 C0.691715002,0.151817426 1.058234692,0 1.439999938,0 Z" stroke="#1C5C8B" stroke-width="2.5" stroke-linecap="round" fill="none"/>
    </g>
    <g transform="matrix(1,0,0,1,990.7201,66.23999)" v:mID="81">
     <title>Sheet.81</title>
     <ellipse cx="18.72" cy="10.080000000000002" rx="18.719999313354492" ry="10.079999923706055" stroke="#1C5C8B" stroke-width="2" stroke-linecap="round" fill="#1C5C8B"  fill-rule="evenodd"/>
    </g>
    <g transform="matrix(1,0,0,1,93.59999,664.56)" v:mID="2">
     <title>Sheet.2</title>
     <g transform="matrix(1,0,0,1,5.7599998,-5.7599998)" v:mID="2">
      <title>Sheet.2</title>
      <path d="M8.63999939,0 L416.160003662,0 L416.160003662,0 C418.450592041,0.000003954 420.649749756,0.910912275 422.269439697,2.530607939 L422.269439697,2.530607939 C423.889129639,4.150303364 424.800018311,6.349423409 424.800018311,8.640014648 L424.800018311,8.63999939 L424.800018311,66.959999084 L424.800018311,66.959999084 C424.800018311,69.250595093 423.889099121,71.449714661 422.26940918,73.069404602 L422.26940918,73.069404602 C420.649719238,74.689102173 418.450592041,75.599998474 416.160003662,75.599998474 L416.160003662,75.599998474 L8.63999939,75.599998474 L8.63999939,75.599998474 C6.34940815,75.599998474 4.150290489,74.689094543 2.530597448,73.069396973 L2.530597448,73.069396973 C0.910904586,71.449707031 0,69.250595093 0,66.959999084 L0,66.959999084 C-0,66.959999084 -0,66.959999084 0,66.959999084 L0,66.959999084 L0,8.63999939 L0,8.63999939 C-0,6.34940815 0.910904586,4.150290489 2.530597448,2.530597448 L2.530597448,2.530597448 C4.150290489,0.910904586 6.34940815,0 8.63999939,0 Z" stroke="none" stroke-width="0" fill="#000000"  fill-rule="evenodd"/>
     </g>
     <path d="M8.63999939,0 L416.160003662,0 L416.160003662,0 C418.450592041,0.000003954 420.649749756,0.910912275 422.269439697,2.530607939 L422.269439697,2.530607939 C423.889129639,4.150303364 424.800018311,6.349423409 424.800018311,8.640014648 L424.800018311,8.63999939 L424.800018311,66.959999084 L424.800018311,66.959999084 C424.800018311,69.250595093 423.889099121,71.449714661 422.26940918,73.069404602 L422.26940918,73.069404602 C420.649719238,74.689102173 418.450592041,75.599998474 416.160003662,75.599998474 L416.160003662,75.599998474 L8.63999939,75.599998474 L8.63999939,75.599998474 C6.34940815,75.599998474 4.150290489,74.689094543 2.530597448,73.069396973 L2.530597448,73.069396973 C0.910904586,71.449707031 0,69.250595093 0,66.959999084 L0,66.959999084 C-0,66.959999084 -0,66.959999084 0,66.959999084 L0,66.959999084 L0,8.63999939 L0,8.63999939 C-0,6.34940815 0.910904586,4.150290489 2.530597448,2.530597448 L2.530597448,2.530597448 C4.150290489,0.910904586 6.34940815,0 8.63999939,0 Z" stroke="#6DB067" stroke-width="1.3000001" stroke-linecap="round" fill="#E2F8D2"  fill-rule="evenodd"/>
     <g transform="matrix(1,0,0,1,0,0)">
      <text x="133.44493" y="14.400001" class="TextStyle4" fill="#000000" opacity="1" transform="matrix(1,0,0,-1,0,45)">Raw Data Influx</text>
     </g>
    </g>
    <g transform="matrix(1,0,0,1,93.59999,547.2)" v:mID="3">
     <title>Sheet.3</title>
     <g transform="matrix(1,0,0,1,5.7599998,-5.7599998)" v:mID="3">
      <title>Sheet.3</title>
      <path d="M7.200000286,0 L417.600006104,0 L417.600006104,0 C419.508850098,0.000003669 421.341430664,0.759094298 422.691192627,2.108840942 L422.691192627,2.108840942 C424.040924072,3.458587646 424.800018311,5.291187763 424.800018311,7.200014114 L424.800018311,7.200000286 L424.800018311,68.400001526 L424.800018311,68.400001526 C424.800018311,70.308822632 424.040924072,72.141426086 422.691192627,73.491172791 L422.691192627,73.491172791 C421.341430664,74.840919495 419.508850098,75.599998474 417.600006104,75.599998474 L417.600006104,75.599998474 L7.200000286,75.599998474 L7.200000286,75.599998474 C5.291173935,75.599998474 3.458575249,74.840919495 2.108831167,73.491172791 L2.108831167,73.491172791 C0.759087086,72.141426086 0,70.308822632 0,68.400001526 L0,68.400001526 C-0,68.400001526 -0,68.400001526 0,68.400001526 L0,68.400001526 L0,7.200000286 L0,7.200000286 C-0,5.291173935 0.759087086,3.458575249 2.108831167,2.108831167 L2.108831167,2.108831167 C3.458575249,0.759087086 5.291173935,0 7.200000286,0 Z" stroke="none" stroke-width="0" fill="#000000"  fill-rule="evenodd"/>
     </g>
     <path d="M7.200000286,0 L417.600006104,0 L417.600006104,0 C419.508850098,0.000003669 421.341430664,0.759094298 422.691192627,2.108840942 L422.691192627,2.108840942 C424.040924072,3.458587646 424.800018311,5.291187763 424.800018311,7.200014114 L424.800018311,7.200000286 L424.800018311,68.400001526 L424.800018311,68.400001526 C424.800018311,70.308822632 424.040924072,72.141426086 422.691192627,73.491172791 L422.691192627,73.491172791 C421.341430664,74.840919495 419.508850098,75.599998474 417.600006104,75.599998474 L417.600006104,75.599998474 L7.200000286,75.599998474 L7.200000286,75.599998474 C5.291173935,75.599998474 3.458575249,74.840919495 2.108831167,73.491172791 L2.108831167,73.491172791 C0.759087086,72.141426086 0,70.308822632 0,68.400001526 L0,68.400001526 C-0,68.400001526 -0,68.400001526 0,68.400001526 L0,68.400001526 L0,7.200000286 L0,7.200000286 C-0,5.291173935 0.759087086,3.458575249 2.108831167,2.108831167 L2.108831167,2.108831167 C3.458575249,0.759087086 5.291173935,0 7.200000286,0 Z" stroke="#3D81B3" stroke-width="1.3000001" stroke-linecap="round" fill="#CCE4F9"  fill-rule="evenodd"/>
     <g transform="matrix(1,0,0,1,0,0)">
      <text x="176.32971" y="14.400001" class="TextStyle4" fill="#000000" opacity="1" transform="matrix(1,0,0,-1,0,45)">Format</text>
     </g>
    </g>
    <g transform="matrix(1,0,0,1,93.59999,426.24002)" v:mID="4">
     <title>Sheet.4</title>
     <g transform="matrix(1,0,0,1,5.7599998,-5.7599998)" v:mID="4">
      <title>Sheet.4</title>
      <path d="M7.200000286,0 L417.600006104,0 L417.600006104,0 C419.508850098,0.000003669 421.341430664,0.759094298 422.691192627,2.108840942 L422.691192627,2.108840942 C424.040924072,3.458587646 424.800018311,5.291187763 424.800018311,7.200014114 L424.800018311,7.200000286 L424.800018311,68.400001526 L424.800018311,68.400001526 C424.800018311,70.308822632 424.040924072,72.141426086 422.691192627,73.491172791 L422.691192627,73.491172791 C421.341430664,74.840919495 419.508850098,75.599998474 417.600006104,75.599998474 L417.600006104,75.599998474 L7.200000286,75.599998474 L7.200000286,75.599998474 C5.291173935,75.599998474 3.458575249,74.840919495 2.108831167,73.491172791 L2.108831167,73.491172791 C0.759087086,72.141426086 0,70.308822632 0,68.400001526 L0,68.400001526 C-0,68.400001526 -0,68.400001526 0,68.400001526 L0,68.400001526 L0,7.200000286 L0,7.200000286 C-0,5.291173935 0.759087086,3.458575249 2.108831167,2.108831167 L2.108831167,2.108831167 C3.458575249,0.759087086 5.291173935,0 7.200000286,0 Z" stroke="none" stroke-width="0" fill="#000000"  fill-rule="evenodd"/>
     </g>
     <path d="M7.200000286,0 L417.600006104,0 L417.600006104,0 C419.508850098,0.000003669 421.341430664,0.759094298 422.691192627,2.108840942 L422.691192627,2.108840942 C424.040924072,3.458587646 424.800018311,5.291187763 424.800018311,7.200014114 L424.800018311,7.200000286 L424.800018311,68.400001526 L424.800018311,68.400001526 C424.800018311,70.308822632 424.040924072,72.141426086 422.691192627,73.491172791 L422.691192627,73.491172791 C421.341430664,74.840919495 419.508850098,75.599998474 417.600006104,75.599998474 L417.600006104,75.599998474 L7.200000286,75.599998474 L7.200000286,75.599998474 C5.291173935,75.599998474 3.458575249,74.840919495 2.108831167,73.491172791 L2.108831167,73.491172791 C0.759087086,72.141426086 0,70.308822632 0,68.400001526 L0,68.400001526 C-0,68.400001526 -0,68.400001526 0,68.400001526 L0,68.400001526 L0,7.200000286 L0,7.200000286 C-0,5.291173935 0.759087086,3.458575249 2.108831167,2.108831167 L2.108831167,2.108831167 C3.458575249,0.759087086 5.291173935,0 7.200000286,0 Z" stroke="#3D81B3" stroke-width="1.3000001" stroke-linecap="round" fill="#CCE4F9"  fill-rule="evenodd"/>
     <g transform="matrix(1,0,0,1,0,0)">
      <text x="142.15198" y="14.400001" class="TextStyle4" fill="#000000" opacity="1" transform="matrix(1,0,0,-1,0,45)">Completeness</text>
     </g>
    </g>
    <g transform="matrix(1,0,0,1,93.59999,304.56003)" v:mID="5">
     <title>Sheet.5</title>
     <g transform="matrix(1,0,0,1,5.7599998,-5.7599998)" v:mID="5">
      <title>Sheet.5</title>
      <path d="M7.200000286,0 L417.600006104,0 L417.600006104,0 C419.508850098,0.000003669 421.341430664,0.759094298 422.691192627,2.108840942 L422.691192627,2.108840942 C424.040924072,3.458587646 424.800018311,5.291187763 424.800018311,7.200014114 L424.800018311,7.200000286 L424.800018311,68.400001526 L424.800018311,68.400001526 C424.800018311,70.308822632 424.040924072,72.141426086 422.691192627,73.491172791 L422.691192627,73.491172791 C421.341430664,74.840919495 419.508850098,75.599998474 417.600006104,75.599998474 L417.600006104,75.599998474 L7.200000286,75.599998474 L7.200000286,75.599998474 C5.291173935,75.599998474 3.458575249,74.840919495 2.108831167,73.491172791 L2.108831167,73.491172791 C0.759087086,72.141426086 0,70.308822632 0,68.400001526 L0,68.400001526 C-0,68.400001526 -0,68.400001526 0,68.400001526 L0,68.400001526 L0,7.200000286 L0,7.200000286 C-0,5.291173935 0.759087086,3.458575249 2.108831167,2.108831167 L2.108831167,2.108831167 C3.458575249,0.759087086 5.291173935,0 7.200000286,0 Z" stroke="none" stroke-width="0" fill="#000000"  fill-rule="evenodd"/>
     </g>
     <path d="M7.200000286,0 L417.600006104,0 L417.600006104,0 C419.508850098,0.000003669 421.341430664,0.759094298 422.691192627,2.108840942 L422.691192627,2.108840942 C424.040924072,3.458587646 424.800018311,5.291187763 424.800018311,7.200014114 L424.800018311,7.200000286 L424.800018311,68.400001526 L424.800018311,68.400001526 C424.800018311,70.308822632 424.040924072,72.141426086 422.691192627,73.491172791 L422.691192627,73.491172791 C421.341430664,74.840919495 419.508850098,75.599998474 417.600006104,75.599998474 L417.600006104,75.599998474 L7.200000286,75.599998474 L7.200000286,75.599998474 C5.291173935,75.599998474 3.458575249,74.840919495 2.108831167,73.491172791 L2.108831167,73.491172791 C0.759087086,72.141426086 0,70.308822632 0,68.400001526 L0,68.400001526 C-0,68.400001526 -0,68.400001526 0,68.400001526 L0,68.400001526 L0,7.200000286 L0,7.200000286 C-0,5.291173935 0.759087086,3.458575249 2.108831167,2.108831167 L2.108831167,2.108831167 C3.458575249,0.759087086 5.291173935,0 7.200000286,0 Z" stroke="#3D81B3" stroke-width="1.3000001" stroke-linecap="round" fill="#CCE4F9"  fill-rule="evenodd"/>
     <g transform="matrix(1,0,0,1,0,0)">
      <text x="166.43323" y="14.400001" class="TextStyle4" fill="#000000" opacity="1" transform="matrix(1,0,0,-1,0,45)">Semantic</text>
     </g>
    </g>
    <g transform="matrix(1,0,0,1,93.59999,185.04)" v:mID="6">
     <title>Sheet.6</title>
     <g transform="matrix(1,0,0,1,5.7599998,-5.7599998)" v:mID="6">
      <title>Sheet.6</title>
      <path d="M7.200000286,0 L417.600006104,0 L417.600006104,0 C419.508850098,0.000003669 421.341430664,0.759094298 422.691192627,2.108840942 L422.691192627,2.108840942 C424.040924072,3.458587646 424.800018311,5.291187763 424.800018311,7.200014114 L424.800018311,7.200000286 L424.800018311,68.400001526 L424.800018311,68.400001526 C424.800018311,70.308822632 424.040924072,72.141426086 422.691192627,73.491172791 L422.691192627,73.491172791 C421.341430664,74.840919495 419.508850098,75.599998474 417.600006104,75.599998474 L417.600006104,75.599998474 L7.200000286,75.599998474 L7.200000286,75.599998474 C5.291173935,75.599998474 3.458575249,74.840919495 2.108831167,73.491172791 L2.108831167,73.491172791 C0.759087086,72.141426086 0,70.308822632 0,68.400001526 L0,68.400001526 C-0,68.400001526 -0,68.400001526 0,68.400001526 L0,68.400001526 L0,7.200000286 L0,7.200000286 C-0,5.291173935 0.759087086,3.458575249 2.108831167,2.108831167 L2.108831167,2.108831167 C3.458575249,0.759087086 5.291173935,0 7.200000286,0 Z" stroke="none" stroke-width="0" fill="#000000"  fill-rule="evenodd"/>
     </g>
     <path d="M7.200000286,0 L417.600006104,0 L417.600006104,0 C419.508850098,0.000003669 421.341430664,0.759094298 422.691192627,2.108840942 L422.691192627,2.108840942 C424.040924072,3.458587646 424.800018311,5.291187763 424.800018311,7.200014114 L424.800018311,7.200000286 L424.800018311,68.400001526 L424.800018311,68.400001526 C424.800018311,70.308822632 424.040924072,72.141426086 422.691192627,73.491172791 L422.691192627,73.491172791 C421.341430664,74.840919495 419.508850098,75.599998474 417.600006104,75.599998474 L417.600006104,75.599998474 L7.200000286,75.599998474 L7.200000286,75.599998474 C5.291173935,75.599998474 3.458575249,74.840919495 2.108831167,73.491172791 L2.108831167,73.491172791 C0.759087086,72.141426086 0,70.308822632 0,68.400001526 L0,68.400001526 C-0,68.400001526 -0,68.400001526 0,68.400001526 L0,68.400001526 L0,7.200000286 L0,7.200000286 C-0,5.291173935 0.759087086,3.458575249 2.108831167,2.108831167 L2.108831167,2.108831167 C3.458575249,0.759087086 5.291173935,0 7.200000286,0 Z" stroke="#6DB067" stroke-width="1.3000001" stroke-linecap="round" fill="#E2F8D2"  fill-rule="evenodd"/>
     <g transform="matrix(1,0,0,1,0,0)">
      <text x="135.03282" y="14.400001" class="TextStyle4" fill="#000000" opacity="1" transform="matrix(1,0,0,-1,0,45)">Quality Tagging</text>
     </g>
    </g>
    <g transform="matrix(1,0,0,1,93.59999,61.2)" v:mID="7">
     <title>Sheet.7</title>
     <g transform="matrix(1,0,0,1,5.7599998,-5.7599998)" v:mID="7">
      <title>Sheet.7</title>
      <path d="M7.200000286,0 L363.600006104,0 L363.600006104,0 C365.508850098,0.000003669 367.341430664,0.759094298 368.691192627,2.108840942 L368.691192627,2.108840942 C370.040924072,3.458587646 370.800018311,5.291187763 370.800018311,7.200014114 L370.800018311,7.200000286 L370.800018311,68.400001526 L370.800018311,68.400001526 C370.800018311,70.308822632 370.040924072,72.141426086 368.691192627,73.491172791 L368.691192627,73.491172791 C367.341430664,74.840919495 365.508850098,75.599998474 363.600006104,75.599998474 L363.600006104,75.599998474 L7.200000286,75.599998474 L7.200000286,75.599998474 C5.291173935,75.599998474 3.458575249,74.840919495 2.108831167,73.491172791 L2.108831167,73.491172791 C0.759087086,72.141426086 0,70.308822632 0,68.400001526 L0,68.400001526 C-0,68.400001526 -0,68.400001526 0,68.400001526 L0,68.400001526 L0,7.200000286 L0,7.200000286 C-0,5.291173935 0.759087086,3.458575249 2.108831167,2.108831167 L2.108831167,2.108831167 C3.458575249,0.759087086 5.291173935,0 7.200000286,0 Z" stroke="none" stroke-width="0" fill="#000000"  fill-rule="evenodd"/>
     </g>
     <path d="M7.200000286,0 L363.600006104,0 L363.600006104,0 C365.508850098,0.000003669 367.341430664,0.759094298 368.691192627,2.108840942 L368.691192627,2.108840942 C370.040924072,3.458587646 370.800018311,5.291187763 370.800018311,7.200014114 L370.800018311,7.200000286 L370.800018311,68.400001526 L370.800018311,68.400001526 C370.800018311,70.308822632 370.040924072,72.141426086 368.691192627,73.491172791 L368.691192627,73.491172791 C367.341430664,74.840919495 365.508850098,75.599998474 363.600006104,75.599998474 L363.600006104,75.599998474 L7.200000286,75.599998474 L7.200000286,75.599998474 C5.291173935,75.599998474 3.458575249,74.840919495 2.108831167,73.491172791 L2.108831167,73.491172791 C0.759087086,72.141426086 0,70.308822632 0,68.400001526 L0,68.400001526 C-0,68.400001526 -0,68.400001526 0,68.400001526 L0,68.400001526 L0,7.200000286 L0,7.200000286 C-0,5.291173935 0.759087086,3.458575249 2.108831167,2.108831167 L2.108831167,2.108831167 C3.458575249,0.759087086 5.291173935,0 7.200000286,0 Z" stroke="#6DB067" stroke-width="1.3000001" stroke-linecap="round" fill="#E2F8D2"  fill-rule="evenodd"/>
     <g transform="matrix(1,0,0,1,0,0)">
      <text x="120.91173" y="14.400001" class="TextStyle4" fill="#000000" opacity="1" transform="matrix(1,0,0,-1,0,45)">Data Storage</text>
     </g>
    </g>
    <g transform="matrix(1,0,0,1,380.16,39.600002)" v:mID="8">
     <title>Sheet.8</title>
     <g transform="matrix(1,0,0,1,5.7599998,-5.7599998)" v:mID="8">
      <title>Sheet.8</title>
      <path d="M8.63999939,0 L117.36000061,0 L117.36000061,0 C119.650588989,-0.000000142 121.849708557,0.910904109 123.469406128,2.530596972 L123.469406128,2.530596972 C125.089096069,4.150289536 126,6.349407673 126,8.63999939 L126,8.63999939 L126,102.959999084 L126,102.959999084 C126,105.250587463 125.089096069,107.449707031 123.469406128,109.069396973 L123.469406128,109.069396973 C121.849708557,110.689094543 119.650588989,111.599998474 117.36000061,111.599998474 L117.36000061,111.599998474 L8.63999939,111.599998474 L8.63999939,111.599998474 C6.34940815,111.599998474 4.150290489,110.689094543 2.530597448,109.069396973 L2.530597448,109.069396973 C0.910904586,107.449707031 -0,105.250587463 0,102.959999084 L0,102.959999084 C0,102.959999084 0,102.959999084 0,102.959999084 L0,102.959999084 L0,8.63999939 L0,8.63999939 C-0,6.34940815 0.910904586,4.150290489 2.530597448,2.530597448 L2.530597448,2.530597448 C4.150290489,0.910904586 6.34940815,0 8.63999939,0 Z" stroke="none" stroke-width="0" fill="#000000"  fill-rule="evenodd"/>
     </g>
     <path d="M8.63999939,0 L117.36000061,0 L117.36000061,0 C119.650588989,-0.000000142 121.849708557,0.910904109 123.469406128,2.530596972 L123.469406128,2.530596972 C125.089096069,4.150289536 126,6.349407673 126,8.63999939 L126,8.63999939 L126,102.959999084 L126,102.959999084 C126,105.250587463 125.089096069,107.449707031 123.469406128,109.069396973 L123.469406128,109.069396973 C121.849708557,110.689094543 119.650588989,111.599998474 117.36000061,111.599998474 L117.36000061,111.599998474 L8.63999939,111.599998474 L8.63999939,111.599998474 C6.34940815,111.599998474 4.150290489,110.689094543 2.530597448,109.069396973 L2.530597448,109.069396973 C0.910904586,107.449707031 -0,105.250587463 0,102.959999084 L0,102.959999084 C0,102.959999084 0,102.959999084 0,102.959999084 L0,102.959999084 L0,8.63999939 L0,8.63999939 C-0,6.34940815 0.910904586,4.150290489 2.530597448,2.530597448 L2.530597448,2.530597448 C4.150290489,0.910904586 6.34940815,0 8.63999939,0 Z" stroke="#6DB067" stroke-width="1.3000001" stroke-linecap="round" fill="#E2F8D2"  fill-rule="evenodd"/>
    </g>
    <g transform="matrix(1,0,0,1,946.8,525.6)" v:mID="9">
     <title>Sheet.9</title>
     <path d="M10.079999924,0 L115.919998169,0 L115.919998169,0 C118.592353821,0.000000284 121.157997131,1.062722445 123.047637939,2.952364445 L123.047637939,2.952364445 C124.937278748,4.842006207 126,7.407644272 126,10.080000877 L126,10.079999924 L126,101.519996643 L126,101.519996643 C126,104.192352295 124.937278748,106.757995605 123.047637939,108.647636414 L123.047637939,108.647636414 C121.157997131,110.537277222 118.592353821,111.599998474 115.919998169,111.599998474 L115.919998169,111.599998474 L10.079999924,111.599998474 L10.079999924,111.599998474 C7.407643318,111.599998474 4.842005253,110.537277222 2.952363729,108.647636414 L2.952363729,108.647636414 C1.062722087,106.757995605 0,104.192352295 0,101.519996643 L0,101.519996643 C-0,101.519996643 0,101.519996643 0,101.519996643 L0,101.519996643 L0,10.079999924 L0,10.079999924 C-0,7.407643318 1.062722087,4.842005253 2.952363729,2.952363729 L2.952363729,2.952363729 C4.842005253,1.062722087 7.407643318,0 10.079999924,0 Z" stroke="#3D81B3" stroke-width="0.75" stroke-linecap="round" fill="#CCE4F9"  fill-rule="evenodd"/>
    </g>
    <g transform="matrix(1,0,0,1,946.8,288.00003)" v:mID="10">
     <title>Sheet.10</title>
     <path d="M10.079999924,0 L115.919998169,0 L115.919998169,0 C118.592353821,0.000000284 121.157997131,1.062722445 123.047637939,2.952364445 L123.047637939,2.952364445 C124.937278748,4.842006207 126,7.407644272 126,10.080000877 L126,10.079999924 L126,101.519996643 L126,101.519996643 C126,104.192352295 124.937278748,106.757995605 123.047637939,108.647636414 L123.047637939,108.647636414 C121.157997131,110.537277222 118.592353821,111.599998474 115.919998169,111.599998474 L115.919998169,111.599998474 L10.079999924,111.599998474 L10.079999924,111.599998474 C7.407643318,111.599998474 4.842005253,110.537277222 2.952363729,108.647636414 L2.952363729,108.647636414 C1.062722087,106.757995605 0,104.192352295 0,101.519996643 L0,101.519996643 C-0,101.519996643 0,101.519996643 0,101.519996643 L0,101.519996643 L0,10.079999924 L0,10.079999924 C-0,7.407643318 1.062722087,4.842005253 2.952363729,2.952363729 L2.952363729,2.952363729 C4.842005253,1.062722087 7.407643318,0 10.079999924,0 Z" stroke="#3D81B3" stroke-width="0.75" stroke-linecap="round" fill="#CCE4F9"  fill-rule="evenodd"/>
    </g>
    <g transform="matrix(1,0,0,1,946.8,43.2)" v:mID="11">
     <title>Sheet.11</title>
     <path d="M10.079999924,0 L115.919998169,0 L115.919998169,0 C118.592353821,0.000000284 121.157997131,1.062722445 123.047637939,2.952364445 L123.047637939,2.952364445 C124.937278748,4.842006207 126,7.407644272 126,10.080000877 L126,10.079999924 L126,101.519996643 L126,101.519996643 C126,104.192352295 124.937278748,106.757995605 123.047637939,108.647636414 L123.047637939,108.647636414 C121.157997131,110.537277222 118.592353821,111.599998474 115.919998169,111.599998474 L115.919998169,111.599998474 L10.079999924,111.599998474 L10.079999924,111.599998474 C7.407643318,111.599998474 4.842005253,110.537277222 2.952363729,108.647636414 L2.952363729,108.647636414 C1.062722087,106.757995605 0,104.192352295 0,101.519996643 L0,101.519996643 C-0,101.519996643 0,101.519996643 0,101.519996643 L0,101.519996643 L0,10.079999924 L0,10.079999924 C-0,7.407643318 1.062722087,4.842005253 2.952363729,2.952363729 L2.952363729,2.952363729 C4.842005253,1.062722087 7.407643318,0 10.079999924,0 Z" stroke="#6DB067" stroke-width="0.75" stroke-linecap="round" fill="#E2F8D2"  fill-rule="evenodd"/>
    </g>
    <g transform="matrix(1,0,0,1,410.4,105.840004)" v:mID="82">
     <title>Sheet.82</title>
     <ellipse cx="31.68" cy="9" rx="31.68000030517578" ry="9" stroke="#1C5C8B" stroke-width="2" stroke-linecap="round" fill="#145B99"  fill-rule="evenodd"/>
    </g>
    <g transform="matrix(-0,-1,1,0,410.4,115.19999)" v:mID="83">
     <title>Sheet.83</title>
     <path d="M0,0 L46.799999237,0 " stroke="#FFFFFF" stroke-width="2" stroke-linecap="round" fill="none"/>
    </g>
    <g transform="matrix(-0,-1,1,0,473.76,115.19999)" v:mID="84">
     <title>Sheet.84</title>
     <path d="M0,0 L46.799999237,0 " stroke="#FFFFFF" stroke-width="2" stroke-linecap="round" fill="none"/>
    </g>
    <g transform="matrix(1,0,0,1,410.4,88.56)" v:mID="85">
     <title>Sheet.85</title>
     <ellipse cx="31.68" cy="9" rx="31.68000030517578" ry="9" stroke="#FFFFFF" stroke-width="2" stroke-linecap="round" fill="none"/>
    </g>
    <g transform="matrix(1,0,0,1,410.4,70.56)" v:mID="86">
     <title>Sheet.86</title>
     <ellipse cx="31.68" cy="9" rx="31.68000030517578" ry="9" stroke="#FFFFFF" stroke-width="2" stroke-linecap="round" fill="none"/>
    </g>
    <g transform="matrix(1,0,0,1,410.4,52.56)" v:mID="87">
     <title>Sheet.87</title>
     <ellipse cx="31.68" cy="9" rx="31.68000030517578" ry="9" stroke="#FFFFFF" stroke-width="2" stroke-linecap="round" fill="none"/>
    </g>
    <g transform="matrix(1,0,0,1,460.8,82.08)" v:mID="88">
     <title>Sheet.88</title>
     <ellipse cx="2.1599999999999864" cy="2.160000000000018" rx="2.1599998474121094" ry="2.1599998474121094" stroke="#FFFFFF" stroke-width="1" stroke-linecap="round" fill="#FFFFFF"  fill-rule="evenodd"/>
    </g>
    <g transform="matrix(1,0,0,1,460.8,62.639996)" v:mID="89">
     <title>Sheet.89</title>
     <ellipse cx="2.1599999999999864" cy="2.160000000000018" rx="2.1599998474121094" ry="2.1599998474121094" stroke="#FFFFFF" stroke-width="1" stroke-linecap="round" fill="#FFFFFF"  fill-rule="evenodd"/>
    </g>
    <g transform="matrix(-0,-1,1,0,975.60004,596.16003)" v:mID="90">
     <title>Sheet.90</title>
     <path d="M0,0 L38.159996033,0 " stroke="#1C5C8B" stroke-width="3" stroke-linecap="round" fill="none"/>
    </g>
    <g transform="matrix(-0,-1,1,0,1044,596.1601)" v:mID="91">
     <title>Sheet.91</title>
     <path d="M0,0 L38.159996033,0 " stroke="#1C5C8B" stroke-width="3" stroke-linecap="round" fill="none"/>
    </g>
    <g transform="matrix(1,0,0,1,995.04004,620.64)" v:mID="92">
     <title>Sheet.92</title>
     <path d="M0,0 L28.800001144,0 " stroke="#1C5C8B" stroke-width="2.5" stroke-linecap="round" fill="none"/>
    </g>
    <g transform="matrix(-0,-1,1,0,1009.44006,637.2001)" v:mID="93">
     <title>Sheet.93</title>
     <path d="M0,0 L16.559999466,0 " stroke="#1C5C8B" stroke-width="2.5" stroke-linecap="round" fill="none"/>
    </g>
    <g transform="matrix(1,0,0,1,1005.12,635.04004)" v:mID="94">
     <title>Sheet.94</title>
     <ellipse cx="4.680000000000028" cy="4.679999999999964" rx="4.679999828338623" ry="4.679999828338623" stroke="#1C5C8B" stroke-width="2" stroke-linecap="round" fill="#1C5C8B"  fill-rule="evenodd"/>
    </g>
    <g transform="matrix(1,0,0,1,980.63995,566.64)" v:mID="95">
     <title>Sheet.95</title>
     <path d="M5.759999752,0 L53.279998779,0 L53.279998779,0 C54.807060242,0.000000148 56.273139954,0.607270002 57.352935791,1.687065363 L57.352935791,1.687065363 C58.432735443,2.766860485 59.040000916,4.232939243 59.040000916,5.760000229 L59.040000916,5.759999752 L59.040000916,36 L59.040000916,36 C59.040000916,37.527061462 58.432735443,38.993141174 57.352935791,40.072937012 L57.352935791,40.072937012 C56.273139954,41.152732849 54.807060242,41.759998322 53.279998779,41.759998322 L53.279998779,41.759998322 C53.279998779,41.759998322 53.279998779,41.759998322 53.279998779,41.759998322 L53.279998779,41.759998322 L5.759999752,41.759998322 L5.759999752,41.759998322 C4.232938766,41.759998322 2.766860008,41.152732849 1.687064886,40.072937012 L1.687064886,40.072937012 C0.607269704,38.993141174 0,37.527061462 0,36 L0,36 C-0,36 0,36 0,36 L0,36 L0,5.759999752 L0,5.759999752 C-0,4.232938766 0.607269704,2.766860008 1.687064886,1.687064886 L1.687064886,1.687064886 C2.766860008,0.607269704 4.232938766,0 5.759999752,0 Z" stroke="#1C5C8B" stroke-width="2.5" stroke-linecap="round" fill="none"/>
    </g>
    <g transform="matrix(1,0,0,1,995.04004,578.16003)" v:mID="96">
     <title>Sheet.96</title>
     <path d="M3.600000143,0 L27.36000061,0 L27.36000061,0 C28.314413071,-0.000000077 29.230710983,0.379543394 29.905582428,1.054415345 L29.905582428,1.054415345 C30.58045578,1.729287386 30.960000992,2.645586729 30.960000992,3.599999905 L30.960000992,3.600000143 L30.960000992,12.239999771 L30.960000992,12.239999771 C30.960000992,13.194414139 30.58045578,14.110713005 29.905582428,14.785585403 L29.905582428,14.785585403 C29.230710983,15.460456848 28.314413071,15.840000153 27.36000061,15.840000153 L27.36000061,15.840000153 L3.600000143,15.840000153 L3.600000143,15.840000153 C2.645586967,15.840000153 1.729287624,15.460456848 1.054415584,14.785585403 L1.054415584,14.785585403 C0.379543543,14.110713005 0,13.194414139 0,12.239999771 L0,12.239999771 C-0,12.239999771 -0,12.239999771 0,12.239999771 L0,12.239999771 L0,3.600000143 L0,3.600000143 C-0,2.645586967 0.379543543,1.729287624 1.054415584,1.054415584 L1.054415584,1.054415584 C1.729287624,0.379543543 2.645586967,0 3.600000143,0 Z" stroke="#1C5C8B" stroke-width="2.5" stroke-linecap="round" fill="#1C5C8B"  fill-rule="evenodd"/>
    </g>
    <g transform="matrix(1,0,0,1,1002.24,584.63995)" v:mID="97">
     <title>Sheet.97</title>
     <ellipse cx="2.5200000000000102" cy="2.519999999999946" rx="2.5199999809265137" ry="2.5199999809265137" stroke="#FFFFFF" stroke-width="1.5" stroke-linecap="round" fill="#FFFFFF"  fill-rule="evenodd"/>
    </g>
    <g transform="matrix(1,0,0,1,1016.63995,584.63995)" v:mID="98">
     <title>Sheet.98</title>
     <ellipse cx="2.5200000000000102" cy="2.519999999999946" rx="2.5199999809265137" ry="2.5199999809265137" stroke="#FFFFFF" stroke-width="1.5" stroke-linecap="round" fill="#FFFFFF"  fill-rule="evenodd"/>
    </g>
    <g transform="matrix(1,0,0,1,1034.64,342)" v:mID="99">
     <title>Sheet.99</title>
     <path d="M0,0 L13.680000305,0 " stroke="#1C5C8B" stroke-width="3" stroke-linecap="round" fill="none"/>
    </g>
    <g transform="matrix(0.8660254,-0.5,0.5,0.8660254,1031.2639,329.40002)" v:mID="100">
     <title>Sheet.100</title>
     <path d="M0,0 L13.680000305,0 " stroke="#1C5C8B" stroke-width="3" stroke-linecap="round" fill="none"/>
    </g>
    <g transform="matrix(0.5,-0.8660254,0.8660254,0.5,1022.04,320.17624)" v:mID="101">
     <title>Sheet.101</title>
     <path d="M0,0 L13.680000305,0 " stroke="#1C5C8B" stroke-width="3" stroke-linecap="round" fill="none"/>
    </g>
    <g transform="matrix(-0,-1,1,0,1009.44006,316.79996)" v:mID="102">
     <title>Sheet.102</title>
     <path d="M0,0 L13.680000305,0 " stroke="#1C5C8B" stroke-width="3" stroke-linecap="round" fill="none"/>
    </g>
    <g transform="matrix(-0.5,-0.8660254,0.8660254,-0.5,996.8399,320.17624)" v:mID="103">
     <title>Sheet.103</title>
     <path d="M0,0 L13.680000305,0 " stroke="#1C5C8B" stroke-width="3" stroke-linecap="round" fill="none"/>
    </g>
    <g transform="matrix(-0.8660254,-0.5,0.5,-0.8660254,987.61615,329.40005)" v:mID="104">
     <title>Sheet.104</title>
     <path d="M0,0 L13.680000305,0 " stroke="#1C5C8B" stroke-width="3" stroke-linecap="round" fill="none"/>
    </g>
    <g transform="matrix(-1,0,0,-1,984.24,342)" v:mID="105">
     <title>Sheet.105</title>
     <path d="M0,0 L13.680000305,0 " stroke="#1C5C8B" stroke-width="3" stroke-linecap="round" fill="none"/>
    </g>
    <g transform="matrix(-0.8660254,0.5,-0.5,-0.8660254,987.6162,354.59998)" v:mID="106">
     <title>Sheet.106</title>
     <path d="M0,0 L13.680000305,0 " stroke="#1C5C8B" stroke-width="3" stroke-linecap="round" fill="none"/>
    </g>
    <g transform="matrix(-0.5,0.8660254,-0.8660254,-0.5,996.8399,363.82382)" v:mID="107">
     <title>Sheet.107</title>
     <path d="M0,0 L13.680000305,0 " stroke="#1C5C8B" stroke-width="3" stroke-linecap="round" fill="none"/>
    </g>
    <g transform="matrix(0,1,-1,-0,1009.44006,367.20004)" v:mID="108">
     <title>Sheet.108</title>
     <path d="M0,0 L13.680000305,0 " stroke="#1C5C8B" stroke-width="3" stroke-linecap="round" fill="none"/>
    </g>
    <g transform="matrix(0.5,0.8660254,-0.8660254,0.5,1022.04,363.82382)" v:mID="109">
     <title>Sheet.109</title>
     <path d="M0,0 L13.680000305,0 " stroke="#1C5C8B" stroke-width="3" stroke-linecap="round" fill="none"/>
    </g>
    <g transform="matrix(0.8660254,0.5,-0.5,0.8660254,1031.2639,354.59998)" v:mID="110">
     <title>Sheet.110</title>
     <path d="M0,0 L13.680000305,0 " stroke="#1C5C8B" stroke-width="3" stroke-linecap="round" fill="none"/>
    </g>
    <g transform="matrix(1,0,0,1,975.60004,308.16)" v:mID="111">
     <title>Sheet.111</title>
     <ellipse cx="33.839999999999996" cy="33.839999999999996" rx="33.84000015258789" ry="33.84000015258789" stroke="#1C5C8B" stroke-width="2.5" stroke-linecap="round" fill="none"/>
    </g>
    <g transform="matrix(1,0,0,1,996.48004,329.04)" v:mID="112">
     <title>Sheet.112</title>
     <ellipse cx="12.959999999999999" cy="12.959999999999999" rx="12.960000991821289" ry="12.960000991821289" stroke="#1C5C8B" stroke-width="2.5" stroke-linecap="round" fill="none"/>
    </g>
    <g transform="matrix(1,0,0,1,982.07996,67.68)" v:mID="113">
     <title>Sheet.113</title>
     <path d="M2.159999847,0 L46.799999237,0 L46.799999237,0 C47.372646332,-0.000000468 47.922424316,0.227725193 48.327346802,0.63264811 L48.327346802,0.63264811 C48.732269287,1.037570953 48.95999527,1.587350368 48.95999527,2.159998178 L48.959999084,2.159999847 L48.959999084,61.200000763 L48.95999527,61.200000763 C48.95999527,61.772651672 48.732269287,62.322429657 48.327346802,62.727355957 L48.327346802,62.727355957 C47.922424316,63.132278442 47.372646332,63.36000061 46.799999237,63.36000061 L46.799999237,63.36000061 L2.159999847,63.36000061 L2.159999847,63.36000061 C1.587352037,63.36000061 1.037572622,63.132274628 0.632649362,62.727348328 L0.632649362,62.727348328 C0.227726147,62.322425842 0,61.772651672 0,61.200000763 L0,61.200000763 C-0,61.200000763 -0,61.200000763 0,61.200000763 L0,61.200000763 L0,2.159999847 L0,2.159999847 C-0,1.587352037 0.227726147,1.037572622 0.632649362,0.632649362 L0.632649362,0.632649362 C1.037572622,0.227726147 1.587352037,0 2.159999847,0 Z" stroke="#1C5C8B" stroke-width="2.5" stroke-linecap="round" fill="none"/>
    </g>
    <g transform="matrix(1,0,0,1,995.0399,128.16)" v:mID="114">
     <title>Sheet.114</title>
     <path d="M1.439999938,0 L21.600000381,0 L21.600000381,0 C21.981767654,0.000000219 22.348287582,0.151817843 22.618236542,0.421766818 L22.618236542,0.421766818 C22.888183594,0.691715777 23.040000916,1.058235526 23.040000916,1.440000772 L23.039999008,1.439999938 L23.039999008,7.200000286 L23.040000916,7.199999809 C23.040000916,7.581764698 22.888181686,7.948284149 22.618234634,8.218233109 L22.618234634,8.218233109 C22.348285675,8.488182068 21.981767654,8.63999939 21.600000381,8.63999939 L21.600000381,8.63999939 C21.600000381,8.63999939 21.600000381,8.63999939 21.600000381,8.63999939 L21.600000381,8.63999939 L1.439999938,8.63999939 L1.439999938,8.63999939 C1.058234692,8.63999939 0.691715002,8.488182068 0.421766222,8.218233109 L0.421766222,8.218233109 C0.151817426,7.948284149 0,7.581764698 0,7.199999809 L0,7.199999809 C-0,7.199999809 -0,7.199999809 0,7.199999809 L0,7.200000286 L0,1.439999938 L0,1.439999938 C-0,1.058234692 0.151817426,0.691715002 0.421766222,0.421766222 L0.421766222,0.421766222 C0.691715002,0.151817426 1.058234692,0 1.439999938,0 Z" stroke="#1C5C8B" stroke-width="2.5" stroke-linecap="round" fill="none"/>
    </g>
    <g transform="matrix(1,0,0,1,987.83997,67.68)" v:mID="116">
     <title>Sheet.116</title>
     <ellipse cx="18.72" cy="10.080000000000002" rx="18.719999313354492" ry="10.079999923706055" stroke="#1C5C8B" stroke-width="2" stroke-linecap="round" fill="#1C5C8B"  fill-rule="evenodd"/>
    </g>
   </g>
  </g>
 </g>
 <style type="text/css"><![CDATA[ .TextStyle3 {font-family:Calibri;font-size:16px;}.TextStyle1 {font-family:Calibri;font-size:15px;}.TextStyle0 {font-family:Calibri;font-size:17px;}.TextStyle4 {font-family:Calibri;font-size:24px;font-weight:bold;}.TextStyle2 {font-family:Calibri;font-size:24px;} ]]></style>
</svg>
