<?xml version="1.0" encoding="UTF-8" standalone="yes"?>
<svg xmlns="http://www.w3.org/2000/svg" xmlns:v="http://schemas.microsoft.com/visio/2003/SVGExtensions/" xml:space="preserve" xmlns:xlink="http://www.w3.org/1999/xlink" width="23.80315in" height="11.692913in" viewBox="0 0 1713.8268 841.8898">
 <g id="SFixTitle"/>
 <g id="SContent">
  <g>
   <g transform="matrix(1,0,0,-1,0,841.8898)">
    <g transform="matrix(1,0,0,1,25.19999,284.40002)" v:mID="1">
     <title>Sheet.1</title>
     <g transform="matrix(1,0,0,1,3.6000001,-3.6000001)" v:mID="1">
      <title>Sheet.1</title>
      <path d="M11.519999504,0 L197.279998779,0 L197.279998779,0 C200.334136963,0.000000114 203.266281128,1.214539647 205.425872803,3.374130249 L205.425872803,3.374130249 C207.585449219,5.533720493 208.800003052,8.465877533 208.800003052,11.519999504 L208.800003052,11.519999504 L208.800003052,215.279998779 L208.800003052,215.279998779 C208.800003052,218.334136963 207.585449219,221.266281128 205.425872803,223.425872803 L205.425872803,223.425872803 C203.266281128,225.585449219 200.334136963,226.800003052 197.279998779,226.800003052 L197.279998779,226.800003052 L11.519999504,226.800003052 L11.519999504,226.800003052 C8.465877533,226.800003052 5.533720016,225.585449219 3.374129772,223.425872803 L3.374129772,223.425872803 C1.214539528,221.266281128 0.000000106,218.334136963 0,215.279998779 L0,215.279998779 L0,11.519999504 L0,11.519999504 C-0,8.465877533 1.214539409,5.533720016 3.374129772,3.374129772 L3.374129772,3.374129772 C5.533720016,1.214539409 8.465877533,0 11.519999504,0 Z" stroke="none" stroke-width="0" fill="#000000"  fill-rule="evenodd"/>
     </g>
     <path d="M11.519999504,0 L197.279998779,0 L197.279998779,0 C200.334136963,0.000000114 203.266281128,1.214539647 205.425872803,3.374130249 L205.425872803,3.374130249 C207.585449219,5.533720493 208.800003052,8.465877533 208.800003052,11.519999504 L208.800003052,11.519999504 L208.800003052,215.279998779 L208.800003052,215.279998779 C208.800003052,218.334136963 207.585449219,221.266281128 205.425872803,223.425872803 L205.425872803,223.425872803 C203.266281128,225.585449219 200.334136963,226.800003052 197.279998779,226.800003052 L197.279998779,226.800003052 L11.519999504,226.800003052 L11.519999504,226.800003052 C8.465877533,226.800003052 5.533720016,225.585449219 3.374129772,223.425872803 L3.374129772,223.425872803 C1.214539528,221.266281128 0.000000106,218.334136963 0,215.279998779 L0,215.279998779 L0,11.519999504 L0,11.519999504 C-0,8.465877533 1.214539409,5.533720016 3.374129772,3.374129772 L3.374129772,3.374129772 C5.533720016,1.214539409 8.465877533,0 11.519999504,0 Z" stroke="none" stroke-width="0" fill="#D2EBFC"  fill-rule="evenodd"/>
     <g transform="matrix(1,0,0,1,0,0)">
      <text x="56.631447" y="64.799995" class="TextStyle0" fill="#000000" opacity="1" transform="matrix(1,0,0,-1,0,118.8)">Seed Sample</text>
      <text x="92.49522" y="86.399994" class="TextStyle0" fill="#000000" opacity="1" transform="matrix(1,0,0,-1,0,118.8)">Set</text>
     </g>
    </g>
    <g transform="matrix(1,0,0,1,273.6,284.40002)" v:mID="2">
     <title>Sheet.2</title>
     <g transform="matrix(1,0,0,1,3.6000001,-3.6000001)" v:mID="2">
      <title>Sheet.2</title>
      <path d="M11.519999504,0 L197.279998779,0 L197.279998779,0 C200.334136963,0.000000114 203.266281128,1.214539647 205.425872803,3.374130249 L205.425872803,3.374130249 C207.585449219,5.533720493 208.800003052,8.465877533 208.800003052,11.519999504 L208.800003052,11.519999504 L208.800003052,215.279998779 L208.800003052,215.279998779 C208.800003052,218.334136963 207.585449219,221.266281128 205.425872803,223.425872803 L205.425872803,223.425872803 C203.266281128,225.585449219 200.334136963,226.800003052 197.279998779,226.800003052 L197.279998779,226.800003052 L11.519999504,226.800003052 L11.519999504,226.800003052 C8.465877533,226.800003052 5.533720016,225.585449219 3.374129772,223.425872803 L3.374129772,223.425872803 C1.214539528,221.266281128 0.000000106,218.334136963 0,215.279998779 L0,215.279998779 L0,11.519999504 L0,11.519999504 C-0,8.465877533 1.214539409,5.533720016 3.374129772,3.374129772 L3.374129772,3.374129772 C5.533720016,1.214539409 8.465877533,0 11.519999504,0 Z" stroke="none" stroke-width="0" fill="#000000"  fill-rule="evenodd"/>
     </g>
     <path d="M11.519999504,0 L197.279998779,0 L197.279998779,0 C200.334136963,0.000000114 203.266281128,1.214539647 205.425872803,3.374130249 L205.425872803,3.374130249 C207.585449219,5.533720493 208.800003052,8.465877533 208.800003052,11.519999504 L208.800003052,11.519999504 L208.800003052,215.279998779 L208.800003052,215.279998779 C208.800003052,218.334136963 207.585449219,221.266281128 205.425872803,223.425872803 L205.425872803,223.425872803 C203.266281128,225.585449219 200.334136963,226.800003052 197.279998779,226.800003052 L197.279998779,226.800003052 L11.519999504,226.800003052 L11.519999504,226.800003052 C8.465877533,226.800003052 5.533720016,225.585449219 3.374129772,223.425872803 L3.374129772,223.425872803 C1.214539528,221.266281128 0.000000106,218.334136963 0,215.279998779 L0,215.279998779 L0,11.519999504 L0,11.519999504 C-0,8.465877533 1.214539409,5.533720016 3.374129772,3.374129772 L3.374129772,3.374129772 C5.533720016,1.214539409 8.465877533,0 11.519999504,0 Z" stroke="none" stroke-width="0" fill="#E1FAD2"  fill-rule="evenodd"/>
     <g transform="matrix(1,0,0,1,0,0)">
      <text x="49.361675" y="71.4" class="TextStyle1" fill="#000000" opacity="1" transform="matrix(1,0,0,-1,0,118.5)">Seed Expansion</text>
      <text x="83.43223" y="91.799995" class="TextStyle1" fill="#000000" opacity="1" transform="matrix(1,0,0,-1,0,118.5)">Agent</text>
     </g>
    </g>
    <g transform="matrix(1,0,0,1,521.99994,284.40002)" v:mID="3">
     <title>Sheet.3</title>
     <g transform="matrix(1,0,0,1,3.6000001,-3.6000001)" v:mID="3">
      <title>Sheet.3</title>
      <path d="M11.519999504,0 L197.279998779,0 L197.279998779,0 C200.334136963,0.000000114 203.266281128,1.214539647 205.425872803,3.374130249 L205.425872803,3.374130249 C207.585449219,5.533720493 208.800003052,8.465877533 208.800003052,11.519999504 L208.800003052,11.519999504 L208.800003052,215.279998779 L208.800003052,215.279998779 C208.800003052,218.334136963 207.585449219,221.266281128 205.425872803,223.425872803 L205.425872803,223.425872803 C203.266281128,225.585449219 200.334136963,226.800003052 197.279998779,226.800003052 L197.279998779,226.800003052 L11.519999504,226.800003052 L11.519999504,226.800003052 C8.465877533,226.800003052 5.533720016,225.585449219 3.374129772,223.425872803 L3.374129772,223.425872803 C1.214539528,221.266281128 0.000000106,218.334136963 0,215.279998779 L0,215.279998779 L0,11.519999504 L0,11.519999504 C-0,8.465877533 1.214539409,5.533720016 3.374129772,3.374129772 L3.374129772,3.374129772 C5.533720016,1.214539409 8.465877533,0 11.519999504,0 Z" stroke="none" stroke-width="0" fill="#000000"  fill-rule="evenodd"/>
     </g>
     <path d="M11.519999504,0 L197.279998779,0 L197.279998779,0 C200.334136963,0.000000114 203.266281128,1.214539647 205.425872803,3.374130249 L205.425872803,3.374130249 C207.585449219,5.533720493 208.800003052,8.465877533 208.800003052,11.519999504 L208.800003052,11.519999504 L208.800003052,215.279998779 L208.800003052,215.279998779 C208.800003052,218.334136963 207.585449219,221.266281128 205.425872803,223.425872803 L205.425872803,223.425872803 C203.266281128,225.585449219 200.334136963,226.800003052 197.279998779,226.800003052 L197.279998779,226.800003052 L11.519999504,226.800003052 L11.519999504,226.800003052 C8.465877533,226.800003052 5.533720016,225.585449219 3.374129772,223.425872803 L3.374129772,223.425872803 C1.214539528,221.266281128 0.000000106,218.334136963 0,215.279998779 L0,215.279998779 L0,11.519999504 L0,11.519999504 C-0,8.465877533 1.214539409,5.533720016 3.374129772,3.374129772 L3.374129772,3.374129772 C5.533720016,1.214539409 8.465877533,0 11.519999504,0 Z" stroke="none" stroke-width="0" fill="#D2EBFC"  fill-rule="evenodd"/>
     <g transform="matrix(1,0,0,1,0,0)">
      <text x="59.08189" y="51" class="TextStyle1" fill="#000000" opacity="1" transform="matrix(1,0,0,-1,0,118.5)">Prompt Gen-</text>
      <text x="41.592144" y="71.399994" class="TextStyle1" fill="#000000" opacity="1" transform="matrix(1,0,0,-1,0,118.5)">Generation Agent</text>
     </g>
    </g>
    <g transform="matrix(1,0,0,1,770.39996,284.40002)" v:mID="4">
     <title>Sheet.4</title>
     <g transform="matrix(1,0,0,1,3.6000001,-3.6000001)" v:mID="4">
      <title>Sheet.4</title>
      <path d="M11.519999504,0 L197.279998779,0 L197.279998779,0 C200.334136963,0.000000114 203.266281128,1.214539647 205.425872803,3.374130249 L205.425872803,3.374130249 C207.585449219,5.533720493 208.800003052,8.465877533 208.800003052,11.519999504 L208.800003052,11.519999504 L208.800003052,215.279998779 L208.800003052,215.279998779 C208.800003052,218.334136963 207.585449219,221.266281128 205.425872803,223.425872803 L205.425872803,223.425872803 C203.266281128,225.585449219 200.334136963,226.800003052 197.279998779,226.800003052 L197.279998779,226.800003052 L11.519999504,226.800003052 L11.519999504,226.800003052 C8.465877533,226.800003052 5.533720016,225.585449219 3.374129772,223.425872803 L3.374129772,223.425872803 C1.214539528,221.266281128 0.000000106,218.334136963 0,215.279998779 L0,215.279998779 L0,11.519999504 L0,11.519999504 C-0,8.465877533 1.214539409,5.533720016 3.374129772,3.374129772 L3.374129772,3.374129772 C5.533720016,1.214539409 8.465877533,0 11.519999504,0 Z" stroke="none" stroke-width="0" fill="#000000"  fill-rule="evenodd"/>
     </g>
     <path d="M11.519999504,0 L197.279998779,0 L197.279998779,0 C200.334136963,0.000000114 203.266281128,1.214539647 205.425872803,3.374130249 L205.425872803,3.374130249 C207.585449219,5.533720493 208.800003052,8.465877533 208.800003052,11.519999504 L208.800003052,11.519999504 L208.800003052,215.279998779 L208.800003052,215.279998779 C208.800003052,218.334136963 207.585449219,221.266281128 205.425872803,223.425872803 L205.425872803,223.425872803 C203.266281128,225.585449219 200.334136963,226.800003052 197.279998779,226.800003052 L197.279998779,226.800003052 L11.519999504,226.800003052 L11.519999504,226.800003052 C8.465877533,226.800003052 5.533720016,225.585449219 3.374129772,223.425872803 L3.374129772,223.425872803 C1.214539528,221.266281128 0.000000106,218.334136963 0,215.279998779 L0,215.279998779 L0,11.519999504 L0,11.519999504 C-0,8.465877533 1.214539409,5.533720016 3.374129772,3.374129772 L3.374129772,3.374129772 C5.533720016,1.214539409 8.465877533,0 11.519999504,0 Z" stroke="none" stroke-width="0" fill="#E1FAD2"  fill-rule="evenodd"/>
     <g transform="matrix(1,0,0,1,0,0)">
      <text x="52.7982" y="61.199997" class="TextStyle1" fill="#000000" opacity="1" transform="matrix(1,0,0,-1,0,118.5)">Synthetic Data</text>
      <text x="64.48155" y="81.6" class="TextStyle1" fill="#000000" opacity="1" transform="matrix(1,0,0,-1,0,118.5)">Generation</text>
     </g>
    </g>
    <g transform="matrix(1,0,0,1,1018.80005,284.40002)" v:mID="5">
     <title>Sheet.5</title>
     <g transform="matrix(1,0,0,1,3.6000001,-3.6000001)" v:mID="5">
      <title>Sheet.5</title>
      <path d="M11.519999504,0 L197.279998779,0 L197.279998779,0 C200.334136963,0.000000114 203.266281128,1.214539647 205.425872803,3.374130249 L205.425872803,3.374130249 C207.585449219,5.533720493 208.800003052,8.465877533 208.800003052,11.519999504 L208.800003052,11.519999504 L208.800003052,215.279998779 L208.800003052,215.279998779 C208.800003052,218.334136963 207.585449219,221.266281128 205.425872803,223.425872803 L205.425872803,223.425872803 C203.266281128,225.585449219 200.334136963,226.800003052 197.279998779,226.800003052 L197.279998779,226.800003052 L11.519999504,226.800003052 L11.519999504,226.800003052 C8.465877533,226.800003052 5.533720016,225.585449219 3.374129772,223.425872803 L3.374129772,223.425872803 C1.214539528,221.266281128 0.000000106,218.334136963 0,215.279998779 L0,215.279998779 L0,11.519999504 L0,11.519999504 C-0,8.465877533 1.214539409,5.533720016 3.374129772,3.374129772 L3.374129772,3.374129772 C5.533720016,1.214539409 8.465877533,0 11.519999504,0 Z" stroke="none" stroke-width="0" fill="#000000"  fill-rule="evenodd"/>
     </g>
     <path d="M11.519999504,0 L197.279998779,0 L197.279998779,0 C200.334136963,0.000000114 203.266281128,1.214539647 205.425872803,3.374130249 L205.425872803,3.374130249 C207.585449219,5.533720493 208.800003052,8.465877533 208.800003052,11.519999504 L208.800003052,11.519999504 L208.800003052,215.279998779 L208.800003052,215.279998779 C208.800003052,218.334136963 207.585449219,221.266281128 205.425872803,223.425872803 L205.425872803,223.425872803 C203.266281128,225.585449219 200.334136963,226.800003052 197.279998779,226.800003052 L197.279998779,226.800003052 L11.519999504,226.800003052 L11.519999504,226.800003052 C8.465877533,226.800003052 5.533720016,225.585449219 3.374129772,223.425872803 L3.374129772,223.425872803 C1.214539528,221.266281128 0.000000106,218.334136963 0,215.279998779 L0,215.279998779 L0,11.519999504 L0,11.519999504 C-0,8.465877533 1.214539409,5.533720016 3.374129772,3.374129772 L3.374129772,3.374129772 C5.533720016,1.214539409 8.465877533,0 11.519999504,0 Z" stroke="none" stroke-width="0" fill="#D2EBFC"  fill-rule="evenodd"/>
     <g transform="matrix(1,0,0,1,0,0)">
      <text x="77.90806" y="61.199997" class="TextStyle1" fill="#000000" opacity="1" transform="matrix(1,0,0,-1,0,118.5)">Verifier</text>
      <text x="83.43223" y="81.6" class="TextStyle1" fill="#000000" opacity="1" transform="matrix(1,0,0,-1,0,118.5)">Agent</text>
     </g>
    </g>
    <g transform="matrix(1,0,0,1,1267.2,284.40002)" v:mID="6">
     <title>Sheet.6</title>
     <g transform="matrix(1,0,0,1,3.6000001,-3.6000001)" v:mID="6">
      <title>Sheet.6</title>
      <path d="M11.519999504,0 L197.279998779,0 L197.279998779,0 C200.334136963,0.000000114 203.266281128,1.214539647 205.425872803,3.374130249 L205.425872803,3.374130249 C207.585449219,5.533720493 208.800003052,8.465877533 208.800003052,11.519999504 L208.800003052,11.519999504 L208.800003052,215.279998779 L208.800003052,215.279998779 C208.800003052,218.334136963 207.585449219,221.266281128 205.425872803,223.425872803 L205.425872803,223.425872803 C203.266281128,225.585449219 200.334136963,226.800003052 197.279998779,226.800003052 L197.279998779,226.800003052 L11.519999504,226.800003052 L11.519999504,226.800003052 C8.465877533,226.800003052 5.533720016,225.585449219 3.374129772,223.425872803 L3.374129772,223.425872803 C1.214539528,221.266281128 0.000000106,218.334136963 0,215.279998779 L0,215.279998779 L0,11.519999504 L0,11.519999504 C-0,8.465877533 1.214539409,5.533720016 3.374129772,3.374129772 L3.374129772,3.374129772 C5.533720016,1.214539409 8.465877533,0 11.519999504,0 Z" stroke="none" stroke-width="0" fill="#000000"  fill-rule="evenodd"/>
     </g>
     <path d="M11.519999504,0 L197.279998779,0 L197.279998779,0 C200.334136963,0.000000114 203.266281128,1.214539647 205.425872803,3.374130249 L205.425872803,3.374130249 C207.585449219,5.533720493 208.800003052,8.465877533 208.800003052,11.519999504 L208.800003052,11.519999504 L208.800003052,215.279998779 L208.800003052,215.279998779 C208.800003052,218.334136963 207.585449219,221.266281128 205.425872803,223.425872803 L205.425872803,223.425872803 C203.266281128,225.585449219 200.334136963,226.800003052 197.279998779,226.800003052 L197.279998779,226.800003052 L11.519999504,226.800003052 L11.519999504,226.800003052 C8.465877533,226.800003052 5.533720016,225.585449219 3.374129772,223.425872803 L3.374129772,223.425872803 C1.214539528,221.266281128 0.000000106,218.334136963 0,215.279998779 L0,215.279998779 L0,11.519999504 L0,11.519999504 C-0,8.465877533 1.214539409,5.533720016 3.374129772,3.374129772 L3.374129772,3.374129772 C5.533720016,1.214539409 8.465877533,0 11.519999504,0 Z" stroke="none" stroke-width="0" fill="#E1FAD2"  fill-rule="evenodd"/>
     <g transform="matrix(1,0,0,1,0,0)">
      <text x="78.66343" y="61.199997" class="TextStyle1" fill="#000000" opacity="1" transform="matrix(1,0,0,-1,0,118.5)">Quality</text>
      <text x="76.11925" y="81.6" class="TextStyle1" fill="#000000" opacity="1" transform="matrix(1,0,0,-1,0,118.5)">Passed?</text>
     </g>
    </g>
    <g transform="matrix(1,0,0,1,820.8,539.99994)" v:mID="7">
     <title>Sheet.7</title>
     <g transform="matrix(1,0,0,1,3.6000001,-3.6000001)" v:mID="7">
      <title>Sheet.7</title>
      <path d="M11.519999504,0 L197.279998779,0 L197.279998779,0 C200.334136963,0.000000114 203.266281128,1.214539647 205.425872803,3.374130249 L205.425872803,3.374130249 C207.585449219,5.533720493 208.800003052,8.465877533 208.800003052,11.519999504 L208.800003052,11.519999504 L208.800003052,215.279998779 L208.800003052,215.279998779 C208.800003052,218.334136963 207.585449219,221.266281128 205.425872803,223.425872803 L205.425872803,223.425872803 C203.266281128,225.585449219 200.334136963,226.800003052 197.279998779,226.800003052 L197.279998779,226.800003052 L11.519999504,226.800003052 L11.519999504,226.800003052 C8.465877533,226.800003052 5.533720016,225.585449219 3.374129772,223.425872803 L3.374129772,223.425872803 C1.214539528,221.266281128 0.000000106,218.334136963 0,215.279998779 L0,215.279998779 L0,11.519999504 L0,11.519999504 C-0,8.465877533 1.214539409,5.533720016 3.374129772,3.374129772 L3.374129772,3.374129772 C5.533720016,1.214539409 8.465877533,0 11.519999504,0 Z" stroke="none" stroke-width="0" fill="#000000"  fill-rule="evenodd"/>
     </g>
     <path d="M11.519999504,0 L197.279998779,0 L197.279998779,0 C200.334136963,0.000000114 203.266281128,1.214539647 205.425872803,3.374130249 L205.425872803,3.374130249 C207.585449219,5.533720493 208.800003052,8.465877533 208.800003052,11.519999504 L208.800003052,11.519999504 L208.800003052,215.279998779 L208.800003052,215.279998779 C208.800003052,218.334136963 207.585449219,221.266281128 205.425872803,223.425872803 L205.425872803,223.425872803 C203.266281128,225.585449219 200.334136963,226.800003052 197.279998779,226.800003052 L197.279998779,226.800003052 L11.519999504,226.800003052 L11.519999504,226.800003052 C8.465877533,226.800003052 5.533720016,225.585449219 3.374129772,223.425872803 L3.374129772,223.425872803 C1.214539528,221.266281128 0.000000106,218.334136963 0,215.279998779 L0,215.279998779 L0,11.519999504 L0,11.519999504 C-0,8.465877533 1.214539409,5.533720016 3.374129772,3.374129772 L3.374129772,3.374129772 C5.533720016,1.214539409 8.465877533,0 11.519999504,0 Z" stroke="none" stroke-width="0" fill="#D2EBFC"  fill-rule="evenodd"/>
     <g transform="matrix(1,0,0,1,0,0)">
      <text x="52.7982" y="40.8" class="TextStyle1" fill="#000000" opacity="1" transform="matrix(1,0,0,-1,0,118.5)">Synthetic Data</text>
      <text x="77.33946" y="61.199997" class="TextStyle1" fill="#000000" opacity="1" transform="matrix(1,0,0,-1,0,118.5)">Storage</text>
     </g>
    </g>
    <g transform="matrix(1,0,0,1,1083.6,539.99994)" v:mID="8">
     <title>Sheet.8</title>
     <g transform="matrix(1,0,0,1,3.6000001,-3.6000001)" v:mID="8">
      <title>Sheet.8</title>
      <path d="M11.519999504,0 L197.279998779,0 L197.279998779,0 C200.334136963,0.000000114 203.266281128,1.214539647 205.425872803,3.374130249 L205.425872803,3.374130249 C207.585449219,5.533720493 208.800003052,8.465877533 208.800003052,11.519999504 L208.800003052,11.519999504 L208.800003052,215.279998779 L208.800003052,215.279998779 C208.800003052,218.334136963 207.585449219,221.266281128 205.425872803,223.425872803 L205.425872803,223.425872803 C203.266281128,225.585449219 200.334136963,226.800003052 197.279998779,226.800003052 L197.279998779,226.800003052 L11.519999504,226.800003052 L11.519999504,226.800003052 C8.465877533,226.800003052 5.533720016,225.585449219 3.374129772,223.425872803 L3.374129772,223.425872803 C1.214539528,221.266281128 0.000000106,218.334136963 0,215.279998779 L0,215.279998779 L0,11.519999504 L0,11.519999504 C-0,8.465877533 1.214539409,5.533720016 3.374129772,3.374129772 L3.374129772,3.374129772 C5.533720016,1.214539409 8.465877533,0 11.519999504,0 Z" stroke="none" stroke-width="0" fill="#000000"  fill-rule="evenodd"/>
     </g>
     <path d="M11.519999504,0 L197.279998779,0 L197.279998779,0 C200.334136963,0.000000114 203.266281128,1.214539647 205.425872803,3.374130249 L205.425872803,3.374130249 C207.585449219,5.533720493 208.800003052,8.465877533 208.800003052,11.519999504 L208.800003052,11.519999504 L208.800003052,215.279998779 L208.800003052,215.279998779 C208.800003052,218.334136963 207.585449219,221.266281128 205.425872803,223.425872803 L205.425872803,223.425872803 C203.266281128,225.585449219 200.334136963,226.800003052 197.279998779,226.800003052 L197.279998779,226.800003052 L11.519999504,226.800003052 L11.519999504,226.800003052 C8.465877533,226.800003052 5.533720016,225.585449219 3.374129772,223.425872803 L3.374129772,223.425872803 C1.214539528,221.266281128 0.000000106,218.334136963 0,215.279998779 L0,215.279998779 L0,11.519999504 L0,11.519999504 C-0,8.465877533 1.214539409,5.533720016 3.374129772,3.374129772 L3.374129772,3.374129772 C5.533720016,1.214539409 8.465877533,0 11.519999504,0 Z" stroke="none" stroke-width="0" fill="#E1FAD2"  fill-rule="evenodd"/>
     <g transform="matrix(1,0,0,1,0,0)">
      <text x="52.578228" y="51" class="TextStyle1" fill="#000000" opacity="1" transform="matrix(1,0,0,-1,0,118.5)">Quality Report</text>
     </g>
    </g>
    <g transform="matrix(1,0,0,1,406.8,25.200005)" v:mID="9">
     <title>Sheet.9</title>
     <g transform="matrix(1,0,0,1,3.6000001,-3.6000001)" v:mID="9">
      <title>Sheet.9</title>
      <path d="M11.519999504,0 L200.880004883,0 L200.880004883,0 C203.934127808,-0.000000796 206.866271973,1.214537859 209.025863647,3.374127865 L209.025863647,3.374127865 C211.185455322,5.533717632 212.400009155,8.465874672 212.400009155,11.519996643 L212.400009155,11.519999504 L212.400009155,190.080001831 L212.400009155,190.080001831 C212.400009155,193.134140015 211.185455322,196.066299438 209.025863647,198.225891113 L209.025863647,198.225891113 C206.866271973,200.385467529 203.934127808,201.600006104 200.880004883,201.600006104 L200.880004883,201.599990845 L11.519999504,201.599990845 L11.519999504,201.600006104 C8.465877533,201.600006104 5.533720016,200.385452271 3.374129772,198.225875854 L3.374129772,198.225875854 C1.214539409,196.06628418 0,193.134140015 0,190.080001831 L0,190.080001831 C-0,190.080001831 0,190.080001831 0,190.080001831 L0,190.080001831 L0,11.519999504 L0,11.519999504 C-0,8.465877533 1.214539409,5.533720016 3.374129772,3.374129772 L3.374129772,3.374129772 C5.533720016,1.214539409 8.465877533,0 11.519999504,0 Z" stroke="none" stroke-width="0" fill="#000000"  fill-rule="evenodd"/>
     </g>
     <path d="M11.519999504,0 L200.880004883,0 L200.880004883,0 C203.934127808,-0.000000796 206.866271973,1.214537859 209.025863647,3.374127865 L209.025863647,3.374127865 C211.185455322,5.533717632 212.400009155,8.465874672 212.400009155,11.519996643 L212.400009155,11.519999504 L212.400009155,190.080001831 L212.400009155,190.080001831 C212.400009155,193.134140015 211.185455322,196.066299438 209.025863647,198.225891113 L209.025863647,198.225891113 C206.866271973,200.385467529 203.934127808,201.600006104 200.880004883,201.600006104 L200.880004883,201.599990845 L11.519999504,201.599990845 L11.519999504,201.600006104 C8.465877533,201.600006104 5.533720016,200.385452271 3.374129772,198.225875854 L3.374129772,198.225875854 C1.214539409,196.06628418 0,193.134140015 0,190.080001831 L0,190.080001831 C-0,190.080001831 0,190.080001831 0,190.080001831 L0,190.080001831 L0,11.519999504 L0,11.519999504 C-0,8.465877533 1.214539409,5.533720016 3.374129772,3.374129772 L3.374129772,3.374129772 C5.533720016,1.214539409 8.465877533,0 11.519999504,0 Z" stroke="none" stroke-width="0" fill="#E1FAD2"  fill-rule="evenodd"/>
     <g transform="matrix(1,0,0,1,0,0)">
      <text x="45.421684" y="61.199997" class="TextStyle1" fill="#000000" opacity="1" transform="matrix(1,0,0,-1,0,105.899994)">Discard &amp; Record</text>
     </g>
    </g>
    <g transform="matrix(1,0,0,1,756,25.200005)" v:mID="10">
     <title>Sheet.10</title>
     <g transform="matrix(1,0,0,1,3.6000001,-3.6000001)" v:mID="10">
      <title>Sheet.10</title>
      <path d="M11.519999504,0 L200.880004883,0 L200.880004883,0 C203.934127808,-0.000000796 206.866271973,1.214537859 209.025863647,3.374127865 L209.025863647,3.374127865 C211.185455322,5.533717632 212.400009155,8.465874672 212.400009155,11.519996643 L212.400009155,11.519999504 L212.400009155,190.080001831 L212.400009155,190.080001831 C212.400009155,193.134140015 211.185455322,196.066299438 209.025863647,198.225891113 L209.025863647,198.225891113 C206.866271973,200.385467529 203.934127808,201.600006104 200.880004883,201.600006104 L200.880004883,201.599990845 L11.519999504,201.599990845 L11.519999504,201.600006104 C8.465877533,201.600006104 5.533720016,200.385452271 3.374129772,198.225875854 L3.374129772,198.225875854 C1.214539409,196.06628418 0,193.134140015 0,190.080001831 L0,190.080001831 C-0,190.080001831 0,190.080001831 0,190.080001831 L0,190.080001831 L0,11.519999504 L0,11.519999504 C-0,8.465877533 1.214539409,5.533720016 3.374129772,3.374129772 L3.374129772,3.374129772 C5.533720016,1.214539409 8.465877533,0 11.519999504,0 Z" stroke="none" stroke-width="0" fill="#000000"  fill-rule="evenodd"/>
     </g>
     <path d="M11.519999504,0 L200.880004883,0 L200.880004883,0 C203.934127808,-0.000000796 206.866271973,1.214537859 209.025863647,3.374127865 L209.025863647,3.374127865 C211.185455322,5.533717632 212.400009155,8.465874672 212.400009155,11.519996643 L212.400009155,11.519999504 L212.400009155,190.080001831 L212.400009155,190.080001831 C212.400009155,193.134140015 211.185455322,196.066299438 209.025863647,198.225891113 L209.025863647,198.225891113 C206.866271973,200.385467529 203.934127808,201.600006104 200.880004883,201.600006104 L200.880004883,201.599990845 L11.519999504,201.599990845 L11.519999504,201.600006104 C8.465877533,201.600006104 5.533720016,200.385452271 3.374129772,198.225875854 L3.374129772,198.225875854 C1.214539409,196.06628418 0,193.134140015 0,190.080001831 L0,190.080001831 C-0,190.080001831 0,190.080001831 0,190.080001831 L0,190.080001831 L0,11.519999504 L0,11.519999504 C-0,8.465877533 1.214539409,5.533720016 3.374129772,3.374129772 L3.374129772,3.374129772 C5.533720016,1.214539409 8.465877533,0 11.519999504,0 Z" stroke="none" stroke-width="0" fill="#D2EBFC"  fill-rule="evenodd"/>
     <g transform="matrix(1,0,0,1,0,0)">
      <text x="82.065475" y="40.8" class="TextStyle1" fill="#000000" opacity="1" transform="matrix(1,0,0,-1,0,105.899994)">Failure</text>
      <text x="77.309135" y="61.199997" class="TextStyle1" fill="#000000" opacity="1" transform="matrix(1,0,0,-1,0,105.899994)">Analysis</text>
     </g>
    </g>
    <g transform="matrix(1,0,0,1,234,397.44)" v:mID="11">
     <title>Sheet.11</title>
     <g transform="matrix(1,0,0,1,0,0)" v:mID="11">
      <title>Sheet.11</title>
      <path d="M27.936000824,-4.320000172 L36.144001007,0 L27.936000824,4.320000172 Z" stroke="#000000" stroke-width="4.5" fill="#000000"  fill-rule="evenodd" opacity="0" transform="matrix(1,0,0,1,0,0)"/>
      <path d="M0,0 L36.720001221,0 " stroke="#000000" stroke-width="4.5" stroke-linecap="round" fill="none" stroke-opacity="0"/>
     </g>
     <path d="M27.936000824,-4.320000172 L36.144001007,0 L27.936000824,4.320000172 Z" stroke="#494C50" stroke-width="4.5" fill="#494C50"  fill-rule="evenodd" transform="matrix(1,0,0,1,0,0)"/>
     <path d="M0,0 L36.720001221,0 " stroke="#494C50" stroke-width="4.5" stroke-linecap="round" fill="none"/>
    </g>
    <g transform="matrix(1,0,0,1,482.4,397.44)" v:mID="12">
     <title>Sheet.12</title>
     <path d="M27.936000824,-4.320000172 L36.144001007,0 L27.936000824,4.320000172 Z" stroke="#494C50" stroke-width="4.5" fill="#494C50"  fill-rule="evenodd" transform="matrix(1,0,0,1,0,0)"/>
     <path d="M0,0 L36.720001221,0 " stroke="#494C50" stroke-width="4.5" stroke-linecap="round" fill="none"/>
    </g>
    <g transform="matrix(1,0,0,1,730.80005,397.44)" v:mID="13">
     <title>Sheet.13</title>
     <path d="M27.936000824,-4.320000172 L36.144001007,0 L27.936000824,4.320000172 Z" stroke="#494C50" stroke-width="4.5" fill="#494C50"  fill-rule="evenodd" transform="matrix(1,0,0,1,0,0)"/>
     <path d="M0,0 L36.720001221,0 " stroke="#494C50" stroke-width="4.5" stroke-linecap="round" fill="none"/>
    </g>
    <g transform="matrix(1,0,0,1,979.2,397.44)" v:mID="14">
     <title>Sheet.14</title>
     <path d="M27.936000824,-4.320000172 L36.144001007,0 L27.936000824,4.320000172 Z" stroke="#494C50" stroke-width="4.5" fill="#494C50"  fill-rule="evenodd" transform="matrix(1,0,0,1,0,0)"/>
     <path d="M0,0 L36.720001221,0 " stroke="#494C50" stroke-width="4.5" stroke-linecap="round" fill="none"/>
    </g>
    <g transform="matrix(1,0,0,1,1227.6,397.44)" v:mID="15">
     <title>Sheet.15</title>
     <path d="M27.936000824,-4.320000172 L36.144001007,0 L27.936000824,4.320000172 Z" stroke="#494C50" stroke-width="4.5" fill="#494C50"  fill-rule="evenodd" transform="matrix(1,0,0,1,0,0)"/>
     <path d="M0,0 L36.720001221,0 " stroke="#494C50" stroke-width="4.5" stroke-linecap="round" fill="none"/>
    </g>
    <g transform="matrix(0,1,-1,-0,126,511.19998)" v:mID="16">
     <title>Sheet.16</title>
     <path d="M0,0 L151.199996948,0 " stroke="#494C50" stroke-width="4.5" stroke-linecap="round" fill="none"/>
    </g>
    <g transform="matrix(1,0,0,1,126,662.39996)" v:mID="17">
     <title>Sheet.17</title>
     <path d="M683.135986328,-4.320000172 L691.343933105,0 L683.135986328,4.320000172 Z" stroke="#494C50" stroke-width="4.5" fill="#494C50"  fill-rule="evenodd" transform="matrix(1,0,0,1,0,0)"/>
     <path d="M0,0 L691.91998291,0 " stroke="#494C50" stroke-width="4.5" stroke-linecap="round" fill="none"/>
    </g>
    <g transform="matrix(1,0,0,1,1029.6,662.39996)" v:mID="18">
     <title>Sheet.18</title>
     <path d="M42.335998535,-4.320000172 L50.544002533,0 L42.335998535,4.320000172 Z" stroke="#494C50" stroke-width="4.5" fill="#494C50"  fill-rule="evenodd" transform="matrix(1,0,0,1,0,0)"/>
     <path d="M0,0 L51.119998932,0 " stroke="#494C50" stroke-width="4.5" stroke-linecap="round" fill="none"/>
    </g>
    <g transform="matrix(1,0,0,1,1292.4,662.39996)" v:mID="19">
     <title>Sheet.19</title>
     <path d="M0,0 L72,0 " stroke="#494C50" stroke-width="4.5" stroke-linecap="round" fill="none"/>
    </g>
    <g transform="matrix(-0,-1,1,0,1364.4,662.3999)" v:mID="20">
     <title>Sheet.20</title>
     <path d="M139.535995483,-4.320000172 L147.743988037,0 L139.535995483,4.320000172 Z" stroke="#494C50" stroke-width="4.5" fill="#494C50"  fill-rule="evenodd" transform="matrix(1,0,0,1,0,0)"/>
     <path d="M0,0 L148.319992065,0 " stroke="#494C50" stroke-width="4.5" stroke-linecap="round" fill="none"/>
    </g>
    <g transform="matrix(-0,-1,1,0,1364.4,284.4)" v:mID="21">
     <title>Sheet.21</title>
     <path d="M0,0 L172.800003052,0 " stroke="#494C50" stroke-width="4.5" stroke-linecap="round" fill="none"/>
    </g>
    <g transform="matrix(-1,0,0,-1,1364.4,111.6)" v:mID="22">
     <title>Sheet.22</title>
     <path d="M384.335998535,-4.320000172 L392.544006348,0 L384.335998535,4.320000172 Z" stroke="#494C50" stroke-width="4.5" fill="#494C50"  fill-rule="evenodd" transform="matrix(1,0,0,1,0,0)"/>
     <path d="M0,0 L393.119995117,0 " stroke="#494C50" stroke-width="4.5" stroke-linecap="round" fill="none"/>
    </g>
    <g transform="matrix(-1,0,0,-1,756.00006,111.6)" v:mID="23">
     <title>Sheet.23</title>
     <path d="M125.135993958,-4.320000172 L133.343994141,0 L125.135993958,4.320000172 Z" stroke="#494C50" stroke-width="4.5" fill="#494C50"  fill-rule="evenodd" transform="matrix(1,0,0,1,0,0)"/>
     <path d="M0,0 L133.919998169,0 " stroke="#494C50" stroke-width="4.5" stroke-linecap="round" fill="none"/>
    </g>
    <g transform="matrix(-1,0,0,-1,406.8,111.6)" v:mID="24">
     <title>Sheet.24</title>
     <path d="M0,0 L280.800018311,0 " stroke="#494C50" stroke-width="4.5" stroke-linecap="round" fill="none"/>
    </g>
    <g transform="matrix(0,1,-1,-0,126,111.6)" v:mID="25">
     <title>Sheet.25</title>
     <path d="M161.136016846,-4.320000172 L169.343994141,0 L161.136016846,4.320000172 Z" stroke="#494C50" stroke-width="4.5" fill="#494C50"  fill-rule="evenodd" transform="matrix(1,0,0,1,0,0)"/>
     <path d="M0,0 L169.920013428,0 " stroke="#494C50" stroke-width="4.5" stroke-linecap="round" fill="none"/>
    </g>
    <g transform="matrix(1,0,0,1,619.2,111.6)" v:mID="26">
     <title>Sheet.26</title>
     <path d="M125.135993958,-4.320000172 L133.343994141,0 L125.135993958,4.320000172 Z" stroke="#494C50" stroke-width="3.8" fill="#494C50"  fill-rule="evenodd" transform="matrix(1,0,0,1,0,0)"/>
     <path d="M0,0 L133.919998169,0 " stroke="#494C50" stroke-width="3.8" stroke-linecap="round" fill="none"/>
    </g>
    <g transform="matrix(-1,0,0,-1,756.00006,111.6)" v:mID="27">
     <title>Sheet.27</title>
     <path d="M125.135993958,-4.320000172 L133.343994141,0 L125.135993958,4.320000172 Z" stroke="#494C50" stroke-width="3.8" fill="#494C50"  fill-rule="evenodd" transform="matrix(1,0,0,1,0,0)"/>
     <path d="M0,0 L133.919998169,0 " stroke="#494C50" stroke-width="3.8" stroke-linecap="round" fill="none"/>
    </g>
    <g transform="matrix(-0,-1,1,0,126,476.63995)" v:mID="28">
     <title>Sheet.28</title>
     <path d="M0,0 L110.879997253,0 " stroke="#141414" stroke-width="2.8000002" stroke-linecap="round" fill="none"/>
    </g>
    <g transform="matrix(1,0,0,1,97.2,447.84003)" v:mID="29">
     <title>Sheet.29</title>
     <ellipse cx="19.8" cy="10.080000000000002" rx="19.80000114440918" ry="10.079999923706055" stroke="#141414" stroke-width="2.8000002" stroke-linecap="round" fill="none"/>
    </g>
    <g transform="matrix(1,0,0,1,126,453.6)" v:mID="30">
     <title>Sheet.30</title>
     <ellipse cx="19.8" cy="10.080000000000002" rx="19.80000114440918" ry="10.079999923706055" stroke="#141414" stroke-width="2.8000002" stroke-linecap="round" fill="none"/>
    </g>
    <g transform="matrix(-0.8741572,-0.48564303,0.48564303,-0.8741572,126,435.59998)" v:mID="31">
     <title>Sheet.31</title>
     <path d="M0,0 L22.23856163,0 " stroke="#141414" stroke-width="2.6000001" stroke-linecap="round" fill="none"/>
    </g>
    <g transform="matrix(0.8741573,-0.4856429,0.4856429,0.8741573,126,435.59998)" v:mID="32">
     <title>Sheet.32</title>
     <path d="M0,0 L22.23856163,0 " stroke="#141414" stroke-width="2.6000001" stroke-linecap="round" fill="none"/>
    </g>
    <g transform="matrix(1,0,0,1,106.56,424.80002)" v:mID="33">
     <title>Sheet.33</title>
     <path d="M0,0 L38.880001068,0 " stroke="#141414" stroke-width="2.6000001" stroke-linecap="round" fill="none"/>
    </g>
    <g transform="matrix(1,0,0,1,105.12,406.80002)" v:mID="34">
     <title>Sheet.34</title>
     <path d="M0,0 L41.759998322,0 " stroke="#141414" stroke-width="2.6000001" stroke-linecap="round" fill="none"/>
    </g>
    <g transform="matrix(1,0,0,1,106.56,387.36002)" v:mID="35">
     <title>Sheet.35</title>
     <path d="M0,0 L38.880001068,0 " stroke="#141414" stroke-width="2.6000001" stroke-linecap="round" fill="none"/>
    </g>
    <g transform="matrix(0.6671198,0.7449504,-0.7449504,0.6671198,104.4,365.76)" v:mID="36">
     <title>Sheet.36</title>
     <path d="M0,0 L64.755981445,0 " stroke="#141414" stroke-width="2.3000002" stroke-linecap="round" fill="none"/>
    </g>
    <g transform="matrix(-0.66711974,0.7449505,-0.7449505,-0.66711974,147.59999,365.76004)" v:mID="37">
     <title>Sheet.37</title>
     <path d="M0,0 L64.755981445,0 " stroke="#141414" stroke-width="2.3000002" stroke-linecap="round" fill="none"/>
    </g>
    <g transform="matrix(1,0,0,1,347.04,403.19998)" v:mID="38">
     <title>Sheet.38</title>
     <path d="M5.759999752,0 L59.040000916,0 L59.040000916,0 C60.567062378,-0.000000171 62.033138275,0.607269287 63.112937927,1.687064409 L63.112937927,1.687064409 C64.192733765,2.766859531 64.799995422,4.23293829 64.799995422,5.759999275 L64.799995422,5.759999752 L64.799995422,38.880001068 L64.799995422,38.880001068 C64.799995422,40.407062531 64.192726135,41.873146057 63.112930298,42.95293808 L63.112930298,42.95293808 C62.03313446,44.032730103 60.567062378,44.63999939 59.040000916,44.63999939 L59.040000916,44.63999939 C59.040000916,44.63999939 59.040000916,44.63999939 59.040000916,44.63999939 L59.040000916,44.63999939 L5.759999752,44.63999939 L5.759999752,44.63999939 C4.232938766,44.63999939 2.766860008,44.032733917 1.687064886,42.95293808 L1.687064886,42.95293808 C0.607269704,41.873142242 0.000000009,40.407062531 0,38.880001068 L0,38.880001068 L0,5.759999752 L0,5.759999752 C-0,4.232938766 0.607269704,2.766860008 1.687064886,1.687064886 L1.687064886,1.687064886 C2.766860008,0.607269704 4.232938766,0 5.759999752,0 Z" stroke="#141414" stroke-width="2.6000001" stroke-linecap="round" fill="none"/>
    </g>
    <g transform="matrix(1,0,0,1,362.88,424.08)" v:mID="39">
     <title>Sheet.39</title>
     <ellipse cx="2.88" cy="2.88" rx="2.879999876022339" ry="2.879999876022339" stroke="#141414" stroke-width="1.8000001" stroke-linecap="round" fill="#141414"  fill-rule="evenodd"/>
    </g>
    <g transform="matrix(1,0,0,1,390.24,424.08)" v:mID="40">
     <title>Sheet.40</title>
     <ellipse cx="2.88" cy="2.88" rx="2.879999876022339" ry="2.879999876022339" stroke="#141414" stroke-width="1.8000001" stroke-linecap="round" fill="#141414"  fill-rule="evenodd"/>
    </g>
    <g transform="matrix(-0,-1,1,0,378.72003,471.60004)" v:mID="41">
     <title>Sheet.41</title>
     <path d="M0,0 L23.760000229,0 " stroke="#141414" stroke-width="2.4" stroke-linecap="round" fill="none"/>
    </g>
    <g transform="matrix(1,0,0,1,372.24002,467.28)" v:mID="42">
     <title>Sheet.42</title>
     <ellipse cx="6.47999999999999" cy="6.47999999999999" rx="6.4800004959106445" ry="6.4800004959106445" stroke="#141414" stroke-width="2" stroke-linecap="round" fill="none"/>
    </g>
    <g transform="matrix(-1,0,0,-1,338.4,428.4)" v:mID="43">
     <title>Sheet.43</title>
     <path d="M0,0 L8.63999939,0 " stroke="#141414" stroke-width="3.2" stroke-linecap="round" fill="none"/>
    </g>
    <g transform="matrix(1,0,0,1,419.04004,428.4)" v:mID="44">
     <title>Sheet.44</title>
     <path d="M0,0 L9.359999657,0 " stroke="#141414" stroke-width="3.2" stroke-linecap="round" fill="none"/>
    </g>
    <g transform="matrix(1,0,0,1,340.56,375.84)" v:mID="45">
     <title>Sheet.45</title>
     <path d="M2.879999876,0 L74.879997253,0 L74.879997253,0 C75.643531799,-0.000000745 76.376556396,0.303633362 76.91645813,0.843530476 L76.91645813,0.843530476 C77.456359863,1.383427501 77.759994507,2.116466761 77.759994507,2.879997253 L77.760002136,2.879999876 L77.760002136,18.720001221 L77.759994507,18.720001221 C77.759994507,19.483531952 77.456367493,20.216571808 76.916465759,20.756467819 L76.916465759,20.756467819 C76.376564026,21.296363831 75.643531799,21.599998474 74.879997253,21.599998474 L74.879997253,21.600000381 L2.879999876,21.600000381 L2.879999876,21.599998474 C2.116469383,21.599998474 1.383430004,21.296365738 0.843532443,20.756467819 L0.843532443,20.756467819 C0.303634882,20.216567993 0.000000009,19.483530045 0,18.719999313 L0,18.719999313 L0,2.879999876 L0,2.879999876 C-0,2.116469383 0.303634852,1.383430004 0.843532443,0.843532443 L0.843532443,0.843532443 C1.383430004,0.303634852 2.116469383,0 2.879999876,0 Z" stroke="#141414" stroke-width="2.6000001" stroke-linecap="round" fill="none"/>
    </g>
    <g transform="matrix(1,0,0,1,583.2,419.04)" v:mID="46">
     <title>Sheet.46</title>
     <ellipse cx="23.400000000000002" cy="28.080000000000002" rx="23.399999618530273" ry="28.079998016357422" stroke="#141414" stroke-width="2.6000001" stroke-linecap="round" fill="none"/>
    </g>
    <g transform="matrix(1,0,0,1,620.63995,419.04)" v:mID="47">
     <title>Sheet.47</title>
     <ellipse cx="23.400000000000002" cy="28.080000000000002" rx="23.399999618530273" ry="28.079998016357422" stroke="#141414" stroke-width="2.6000001" stroke-linecap="round" fill="none"/>
    </g>
    <g transform="matrix(-0,-1,1,0,623.52,473.75995)" v:mID="48">
     <title>Sheet.48</title>
     <path d="M0,0 L81.36000061,0 " stroke="#141414" stroke-width="2.6000001" stroke-linecap="round" fill="none"/>
    </g>
    <g transform="matrix(-0.8619342,0.5070201,-0.5070201,-0.8619342,579.6,444.96)" v:mID="49">
     <title>Sheet.49</title>
     <path d="M0,0 L14.200619698,0 " stroke="#141414" stroke-width="2" stroke-linecap="round" fill="none"/>
    </g>
    <g transform="matrix(0.8619342,0.5070201,-0.5070201,0.8619342,666,444.96)" v:mID="50">
     <title>Sheet.50</title>
     <path d="M0,0 L14.200619698,0 " stroke="#141414" stroke-width="2" stroke-linecap="round" fill="none"/>
    </g>
    <g transform="matrix(-0.70710677,0.70710677,-0.70710677,-0.70710677,579.60004,417.6)" v:mID="51">
     <title>Sheet.51</title>
     <path d="M0,0 L15.273506165,0 " stroke="#141414" stroke-width="2" stroke-linecap="round" fill="none"/>
    </g>
    <g transform="matrix(0.70710677,0.70710677,-0.70710677,0.70710677,665.99994,417.6)" v:mID="52">
     <title>Sheet.52</title>
     <path d="M0,0 L15.273506165,0 " stroke="#141414" stroke-width="2" stroke-linecap="round" fill="none"/>
    </g>
    <g transform="matrix(1,0,0,1,902.16003,428.4)" v:mID="53">
     <title>Sheet.53</title>
     <path d="M0,0 L16.559999466,0 " stroke="#141414" stroke-width="4" stroke-linecap="round" fill="none"/>
    </g>
    <g transform="matrix(0.8660254,-0.5,0.5,0.8660254,898.49445,414.72)" v:mID="54">
     <title>Sheet.54</title>
     <path d="M0,0 L16.559999466,0 " stroke="#141414" stroke-width="4" stroke-linecap="round" fill="none"/>
    </g>
    <g transform="matrix(0.5,-0.8660254,0.8660254,0.5,888.48,404.70554)" v:mID="55">
     <title>Sheet.55</title>
     <path d="M0,0 L16.559999466,0 " stroke="#141414" stroke-width="4" stroke-linecap="round" fill="none"/>
    </g>
    <g transform="matrix(-0,-1,1,0,874.8,401.04007)" v:mID="56">
     <title>Sheet.56</title>
     <path d="M0,0 L16.559999466,0 " stroke="#141414" stroke-width="4" stroke-linecap="round" fill="none"/>
    </g>
    <g transform="matrix(-0.5,-0.8660254,0.8660254,-0.5,861.12,404.7056)" v:mID="57">
     <title>Sheet.57</title>
     <path d="M0,0 L16.559999466,0 " stroke="#141414" stroke-width="4" stroke-linecap="round" fill="none"/>
    </g>
    <g transform="matrix(-0.8660254,-0.5,0.5,-0.8660254,851.1055,414.72003)" v:mID="58">
     <title>Sheet.58</title>
     <path d="M0,0 L16.559999466,0 " stroke="#141414" stroke-width="4" stroke-linecap="round" fill="none"/>
    </g>
    <g transform="matrix(-1,0,0,-1,847.44,428.4)" v:mID="59">
     <title>Sheet.59</title>
     <path d="M0,0 L16.559999466,0 " stroke="#141414" stroke-width="4" stroke-linecap="round" fill="none"/>
    </g>
    <g transform="matrix(-0.8660254,0.5,-0.5,-0.8660254,851.1055,442.08002)" v:mID="60">
     <title>Sheet.60</title>
     <path d="M0,0 L16.559999466,0 " stroke="#141414" stroke-width="4" stroke-linecap="round" fill="none"/>
    </g>
    <g transform="matrix(-0.5,0.8660254,-0.8660254,-0.5,861.12,452.09445)" v:mID="61">
     <title>Sheet.61</title>
     <path d="M0,0 L16.559999466,0 " stroke="#141414" stroke-width="4" stroke-linecap="round" fill="none"/>
    </g>
    <g transform="matrix(0,1,-1,-0,874.7999,455.76)" v:mID="62">
     <title>Sheet.62</title>
     <path d="M0,0 L16.559999466,0 " stroke="#141414" stroke-width="4" stroke-linecap="round" fill="none"/>
    </g>
    <g transform="matrix(0.5,0.8660254,-0.8660254,0.5,888.48,452.09445)" v:mID="63">
     <title>Sheet.63</title>
     <path d="M0,0 L16.559999466,0 " stroke="#141414" stroke-width="4" stroke-linecap="round" fill="none"/>
    </g>
    <g transform="matrix(0.8660254,0.5,-0.5,0.8660254,898.49445,442.08002)" v:mID="64">
     <title>Sheet.64</title>
     <path d="M0,0 L16.559999466,0 " stroke="#141414" stroke-width="4" stroke-linecap="round" fill="none"/>
    </g>
    <g transform="matrix(1,0,0,1,833.76,387.36)" v:mID="65">
     <title>Sheet.65</title>
     <ellipse cx="41.04" cy="41.04" rx="41.040000915527344" ry="41.040000915527344" stroke="#141414" stroke-width="3" stroke-linecap="round" fill="none"/>
    </g>
    <g transform="matrix(1,0,0,1,858.95996,412.56)" v:mID="66">
     <title>Sheet.66</title>
     <ellipse cx="15.84" cy="15.84" rx="15.84000015258789" ry="15.84000015258789" stroke="#141414" stroke-width="3" stroke-linecap="round" fill="none"/>
    </g>
    <g transform="matrix(1,0,0,1,1087.2001,372.96002)" v:mID="67">
     <title>Sheet.67</title>
     <path d="M0,98.63999939 L43.200000763,113.040000916 L86.400001526,98.63999939 L86.400001526,37.440002441 L43.200000763,0 L0,37.440002441 L0,98.63999939 " stroke="#141414" stroke-width="3" stroke-linecap="round" fill="none"/>
    </g>
    <g transform="matrix(1,0,0,1,1121.76,406.80002)" v:mID="68">
     <title>Sheet.68</title>
     <ellipse cx="17.999999999999936" cy="18" rx="18" ry="18" stroke="#141414" stroke-width="2.7" stroke-linecap="round" fill="none"/>
    </g>
    <g transform="matrix(0.6928261,-0.72110474,0.72110474,0.6928261,1150.56,414)" v:mID="69">
     <title>Sheet.69</title>
     <path d="M0,0 L50.921871185,0 " stroke="#141414" stroke-width="3" stroke-linecap="round" fill="none"/>
    </g>
    <g transform="matrix(1,0,0,1,1326.96,394.56)" v:mID="70">
     <title>Sheet.70</title>
     <path d="M44.63999939,89.279998779 L89.279998779,44.63999939 L44.63999939,0 L0,44.63999939 L44.63999939,89.279998779 " stroke="#141414" stroke-width="2.4" stroke-linecap="round" fill="none"/>
    </g>
    <g transform="matrix(1,0,0,1,1355.0399,422.63998)" v:mID="71">
     <title>Sheet.71</title>
     <path d="M16.559999466,33.119998932 L33.119998932,16.559999466 L16.559999466,0 L0,16.559999466 L16.559999466,33.119998932 " stroke="#141414" stroke-width="2.4" stroke-linecap="round" fill="none"/>
    </g>
    <g transform="matrix(1,0,0,1,878.4,711.36005)" v:mID="72">
     <title>Sheet.72</title>
     <ellipse cx="42.48" cy="12.240000000000057" rx="42.47999954223633" ry="12.239999771118164" stroke="#141414" stroke-width="3" stroke-linecap="round" fill="none"/>
    </g>
    <g transform="matrix(-0,-1,1,0,878.39996,723.6)" v:mID="73">
     <title>Sheet.73</title>
     <path d="M0,0 L68.400001526,0 " stroke="#141414" stroke-width="3" stroke-linecap="round" fill="none"/>
    </g>
    <g transform="matrix(-0,-1,1,0,963.36,723.60004)" v:mID="74">
     <title>Sheet.74</title>
     <path d="M0,0 L68.400001526,0 " stroke="#141414" stroke-width="3" stroke-linecap="round" fill="none"/>
    </g>
    <g transform="matrix(1,0,0,1,878.4,681.12)" v:mID="75">
     <title>Sheet.75</title>
     <ellipse cx="42.48" cy="12.24" rx="42.47999954223633" ry="12.239999771118164" stroke="#141414" stroke-width="3" stroke-linecap="round" fill="none"/>
    </g>
    <g transform="matrix(1,0,0,1,878.4,650.88)" v:mID="76">
     <title>Sheet.76</title>
     <ellipse cx="42.48" cy="12.24" rx="42.47999954223633" ry="12.239999771118164" stroke="#141414" stroke-width="3" stroke-linecap="round" fill="none"/>
    </g>
    <g transform="matrix(1,0,0,1,944.64,691.92004)" v:mID="77">
     <title>Sheet.77</title>
     <ellipse cx="2.160000000000018" cy="2.160000000000018" rx="2.1599998474121094" ry="2.1599998474121094" stroke="#141414" stroke-width="1.2" stroke-linecap="round" fill="#141414"  fill-rule="evenodd"/>
    </g>
    <g transform="matrix(1,0,0,1,944.64,659.52)" v:mID="78">
     <title>Sheet.78</title>
     <ellipse cx="2.160000000000018" cy="2.160000000000018" rx="2.1599998474121094" ry="2.1599998474121094" stroke="#141414" stroke-width="1.2" stroke-linecap="round" fill="#141414"  fill-rule="evenodd"/>
    </g>
    <g transform="matrix(1,0,0,1,1159.2001,643.68)" v:mID="79">
     <title>Sheet.79</title>
     <path d="M3.600000143,0 L52.560001373,0 L52.560001373,0 C53.514411926,0.000000378 54.430709839,0.379544288 55.105583191,1.054416656 L55.105583191,1.054416656 C55.780460358,1.729288936 56.160003662,2.645588398 56.160003662,3.600001335 L56.159996033,3.600000143 L56.159996033,88.559997559 L56.160003662,88.559997559 C56.160003662,89.514411926 55.780460358,90.430717468 55.105583191,91.105583191 L55.105583191,91.105583191 C54.430709839,91.780456543 53.514411926,92.159996033 52.560001373,92.159996033 L52.560001373,92.159996033 C52.560001373,92.159996033 52.560001373,92.159996033 52.560001373,92.159996033 L52.560001373,92.159996033 L3.600000381,92.159996033 L3.600000381,92.159996033 C2.645587206,92.159996033 1.729287863,91.780456543 1.054415822,91.105583191 L1.054415822,91.105583191 C0.379543722,90.430717468 0.000000071,89.514411926 0,88.559997559 L0,88.559997559 C0,88.559997559 0,88.559997559 0,88.559997559 L0,88.559997559 L0,3.600000143 L0,3.600000143 C-0,2.645586967 0.379543543,1.729287624 1.054415584,1.054415584 L1.054415584,1.054415584 C1.729287624,0.379543543 2.645586967,0 3.600000143,0 Z" stroke="#141414" stroke-width="3" stroke-linecap="round" fill="none"/>
    </g>
    <g transform="matrix(1,0,0,1,1173.6,730.07996)" v:mID="80">
     <title>Sheet.80</title>
     <path d="M2.879999876,0 L24.479999542,0 L24.479999542,0 C25.243530273,0.000000051 25.976570129,0.303634942 26.516468048,0.843532622 L26.516468048,0.843532622 C27.056367874,1.383430243 27.36000061,2.116469622 27.36000061,2.880000114 L27.36000061,2.879999876 L27.36000061,10.079999924 L27.36000061,10.079999924 C27.36000061,10.843530655 27.056367874,11.576569557 26.516468048,12.116467476 L26.516468048,12.116467476 C25.976570129,12.656364441 25.243530273,12.960000992 24.479999542,12.960000992 L24.479999542,12.960000992 C24.479999542,12.960000992 24.479999542,12.960000992 24.479999542,12.960000992 L24.479999542,12.960000992 L2.879999876,12.960000992 L2.879999876,12.960000992 C2.116469383,12.960000992 1.383430004,12.656364441 0.843532443,12.116467476 L0.843532443,12.116467476 C0.303634882,11.576569557 0.000000016,10.843530655 0,10.079999924 L0,10.079999924 L0,2.879999876 L0,2.879999876 C-0,2.116469383 0.303634852,1.383430004 0.843532443,0.843532443 L0.843532443,0.843532443 C1.383430004,0.303634852 2.116469383,0 2.879999876,0 Z" stroke="#141414" stroke-width="3" stroke-linecap="round" fill="none"/>
    </g>
    <g transform="matrix(1,0,0,1,1170,711.36)" v:mID="81">
     <title>Sheet.81</title>
     <path d="M0,0 L33.840000153,0 " stroke="#141414" stroke-width="2.4" stroke-linecap="round" fill="none"/>
    </g>
    <g transform="matrix(1,0,0,1,1170,691.2)" v:mID="82">
     <title>Sheet.82</title>
     <path d="M0,0 L33.840000153,0 " stroke="#141414" stroke-width="2.4" stroke-linecap="round" fill="none"/>
    </g>
    <g transform="matrix(1,0,0,1,1170,671.04)" v:mID="83">
     <title>Sheet.83</title>
     <path d="M0,0 L33.840000153,0 " stroke="#141414" stroke-width="2.4" stroke-linecap="round" fill="none"/>
    </g>
    <g transform="matrix(1,0,0,1,475.20004,103.68)" v:mID="84">
     <title>Sheet.84</title>
     <path d="M2.879999876,0 L56.159996033,0 L56.159996033,0 C56.923530579,-0.000000563 57.65656662,0.30363369 58.196464539,0.843530953 L58.196464539,0.843530953 C58.736358643,1.383428097 59.040000916,2.116467237 59.040000916,2.87999773 L59.040000916,2.879999876 L59.040000916,59.040000916 L59.040000916,59.040000916 C59.040000916,59.803531647 58.736358643,60.536567688 58.196464539,61.076465607 L58.196464539,61.076465607 C57.65656662,61.616363525 56.923530579,61.920001984 56.159996033,61.920001984 L56.159996033,61.920001984 C56.159996033,61.920001984 56.159996033,61.920001984 56.159996033,61.920001984 L56.159996033,61.920001984 L2.879999876,61.920001984 L2.879999876,61.920001984 C2.116469383,61.920001984 1.383430004,61.616363525 0.843532443,61.076465607 L0.843532443,61.076465607 C0.303634882,60.536567688 0.000000014,59.803531647 0,59.040000916 L0,59.040000916 L0,2.879999876 L0,2.879999876 C-0,2.116469383 0.303634852,1.383430004 0.843532443,0.843532443 L0.843532443,0.843532443 C1.383430004,0.303634852 2.116469383,0 2.879999876,0 Z" stroke="#141414" stroke-width="3" stroke-linecap="round" fill="none"/>
    </g>
    <g transform="matrix(1,0,0,1,468.00003,169.2)" v:mID="85">
     <title>Sheet.85</title>
     <path d="M0,0 L73.440002441,0 " stroke="#141414" stroke-width="3" stroke-linecap="round" fill="none"/>
    </g>
    <g transform="matrix(1,0,0,1,491.04004,168.48001)" v:mID="86">
     <title>Sheet.86</title>
     <path d="M2.159999847,0 L25.199998856,0 L25.199998856,0 C25.772647858,-0.000000127 26.322425842,0.227725893 26.727350235,0.632649004 L26.727350235,0.632649004 C27.132274628,1.037572145 27.36000061,1.587351561 27.36000061,2.159999371 L27.36000061,2.159999847 L27.36000061,10.800000191 L27.36000061,10.800000191 C27.36000061,11.372649193 27.132274628,11.922428131 26.727350235,12.327350616 L26.727350235,12.327350616 C26.322425842,12.732275009 25.772647858,12.960000992 25.199998856,12.960000992 L25.199998856,12.960000992 C25.199998856,12.960000992 25.199998856,12.960000992 25.199998856,12.960000992 L25.199998856,12.960000992 L2.159999847,12.960000992 L2.159999847,12.960000992 C1.587352037,12.960000992 1.037572622,12.732275009 0.632649362,12.327350616 L0.632649362,12.327350616 C0.227726147,11.922428131 0.000000012,11.372649193 0,10.800000191 L0,10.800000191 L0,2.159999847 L0,2.159999847 C-0,1.587352037 0.227726147,1.037572622 0.632649362,0.632649362 L0.632649362,0.632649362 C1.037572622,0.227726147 1.587352037,0 2.159999847,0 Z" stroke="#141414" stroke-width="3" stroke-linecap="round" fill="none"/>
    </g>
    <g transform="matrix(0.12403472,-0.99227786,0.99227786,0.12403472,489.6,151.19998)" v:mID="87">
     <title>Sheet.87</title>
     <path d="M0,0 L34.828952789,0 " stroke="#141414" stroke-width="2.2" stroke-linecap="round" fill="none"/>
    </g>
    <g transform="matrix(-0,-1,1,0,505.44,151.19998)" v:mID="88">
     <title>Sheet.88</title>
     <path d="M0,0 L34.559997559,0 " stroke="#141414" stroke-width="2.2" stroke-linecap="round" fill="none"/>
    </g>
    <g transform="matrix(-0.14430684,-0.989533,0.989533,-0.14430684,522,151.19998)" v:mID="89">
     <title>Sheet.89</title>
     <path d="M0,0 L34.925567627,0 " stroke="#141414" stroke-width="2.2" stroke-linecap="round" fill="none"/>
    </g>
    <g transform="matrix(1,0,0,1,817.2,118.8)" v:mID="90">
     <title>Sheet.90</title>
     <path d="M45.36000061,72 L0,0 L90,0 L45.36000061,72 " stroke="#141414" stroke-width="3" stroke-linecap="round" fill="none"/>
    </g>
    <g transform="matrix(1,0,0,1,851.75995,127.44)" v:mID="91">
     <title>Sheet.91</title>
     <g transform="matrix(1,0,0,1,0,0)">
      <text x="5.9147468" y="18" class="TextStyle2" fill="#141414" opacity="1" transform="matrix(1,0,0,-1,0,27)">!</text>
     </g>
    </g>
   </g>
  </g>
 </g>
 <style type="text/css"><![CDATA[ .TextStyle1 {font-family:Calibri;font-size:17px;font-weight:bold;}.TextStyle2 {font-family:Calibri;font-size:30px;font-weight:bold;}.TextStyle0 {font-family:Calibri;font-size:18px;font-weight:bold;} ]]></style>
</svg>
