<svg xmlns="http://www.w3.org/2000/svg" xmlns:xlink="http://www.w3.org/1999/xlink" xmlns:inkscape="http://www.inkscape.org/namespaces/inkscape" version="1.1" width="768" height="634" viewBox="0 50 768 634">
<defs>
<path id="font_1_1" d="M.036132814 .23242188 .17675781 .24609375C.18522136 .19872029 .20239258 .16392517 .22827149 .14170838 .2541504 .11950175 .2890625 .10839844 .3330078 .10839844 .37955729 .10839844 .41463218 .11827596 .43823243 .138031 .46183268 .15778606 .4736328 .18089295 .4736328 .20735169 .4736328 .22432964 .4686686 .23877461 .45874024 .25068666 .44881187 .26260887 .43147788 .27297975 .40673829 .28179933 .3898112 .28766886 .35123698 .29810588 .29101563 .31311036 .21354167 .33235679 .15917969 .3560079 .12792969 .38406373 .083984378 .4235331 .06201172 .47164408 .06201172 .5283966 .06201172 .56492617 .07234701 .5990906 .09301758 .6308899 .11368815 .6626994 .14347331 .68692019 .18237305 .70355227 .22127278 .7201945 .26822917 .7285156 .3232422 .7285156 .41308595 .7285156 .4807129 .70873007 .52612307 .66915896 .5715332 .62959799 .5953776 .5767924 .59765627 .5107422L.453125 .5048828C.4469401 .5416667 .43367515 .56811526 .41333009 .5842285 .39298503 .6003418 .36246745 .60839846 .32177735 .60839846 .27978517 .60839846 .24690755 .599767 .22314453 .5825043 .20784505 .5714366 .20019531 .5566203 .20019531 .5380554 .20019531 .52111819 .20735677 .5066274 .22167969 .49458314 .23990886 .47927348 .2841797 .4633026 .3544922 .44667054 .4248047 .43003846 .47680665 .41283164 .51049807 .39505006 .54418948 .37727867 .57055667 .35298158 .5895996 .3221588 .6086426 .29134623 .61816409 .25327049 .61816409 .20793152 .61816409 .16684468 .6067708 .12836202 .5839844 .09248352 .56119796 .056605024 .5289714 .029942831 .4873047 .012496948 .44563804-.004948934 .39371745-.013671875 .33154298-.013671875 .24104817-.013671875 .17154949 .007283529 .123046878 .049194337 .07454427 .09110514 .045572919 .15218099 .036132814 .23242188Z"/>
<path id="font_1_2" d="M.5307617 .26367188 .67089846 .21972656C.64941409 .1411031 .6136882 .082707729 .5637207 .044540407 .51375326 .0063832604 .45035807-.0126953129 .37353517-.0126953129 .27848307-.0126953129 .20035808 .01981608 .13916016 .08483887 .07796224 .14987183 .04736328 .23877461 .04736328 .35154725 .04736328 .47085063 .078125 .563502 .13964844 .62950137 .20117188 .69551089 .2820638 .7285156 .38232423 .7285156 .4698893 .7285156 .5410156 .7025757 .5957031 .6506958 .6282552 .62002566 .65266928 .5759786 .6689453 .5185547L.5258789 .484375C.51741537 .5214844 .49975587 .55078127 .4729004 .5722656 .44604493 .59375 .41341148 .6044922 .375 .6044922 .3219401 .6044922 .27888999 .5854492 .24584961 .5473633 .21280925 .50927737 .19628906 .44759117 .19628906 .3623047 .19628906 .2718099 .21256511 .20735677 .24511719 .16894531 .27766929 .13053386 .31998698 .111328128 .3720703 .111328128 .41048179 .111328128 .44352214 .12357076 .4711914 .14805603 .4988607 .17255147 .51871749 .21109009 .5307617 .26367188Z"/>
<path id="font_1_3" d="M.04345703 .35351563C.04345703 .42652384 .05436198 .48779807 .076171878 .53733828 .092447917 .5738475 .11466471 .6066081 .14282227 .6356201 .17097982 .66463217 .20182292 .68614706 .23535156 .7001648 .2799479 .71906539 .33138023 .7285156 .38964845 .7285156 .4951172 .7285156 .5795085 .695755 .64282229 .63023379 .70613607 .5647227 .73779299 .47362266 .73779299 .3569336 .73779299 .24122112 .7063802 .15068563 .6435547 .08532715 .5807292 .019978842 .49674479-.0126953129 .39160157-.0126953129 .28515626-.0126953129 .20052083 .01981608 .13769531 .08483887 .07486979 .14987183 .04345703 .23943074 .04345703 .35351563M.19238281 .35839845C.19238281 .27734376 .21110027 .21590169 .24853516 .17407227 .28597007 .13224285 .3334961 .111328128 .39111329 .111328128 .44873048 .111328128 .49601237 .13208008 .532959 .17358399 .5699056 .21508789 .5883789 .27734376 .5883789 .36035157 .5883789 .4423828 .57039389 .50358077 .5344238 .5439453 .49845378 .5843099 .4506836 .6044922 .39111329 .6044922 .33154298 .6044922 .28352867 .58406576 .24707031 .5432129 .21061199 .50236007 .19238281 .44075523 .19238281 .35839845Z"/>
<path id="font_1_4" d="M.07324219 0V.7158203H.3774414C.4539388 .7158203 .5095215 .7093913 .54418948 .6965332 .5788574 .6836751 .6066081 .6608073 .6274414 .6279297 .6482747 .59505209 .6586914 .5574544 .6586914 .5151367 .6586914 .46142579 .6429036 .41707359 .6113281 .38208009 .5797526 .34708659 .53255209 .32503257 .46972657 .31591798 .50097659 .2976888 .5267741 .27766929 .54711917 .25585938 .5674642 .23404949 .59488937 .1953125 .62939456 .13964844L.7167969 0H.5439453L.43945313 .1558075C.40234376 .21145122 .37695313 .24651082 .36328126 .26098634 .34960938 .27547203 .3351237 .2854004 .31982423 .29077149 .30452476 .29614259 .28027345 .29882813 .24707031 .29882813H.21777344V0H.07324219M.21777344 .41308595H.32470704C.39404298 .41308595 .43733726 .41601563 .45458985 .421875 .47184245 .42773438 .48535157 .43782554 .4951172 .45214845 .5048828 .46647135 .5097656 .484375 .5097656 .5058594 .5097656 .52994796 .5033366 .54939779 .49047853 .564209 .47762046 .5790202 .45947267 .5883789 .43603517 .59228518 .4243164 .5939128 .38916017 .59472659 .3305664 .59472659H.21777344V.41308595Z"/>
<path id="font_1_5" d="M.072753909 0V.7158203H.6035156V.59472659H.21728516V.43652345H.57666018V.3154297H.21728516V.12109375H.6171875V0H.072753909Z"/>
<path id="font_1_6" d="M.7182617 0H.56103518L.49853517 .16308594H.21240235L.15332031 0H0L.2788086 .7158203H.43164063L.7182617 0M.45214845 .2841797 .35351563 .5488281 .25683595 .2841797H.45214845Z"/>
<path id="font_1_7" d="M.072265628 .7158203H.33642579C.3959961 .7158203 .44140626 .711263 .47265626 .70214846 .51464846 .6897786 .55061849 .66780599 .5805664 .63623049 .61051437 .60465499 .6333008 .5659993 .6489258 .5202637 .6645508 .47452799 .6723633 .4181315 .6723633 .35107423 .6723633 .29215495 .66503909 .2413737 .6503906 .19873047 .632487 .14664714 .6069336 .10449219 .57373049 .072265628 .54866537 .047851564 .5148112 .028808594 .47216798 .015136719 .44026695 .0050455729 .3976237 0 .34423829 0H.072265628V.7158203M.21679688 .59472659V.12109375H.32470704C.36507163 .12109375 .39420573 .1233724 .41210938 .12792969 .43554688 .13377889 .45499674 .14369202 .47045899 .15766907 .48592124 .1716563 .49853517 .19466655 .5083008 .22669983 .5180664 .25873313 .5229492 .30238853 .5229492 .35766603 .5229492 .4129435 .5180664 .4553782 .5083008 .4849701 .49853517 .51456198 .48486329 .5376485 .46728517 .55422976 .44970704 .5708211 .42740885 .58204147 .40039063 .5878906 .38020835 .59244796 .34065757 .59472659 .28173829 .59472659H.21679688Z"/>
<path id="font_1_8" d="M.056152345 .19140625V.32910157H.3256836V.19140625H.056152345Z"/>
<path id="font_1_9" d="M.068359378 0V.7158203H.21289063V0H.068359378Z"/>
<path id="font_1_10" d="M.2553711 0-.00048828127 .7158203H.15625L.33740235 .18652344 .5126953 .7158203H.6660156L.40966798 0H.2553711Z"/>
<path id="font_1_11" d="M.07421875 0V.7158203H.21484375L.5078125 .23677063V.7158203H.64208987V0H.4970703L.2084961 .46810914V0H.07421875Z"/>
<path id="font_1_12" d="M.071777347 .7158203H.2163086V.328125C.2163086 .26660157 .21809896 .22672527 .22167969 .2084961 .22786458 .17919922 .2425944 .15568035 .26586915 .13793946 .2891439 .12019857 .32096354 .111328128 .36132813 .111328128 .40234376 .111328128 .43326823 .11971029 .45410157 .13647461 .4749349 .15323894 .48746745 .17382813 .49169923 .19824219 .495931 .22265625 .49804688 .2631836 .49804688 .31982423V.7158203H.6425781V.33958436C.6425781 .25359599 .6386719 .19284566 .6308594 .15733338 .6230469 .12183126 .6086426 .091863 .5876465 .06742859 .5666504 .043004354 .5385742 .023544312 .50341799 .009048462 .46826173-.0054473879 .42236329-.0126953129 .36572267-.0126953129 .29736329-.0126953129 .2455241-.004796346 .21020508 .011001587 .17488607 .02679952 .14697266 .047317506 .12646485 .07255554 .10595703 .09780375 .092447917 .12427267 .0859375 .15196228 .0764974 .19300843 .071777347 .25359599 .071777347 .33372499V.7158203Z"/>
<path id="font_1_13" d="M.23388672 0V.59472659H.021484375V.7158203H.59033206V.59472659H.37841798V0H.23388672Z"/>
<path id="font_1_14" d="M.07080078 0V.7158203H.28710938L.4169922 .22753906 .54541018 .7158203H.76220706V0H.6279297V.56347659L.48583985 0H.3466797L.20507813 .56347659V0H.07080078Z"/>
<path id="font_1_15" d="M.6489258 .0917511C.68440756 .06638082 .72298178 .046213788 .76464846 .03125L.7114258-.072265628C.6896159-.06575521 .66829428-.056803388 .64746096-.045410158 .6429036-.04313151 .61083987-.021972657 .55126956 .018066407 .50439456-.0024414063 .45247398-.0126953129 .3955078-.0126953129 .28548179-.0126953129 .19930013 .019734702 .13696289 .08459473 .07462565 .14946492 .04345703 .24057007 .04345703 .35791017 .04345703 .4749247 .07470703 .5659434 .13720703 .6309662 .19970703 .69599917 .28450523 .7285156 .39160157 .7285156 .49772135 .7285156 .58186849 .69606527 .64404299 .63116458 .70621749 .566274 .7373047 .47543846 .7373047 .35865785 .7373047 .29684959 .7286784 .2425232 .7114258 .19567871 .69840499 .15990193 .6775716 .1252594 .6489258 .0917511M.53271487 .17279053C.55126956 .19458008 .56518557 .22092183 .5744629 .2518158 .58374026 .28270976 .5883789 .3181559 .5883789 .3581543 .5883789 .44075523 .5701497 .50246176 .5336914 .5432739 .49723307 .5840861 .44954429 .6044922 .390625 .6044922 .33170573 .6044922 .28393556 .58396407 .24731446 .5429077 .21069336 .5018514 .19238281 .44010417 .19238281 .35766603 .19238281 .27392579 .21069336 .21128337 .24731446 .16973877 .28393556 .12819417 .33024089 .107421878 .38623048 .107421878 .4070638 .107421878 .4267578 .11089071 .4453125 .11782837 .41601563 .13717652 .38623048 .15226238 .35595704 .16308594L.39648438 .24707031C.4440104 .2305603 .48942057 .20580037 .53271487 .17279053Z"/>
<path id="font_1_16" d="M.076660159 0V.70996096H.2211914V.12109375H.5805664V0H.076660159Z"/>
<path id="font_1_17" d="M.2607422 0V.30126954L-.0014648438 .7158203H.16796875L.33642579 .4322052 .50146487 .7158203H.66796877L.40478517 .30029298V0H.2607422Z"/>
<path id="font_1_18" d="M0 0Z"/>
<path id="font_1_19" d="M.40576173 .2626953V.38378907H.71728518V.098587039C.6870117 .06917826 .64314779 .04327901 .58569338 .020889283 .52823898-.0015004476 .4700521-.0126953129 .4111328-.0126953129 .33626304-.0126953129 .2709961 .0030314129 .21533203 .034484865 .15966797 .06593832 .11783854 .11091614 .08984375 .16941834 .061848958 .22793071 .047851564 .2915751 .047851564 .36035157 .047851564 .43499757 .06347656 .5013275 .09472656 .55934146 .12597656 .61736556 .17171224 .66186019 .2319336 .6928253 .27783204 .71661886 .33496095 .7285156 .4033203 .7285156 .4921875 .7285156 .5616048 .7098338 .61157229 .6724701 .66153976 .6351166 .6936849 .5834859 .7080078 .5175781L.5644531 .49023438C.554362 .5255432 .5354004 .5534108 .50756838 .5738373 .47973634 .59427389 .44498698 .6044922 .4033203 .6044922 .34016929 .6044922 .28995768 .58447268 .25268556 .5444336 .2154134 .50439456 .19677735 .44498698 .19677735 .36621095 .19677735 .28125 .21565755 .2175293 .25341798 .17504883 .29117839 .13256836 .34065757 .111328128 .40185548 .111328128 .4321289 .111328128 .46248374 .117248538 .49291993 .12908936 .52335616 .14093018 .5494792 .1552887 .57128909 .17216492V.2626953H.40576173Z"/>
<path id="font_1_20" d="M.07373047 0V.7158203H.5644531V.59472659H.21826172V.42578126H.51708987V.3046875H.21826172V0H.07373047Z"/>
<path id="font_1_21" d="M.1743164 0 .0034179688 .7158203H.15136719L.25927735 .2241211 .39013673 .7158203H.5620117L.6875 .21582031 .7973633 .7158203H.9428711L.76904299 0H.61572268L.47314454 .53515627 .3310547 0H.1743164Z"/>
<path id="font_1_22" d="M.072753909 0V.7158203H.3046875C.39257813 .7158203 .44986979 .7122447 .4765625 .7050934 .5175781 .6943614 .5519206 .6710307 .57958987 .6351013 .6072591 .59917196 .62109377 .5527547 .62109377 .4958496 .62109377 .45195518 .61311849 .41504923 .59716799 .38513185 .58121749 .35521446 .5609538 .33172099 .53637698 .3146515 .5118001 .297582 .4868164 .2862803 .46142579 .28074647 .42692057 .27392069 .37695313 .2705078 .31152345 .2705078H.21728516V0H.072753909M.21728516 .59472659V.39160157H.29638673C.35335288 .39160157 .3914388 .39534507 .41064454 .40283204 .42985026 .410319 .4449056 .42203776 .45581056 .43798829 .46671549 .4539388 .47216798 .4724935 .47216798 .49365235 .47216798 .51969406 .46451823 .5411784 .44921876 .55810549 .43391929 .57503256 .41455079 .585612 .39111329 .58984377 .3738607 .59309896 .33919273 .59472659 .28710938 .59472659H.21728516Z"/>
<path id="font_2_1" d="M.23388672-.2109375C.18538411-.14973958 .14436849-.078125 .110839847 .00390625 .077311199 .0859375 .060546876 .17089844 .060546876 .25878907 .060546876 .33626304 .07307943 .41048179 .09814453 .4814453 .1274414 .56380209 .1726888 .6458333 .23388672 .72753909H.296875C.25748698 .65983077 .23144531 .6114909 .21875 .58251956 .19889324 .53759768 .18326824 .49072267 .171875 .44189454 .15787761 .38102214 .1508789 .31982423 .1508789 .25830079 .1508789 .10172526 .19954427-.0546875 .296875-.2109375H.23388672Z"/>
<path id="font_2_2" d="M.07714844 0V.7158203H.34716798C.394694 .7158203 .4309896 .71354678 .4560547 .70899966 .49121095 .70314028 .5206706 .69200137 .5444336 .6755829 .5681966 .6591644 .587321 .63615927 .60180667 .6065674 .6162923 .57698568 .62353518 .5444743 .62353518 .5090332 .62353518 .44822184 .6041667 .39676414 .5654297 .35466004 .5266927 .31255595 .45670573 .2915039 .35546876 .2915039H.171875V0H.07714844M.171875 .37597657H.3569336C.4181315 .37597657 .46158854 .38734437 .4873047 .41007997 .5130208 .4328257 .5258789 .4648336 .5258789 .5061035 .5258789 .5359904 .51831057 .5615743 .5031738 .5828552 .4880371 .60413619 .46809898 .6181895 .44335938 .62501528 .42740885 .6292369 .39794923 .63134768 .35498048 .63134768H.171875V.37597657Z"/>
<path id="font_2_3" d="M.42089845 .16699219 .51171877 .15576172C.49739585 .10270182 .47086589 .061523439 .4321289 .032226564 .39339195 .0029296876 .34391276-.01171875 .2836914-.01171875 .20784505-.01171875 .14770508 .01163737 .103271488 .05834961 .05883789 .10506185 .036621095 .17057292 .036621095 .2548828 .036621095 .3421224 .05908203 .40983073 .104003909 .4580078 .14892578 .5061849 .20719402 .53027346 .2788086 .53027346 .34814454 .53027346 .40478517 .5067088 .44873048 .45957948 .49267579 .41246034 .51464846 .34616599 .51464846 .2606964 .51464846 .25549827 .51448568 .247701 .51416018 .23730469H.1274414C.13069661 .1805013 .14680989 .13700359 .17578125 .10681152 .20475261 .07661947 .24088542 .061523439 .2841797 .061523439 .31640626 .061523439 .34391276 .0699056 .36669923 .08666992 .3894857 .10344442 .4075521 .1302185 .42089845 .16699219M.13232422 .31054688H.421875C.41796876 .3534546 .40690104 .38563539 .38867188 .40708924 .3606771 .4403839 .3243815 .45703126 .27978517 .45703126 .23942058 .45703126 .20548503 .44374085 .17797852 .41716004 .150472 .3905894 .1352539 .35505168 .13232422 .31054688Z"/>
<path id="font_2_4" d="M.064941409 0V.5185547H.14404297V.4404297C.16422527 .4770101 .18286133 .50112918 .19995117 .51278689 .21704102 .5244446 .23583985 .53027346 .25634767 .53027346 .28597007 .53027346 .31608073 .520874 .3466797 .5020752L.31640626 .42089845C.29492188 .43359376 .2734375 .4399414 .25195313 .4399414 .23274739 .4399414 .2154948 .43415324 .20019531 .4225769 .18489583 .41101075 .17399089 .3949636 .16748047 .37443543 .15771485 .3431549 .15283203 .3089396 .15283203 .27178956V0H.064941409Z"/>
<path id="font_2_5" d="M.06591797-.19921875V.5185547H.1459961V.45166017C.1648763 .4778646 .18619792 .4975179 .20996094 .5106201 .23372396 .52372238 .26253257 .53027346 .29638673 .53027346 .34065757 .53027346 .37972007 .5188802 .41357423 .49609376 .44742839 .47330729 .47298179 .4411621 .49023438 .3996582 .507487 .3581543 .5161133 .31266276 .5161133 .2631836 .5161133 .2101237 .5065918 .16235352 .48754884 .11987305 .46850587 .07739258 .44083659 .044840497 .40454103 .022216797 .36824546-.00040690104 .33007813-.01171875 .29003907-.01171875 .2607422-.01171875 .23445638-.005452474 .21118164 .007080078 .1879069 .019622803 .16878255 .035461427 .1538086 .054595949V-.19921875H.06591797M.14550781 .25708009C.14550781 .19042969 .15901692 .14117432 .18603516 .109313968 .21305339 .07745361 .24576824 .061523439 .2841797 .061523439 .3232422 .061523439 .35668946 .07802328 .38452149 .11102295 .41235353 .14402263 .42626954 .19514974 .42626954 .2644043 .42626954 .33040367 .41267906 .37982179 .38549806 .4126587 .35831706 .4454956 .32584635 .46191407 .28808595 .46191407 .25065104 .46191407 .2175293 .44443766 .1887207 .40948487 .15991211 .37453208 .14550781 .32373048 .14550781 .25708009Z"/>
<path id="font_2_6" d="M.063964847 0V.7158203H.15185547V0H.063964847Z"/>
<path id="font_2_7" d="M.0073242189 0 .19677735 .26953126 .021484375 .5185547H.13134766L.2109375 .39697267C.22591146 .3738607 .23795574 .3544922 .24707031 .3388672 .26139323 .36035157 .2745768 .37939454 .2866211 .3959961L.37402345 .5185547H.4790039L.2998047 .27441407 .49267579 0H.38476563L.2783203 .16113281 .25 .20458985 .11376953 0H.0073242189Z"/>
<path id="font_2_8" d="M.06640625 .6142578V.7158203H.15429688V.6142578H.06640625M.06640625 0V.5185547H.15429688V0H.06640625Z"/>
<path id="font_2_9" d="M.2578125 .07763672 .2705078 0C.24576824-.0045572917 .22363281-.0068359377 .20410156-.0068359377 .17220052-.0068359377 .14746094-.0017903646 .12988281 .008300781 .11230469 .018391928 .0999349 .031656904 .09277344 .048095704 .08561198 .06453451 .08203125 .099121097 .08203125 .15185547V.4501953H.017578125V.5185547H.08203125V.6473236L.1694336 .7001953V.5185547H.2578125V.4501953H.1694336V.14697266C.1694336 .121907558 .17097982 .10579427 .17407227 .09863281 .17716472 .09147135 .18221028 .08577474 .18920899 .08154297 .19620769 .077311199 .20621746 .07519531 .21923828 .07519531 .2290039 .07519531 .24186199 .07600912 .2578125 .07763672Z"/>
<path id="font_2_10" d="M.06201172-.20019531 .052246095-.11767578C.07145182-.12288412 .08821615-.12548828 .10253906-.12548828 .12207031-.12548828 .13769531-.12219238 .14941406-.115600589 .16113281-.10901896 .17073567-.09979757 .17822266-.0879364 .18375652-.079045619 .19270833-.056981405 .20507813-.021743775 .20670574-.016799927 .20930989-.009552002 .21289063 0L.016113282 .5185547H.110839847L.21875 .21896363C.23274739 .18095906 .24527996 .14101155 .25634767 .099121097 .2664388 .13939412 .27848307 .1786906 .29248048 .2170105L.4033203 .5185547H.49121095L.2939453-.009140015C.27278648-.06614685 .25634767-.105397548 .2446289-.12689209 .2290039-.15588379 .21110027-.17713928 .19091797-.19065857 .17073567-.20417786 .14664714-.2109375 .118652347-.2109375 .10172526-.2109375 .082845058-.20735677 .06201172-.20019531Z"/>
<path id="font_2_11" d="M.123535159-.2109375H.060546876C.15787761-.0546875 .20654297 .10172526 .20654297 .25830079 .20654297 .3194987 .19954427 .38020835 .18554688 .4404297 .17447917 .4892578 .15901692 .5361328 .13916016 .5810547 .12646485 .61035159 .100260417 .6591797 .060546876 .72753909H.123535159C.18473308 .6458333 .22998047 .56380209 .25927735 .4814453 .28434245 .41048179 .296875 .33626304 .296875 .25878907 .296875 .17089844 .2800293 .0859375 .24633789 .00390625 .21264649-.078125 .17171224-.14973958 .123535159-.2109375Z"/>
<path id="font_2_12" d="M.25927735 0V.63134768H.0234375V.7158203H.5908203V.63134768H.3540039V0H.25927735Z"/>
<path id="font_2_13" d="M.28173829 0 .0043945314 .7158203H.106933597L.29296876 .19580078C.30794273 .15413411 .32047526 .11507162 .3305664 .07861328 .34163413 .11767578 .3544922 .15673828 .36914063 .19580078L.5625 .7158203H.6591797L.37890626 0H.28173829Z"/>
<path id="font_2_14" d="M.030761719 .15527344 .11767578 .16894531C.122558597 .13426717 .1361491 .107691448 .15844727 .08921814 .18074544 .070755008 .21191406 .061523439 .25195313 .061523439 .29231773 .061523439 .32226563 .06967672 .34179688 .08598328 .36132813 .10230001 .37109376 .12143453 .37109376 .14338684 .37109376 .16309102 .36246745 .17859395 .34521485 .18989563 .33317057 .1976471 .30322267 .20749919 .2553711 .2194519 .19091797 .23573812 .14624024 .24982707 .12133789 .26171876 .09643555 .27361045 .077555339 .29006449 .064697269 .31108094 .05183919 .33209739 .045410158 .35531108 .045410158 .38072206 .045410158 .40385438 .05069987 .4252777 .061279298 .44499208 .07185873 .46470643 .08626302 .4810791 .10449219 .4941101 .11816406 .5042114 .13680013 .5127614 .16040039 .51976016 .18400066 .526769 .20930989 .53027346 .23632813 .53027346 .27701823 .53027346 .31274415 .52437338 .34350587 .51257327 .37426759 .50078329 .39697267 .48480735 .4116211 .4646454 .42626954 .44449363 .4363607 .4175415 .44189454 .38378907L.35595704 .3720703C.35205079 .39876304 .34073893 .41959635 .32202149 .4345703 .30330406 .44954429 .27685548 .45703126 .24267578 .45703126 .2023112 .45703126 .17350261 .45038859 .15625 .43710328 .13899739 .42382813 .1303711 .40827943 .1303711 .39045716 .1303711 .37912498 .13395183 .3689219 .14111328 .35984803 .14827474 .35045878 .1595052 .34268699 .17480469 .3365326 .18359375 .33328758 .20947266 .32583619 .2524414 .31417848 .31461589 .29758708 .35799156 .28400675 .38256837 .2734375 .40714518 .26286827 .42643229 .24749756 .4404297 .22732544 .4544271 .2071635 .46142579 .18212383 .46142579 .15220642 .46142579 .12292989 .45288087 .09536234 .43579103 .069503787 .41870118 .043655397 .39404298 .02365621 .3618164 .009506226 .32958985-.0046437585 .2931315-.01171875 .2524414-.01171875 .1850586-.01171875 .13370769 .002319336 .09838867 .030395508 .063069667 .05847168 .040527345 .100097659 .030761719 .15527344Z"/>
<path id="font_2_15" d="M.40576173 0V.076171878C.36539714 .017578125 .31054688-.01171875 .24121094-.01171875 .21061199-.01171875 .18204753-.005859375 .15551758 .005859375 .12898763 .017578125 .10929362 .03230794 .09643555 .050048829 .08357748 .06778971 .07454427 .08951823 .06933594 .115234378 .06575521 .13248699 .063964847 .15983074 .063964847 .19726563V.5185547H.15185547V.23095703C.15185547 .1850586 .15364583 .15413411 .15722656 .1381836 .16276042 .11507162 .17447917 .09692383 .19238281 .083740238 .21028646 .07055664 .23242188 .063964847 .25878907 .063964847 .28515626 .063964847 .30989585 .0707194 .3330078 .084228519 .35611979 .09773763 .3724772 .116129558 .38208009 .1394043 .39168296 .16267903 .39648438 .19645183 .39648438 .24072266V.5185547H.484375V0H.40576173Z"/>
<path id="font_2_16" d="M.40429688 .06402588C.37174479 .03633626 .34041343 .016789755 .31030274 .0053863527 .28019206-.0060170495 .24788411-.01171875 .2133789-.01171875 .15641277-.01171875 .11263021 .0022074383 .08203125 .030059815 .051432294 .05791219 .036132814 .09350077 .036132814 .13682556 .036132814 .16222637 .04191081 .18542989 .053466798 .20643616 .06502279 .22745259 .08015951 .24431356 .09887695 .25701905 .1175944 .26972453 .13867188 .2793325 .16210938 .2858429 .17936199 .29041038 .20540364 .29480998 .24023438 .29904176 .3111979 .30744425 .363444 .3174642 .39697267 .32910157 .3972982 .34109498 .39746095 .3487142 .39746095 .35195924 .39746095 .38763429 .38916017 .4127655 .3725586 .4273529 .35009767 .44713847 .31673179 .45703126 .27246095 .45703126 .2311198 .45703126 .20060222 .44978843 .1809082 .43530274 .16121419 .42081706 .14664714 .39518229 .13720703 .35839845L.05126953 .3701172C.05908203 .40701295 .0719401 .43680827 .08984375 .45950318 .1077474 .4821981 .1336263 .4996643 .16748047 .51190188 .20133464 .5241496 .24055989 .53027346 .28515626 .53027346 .3294271 .53027346 .36539714 .5250651 .3930664 .51464846 .4207357 .50423178 .44108073 .49112956 .45410157 .4753418 .4671224 .45955406 .47623698 .43961589 .4814453 .41552735 .484375 .40055339 .48583985 .37353517 .48583985 .33447267V.21728516C.48583985 .13557942 .48771159 .08390299 .49145509 .06225586 .49519859 .040608724 .5026042 .019856772 .5136719 0H.421875C.4127604 .018249512 .40690104 .039591474 .40429688 .06402588M.39697267 .2607422C.36507163 .24760945 .31722007 .2364502 .25341798 .2272644 .21728516 .22203572 .19173177 .21615093 .17675781 .20960999 .16178386 .20307923 .15022786 .19351705 .14208985 .18092346 .13395183 .16834004 .12988281 .15436809 .12988281 .13900757 .12988281 .115478519 .13875325 .09586588 .15649414 .08016968 .17423503 .06448364 .20019531 .056640626 .234375 .056640626 .26822917 .056640626 .29833985 .064081829 .32470704 .07896423 .35107423 .09384664 .37044273 .11420695 .3828125 .14004517 .3922526 .16000366 .39697267 .18944295 .39697267 .22836304V.2607422Z"/>
<path id="font_2_17" d="M.03173828 .21484375V.30371095H.3017578V.21484375H.03173828Z"/>
<path id="font_1_23" d="M.2290039 .103515628V.2890625H.041503908V.41796876H.2290039V.6035156H.3540039V.41796876H.5419922V.2890625H.3540039V.103515628H.2290039Z"/>
<path id="font_1_24" d="M0 0 .24763489 .37234498 .022949219 .7158203H.19189453L.33361817 .5016327 .47607423 .7158203H.6435547L.41854859 .37327577 .66552737 0H.49121095L.33261109 .24246216 .17333985 0H0Z"/>
<path id="font_2_18" d="M.11279297 .17871094 .0859375 .5574188V.7158203H.19482422V.5574188L.1694336 .17871094H.11279297M.08984375 0V.10058594H.19091797V0H.08984375Z"/>
<path id="font_2_19" d="M.07714844 0V.7158203H.32373048C.37939454 .7158203 .421875 .71240237 .45117188 .7055664 .4921875 .6961263 .52718099 .67903646 .55615237 .6542969 .5939128 .6223958 .6221517 .5816243 .64086917 .5319824 .6595866 .48234049 .6689453 .4256185 .6689453 .3618164 .6689453 .30745445 .66259768 .25927735 .64990237 .21728516 .63720706 .17529297 .62093099 .14054363 .6010742 .11303711 .58121749 .0855306 .55948898 .06388346 .5358887 .048095704 .5122884 .03230794 .48380534 .020345053 .45043946 .012207031 .41707359 .0040690104 .3787435 0 .33544923 0H.07714844M.171875 .084472659H.32470704C.37190757 .084472659 .40893556 .08886719 .43579103 .09765625 .46264649 .10644531 .48404948 .1188151 .5 .13476563 .52246096 .15722656 .5399577 .18741863 .55249026 .2253418 .56502279 .26326499 .57128909 .30924479 .57128909 .36328126 .57128909 .43815104 .5590007 .49568687 .5344238 .5358887 .509847 .5760905 .47998048 .60302737 .44482423 .6166992 .4194336 .62646487 .37858073 .63134768 .32226563 .63134768H.171875V.084472659Z"/>
<path id="font_2_20" d="M.40234376 0V.06542969C.36946617 .0139973959 .3211263-.01171875 .25732423-.01171875 .21598308-.01171875 .17797852-.00032552085 .14331055 .022460938 .10864258 .045247396 .08178711 .077067058 .06274414 .11791992 .043701173 .15877278 .034179689 .20572917 .034179689 .25878907 .034179689 .31054688 .04280599 .35750328 .060058595 .3996582 .077311199 .44181315 .1031901 .4741211 .13769531 .49658204 .17220052 .51904299 .21077474 .53027346 .25341798 .53027346 .28466798 .53027346 .3125 .52368167 .33691407 .51049807 .36132813 .49731446 .3811849 .48014323 .39648438 .45898438V.7158203H.48388673V0H.40234376M.12451172 .2590332C.12451172 .1928711 .13850911 .14341228 .1665039 .11065674 .1944987 .07790121 .22753906 .061523439 .265625 .061523439 .30403648 .061523439 .33666993 .077168788 .3635254 .10845947 .39038087 .13976033 .4038086 .18752034 .4038086 .2517395 .4038086 .32243858 .39013673 .3743286 .36279298 .40740968 .33544923 .44049073 .3017578 .45703126 .26171876 .45703126 .22265625 .45703126 .19002278 .4411367 .16381836 .40934754 .13761394 .37756858 .12451172 .32746379 .12451172 .2590332Z"/>
<path id="font_2_21" d="M.40429688 .19042969 .49072267 .17919922C.48128257 .11947632 .45711265 .07272339 .4182129 .03894043 .37931315 .005167643 .33154298-.01171875 .27490235-.01171875 .2039388-.01171875 .14689128 .011474609 .103759769 .057861329 .060628255 .10424805 .0390625 .17073567 .0390625 .25732423 .0390625 .3133138 .048339845 .3623047 .06689453 .40429688 .08544922 .44628907 .11368815 .4777832 .15161133 .4987793 .1895345 .5197754 .23079427 .53027346 .27539063 .53027346 .33170573 .53027346 .37776695 .51598617 .41357423 .4874115 .4493815 .45884706 .47233073 .4182841 .48242188 .36572267L.39697267 .35253907C.38883464 .38720704 .37443034 .4132894 .35375978 .43078614 .3330892 .44828288 .30810548 .45703126 .2788086 .45703126 .23453777 .45703126 .1985677 .4412384 .17089844 .4096527 .14322917 .37807719 .12939453 .32811485 .12939453 .25976563 .12939453 .19043987 .14274089 .1400655 .1694336 .10864258 .1961263 .07722982 .23095703 .061523439 .27392579 .061523439 .308431 .061523439 .3372396 .07206217 .36035157 .09313965 .38346354 .114217128 .39811198 .14664714 .40429688 .19042969Z"/>
<path id="font_2_22" d="M.033203126 .25927735C.033203126 .355306 .059895833 .42643229 .11328125 .47265626 .15787761 .5110677 .21223958 .53027346 .2763672 .53027346 .34765626 .53027346 .40592448 .5069173 .45117188 .46020509 .49641929 .41349284 .51904299 .34895835 .51904299 .26660157 .51904299 .1998698 .5090332 .14737956 .48901368 .10913086 .46899415 .070882167 .43986003 .041178388 .40161134 .020019532 .36336265-.0011393229 .3216146-.01171875 .2763672-.01171875 .20377605-.01171875 .1451009 .011555989 .1003418 .05810547 .055582685 .104654949 .033203126 .17171224 .033203126 .25927735M.123535159 .25952149C.123535159 .19335938 .13802083 .14381917 .16699219 .11090088 .19596355 .07798258 .23242188 .061523439 .2763672 .061523439 .31998698 .061523439 .35628257 .078063968 .3852539 .11114502 .41422526 .14422608 .42871095 .19465637 .42871095 .2624359 .42871095 .32632957 .4141439 .3747355 .38500978 .4076538 .35587565 .4405721 .31966148 .45703126 .2763672 .45703126 .23242188 .45703126 .19596355 .44065348 .16699219 .40789796 .13802083 .37514244 .123535159 .3256836 .123535159 .25952149Z"/>
<path id="font_2_23" d="M.06591797 0V.5185547H.14501953V.4453125C.18310547 .5019531 .23811849 .53027346 .3100586 .53027346 .3413086 .53027346 .3700358 .5246582 .39624024 .51342776 .42244468 .50219729 .44205729 .48746745 .45507813 .46923829 .46809898 .45100913 .47721354 .42936198 .48242188 .40429688 .4856771 .38802085 .4873047 .35953776 .4873047 .31884767V0H.39941407V.31576539C.39941407 .35161338 .3959961 .37841798 .38916017 .3961792 .38232423 .41394044 .37019859 .42811585 .3527832 .43870545 .33536784 .44929505 .3149414 .45458985 .2915039 .45458985 .254069 .45458985 .22176107 .44269309 .19458008 .41889955 .1673991 .39511619 .1538086 .34998576 .1538086 .2835083V0H.06591797Z"/>
<path id="font_3_1" d="M.55908206 .7158203V.63134768H.17480469L.4189453 .37158204 .17480469 .084472659H.57910159V0H.072265628V.09863281L.30615235 .37158204 .072265628 .62060549V.7158203H.55908206Z"/>
<path id="font_2_24" d="M.06591797 0V.7158203H.1538086V.45898438C.19482422 .50651046 .24658203 .53027346 .30908204 .53027346 .3474935 .53027346 .38085938 .5227051 .4091797 .50756838 .4375 .49243165 .45776368 .47151695 .4699707 .44482423 .48217774 .4181315 .48828126 .37939454 .48828126 .32861329V0H.40039063V.32861329C.40039063 .3725586 .39086915 .40454103 .37182618 .42456056 .3527832 .44458009 .32584635 .45458985 .29101563 .45458985 .26497398 .45458985 .24047852 .4478353 .2175293 .43432618 .19458008 .42081706 .17822266 .4025065 .16845703 .37939454 .1586914 .35628257 .1538086 .3243815 .1538086 .2836914V0H.06591797Z"/>
<path id="font_2_25" d="M0 0Z"/>
<path id="font_2_26" d="M.5878906 .25195313 .6826172 .22802735C.66276046 .15006511 .6270345 .09061686 .57543948 .049682619 .5238444 .008748372 .46077476-.01171875 .38623048-.01171875 .30908204-.01171875 .24633789 .0039876305 .19799805 .03540039 .1496582 .06681315 .11287435 .11230469 .087646488 .171875 .06241862 .23144531 .049804689 .29541017 .049804689 .36376954 .049804689 .4383138 .06404623 .5033366 .0925293 .5588379 .12101237 .6143392 .16153972 .65649417 .21411133 .68530276 .26668296 .7141113 .32454429 .7285156 .3876953 .7285156 .4593099 .7285156 .51953127 .71028646 .5683594 .6738281 .6171875 .6373698 .6512044 .5861003 .67041018 .52001956L.57714846 .49804688C.5605469 .55030319 .5364583 .5883484 .5048828 .6121826 .47330729 .63602706 .43359376 .6479492 .3857422 .6479492 .33072917 .6479492 .28474937 .6347402 .24780274 .60832217 .21085613 .58191427 .18489583 .5464528 .16992188 .50193789 .15494792 .45743308 .14746094 .4115448 .14746094 .36427308 .14746094 .30329896 .15633138 .25006614 .17407227 .20457459 .19181316 .15908306 .21940105 .12508647 .25683595 .10258484 .29427085 .080093387 .3347982 .068847659 .37841798 .068847659 .43147788 .068847659 .47639976 .084228519 .5131836 .114990238 .54996749 .14575196 .5748698 .19140625 .5878906 .25195313Z"/>
<path id="font_2_27" d="M.06640625 0V.7158203H.15429688V.3076172L.3623047 .5185547H.47607423L.27783204 .32617188 .49609376 0H.3876953L.2163086 .26513673 .15429688 .2055664V0H.06640625Z"/>
<path id="font_4_1" d="M.2211914 .31933595C.23388672 .31933595 .24348958 .30891929 .25 .28808595 .26302085 .24902344 .2722982 .22949219 .27783204 .22949219 .2820638 .22949219 .28645835 .23274739 .29101563 .23925781 .38248698 .3857422 .4671224 .50423178 .5449219 .59472659 .5651042 .61816409 .59716799 .6298828 .6411133 .6298828 .65152999 .6298828 .6585286 .62890627 .6621094 .6269531 .6656901 .625 .66748049 .6225586 .66748049 .6196289 .66748049 .6150716 .6621094 .6061198 .6513672 .59277346 .5257161 .44173179 .4091797 .28222657 .3017578 .11425781 .29427085 .10253906 .27897135 .09667969 .25585938 .09667969 .23242188 .09667969 .21858724 .09765625 .21435547 .099609378 .20328777 .10449219 .19026692 .12939453 .17529297 .1743164 .15836589 .2241211 .14990235 .2553711 .14990235 .2680664 .14990235 .28173829 .16129558 .29492188 .18408203 .3076172 .19807942 .3154297 .21044922 .31933595 .2211914 .31933595Z"/>
<path id="font_2_28" d="M.080078128 0V.7158203H.17480469V.421875H.546875V.7158203H.64160159V0H.546875V.33740235H.17480469V0H.080078128Z"/>
<path id="font_2_29" d="M.049804689-.04296875 .1352539-.055664064C.13883464-.08203125 .14876302-.10123698 .16503906-.11328125 .18684896-.1295573 .21663411-.13769531 .25439454-.13769531 .29508464-.13769531 .3264974-.12953694 .3486328-.113220218 .37076823-.09691366 .3857422-.07407633 .3935547-.044708253 .39811198-.026774088 .40022788 .010904948 .39990235 .06832886 .36149089 .022776286 .3136393 0 .25634767 0 .1850586 0 .12988281 .025716147 .09082031 .07714844 .051757814 .12858074 .032226564 .19026692 .032226564 .26220704 .032226564 .3116862 .041178388 .35734049 .05908203 .39916993 .07698568 .44099937 .10294596 .47330729 .13696289 .49609376 .17097982 .5188802 .2109375 .53027346 .25683595 .53027346 .31803385 .53027346 .3684896 .5053711 .40820313 .4555664V.5185547H.4892578V.070007327C.4892578-.010772705 .48103843-.06801859 .4645996-.10173035 .4481608-.1354421 .42211915-.16206868 .3864746-.1816101 .35083009-.2011617 .30696617-.2109375 .2548828-.2109375 .19303386-.2109375 .1430664-.19698079 .10498047-.16906739 .06689453-.14115398 .048502607-.099121097 .049804689-.04296875M.122558597 .26853944C.122558597 .20067851 .1360677 .15116374 .16308594 .11999512 .19010417 .0888265 .22395833 .07324219 .26464845 .07324219 .30501304 .07324219 .3388672 .08874512 .36621095 .11975098 .3935547 .15075684 .40722657 .19938152 .40722657 .265625 .40722657 .3289388 .3931478 .3766683 .36499024 .40881349 .33683268 .44095866 .30289714 .45703126 .2631836 .45703126 .2241211 .45703126 .19091797 .4412028 .16357422 .4095459 .13623047 .377889 .122558597 .33088685 .122558597 .26853944Z"/>
<path id="font_2_30" d="M.6196289 .0770874C.6635742 .046844484 .70410159 .02472941 .74121096 .0107421879L.7133789-.055664064C.6619466-.037017824 .61067709-.0075785319 .5595703 .03265381 .50651046 .0030721029 .44791667-.01171875 .38378907-.01171875 .3190104-.01171875 .2602539 .0038960775 .20751953 .035125734 .15478516 .066355388 .11417643 .11027018 .08569336 .16687012 .057210287 .22348023 .04296875 .2872416 .04296875 .3581543 .04296875 .42874146 .057291669 .49298606 .0859375 .55088809 .114583339 .60880026 .15535482 .6528829 .20825196 .683136 .26114909 .7133891 .3203125 .7285156 .3857422 .7285156 .4518229 .7285156 .51139327 .7128194 .5644531 .681427 .617513 .6500346 .657959 .6061147 .685791 .54966738 .71362307 .4932302 .72753909 .42955528 .72753909 .35864259 .72753909 .299764 .7185872 .24682109 .7006836 .19981385 .68277999 .1528066 .6557617 .11189779 .6196289 .0770874M.4111328 .19824219C.4658203 .18284099 .51090499 .15990193 .5463867 .12942505 .6020508 .18029785 .6298828 .2567698 .6298828 .35884095 .6298828 .41689555 .6200358 .4676056 .6003418 .51097109 .58064779 .55434677 .5518392 .58801779 .513916 .61198428 .47599284 .6359609 .433431 .6479492 .38623048 .6479492 .31559245 .6479492 .2569987 .6237386 .21044922 .5753174 .16389974 .5268962 .140625 .45458985 .140625 .35839845 .140625 .26514689 .1636556 .193573 .2097168 .14367676 .25577799 .09379069 .31461589 .068847659 .38623048 .068847659 .42008464 .068847659 .4519857 .07520548 .4819336 .08792114 .4523112 .1071167 .4210612 .120778407 .3881836 .12890625L.4111328 .19824219Z"/>
<path id="font_2_31" d="M.07324219 0V.7158203H.34179688C.39648438 .7158203 .4403483 .70857748 .47338868 .6940918 .506429 .67960616 .5323079 .6573079 .5510254 .62719729 .56974288 .5970866 .57910159 .56559249 .57910159 .53271487 .57910159 .5021159 .5708008 .47330729 .5541992 .44628907 .53759768 .41927085 .51253256 .39746095 .4790039 .38085938 .52229818 .36816407 .5555827 .34651695 .5788574 .31591798 .60213217 .285319 .61376956 .2491862 .61376956 .20751953 .61376956 .17399089 .60668948 .14282227 .5925293 .11401367 .57836917 .08520508 .5608724 .06298828 .54003909 .04736328 .51920577 .03173828 .49308268 .01993815 .46166993 .011962891 .43025718 .0039876305 .3917643 0 .3461914 0H.07324219M.16796875 .41503907H.3227539C.3647461 .41503907 .39485679 .417806 .41308595 .42333985 .43717448 .4305013 .45532228 .4423828 .4675293 .45898438 .47973634 .47558595 .48583985 .49641929 .48583985 .5214844 .48583985 .5452474 .48014323 .5661621 .46875 .5842285 .45735679 .6022949 .44108073 .61466476 .41992188 .6213379 .39876304 .62801107 .36246745 .63134768 .31103517 .63134768H.16796875V.41503907M.16796875 .084472659H.3461914C.37679038 .084472659 .39827476 .08561198 .41064454 .087890628 .43245445 .091796878 .4506836 .09830729 .46533204 .107421878 .47998048 .11653646 .49202476 .12980144 .50146487 .1472168 .51090499 .16463216 .515625 .18473308 .515625 .20751953 .515625 .23421224 .50878909 .2574056 .4951172 .2770996 .4814453 .2967936 .46248374 .31062828 .43823243 .31860353 .4139811 .32657878 .379069 .3305664 .3334961 .3305664H.16796875V.084472659Z"/>
<path id="font_2_32" d="M.07861328 .19970703 .23242188 .35429383 .07910156 .5078125 .13867188 .5673828 .2919922 .41377259 .44482423 .56640627 .50341799 .50683596 .35107423 .35469056 .50439456 .20117188 .44482423 .14160156 .2915039 .2952118 .13769531 .140625 .07861328 .19970703Z"/>
<path id="font_1_25" d="M.3310547 .7158203H.47509767V.26239015C.47509767 .20310466 .4698893 .15750122 .45947267 .12557984 .44547526 .08388265 .42008464 .050409955 .38330079 .025161744 .34651695-.000076293948 .2980143-.0126953129 .23779297-.0126953129 .16715496-.0126953129 .11279297 .0071614587 .07470703 .046875 .036621095 .08659872 .017415366 .14486695 .017089844 .22167969L.15332031 .23730469C.15494792 .1961263 .16097005 .16704305 .17138672 .15005493 .18701172 .12423706 .21077474 .111328128 .24267578 .111328128 .27490235 .111328128 .2976888 .120524089 .31103517 .13891602 .3243815 .15730794 .3310547 .19547527 .3310547 .25341798V.7158203Z"/>
<path id="font_2_33" d="M.07324219 0V.7158203H.16796875V.084472659H.5205078V0H.07324219Z"/>
<path id="font_2_34" d="M.1616211 0 .0029296876 .5185547H.09375L.17626953 .21928406 .20703125 .107910159C.20833333 .11343384 .21728516 .14904277 .23388672 .21473694L.31640626 .5185547H.40673829L.484375 .21783448 .5102539 .118652347 .54003909 .21876526 .62890627 .5185547H.71435549L.5522461 0H.4609375L.37841798 .31071473 .35839845 .39892579 .25341798 0H.1616211Z"/>
<path id="font_1_26" d="M.07324219 .7158203H.359375C.41601563 .7158203 .45825196 .71346029 .48608399 .70874026 .513916 .70403036 .53881838 .6941986 .560791 .679245 .5827637 .6643016 .6010742 .6443939 .61572268 .6195221 .6303711 .59466049 .6376953 .5667877 .6376953 .53590396 .6376953 .50242617 .6286621 .4717102 .6105957 .4437561 .5925293 .415802 .5680339 .39483644 .5371094 .38085938 .5807292 .3681437 .6142578 .34646607 .6376953 .31582643 .6611328 .28519694 .67285159 .2491811 .67285159 .20777893 .67285159 .17518616 .6652832 .14348857 .6501465 .11268616 .63500979 .08189392 .6143392 .05728658 .58813479 .038864137 .56193038 .020451865 .5296224 .009124756 .49121095 .0048828127 .4671224 .0022786458 .40901695 .0006510417 .31689454 0H.07324219V.7158203M.21777344 .5966797V.43164063H.3125C.3688151 .43164063 .4038086 .43245445 .41748048 .43408204 .44222007 .43700157 .46166993 .44551597 .47583009 .45962525 .48999024 .47374473 .4970703 .49232994 .4970703 .51538088 .4970703 .53744509 .4909668 .55537417 .47875978 .5691681 .46655274 .58296206 .44840495 .5913188 .4243164 .5942383 .4099935 .5958659 .3688151 .5966797 .30078126 .5966797H.21777344M.21777344 .3125V.12109375H.3515625C.40364585 .12109375 .4366862 .122558597 .4506836 .12548828 .47216798 .12939453 .4896647 .13891602 .5031738 .15405274 .5166829 .16918946 .5234375 .18945313 .5234375 .21484375 .5234375 .23632813 .5182292 .25455729 .5078125 .26953126 .49739585 .28450523 .48234049 .29541017 .46264649 .3022461 .44295249 .30908204 .40022788 .3125 .33447267 .3125H.21777344Z"/>
<path id="font_1_27" d="M.07470703 0V.7158203H.21923828V.39770509L.51123049 .7158203H.7055664L.43603517 .4373474 .72021487 0H.5332031L.33642579 .33622743 .21923828 .2163086V0H.07470703Z"/>
<path id="font_2_35" d="M.07421875 0V.7158203H.21679688L.38623048 .20898438C.40185548 .16178386 .4132487 .12646485 .42041017 .103027347 .4285482 .12906902 .4412435 .1673177 .4584961 .21777344L.6298828 .7158203H.7573242V0H.6660156V.5991211L.4580078 0H.3725586L.16552735 .609375V0H.07421875Z"/>
<path id="font_2_36" d="M.07910156 0V.7158203H.5966797V.63134768H.17382813V.41210938H.5698242V.32910157H.17382813V.084472659H.61328127V0H.07910156Z"/>
<path id="font_2_37" d="M.20996094 0 .0126953129 .5185547H.10546875L.21679688 .20800781C.22884114 .17447917 .23990886 .13964844 .25 .103515628 .2578125 .13085938 .26871745 .16373699 .28271485 .20214844L.39794923 .5185547H.48828126L.2919922 0H.20996094Z"/>
<path id="font_2_38" d="M0-.01171875 .20751953 .72753909H.27783204L.07080078-.01171875H0Z"/>
<path id="font_2_39" d="M.08203125 0V.7158203H.5649414V.63134768H.17675781V.41015626H.5126953V.3256836H.17675781V0H.08203125Z"/>
<path id="font_2_40" d="M.14697266 0H.06542969V.7158203H.15332031V.45950318C.19042969 .50668337 .23779297 .53027346 .29541017 .53027346 .3273112 .53027346 .35750328 .5238444 .38598634 .5109863 .4144694 .49812828 .4379069 .48006187 .45629884 .4567871 .47469078 .43351237 .48909507 .4054362 .49951173 .3725586 .5099284 .339681 .5151367 .30452476 .5151367 .26708985 .5151367 .17822266 .49316407 .10953776 .44921876 .061035158 .40527345 .012532552 .35253907-.01171875 .29101563-.01171875 .2298177-.01171875 .18180339 .014160156 .14697266 .06591797V0M.1459961 .26316834C.1459961 .20129903 .15445964 .15659587 .17138672 .12905884 .19905599 .08403524 .23649089 .061523439 .2836914 .061523439 .32210288 .061523439 .355306 .078125 .38330079 .111328128 .41129557 .14453125 .42529298 .19401042 .42529298 .25976563 .42529298 .32713828 .41186524 .37685649 .38500978 .4089203 .3581543 .44099427 .3256836 .45703126 .28759767 .45703126 .2491862 .45703126 .21598308 .4404297 .18798828 .40722657 .15999349 .37402345 .1459961 .32600404 .1459961 .26316834Z"/>
</defs>
<g>
<path transform="matrix(1,0,0,1,-.047302,0)" d="M0 0H768V768H0Z" fill="#fffdf8"/>
<use data-text="S" xlink:href="#font_1_1" transform="matrix(28.5,0,0,-28.5,145.97353,81)" fill="#2f7fa4"/>
<use data-text="C" xlink:href="#font_1_2" transform="matrix(28.5,0,0,-28.5,164.98303,81)" fill="#2f7fa4"/>
<use data-text="O" xlink:href="#font_1_3" transform="matrix(28.5,0,0,-28.5,185.56003,81)" fill="#2f7fa4"/>
<use data-text="R" xlink:href="#font_1_4" transform="matrix(28.5,0,0,-28.5,207.73303,81)" fill="#2f7fa4"/>
<use data-text="E" xlink:href="#font_1_5" transform="matrix(28.5,0,0,-28.5,228.31003,81)" fill="#2f7fa4"/>
<use data-text="C" xlink:href="#font_1_2" transform="matrix(28.5,0,0,-28.5,247.31954,81)" fill="#2f7fa4"/>
<use data-text="A" xlink:href="#font_1_6" transform="matrix(28.5,0,0,-28.5,267.89656,81)" fill="#2f7fa4"/>
<use data-text="R" xlink:href="#font_1_4" transform="matrix(28.5,0,0,-28.5,288.47355,81)" fill="#2f7fa4"/>
<use data-text="D" xlink:href="#font_1_7" transform="matrix(28.5,0,0,-28.5,309.05055,81)" fill="#2f7fa4"/>
<use data-text="-" xlink:href="#font_1_8" transform="matrix(28.5,0,0,-28.5,329.62754,81)" fill="#2f7fa4"/>
<use data-text="D" xlink:href="#font_1_7" transform="matrix(28.5,0,0,-28.5,339.11805,81)" fill="#2f7fa4"/>
<use data-text="R" xlink:href="#font_1_4" transform="matrix(28.5,0,0,-28.5,359.69505,81)" fill="#2f7fa4"/>
<use data-text="I" xlink:href="#font_1_9" transform="matrix(28.5,0,0,-28.5,380.27204,81)" fill="#2f7fa4"/>
<use data-text="V" xlink:href="#font_1_10" transform="matrix(28.5,0,0,-28.5,388.19505,81)" fill="#2f7fa4"/>
<use data-text="E" xlink:href="#font_1_5" transform="matrix(28.5,0,0,-28.5,407.20454,81)" fill="#2f7fa4"/>
<use data-text="N" xlink:href="#font_1_11" transform="matrix(28.5,0,0,-28.5,426.21403,81)" fill="#2f7fa4"/>
<use data-text="A" xlink:href="#font_1_6" transform="matrix(28.5,0,0,-28.5,453.65953,81)" fill="#2f7fa4"/>
<use data-text="U" xlink:href="#font_1_12" transform="matrix(28.5,0,0,-28.5,474.2365,81)" fill="#2f7fa4"/>
<use data-text="T" xlink:href="#font_1_13" transform="matrix(28.5,0,0,-28.5,494.8135,81)" fill="#2f7fa4"/>
<use data-text="O" xlink:href="#font_1_3" transform="matrix(28.5,0,0,-28.5,511.714,81)" fill="#2f7fa4"/>
<use data-text="M" xlink:href="#font_1_14" transform="matrix(28.5,0,0,-28.5,533.88699,81)" fill="#2f7fa4"/>
<use data-text="A" xlink:href="#font_1_6" transform="matrix(28.5,0,0,-28.5,557.62747,81)" fill="#2f7fa4"/>
<use data-text="T" xlink:href="#font_1_13" transform="matrix(28.5,0,0,-28.5,576.06698,81)" fill="#2f7fa4"/>
<use data-text="I" xlink:href="#font_1_9" transform="matrix(28.5,0,0,-28.5,593.48049,81)" fill="#2f7fa4"/>
<use data-text="C" xlink:href="#font_1_2" transform="matrix(28.5,0,0,-28.5,601.40347,81)" fill="#2f7fa4"/>
<use data-text="Q" xlink:href="#font_1_15" transform="matrix(28.5,0,0,-28.5,217.50186,115.5)" fill="#2f7fa4"/>
<use data-text="U" xlink:href="#font_1_12" transform="matrix(28.5,0,0,-28.5,239.67487,115.5)" fill="#2f7fa4"/>
<use data-text="A" xlink:href="#font_1_6" transform="matrix(28.5,0,0,-28.5,260.25187,115.5)" fill="#2f7fa4"/>
<use data-text="L" xlink:href="#font_1_16" transform="matrix(28.5,0,0,-28.5,280.82887,115.5)" fill="#2f7fa4"/>
<use data-text="I" xlink:href="#font_1_9" transform="matrix(28.5,0,0,-28.5,298.24238,115.5)" fill="#2f7fa4"/>
<use data-text="T" xlink:href="#font_1_13" transform="matrix(28.5,0,0,-28.5,306.16539,115.5)" fill="#2f7fa4"/>
<use data-text="Y" xlink:href="#font_1_17" transform="matrix(28.5,0,0,-28.5,323.5789,115.5)" fill="#2f7fa4"/>
<use data-text=" " xlink:href="#font_1_18" transform="matrix(28.5,0,0,-28.5,342.07539,115.5)" fill="#2f7fa4"/>
<use data-text="G" xlink:href="#font_1_19" transform="matrix(28.5,0,0,-28.5,349.99839,115.5)" fill="#2f7fa4"/>
<use data-text="A" xlink:href="#font_1_6" transform="matrix(28.5,0,0,-28.5,372.1714,115.5)" fill="#2f7fa4"/>
<use data-text="T" xlink:href="#font_1_13" transform="matrix(28.5,0,0,-28.5,390.63938,115.5)" fill="#2f7fa4"/>
<use data-text="I" xlink:href="#font_1_9" transform="matrix(28.5,0,0,-28.5,408.0529,115.5)" fill="#2f7fa4"/>
<use data-text="N" xlink:href="#font_1_11" transform="matrix(28.5,0,0,-28.5,415.9759,115.5)" fill="#2f7fa4"/>
<use data-text="G" xlink:href="#font_1_19" transform="matrix(28.5,0,0,-28.5,436.5529,115.5)" fill="#2f7fa4"/>
<use data-text=" " xlink:href="#font_1_18" transform="matrix(28.5,0,0,-28.5,458.7259,115.5)" fill="#2f7fa4"/>
<use data-text="F" xlink:href="#font_1_20" transform="matrix(28.5,0,0,-28.5,466.6489,115.5)" fill="#2f7fa4"/>
<use data-text="L" xlink:href="#font_1_16" transform="matrix(28.5,0,0,-28.5,484.0624,115.5)" fill="#2f7fa4"/>
<use data-text="O" xlink:href="#font_1_3" transform="matrix(28.5,0,0,-28.5,501.47593,115.5)" fill="#2f7fa4"/>
<use data-text="W" xlink:href="#font_1_21" transform="matrix(28.5,0,0,-28.5,523.6489,115.5)" fill="#2f7fa4"/>
<path d="M48 351H121.5C126.484 351 130.5 355.016 130.5 360V408C130.5 412.984 126.484 417 121.5 417H48C43.016 417 39 412.984 39 408V360C39 355.016 43.016 351 48 351Z" fill="#8da6bd"/>
<path stroke-width="1.5" stroke-linecap="butt" stroke-miterlimit="4" stroke-linejoin="miter" fill="none" stroke="#5d7082" d="M48 351H121.5C126.484 351 130.5 355.016 130.5 360V408C130.5 412.984 126.484 417 121.5 417H48C43.016 417 39 412.984 39 408V360C39 355.016 43.016 351 48 351Z"/>
<use data-text="R" xlink:href="#font_1_4" transform="matrix(18,0,0,-18,63.75293,380.25)" fill="#050b1f"/>
<use data-text="A" xlink:href="#font_1_6" transform="matrix(18,0,0,-18,76.74893,380.25)" fill="#050b1f"/>
<use data-text="W" xlink:href="#font_1_21" transform="matrix(18,0,0,-18,88.75494,380.25)" fill="#050b1f"/>
<use data-text="D" xlink:href="#font_1_7" transform="matrix(18,0,0,-18,61.089849,401.25)" fill="#050b1f"/>
<use data-text="A" xlink:href="#font_1_6" transform="matrix(18,0,0,-18,74.085849,401.25)" fill="#050b1f"/>
<use data-text="T" xlink:href="#font_1_13" transform="matrix(18,0,0,-18,85.74985,401.25)" fill="#050b1f"/>
<use data-text="A" xlink:href="#font_1_6" transform="matrix(18,0,0,-18,95.41585,401.25)" fill="#050b1f"/>
<path stroke-width="1.65" stroke-linecap="butt" stroke-miterlimit="4" stroke-linejoin="miter" fill="none" stroke="#666666" d="M130.5 384H156"/>
<path d="M144.121 377.398 157.32 384 144.121 390.602V377.398Z" fill="#666666"/>
<path d="M168 187.5H330.75C336.566 187.5 341.25 192.184 341.25 198V544.5C341.25 550.316 336.566 555 330.75 555H168C162.184 555 157.5 550.316 157.5 544.5V198C157.5 192.184 162.184 187.5 168 187.5Z" fill="#eaf8fb"/>
<path stroke-width="1.8" stroke-linecap="butt" stroke-miterlimit="4" stroke-linejoin="miter" fill="none" stroke="#2f7fa4" d="M168 187.5H330.75C336.566 187.5 341.25 192.184 341.25 198V544.5C341.25 550.316 336.566 555 330.75 555H168C162.184 555 157.5 550.316 157.5 544.5V198C157.5 192.184 162.184 187.5 168 187.5Z"/>
<path d="M168 187.5H330.75C337.75 187.5 341.25 191 341.25 198V226.5H157.5V198C157.5 191 161 187.5 168 187.5Z" fill="#2f85ad"/>
<use data-text="S" xlink:href="#font_1_1" transform="matrix(15.75,0,0,-15.75,178.5,213)" fill="#ffffff"/>
<use data-text="C" xlink:href="#font_1_2" transform="matrix(15.75,0,0,-15.75,189.00525,213)" fill="#ffffff"/>
<use data-text="O" xlink:href="#font_1_3" transform="matrix(15.75,0,0,-15.75,200.37676,213)" fill="#ffffff"/>
<use data-text="R" xlink:href="#font_1_4" transform="matrix(15.75,0,0,-15.75,212.63025,213)" fill="#ffffff"/>
<use data-text="I" xlink:href="#font_1_9" transform="matrix(15.75,0,0,-15.75,224.00176,213)" fill="#ffffff"/>
<use data-text="N" xlink:href="#font_1_11" transform="matrix(15.75,0,0,-15.75,228.38025,213)" fill="#ffffff"/>
<use data-text="G" xlink:href="#font_1_19" transform="matrix(15.75,0,0,-15.75,239.75176,213)" fill="#ffffff"/>
<use data-text="M" xlink:href="#font_1_14" transform="matrix(15.75,0,0,-15.75,256.38377,213)" fill="#ffffff"/>
<use data-text="O" xlink:href="#font_1_3" transform="matrix(15.75,0,0,-15.75,269.5035,213)" fill="#ffffff"/>
<use data-text="D" xlink:href="#font_1_7" transform="matrix(15.75,0,0,-15.75,281.75703,213)" fill="#ffffff"/>
<use data-text="U" xlink:href="#font_1_12" transform="matrix(15.75,0,0,-15.75,293.1285,213)" fill="#ffffff"/>
<use data-text="L" xlink:href="#font_1_16" transform="matrix(15.75,0,0,-15.75,304.5,213)" fill="#ffffff"/>
<use data-text="E" xlink:href="#font_1_5" transform="matrix(15.75,0,0,-15.75,314.12327,213)" fill="#ffffff"/>
<path d="M178.5 238.5H320.25C324.406 238.5 327.75 241.844 327.75 246V297C327.75 301.156 324.406 304.5 320.25 304.5H178.5C174.344 304.5 171 301.156 171 297V246C171 241.844 174.344 238.5 178.5 238.5Z" fill="#ffffff"/>
<path stroke-width="1.65" stroke-linecap="butt" stroke-miterlimit="4" stroke-linejoin="miter" fill="none" stroke="#2f7fa4" d="M178.5 238.5H320.25C324.406 238.5 327.75 241.844 327.75 246V297C327.75 301.156 324.406 304.5 320.25 304.5H178.5C174.344 304.5 171 301.156 171 297V246C171 241.844 174.344 238.5 178.5 238.5Z"/>
<use data-text="P" xlink:href="#font_1_22" transform="matrix(18,0,0,-18,232.5,267)" fill="#050b1f"/>
<use data-text="P" xlink:href="#font_1_22" transform="matrix(18,0,0,-18,244.506,267)" fill="#050b1f"/>
<use data-text="L" xlink:href="#font_1_16" transform="matrix(18,0,0,-18,256.512,267)" fill="#050b1f"/>
<use data-text="(" xlink:href="#font_2_1" transform="matrix(14.25,0,0,-14.25,232.5,288)" fill="#050b1f"/>
<use data-text="P" xlink:href="#font_2_2" transform="matrix(14.25,0,0,-14.25,237.24526,288)" fill="#050b1f"/>
<use data-text="e" xlink:href="#font_2_3" transform="matrix(14.25,0,0,-14.25,246.75,288)" fill="#050b1f"/>
<use data-text="r" xlink:href="#font_2_4" transform="matrix(14.25,0,0,-14.25,254.673,288)" fill="#050b1f"/>
<use data-text="p" xlink:href="#font_2_5" transform="matrix(14.25,0,0,-14.25,259.41825,288)" fill="#050b1f"/>
<use data-text="l" xlink:href="#font_2_6" transform="matrix(14.25,0,0,-14.25,267.34126,288)" fill="#050b1f"/>
<use data-text="e" xlink:href="#font_2_3" transform="matrix(14.25,0,0,-14.25,270.50477,288)" fill="#050b1f"/>
<use data-text="x" xlink:href="#font_2_7" transform="matrix(14.25,0,0,-14.25,278.42778,288)" fill="#050b1f"/>
<use data-text="i" xlink:href="#font_2_8" transform="matrix(14.25,0,0,-14.25,285.55278,288)" fill="#050b1f"/>
<use data-text="t" xlink:href="#font_2_9" transform="matrix(14.25,0,0,-14.25,288.71629,288)" fill="#050b1f"/>
<use data-text="y" xlink:href="#font_2_10" transform="matrix(14.25,0,0,-14.25,292.67778,288)" fill="#050b1f"/>
<use data-text=")" xlink:href="#font_2_11" transform="matrix(14.25,0,0,-14.25,299.80278,288)" fill="#050b1f"/>
<use data-text="T" xlink:href="#font_2_12" transform="matrix(9.75,0,0,-9.75,185.25,261)" fill="#050b1f"/>
<use data-text="e" xlink:href="#font_2_3" transform="matrix(9.75,0,0,-9.75,190.125,261)" fill="#050b1f"/>
<use data-text="x" xlink:href="#font_2_7" transform="matrix(9.75,0,0,-9.75,195.546,261)" fill="#050b1f"/>
<use data-text="t" xlink:href="#font_2_9" transform="matrix(9.75,0,0,-9.75,200.421,261)" fill="#050b1f"/>
<path stroke-width="2.25" stroke-linecap="butt" stroke-miterlimit="4" stroke-linejoin="miter" fill="none" stroke="#21495f" d="M187.5 286.5 203.25 270.75 218.25 278.25M203.25 270.75 214.5 256.5M203.25 270.75 188.25 259.5"/>
<path d="M191.25 286.5C191.25 288.57 189.57 290.25 187.5 290.25 185.43 290.25 183.75 288.57 183.75 286.5 183.75 284.43 185.43 282.75 187.5 282.75 189.57 282.75 191.25 284.43 191.25 286.5Z" fill="#ffffff"/>
<path stroke-width="2.25" stroke-linecap="butt" stroke-miterlimit="4" stroke-linejoin="miter" fill="none" stroke="#21495f" d="M191.25 286.5C191.25 288.57 189.57 290.25 187.5 290.25 185.43 290.25 183.75 288.57 183.75 286.5 183.75 284.43 185.43 282.75 187.5 282.75 189.57 282.75 191.25 284.43 191.25 286.5Z"/>
<path d="M207 270.75C207 272.82 205.32 274.5 203.25 274.5 201.18 274.5 199.5 272.82 199.5 270.75 199.5 268.68 201.18 267 203.25 267 205.32 267 207 268.68 207 270.75Z" fill="#ffffff"/>
<path stroke-width="2.25" stroke-linecap="butt" stroke-miterlimit="4" stroke-linejoin="miter" fill="none" stroke="#21495f" d="M207 270.75C207 272.82 205.32 274.5 203.25 274.5 201.18 274.5 199.5 272.82 199.5 270.75 199.5 268.68 201.18 267 203.25 267 205.32 267 207 268.68 207 270.75Z"/>
<path d="M222 278.25C222 280.32 220.32 282 218.25 282 216.18 282 214.5 280.32 214.5 278.25 214.5 276.18 216.18 274.5 218.25 274.5 220.32 274.5 222 276.18 222 278.25Z" fill="#ffffff"/>
<path stroke-width="2.25" stroke-linecap="butt" stroke-miterlimit="4" stroke-linejoin="miter" fill="none" stroke="#21495f" d="M222 278.25C222 280.32 220.32 282 218.25 282 216.18 282 214.5 280.32 214.5 278.25 214.5 276.18 216.18 274.5 218.25 274.5 220.32 274.5 222 276.18 222 278.25Z"/>
<path d="M218.25 256.5C218.25 258.57 216.57 260.25 214.5 260.25 212.43 260.25 210.75 258.57 210.75 256.5 210.75 254.43 212.43 252.75 214.5 252.75 216.57 252.75 218.25 254.43 218.25 256.5Z" fill="#ffffff"/>
<path stroke-width="2.25" stroke-linecap="butt" stroke-miterlimit="4" stroke-linejoin="miter" fill="none" stroke="#21495f" d="M218.25 256.5C218.25 258.57 216.57 260.25 214.5 260.25 212.43 260.25 210.75 258.57 210.75 256.5 210.75 254.43 212.43 252.75 214.5 252.75 216.57 252.75 218.25 254.43 218.25 256.5Z"/>
<path d="M192 259.5C192 261.57 190.32 263.25 188.25 263.25 186.18 263.25 184.5 261.57 184.5 259.5 184.5 257.43 186.18 255.75 188.25 255.75 190.32 255.75 192 257.43 192 259.5Z" fill="#ffffff"/>
<path stroke-width="2.25" stroke-linecap="butt" stroke-miterlimit="4" stroke-linejoin="miter" fill="none" stroke="#21495f" d="M192 259.5C192 261.57 190.32 263.25 188.25 263.25 186.18 263.25 184.5 261.57 184.5 259.5 184.5 257.43 186.18 255.75 188.25 255.75 190.32 255.75 192 257.43 192 259.5Z"/>
<path d="M178.5 317.25H320.25C324.406 317.25 327.75 320.594 327.75 324.75V375.75C327.75 379.906 324.406 383.25 320.25 383.25H178.5C174.344 383.25 171 379.906 171 375.75V324.75C171 320.594 174.344 317.25 178.5 317.25Z" fill="#ffffff"/>
<path stroke-width="1.65" stroke-linecap="butt" stroke-miterlimit="4" stroke-linejoin="miter" fill="none" stroke="#2f7fa4" d="M178.5 317.25H320.25C324.406 317.25 327.75 320.594 327.75 324.75V375.75C327.75 379.906 324.406 383.25 320.25 383.25H178.5C174.344 383.25 171 379.906 171 375.75V324.75C171 320.594 174.344 317.25 178.5 317.25Z"/>
<use data-text="C" xlink:href="#font_1_2" transform="matrix(18,0,0,-18,232.5,347.25)" fill="#050b1f"/>
<use data-text="L" xlink:href="#font_1_16" transform="matrix(18,0,0,-18,245.496,347.25)" fill="#050b1f"/>
<use data-text="I" xlink:href="#font_1_9" transform="matrix(18,0,0,-18,256.494,347.25)" fill="#050b1f"/>
<use data-text="P" xlink:href="#font_1_22" transform="matrix(18,0,0,-18,261.498,347.25)" fill="#050b1f"/>
<use data-text="(" xlink:href="#font_2_1" transform="matrix(14.25,0,0,-14.25,232.5,367.5)" fill="#050b1f"/>
<use data-text="V" xlink:href="#font_2_13" transform="matrix(14.25,0,0,-14.25,237.24526,367.5)" fill="#050b1f"/>
<use data-text="i" xlink:href="#font_2_8" transform="matrix(14.25,0,0,-14.25,246.4935,367.5)" fill="#050b1f"/>
<use data-text="s" xlink:href="#font_2_14" transform="matrix(14.25,0,0,-14.25,249.657,367.5)" fill="#050b1f"/>
<use data-text="u" xlink:href="#font_2_15" transform="matrix(14.25,0,0,-14.25,256.78199,367.5)" fill="#050b1f"/>
<use data-text="a" xlink:href="#font_2_16" transform="matrix(14.25,0,0,-14.25,264.705,367.5)" fill="#050b1f"/>
<use data-text="l" xlink:href="#font_2_6" transform="matrix(14.25,0,0,-14.25,272.628,367.5)" fill="#050b1f"/>
<use data-text="-" xlink:href="#font_2_17" transform="matrix(14.25,0,0,-14.25,275.7915,367.5)" fill="#050b1f"/>
<use data-text="T" xlink:href="#font_2_12" transform="matrix(14.25,0,0,-14.25,280.53675,367.5)" fill="#050b1f"/>
<use data-text="e" xlink:href="#font_2_3" transform="matrix(14.25,0,0,-14.25,287.66175,367.5)" fill="#050b1f"/>
<use data-text="x" xlink:href="#font_2_7" transform="matrix(14.25,0,0,-14.25,295.58476,367.5)" fill="#050b1f"/>
<use data-text="t" xlink:href="#font_2_9" transform="matrix(14.25,0,0,-14.25,302.70976,367.5)" fill="#050b1f"/>
<use data-text=")" xlink:href="#font_2_11" transform="matrix(14.25,0,0,-14.25,306.67124,367.5)" fill="#050b1f"/>
<path stroke-width="2.25" stroke-linecap="butt" stroke-miterlimit="4" stroke-linejoin="miter" fill="none" stroke="#21495f" d="M186 334.5H205.5V352.5H186Z"/>
<path stroke-width="2.25" stroke-linecap="butt" stroke-miterlimit="4" stroke-linejoin="miter" fill="none" stroke="#21495f" d="M201.75 351H219.75V369H201.75Z"/>
<use data-text="+" xlink:href="#font_1_23" transform="matrix(18,0,0,-18,212.25,348.75)" fill="#21495f"/>
<use data-text="+" xlink:href="#font_1_23" transform="matrix(18,0,0,-18,186.75,364.5)" fill="#21495f"/>
<path d="M178.5 396.75H320.25C324.406 396.75 327.75 400.094 327.75 404.25V455.25C327.75 459.406 324.406 462.75 320.25 462.75H178.5C174.344 462.75 171 459.406 171 455.25V404.25C171 400.094 174.344 396.75 178.5 396.75Z" fill="#ffffff"/>
<path stroke-width="1.65" stroke-linecap="butt" stroke-miterlimit="4" stroke-linejoin="miter" fill="none" stroke="#2f7fa4" d="M178.5 396.75H320.25C324.406 396.75 327.75 400.094 327.75 404.25V455.25C327.75 459.406 324.406 462.75 320.25 462.75H178.5C174.344 462.75 171 459.406 171 455.25V404.25C171 400.094 174.344 396.75 178.5 396.75Z"/>
<use data-text="T" xlink:href="#font_1_13" transform="matrix(18,0,0,-18,232.5,435)" fill="#050b1f"/>
<use data-text="O" xlink:href="#font_1_3" transform="matrix(18,0,0,-18,243.174,435)" fill="#050b1f"/>
<use data-text="X" xlink:href="#font_1_24" transform="matrix(18,0,0,-18,257.178,435)" fill="#050b1f"/>
<use data-text="I" xlink:href="#font_1_9" transform="matrix(18,0,0,-18,269.18403,435)" fill="#050b1f"/>
<use data-text="C" xlink:href="#font_1_2" transform="matrix(18,0,0,-18,274.18803,435)" fill="#050b1f"/>
<use data-text="I" xlink:href="#font_1_9" transform="matrix(18,0,0,-18,287.18403,435)" fill="#050b1f"/>
<use data-text="T" xlink:href="#font_1_13" transform="matrix(18,0,0,-18,292.18803,435)" fill="#050b1f"/>
<use data-text="Y" xlink:href="#font_1_17" transform="matrix(18,0,0,-18,303.186,435)" fill="#050b1f"/>
<path stroke-width="2.25" stroke-linecap="butt" stroke-miterlimit="4" stroke-linejoin="miter" fill="none" stroke="#21495f" d="M202.5 414 216.75 422.25 213 445.5H192L188.25 422.25 202.5 414Z"/>
<use data-text="!" xlink:href="#font_2_18" transform="matrix(21,0,0,-21,199.58277,439.5)"/>
<path d="M178.5 475.5H320.25C324.406 475.5 327.75 478.844 327.75 483V534C327.75 538.1559 324.406 541.5 320.25 541.5H178.5C174.344 541.5 171 538.1559 171 534V483C171 478.844 174.344 475.5 178.5 475.5Z" fill="#ffffff"/>
<path stroke-width="1.65" stroke-linecap="butt" stroke-miterlimit="4" stroke-linejoin="miter" fill="none" stroke="#2f7fa4" d="M178.5 475.5H320.25C324.406 475.5 327.75 478.844 327.75 483V534C327.75 538.1559 324.406 541.5 320.25 541.5H178.5C174.344 541.5 171 538.1559 171 534V483C171 478.844 174.344 475.5 178.5 475.5Z"/>
<use data-text="D" xlink:href="#font_1_7" transform="matrix(18,0,0,-18,232.5,507)" fill="#050b1f"/>
<use data-text="E" xlink:href="#font_1_5" transform="matrix(18,0,0,-18,245.496,507)" fill="#050b1f"/>
<use data-text="D" xlink:href="#font_1_7" transform="matrix(18,0,0,-18,257.502,507)" fill="#050b1f"/>
<use data-text="U" xlink:href="#font_1_12" transform="matrix(18,0,0,-18,270.49803,507)" fill="#050b1f"/>
<use data-text="P" xlink:href="#font_1_22" transform="matrix(18,0,0,-18,283.49403,507)" fill="#050b1f"/>
<use data-text="(" xlink:href="#font_2_1" transform="matrix(14.25,0,0,-14.25,232.5,526.5)" fill="#050b1f"/>
<use data-text="D" xlink:href="#font_2_19" transform="matrix(14.25,0,0,-14.25,237.24526,526.5)" fill="#050b1f"/>
<use data-text="e" xlink:href="#font_2_3" transform="matrix(14.25,0,0,-14.25,247.53376,526.5)" fill="#050b1f"/>
<use data-text="d" xlink:href="#font_2_20" transform="matrix(14.25,0,0,-14.25,255.45676,526.5)" fill="#050b1f"/>
<use data-text="u" xlink:href="#font_2_15" transform="matrix(14.25,0,0,-14.25,263.37977,526.5)" fill="#050b1f"/>
<use data-text="p" xlink:href="#font_2_5" transform="matrix(14.25,0,0,-14.25,271.30278,526.5)" fill="#050b1f"/>
<use data-text="l" xlink:href="#font_2_6" transform="matrix(14.25,0,0,-14.25,279.22578,526.5)" fill="#050b1f"/>
<use data-text="i" xlink:href="#font_2_8" transform="matrix(14.25,0,0,-14.25,282.38929,526.5)" fill="#050b1f"/>
<use data-text="c" xlink:href="#font_2_21" transform="matrix(14.25,0,0,-14.25,285.5528,526.5)" fill="#050b1f"/>
<use data-text="a" xlink:href="#font_2_16" transform="matrix(14.25,0,0,-14.25,292.6778,526.5)" fill="#050b1f"/>
<use data-text="t" xlink:href="#font_2_9" transform="matrix(14.25,0,0,-14.25,300.6008,526.5)" fill="#050b1f"/>
<use data-text="i" xlink:href="#font_2_8" transform="matrix(14.25,0,0,-14.25,304.5623,526.5)" fill="#050b1f"/>
<use data-text="o" xlink:href="#font_2_22" transform="matrix(14.25,0,0,-14.25,307.7258,526.5)" fill="#050b1f"/>
<use data-text="n" xlink:href="#font_2_23" transform="matrix(14.25,0,0,-14.25,315.6488,526.5)" fill="#050b1f"/>
<use data-text=")" xlink:href="#font_2_11" transform="matrix(14.25,0,0,-14.25,323.5718,526.5)" fill="#050b1f"/>
<path stroke-width="2.25" stroke-linecap="butt" stroke-miterlimit="4" stroke-linejoin="miter" fill="none" stroke="#21495f" d="M186 501 202.5 492.75 219 501 202.5 509.25 186 501ZM186 513 202.5 521.25 219 513M186 523.5 202.5 531.75 219 523.5"/>
<path d="M383.25 351H458.25C462.82 351 466.5 354.68 466.5 359.25V401.25C466.5 405.82 462.82 409.5 458.25 409.5H383.25C378.68 409.5 375 405.82 375 401.25V359.25C375 354.68 378.68 351 383.25 351Z" fill="#d9f4ef"/>
<path stroke-width="1.8" stroke-linecap="butt" stroke-miterlimit="4" stroke-linejoin="miter" fill="none" stroke="#55a9a5" d="M383.25 351H458.25C462.82 351 466.5 354.68 466.5 359.25V401.25C466.5 405.82 462.82 409.5 458.25 409.5H383.25C378.68 409.5 375 405.82 375 401.25V359.25C375 354.68 378.68 351 383.25 351Z"/>
<use data-text="&#x03a3;" xlink:href="#font_3_1" transform="matrix(43.5,0,0,-43.5,407.3049,393.75)" fill="#48aaa3"/>
<use data-text="S" xlink:href="#font_1_1" transform="matrix(15.75,0,0,-15.75,447.03535,306.7605)" fill="#050b1f"/>
<use data-text="C" xlink:href="#font_1_2" transform="matrix(15.75,0,0,-15.75,457.5406,306.7605)" fill="#050b1f"/>
<use data-text="O" xlink:href="#font_1_3" transform="matrix(15.75,0,0,-15.75,468.91206,306.7605)" fill="#050b1f"/>
<use data-text="R" xlink:href="#font_1_4" transform="matrix(15.75,0,0,-15.75,481.1656,306.7605)" fill="#050b1f"/>
<use data-text="E" xlink:href="#font_1_5" transform="matrix(15.75,0,0,-15.75,492.53706,306.7605)" fill="#050b1f"/>
<use data-text="A" xlink:href="#font_1_6" transform="matrix(15.75,0,0,-15.75,426.5053,331.17677)" fill="#050b1f"/>
<use data-text="G" xlink:href="#font_1_19" transform="matrix(15.75,0,0,-15.75,437.87678,331.17677)" fill="#050b1f"/>
<use data-text="G" xlink:href="#font_1_19" transform="matrix(15.75,0,0,-15.75,450.1303,331.17677)" fill="#050b1f"/>
<use data-text="R" xlink:href="#font_1_4" transform="matrix(15.75,0,0,-15.75,462.38386,331.17677)" fill="#050b1f"/>
<use data-text="E" xlink:href="#font_1_5" transform="matrix(15.75,0,0,-15.75,473.7553,331.17677)" fill="#050b1f"/>
<use data-text="G" xlink:href="#font_1_19" transform="matrix(15.75,0,0,-15.75,484.26057,331.17677)" fill="#050b1f"/>
<use data-text="A" xlink:href="#font_1_6" transform="matrix(15.75,0,0,-15.75,496.51405,331.17677)" fill="#050b1f"/>
<use data-text="T" xlink:href="#font_1_13" transform="matrix(15.75,0,0,-15.75,506.72007,331.17677)" fill="#050b1f"/>
<use data-text="I" xlink:href="#font_1_9" transform="matrix(15.75,0,0,-15.75,516.3433,331.17677)" fill="#050b1f"/>
<use data-text="O" xlink:href="#font_1_3" transform="matrix(15.75,0,0,-15.75,520.7218,331.17677)" fill="#050b1f"/>
<use data-text="N" xlink:href="#font_1_11" transform="matrix(15.75,0,0,-15.75,532.97537,331.17677)" fill="#050b1f"/>
<path stroke-width="1.65" stroke-linecap="butt" stroke-miterlimit="4" stroke-linejoin="miter" fill="none" stroke="#666666" d="M327.75 271.5H420V344.25"/>
<path d="M426.602 332.371 420 345.57 413.398 332.371H426.602Z" fill="#666666"/>
<path stroke-width="1.65" stroke-linecap="butt" stroke-miterlimit="4" stroke-linejoin="miter" fill="none" stroke="#666666" d="M327.75 351H364.5C371.5 351 375 360.25 375 378.75"/>
<path d="M381.602 366.871 375 380.07 368.398 366.871H381.602Z" fill="#666666"/>
<path stroke-width="1.65" stroke-linecap="butt" stroke-miterlimit="4" stroke-linejoin="miter" fill="none" stroke="#666666" d="M327.75 429.75H364.5C371.5 429.75 375 417.5 375 393"/>
<path d="M368.398 404.879 375 391.68 381.602 404.879H368.398Z" fill="#666666"/>
<path stroke-width="1.65" stroke-linecap="butt" stroke-miterlimit="4" stroke-linejoin="miter" fill="none" stroke="#666666" d="M327.75 508.5H420V414.75"/>
<path d="M413.398 426.629 420 413.43 426.602 426.629H413.398Z" fill="#666666"/>
<path stroke-width="1.65" stroke-linecap="butt" stroke-miterlimit="4" stroke-linejoin="miter" fill="none" stroke="#666666" d="M466.5 380.25H497.25"/>
<path d="M485.371 373.648 498.57 380.25 485.371 386.852V373.648Z" fill="#666666"/>
<path d="M545.25 335.25 590.25 380.25 545.25 426 498 380.25 545.25 335.25Z" fill="#1d4f73"/>
<use data-text="D" xlink:href="#font_1_7" transform="matrix(15,0,0,-15,508.9951,385.5)" fill="#ffffff"/>
<use data-text="E" xlink:href="#font_1_5" transform="matrix(15,0,0,-15,519.8251,385.5)" fill="#ffffff"/>
<use data-text="C" xlink:href="#font_1_2" transform="matrix(15,0,0,-15,529.8301,385.5)" fill="#ffffff"/>
<use data-text="I" xlink:href="#font_1_9" transform="matrix(15,0,0,-15,540.6601,385.5)" fill="#ffffff"/>
<use data-text="S" xlink:href="#font_1_1" transform="matrix(15,0,0,-15,544.8301,385.5)" fill="#ffffff"/>
<use data-text="I" xlink:href="#font_1_9" transform="matrix(15,0,0,-15,554.8351,385.5)" fill="#ffffff"/>
<use data-text="O" xlink:href="#font_1_3" transform="matrix(15,0,0,-15,559.00509,385.5)" fill="#ffffff"/>
<use data-text="N" xlink:href="#font_1_11" transform="matrix(15,0,0,-15,570.67507,385.5)" fill="#ffffff"/>
<use data-text="G" xlink:href="#font_1_19" transform="matrix(15,0,0,-15,524.9729,405.75)" fill="#ffffff"/>
<use data-text="A" xlink:href="#font_1_6" transform="matrix(15,0,0,-15,536.6429,405.75)" fill="#ffffff"/>
<use data-text="T" xlink:href="#font_1_13" transform="matrix(15,0,0,-15,546.3629,405.75)" fill="#ffffff"/>
<use data-text="E" xlink:href="#font_1_5" transform="matrix(15,0,0,-15,555.5279,405.75)" fill="#ffffff"/>
<use data-text="D" xlink:href="#font_1_7" transform="matrix(15.75,0,0,-15.75,485.75544,452.09025)" fill="#050b1f"/>
<use data-text="E" xlink:href="#font_1_5" transform="matrix(15.75,0,0,-15.75,497.12696,452.09025)" fill="#050b1f"/>
<use data-text="C" xlink:href="#font_1_2" transform="matrix(15.75,0,0,-15.75,507.6322,452.09025)" fill="#050b1f"/>
<use data-text="I" xlink:href="#font_1_9" transform="matrix(15.75,0,0,-15.75,519.00369,452.09025)" fill="#050b1f"/>
<use data-text="S" xlink:href="#font_1_1" transform="matrix(15.75,0,0,-15.75,523.3822,452.09025)" fill="#050b1f"/>
<use data-text="I" xlink:href="#font_1_9" transform="matrix(15.75,0,0,-15.75,533.88748,452.09025)" fill="#050b1f"/>
<use data-text="O" xlink:href="#font_1_3" transform="matrix(15.75,0,0,-15.75,538.2659,452.09025)" fill="#050b1f"/>
<use data-text="N" xlink:href="#font_1_11" transform="matrix(15.75,0,0,-15.75,550.5194,452.09025)" fill="#050b1f"/>
<use data-text="G" xlink:href="#font_1_19" transform="matrix(15.75,0,0,-15.75,498.58424,476.0339)" fill="#050b1f"/>
<use data-text="A" xlink:href="#font_1_6" transform="matrix(15.75,0,0,-15.75,510.8377,476.0339)" fill="#050b1f"/>
<use data-text="T" xlink:href="#font_1_13" transform="matrix(15.75,0,0,-15.75,521.0437,476.0339)" fill="#050b1f"/>
<use data-text="E" xlink:href="#font_1_5" transform="matrix(15.75,0,0,-15.75,530.667,476.0339)" fill="#050b1f"/>
<use data-text="(" xlink:href="#font_2_1" transform="matrix(12,0,0,-12,466.82383,498.36)" fill="#050b1f"/>
<use data-text="T" xlink:href="#font_2_12" transform="matrix(12,0,0,-12,470.8198,498.36)" fill="#050b1f"/>
<use data-text="h" xlink:href="#font_2_24" transform="matrix(12,0,0,-12,478.1518,498.36)" fill="#050b1f"/>
<use data-text="r" xlink:href="#font_2_4" transform="matrix(12,0,0,-12,484.8238,498.36)" fill="#050b1f"/>
<use data-text="e" xlink:href="#font_2_3" transform="matrix(12,0,0,-12,488.81983,498.36)" fill="#050b1f"/>
<use data-text="s" xlink:href="#font_2_14" transform="matrix(12,0,0,-12,495.49183,498.36)" fill="#050b1f"/>
<use data-text="h" xlink:href="#font_2_24" transform="matrix(12,0,0,-12,501.49183,498.36)" fill="#050b1f"/>
<use data-text="o" xlink:href="#font_2_22" transform="matrix(12,0,0,-12,508.16383,498.36)" fill="#050b1f"/>
<use data-text="l" xlink:href="#font_2_6" transform="matrix(12,0,0,-12,514.8358,498.36)" fill="#050b1f"/>
<use data-text="d" xlink:href="#font_2_20" transform="matrix(12,0,0,-12,517.49978,498.36)" fill="#050b1f"/>
<use data-text=" " xlink:href="#font_2_25" transform="matrix(12,0,0,-12,524.17178,498.36)" fill="#050b1f"/>
<use data-text="C" xlink:href="#font_2_26" transform="matrix(12,0,0,-12,527.50778,498.36)" fill="#050b1f"/>
<use data-text="h" xlink:href="#font_2_24" transform="matrix(12,0,0,-12,536.1718,498.36)" fill="#050b1f"/>
<use data-text="e" xlink:href="#font_2_3" transform="matrix(12,0,0,-12,542.8438,498.36)" fill="#050b1f"/>
<use data-text="c" xlink:href="#font_2_21" transform="matrix(12,0,0,-12,549.5158,498.36)" fill="#050b1f"/>
<use data-text="k" xlink:href="#font_2_27" transform="matrix(12,0,0,-12,555.5158,498.36)" fill="#050b1f"/>
<use data-text=")" xlink:href="#font_2_11" transform="matrix(12,0,0,-12,561.5158,498.36)" fill="#050b1f"/>
<path d="M633 218.25H709.5C713.6559 218.25 717 221.594 717 225.75V264.75C717 268.906 713.6559 272.25 709.5 272.25H633C628.844 272.25 625.5 268.906 625.5 264.75V225.75C625.5 221.594 628.844 218.25 633 218.25Z" fill="#d8f1de"/>
<path stroke-width="1.65" stroke-linecap="butt" stroke-miterlimit="4" stroke-linejoin="miter" fill="none" stroke="#5aaa6d" d="M633 218.25H709.5C713.6559 218.25 717 221.594 717 225.75V264.75C717 268.906 713.6559 272.25 709.5 272.25H633C628.844 272.25 625.5 268.906 625.5 264.75V225.75C625.5 221.594 628.844 218.25 633 218.25Z"/>
<path d="M690 244.5C690 254.855 681.605 263.25 671.25 263.25 660.895 263.25 652.5 254.855 652.5 244.5 652.5 234.145 660.895 225.75 671.25 225.75 681.605 225.75 690 234.145 690 244.5Z" fill="#4eb56c"/>
<use data-text="&#x2713;" xlink:href="#font_4_1" transform="matrix(37.5,0,0,-37.5,655.53958,256.5)" fill="#ffffff"/>
<use data-text="P" xlink:href="#font_1_22" transform="matrix(18,0,0,-18,647.40969,291)" fill="#050b1f"/>
<use data-text="A" xlink:href="#font_1_6" transform="matrix(18,0,0,-18,658.0837,291)" fill="#050b1f"/>
<use data-text="S" xlink:href="#font_1_1" transform="matrix(18,0,0,-18,671.07968,291)" fill="#050b1f"/>
<use data-text="S" xlink:href="#font_1_1" transform="matrix(18,0,0,-18,683.08566,291)" fill="#050b1f"/>
<use data-text="(" xlink:href="#font_2_1" transform="matrix(14.25,0,0,-14.25,610.66659,309)" fill="#050b1f"/>
<use data-text="H" xlink:href="#font_2_28" transform="matrix(14.25,0,0,-14.25,615.4118,309)" fill="#050b1f"/>
<use data-text="i" xlink:href="#font_2_8" transform="matrix(14.25,0,0,-14.25,625.7003,309)" fill="#050b1f"/>
<use data-text="g" xlink:href="#font_2_29" transform="matrix(14.25,0,0,-14.25,628.86386,309)" fill="#050b1f"/>
<use data-text="h" xlink:href="#font_2_24" transform="matrix(14.25,0,0,-14.25,636.7868,309)" fill="#050b1f"/>
<use data-text="Q" xlink:href="#font_2_30" transform="matrix(14.25,0,0,-14.25,648.67129,309)" fill="#050b1f"/>
<use data-text="u" xlink:href="#font_2_15" transform="matrix(14.25,0,0,-14.25,659.75778,309)" fill="#050b1f"/>
<use data-text="a" xlink:href="#font_2_16" transform="matrix(14.25,0,0,-14.25,667.6807,309)" fill="#050b1f"/>
<use data-text="l" xlink:href="#font_2_6" transform="matrix(14.25,0,0,-14.25,675.6037,309)" fill="#050b1f"/>
<use data-text="i" xlink:href="#font_2_8" transform="matrix(14.25,0,0,-14.25,678.7672,309)" fill="#050b1f"/>
<use data-text="t" xlink:href="#font_2_9" transform="matrix(14.25,0,0,-14.25,681.9307,309)" fill="#050b1f"/>
<use data-text="y" xlink:href="#font_2_10" transform="matrix(14.25,0,0,-14.25,685.8922,309)" fill="#050b1f"/>
<use data-text="D" xlink:href="#font_2_19" transform="matrix(14.25,0,0,-14.25,696.9787,309)" fill="#050b1f"/>
<use data-text="a" xlink:href="#font_2_16" transform="matrix(14.25,0,0,-14.25,707.2672,309)" fill="#050b1f"/>
<use data-text="t" xlink:href="#font_2_9" transform="matrix(14.25,0,0,-14.25,715.1902,309)" fill="#050b1f"/>
<use data-text="a" xlink:href="#font_2_16" transform="matrix(14.25,0,0,-14.25,719.1517,309)" fill="#050b1f"/>
<use data-text=")" xlink:href="#font_2_11" transform="matrix(14.25,0,0,-14.25,727.07467,309)" fill="#050b1f"/>
<path d="M633 349.5H709.5C713.6559 349.5 717 352.844 717 357V396C717 400.156 713.6559 403.5 709.5 403.5H633C628.844 403.5 625.5 400.156 625.5 396V357C625.5 352.844 628.844 349.5 633 349.5Z" fill="#fff0cf"/>
<path stroke-width="1.65" stroke-linecap="butt" stroke-miterlimit="4" stroke-linejoin="miter" fill="none" stroke="#e09b3f" d="M633 349.5H709.5C713.6559 349.5 717 352.844 717 357V396C717 400.156 713.6559 403.5 709.5 403.5H633C628.844 403.5 625.5 400.156 625.5 396V357C625.5 352.844 628.844 349.5 633 349.5Z"/>
<path stroke-width="5.25" stroke-linecap="butt" stroke-miterlimit="4" stroke-linejoin="miter" fill="none" stroke="#e09b3f" d="M683.25 375C683.25 384.113 675.863 391.5 666.75 391.5 657.637 391.5 650.25 384.113 650.25 375 650.25 365.887 657.637 358.5 666.75 358.5 675.863 358.5 683.25 365.887 683.25 375Z"/>
<path d="M679.5 387.75 696 404.25"/>
<path stroke-width="5.25" stroke-linecap="butt" stroke-miterlimit="4" stroke-linejoin="miter" fill="none" stroke="#e09b3f" d="M679.5 387.75 696 404.25"/>
<use data-text="R" xlink:href="#font_1_4" transform="matrix(18,0,0,-18,635.7465,420)" fill="#050b1f"/>
<use data-text="E" xlink:href="#font_1_5" transform="matrix(18,0,0,-18,648.7425,420)" fill="#050b1f"/>
<use data-text="V" xlink:href="#font_1_10" transform="matrix(18,0,0,-18,660.7485,420)" fill="#050b1f"/>
<use data-text="I" xlink:href="#font_1_9" transform="matrix(18,0,0,-18,672.75448,420)" fill="#050b1f"/>
<use data-text="E" xlink:href="#font_1_5" transform="matrix(18,0,0,-18,677.7585,420)" fill="#050b1f"/>
<use data-text="W" xlink:href="#font_1_21" transform="matrix(18,0,0,-18,689.76449,420)" fill="#050b1f"/>
<use data-text="(" xlink:href="#font_2_1" transform="matrix(14.25,0,0,-14.25,616.9985,438)" fill="#050b1f"/>
<use data-text="B" xlink:href="#font_2_31" transform="matrix(14.25,0,0,-14.25,621.7437,438)" fill="#050b1f"/>
<use data-text="o" xlink:href="#font_2_22" transform="matrix(14.25,0,0,-14.25,631.2485,438)" fill="#050b1f"/>
<use data-text="r" xlink:href="#font_2_4" transform="matrix(14.25,0,0,-14.25,639.17147,438)" fill="#050b1f"/>
<use data-text="d" xlink:href="#font_2_20" transform="matrix(14.25,0,0,-14.25,643.9167,438)" fill="#050b1f"/>
<use data-text="e" xlink:href="#font_2_3" transform="matrix(14.25,0,0,-14.25,651.83969,438)" fill="#050b1f"/>
<use data-text="r" xlink:href="#font_2_4" transform="matrix(14.25,0,0,-14.25,659.76266,438)" fill="#050b1f"/>
<use data-text="l" xlink:href="#font_2_6" transform="matrix(14.25,0,0,-14.25,664.5079,438)" fill="#050b1f"/>
<use data-text="i" xlink:href="#font_2_8" transform="matrix(14.25,0,0,-14.25,667.6714,438)" fill="#050b1f"/>
<use data-text="n" xlink:href="#font_2_23" transform="matrix(14.25,0,0,-14.25,670.8349,438)" fill="#050b1f"/>
<use data-text="e" xlink:href="#font_2_3" transform="matrix(14.25,0,0,-14.25,678.7579,438)" fill="#050b1f"/>
<use data-text="D" xlink:href="#font_2_19" transform="matrix(14.25,0,0,-14.25,690.64236,438)" fill="#050b1f"/>
<use data-text="a" xlink:href="#font_2_16" transform="matrix(14.25,0,0,-14.25,700.93087,438)" fill="#050b1f"/>
<use data-text="t" xlink:href="#font_2_9" transform="matrix(14.25,0,0,-14.25,708.8538,438)" fill="#050b1f"/>
<use data-text="a" xlink:href="#font_2_16" transform="matrix(14.25,0,0,-14.25,712.8153,438)" fill="#050b1f"/>
<use data-text=")" xlink:href="#font_2_11" transform="matrix(14.25,0,0,-14.25,720.7383,438)" fill="#050b1f"/>
<path d="M633 478.5H709.5C713.6559 478.5 717 481.844 717 486V525C717 529.1559 713.6559 532.5 709.5 532.5H633C628.844 532.5 625.5 529.1559 625.5 525V486C625.5 481.844 628.844 478.5 633 478.5Z" fill="#f7d8d8"/>
<path stroke-width="1.65" stroke-linecap="butt" stroke-miterlimit="4" stroke-linejoin="miter" fill="none" stroke="#c94c4c" d="M633 478.5H709.5C713.6559 478.5 717 481.844 717 486V525C717 529.1559 713.6559 532.5 709.5 532.5H633C628.844 532.5 625.5 529.1559 625.5 525V486C625.5 481.844 628.844 478.5 633 478.5Z"/>
<path d="M690 505.5C690 515.855 681.605 524.25 671.25 524.25 660.895 524.25 652.5 515.855 652.5 505.5 652.5 495.145 660.895 486.75 671.25 486.75 681.605 486.75 690 495.145 690 505.5Z" fill="#d84747"/>
<use data-text="&#x00d7;" xlink:href="#font_2_32" transform="matrix(37.5,0,0,-37.5,660.30026,518.25)" fill="#ffffff"/>
<use data-text="R" xlink:href="#font_1_4" transform="matrix(18,0,0,-18,635.7422,549.75)" fill="#050b1f"/>
<use data-text="E" xlink:href="#font_1_5" transform="matrix(18,0,0,-18,648.73818,549.75)" fill="#050b1f"/>
<use data-text="J" xlink:href="#font_1_25" transform="matrix(18,0,0,-18,660.74417,549.75)" fill="#050b1f"/>
<use data-text="E" xlink:href="#font_1_5" transform="matrix(18,0,0,-18,670.75216,549.75)" fill="#050b1f"/>
<use data-text="C" xlink:href="#font_1_2" transform="matrix(18,0,0,-18,682.7581,549.75)" fill="#050b1f"/>
<use data-text="T" xlink:href="#font_1_13" transform="matrix(18,0,0,-18,695.7541,549.75)" fill="#050b1f"/>
<use data-text="(" xlink:href="#font_2_1" transform="matrix(14.25,0,0,-14.25,612.2495,567.75)" fill="#050b1f"/>
<use data-text="L" xlink:href="#font_2_33" transform="matrix(14.25,0,0,-14.25,616.99478,567.75)" fill="#050b1f"/>
<use data-text="o" xlink:href="#font_2_22" transform="matrix(14.25,0,0,-14.25,624.9177,567.75)" fill="#050b1f"/>
<use data-text="w" xlink:href="#font_2_34" transform="matrix(14.25,0,0,-14.25,632.8407,567.75)" fill="#050b1f"/>
<use data-text=" " xlink:href="#font_2_25" transform="matrix(14.25,0,0,-14.25,643.1292,567.75)" fill="#050b1f"/>
<use data-text="Q" xlink:href="#font_2_30" transform="matrix(14.25,0,0,-14.25,647.0907,567.75)" fill="#050b1f"/>
<use data-text="u" xlink:href="#font_2_15" transform="matrix(14.25,0,0,-14.25,658.1772,567.75)" fill="#050b1f"/>
<use data-text="a" xlink:href="#font_2_16" transform="matrix(14.25,0,0,-14.25,666.10018,567.75)" fill="#050b1f"/>
<use data-text="l" xlink:href="#font_2_6" transform="matrix(14.25,0,0,-14.25,674.02316,567.75)" fill="#050b1f"/>
<use data-text="i" xlink:href="#font_2_8" transform="matrix(14.25,0,0,-14.25,677.18667,567.75)" fill="#050b1f"/>
<use data-text="t" xlink:href="#font_2_9" transform="matrix(14.25,0,0,-14.25,680.35018,567.75)" fill="#050b1f"/>
<use data-text="y" xlink:href="#font_2_10" transform="matrix(14.25,0,0,-14.25,684.31167,567.75)" fill="#050b1f"/>
<use data-text=" " xlink:href="#font_2_25" transform="matrix(14.25,0,0,-14.25,691.43667,567.75)" fill="#050b1f"/>
<use data-text="D" xlink:href="#font_2_19" transform="matrix(14.25,0,0,-14.25,695.39816,567.75)" fill="#050b1f"/>
<use data-text="a" xlink:href="#font_2_16" transform="matrix(14.25,0,0,-14.25,705.68667,567.75)" fill="#050b1f"/>
<use data-text="t" xlink:href="#font_2_9" transform="matrix(14.25,0,0,-14.25,713.6096,567.75)" fill="#050b1f"/>
<use data-text="a" xlink:href="#font_2_16" transform="matrix(14.25,0,0,-14.25,717.5711,567.75)" fill="#050b1f"/>
<use data-text=")" xlink:href="#font_2_11" transform="matrix(14.25,0,0,-14.25,725.4941,567.75)" fill="#050b1f"/>
<path stroke-width="1.65" stroke-linecap="butt" stroke-miterlimit="4" stroke-linejoin="miter" fill="none" stroke="#666666" d="M570 335.25V246H624.75"/>
<path d="M612.871 239.398 626.07 246 612.871 252.602V239.398Z" fill="#666666"/>
<path stroke-width="1.65" stroke-linecap="butt" stroke-miterlimit="4" stroke-linejoin="miter" fill="none" stroke="#666666" d="M590.25 380.25H624.75"/>
<path d="M612.871 373.648 626.07 380.25 612.871 386.852V373.648Z" fill="#666666"/>
<path stroke-width="1.65" stroke-linecap="butt" stroke-miterlimit="4" stroke-linejoin="miter" fill="none" stroke="#666666" d="M570 426V507H624.75"/>
<path d="M612.871 500.398 626.07 507 612.871 513.602V500.398Z" fill="#666666"/>
<path stroke-width="1.65" stroke-linecap="butt" stroke-miterlimit="4" stroke-linejoin="miter" fill="none" stroke="#666666" d="M717 379.5H738V636H84.75V418.5"/>
<path stroke-width="1.65" stroke-linecap="butt" stroke-miterlimit="4" stroke-linejoin="miter" fill="none" stroke="#666666" d="M84.75 636V418.5"/>
<path d="M78.148 430.379 84.75 417.18 91.352 430.379H78.148Z" fill="#666666"/>
<use data-text="F" xlink:href="#font_1_20" transform="matrix(18,0,0,-18,305.99705,630)" fill="#050b1f"/>
<use data-text="E" xlink:href="#font_1_5" transform="matrix(18,0,0,-18,316.99504,630)" fill="#050b1f"/>
<use data-text="E" xlink:href="#font_1_5" transform="matrix(18,0,0,-18,329.00105,630)" fill="#050b1f"/>
<use data-text="D" xlink:href="#font_1_7" transform="matrix(18,0,0,-18,341.00706,630)" fill="#050b1f"/>
<use data-text="B" xlink:href="#font_1_26" transform="matrix(18,0,0,-18,354.00306,630)" fill="#050b1f"/>
<use data-text="A" xlink:href="#font_1_6" transform="matrix(18,0,0,-18,366.99906,630)" fill="#050b1f"/>
<use data-text="C" xlink:href="#font_1_2" transform="matrix(18,0,0,-18,379.99507,630)" fill="#050b1f"/>
<use data-text="K" xlink:href="#font_1_27" transform="matrix(18,0,0,-18,392.99107,630)" fill="#050b1f"/>
<use data-text="L" xlink:href="#font_1_16" transform="matrix(18,0,0,-18,410.99107,630)" fill="#050b1f"/>
<use data-text="O" xlink:href="#font_1_3" transform="matrix(18,0,0,-18,421.98905,630)" fill="#050b1f"/>
<use data-text="O" xlink:href="#font_1_3" transform="matrix(18,0,0,-18,435.99305,630)" fill="#050b1f"/>
<use data-text="P" xlink:href="#font_1_22" transform="matrix(18,0,0,-18,449.99705,630)" fill="#050b1f"/>
<use data-text="M" xlink:href="#font_2_35" transform="matrix(14.25,0,0,-14.25,288.14997,654)" fill="#050b1f"/>
<use data-text="a" xlink:href="#font_2_16" transform="matrix(14.25,0,0,-14.25,300.0202,654)" fill="#050b1f"/>
<use data-text="n" xlink:href="#font_2_23" transform="matrix(14.25,0,0,-14.25,307.9432,654)" fill="#050b1f"/>
<use data-text="u" xlink:href="#font_2_15" transform="matrix(14.25,0,0,-14.25,315.8662,654)" fill="#050b1f"/>
<use data-text="a" xlink:href="#font_2_16" transform="matrix(14.25,0,0,-14.25,323.7892,654)" fill="#050b1f"/>
<use data-text="l" xlink:href="#font_2_6" transform="matrix(14.25,0,0,-14.25,331.71223,654)" fill="#050b1f"/>
<use data-text="E" xlink:href="#font_2_36" transform="matrix(14.25,0,0,-14.25,338.83723,654)" fill="#050b1f"/>
<use data-text="v" xlink:href="#font_2_37" transform="matrix(14.25,0,0,-14.25,348.34199,654)" fill="#050b1f"/>
<use data-text="a" xlink:href="#font_2_16" transform="matrix(14.25,0,0,-14.25,355.46699,654)" fill="#050b1f"/>
<use data-text="l" xlink:href="#font_2_6" transform="matrix(14.25,0,0,-14.25,363.38999,654)" fill="#050b1f"/>
<use data-text="u" xlink:href="#font_2_15" transform="matrix(14.25,0,0,-14.25,366.5535,654)" fill="#050b1f"/>
<use data-text="a" xlink:href="#font_2_16" transform="matrix(14.25,0,0,-14.25,374.4765,654)" fill="#050b1f"/>
<use data-text="t" xlink:href="#font_2_9" transform="matrix(14.25,0,0,-14.25,382.3995,654)" fill="#050b1f"/>
<use data-text="i" xlink:href="#font_2_8" transform="matrix(14.25,0,0,-14.25,386.361,654)" fill="#050b1f"/>
<use data-text="o" xlink:href="#font_2_22" transform="matrix(14.25,0,0,-14.25,389.5245,654)" fill="#050b1f"/>
<use data-text="n" xlink:href="#font_2_23" transform="matrix(14.25,0,0,-14.25,397.4475,654)" fill="#050b1f"/>
<use data-text="/" xlink:href="#font_2_38" transform="matrix(14.25,0,0,-14.25,409.332,654)" fill="#050b1f"/>
<use data-text="F" xlink:href="#font_2_39" transform="matrix(14.25,0,0,-14.25,417.24073,654)" fill="#050b1f"/>
<use data-text="e" xlink:href="#font_2_3" transform="matrix(14.25,0,0,-14.25,425.94749,654)" fill="#050b1f"/>
<use data-text="e" xlink:href="#font_2_3" transform="matrix(14.25,0,0,-14.25,433.87049,654)" fill="#050b1f"/>
<use data-text="d" xlink:href="#font_2_20" transform="matrix(14.25,0,0,-14.25,441.7935,654)" fill="#050b1f"/>
<use data-text="b" xlink:href="#font_2_40" transform="matrix(14.25,0,0,-14.25,449.7165,654)" fill="#050b1f"/>
<use data-text="a" xlink:href="#font_2_16" transform="matrix(14.25,0,0,-14.25,457.6395,654)" fill="#050b1f"/>
<use data-text="c" xlink:href="#font_2_21" transform="matrix(14.25,0,0,-14.25,465.5625,654)" fill="#050b1f"/>
<use data-text="k" xlink:href="#font_2_27" transform="matrix(14.25,0,0,-14.25,472.6875,654)" fill="#050b1f"/>
</g>
</svg>
