<svg viewBox="0 0 1360 720" width="100%" height="100%" xmlns="http://www.w3.org/2000/svg">
    <defs>
        <style>
            .font-sys { font-family: -apple-system, BlinkMacSystemFont, "Segoe UI", Roboto, "Helvetica Neue", Arial, sans-serif; }
            .banner-text { font-size: 18px; font-weight: bold; fill: #111827; text-anchor: middle; dominant-baseline: middle; }
            .box-title { font-size: 15px; font-weight: bold; fill: #111827; text-anchor: middle; }
            .box-text { font-size: 14px; fill: #111827; text-anchor: middle; }
            .box-sub { font-size: 13px; fill: #4b5563; text-anchor: middle; }
            .flow-text { font-size: 14px; font-weight: bold; fill: #111827; text-anchor: middle; }
            .final-text { font-size: 16px; font-weight: bold; fill: #111827; text-anchor: middle; }
        </style>

        <marker id="arrow-blue" viewBox="0 0 10 10" refX="8" refY="5" markerWidth="6" markerHeight="6" orient="auto">
            <path d="M 0 0 L 10 5 L 0 10 z" fill="#16396e" />
        </marker>
        <marker id="arrow-green" viewBox="0 0 10 10" refX="8" refY="5" markerWidth="6" markerHeight="6" orient="auto">
            <path d="M 0 0 L 10 5 L 0 10 z" fill="#1e4a1a" />
        </marker>
        <marker id="arrow-purple" viewBox="0 0 10 10" refX="8" refY="5" markerWidth="6" markerHeight="6" orient="auto">
            <path d="M 0 0 L 10 5 L 0 10 z" fill="#401c6e" />
        </marker>
        <marker id="arrow-black" viewBox="0 0 10 10" refX="8" refY="5" markerWidth="6" markerHeight="6" orient="auto">
            <path d="M 0 0 L 10 5 L 0 10 z" fill="#111827" />
        </marker>
    </defs>

    <rect width="1360" height="720" fill="#ffffff" />

    <rect x="20" y="20" width="130" height="200" fill="#b1cce6" rx="4" />
    <text x="85" y="110" class="font-sys banner-text">Self-Instruct</text>
    <text x="85" y="135" class="font-sys banner-text">School</text>

    <rect x="160" y="20" width="160" height="200" fill="#ecf4fa" stroke="#16396e" stroke-width="2" rx="8" />
    <path d="M 230 50 C 230 46 242 46 242 50 C 242 54 230 54 230 50 Z M 230 50 L 230 65 C 230 69 242 69 242 65 L 242 50 M 230 57.5 C 230 61.5 242 61.5 242 57.5" fill="none" stroke="#16396e" stroke-width="2" />
    <path d="M 248 72 C 248 68 252 66 256 66 C 260 66 264 68 264 72 M 256 64 C 253 64 251 62 251 59 C 251 56 253 54 256 54 C 259 54 261 56 261 59 C 261 62 259 64 256 64 Z" fill="none" stroke="#16396e" stroke-width="2" />
    <text x="240" y="115" class="font-sys box-text">Data Entry:</text>
    <text x="240" y="140" class="font-sys box-title">Human Seed Pool</text>
    <text x="240" y="165" class="font-sys box-sub">(Human + Machine)</text>

    <path d="M 320 120 L 335 120" stroke="#16396e" stroke-width="2" marker-end="url(#arrow-blue)" />

    <rect x="340" y="20" width="340" height="200" fill="#ecf4fa" stroke="#16396e" stroke-width="2" rx="8" />
    <text x="510" y="55" class="font-sys box-title">Generation Method: Based on Seed-Inspired Expansion</text>
    <text x="510" y="75" class="font-sys box-sub">(Few-shot Prompting)</text>
    
    <rect x="380" y="100" width="110" height="80" fill="#ffffff" stroke="#16396e" stroke-width="1.5" rx="6" />
    <path d="M 425 125 C 425 121 445 121 445 125 C 445 129 425 129 425 125 Z M 425 125 L 425 145 C 425 149 445 149 445 145 L 445 125 M 425 135 C 425 139 445 139 445 135" fill="none" stroke="#16396e" stroke-width="1.5" />
    <text x="435" y="165" class="font-sys box-text">Task Pool</text>
    <text x="435" y="182" class="font-sys box-sub">(Task Pool)</text>

    <rect x="540" y="100" width="110" height="80" fill="#ffffff" stroke="#16396e" stroke-width="1.5" rx="6" />
    <text x="595" y="145" class="font-sys box-text">Filtering &amp; Deduplication</text>
    <text x="595" y="165" class="font-sys box-sub">(ROUGE)</text>

    <path d="M 490 120 L 535 120" stroke="#16396e" stroke-width="1.5" marker-end="url(#arrow-blue)" />
    <path d="M 540 160 L 495 160" stroke="#16396e" stroke-width="1.5" marker-end="url(#arrow-blue)" />

    <path d="M 680 120 L 695 120" stroke="#16396e" stroke-width="2" marker-end="url(#arrow-blue)" />

    <rect x="700" y="20" width="140" height="200" fill="#ecf4fa" stroke="#16396e" stroke-width="2" rx="8" />
    <path d="M 755 60 H 775 C 778 60 780 62 780 65 V 75 C 780 78 778 80 775 80 H 765 L 755 85 V 80 H 755 C 752 80 750 78 750 75 V 65 C 750 62 752 60 755 60 Z" fill="none" stroke="#16396e" stroke-width="2" />
    <path d="M 760 70 H 785 C 788 70 790 72 790 75 V 85 C 790 88 788 90 785 90 H 775 L 765 95 V 90 H 760 C 757 90 755 88 755 85 V 75 C 755 72 757 70 760 70 Z" fill="none" stroke="#16396e" stroke-width="1.5" stroke-dasharray="2 2" />
    <text x="770" y="125" class="font-sys box-title">Generate Response</text>
    <text x="770" y="150" class="font-sys box-sub">(Generate</text>
    <text x="770" y="170" class="font-sys box-sub">Response)</text>

    <path d="M 840 120 L 855 120" stroke="#16396e" stroke-width="2" marker-end="url(#arrow-blue)" />

    <rect x="860" y="20" width="160" height="200" fill="#ecf4fa" stroke="#16396e" stroke-width="2" rx="8" />
    <path d="M 940 45 L 955 50 V 65 C 955 75 940 85 940 85 C 940 85 925 75 925 65 V 50 Z" fill="none" stroke="#16396e" stroke-width="2" />
    <path d="M 932 65 L 938 71 L 948 57" fill="none" stroke="#16396e" stroke-width="2" />
    <text x="940" y="115" class="font-sys box-text">QC Location:</text>
    <text x="940" y="140" class="font-sys box-title">Diversity &amp;</text>
    <text x="940" y="165" class="font-sys box-title">Answerability Check</text>

    <path d="M 1020 120 L 1180 120" stroke="#16396e" stroke-width="2" marker-end="url(#arrow-blue)" />
    <text x="1100" y="105" class="font-sys flow-text">Basic Synthesized</text>
    <text x="1100" y="128" class="font-sys flow-text">Data</text>


    <rect x="20" y="240" width="130" height="200" fill="#c1d8c1" rx="4" />
    <text x="85" y="320" class="font-sys banner-text">Evol-</text>
    <text x="85" y="345" class="font-sys banner-text">Instruct</text>
    <text x="85" y="370" class="font-sys banner-text">School</text>

    <rect x="160" y="240" width="160" height="200" fill="#eef6ef" stroke="#1e4a1a" stroke-width="2" rx="8" />
    <path d="M 230 280 C 230 276 250 276 250 280 C 250 284 230 284 230 280 Z M 230 280 L 230 305 C 230 309 250 309 250 305 L 250 280 M 230 288 C 230 292 250 292 250 288 M 230 296 C 230 300 250 300 250 296" fill="none" stroke="#1e4a1a" stroke-width="2" />
    <text x="240" y="335" class="font-sys box-text">Data Entry:</text>
    <text x="240" y="360" class="font-sys box-title">Simple Instruction Seeds</text>
    <text x="240" y="385" class="font-sys box-sub">(Human)</text>

    <path d="M 320 340 L 335 340" stroke="#1e4a1a" stroke-width="2" marker-end="url(#arrow-green)" />

    <rect x="340" y="240" width="340" height="200" fill="#eef6ef" stroke="#1e4a1a" stroke-width="2" rx="8" />
    <text x="510" y="275" class="font-sys box-title">Generation Method: Evolving by Rule Complexity</text>
    <text x="510" y="295" class="font-sys box-sub">(In-depth/In-breadth Evolving)</text>

    <rect x="360" y="315" width="80" height="26" fill="#ffffff" stroke="#1e4a1a" stroke-width="1.5" rx="3" />
    <text x="400" y="333" class="font-sys" font-size="13" fill="#1e4a1a" text-anchor="middle">Add Constraints</text>
    
    <rect x="360" y="355" width="80" height="26" fill="#ffffff" stroke="#1e4a1a" stroke-width="1.5" rx="3" />
    <text x="400" y="373" class="font-sys" font-size="13" fill="#1e4a1a" text-anchor="middle">Deepen Reasoning</text>

    <rect x="360" y="395" width="80" height="26" fill="#ffffff" stroke="#1e4a1a" stroke-width="1.5" rx="3" />
    <text x="400" y="413" class="font-sys" font-size="13" fill="#1e4a1a" text-anchor="middle">Concretization</text>

    <rect x="520" y="345" width="130" height="50" fill="#ffffff" stroke="#1e4a1a" stroke-width="1.5" rx="6" />
    <text x="585" y="365" class="font-sys box-text">Difficulty Calibration</text>
    <text x="585" y="382" class="font-sys box-sub" font-size="12">(Difficulty Check)</text>

    <path d="M 440 328 L 500 328 L 500 355 L 515 355" fill="none" stroke="#1e4a1a" stroke-width="1.5" marker-end="url(#arrow-green)" />
    <path d="M 440 368 L 515 368" fill="none" stroke="#1e4a1a" stroke-width="1.5" marker-end="url(#arrow-green)" />
    <path d="M 440 408 L 500 408 L 500 385 L 515 385" fill="none" stroke="#1e4a1a" stroke-width="1.5" marker-end="url(#arrow-green)" />
    
    <path d="M 585 395 L 585 430 L 350 430 L 350 368 L 360 368" fill="none" stroke="#1e4a1a" stroke-width="1.5" marker-end="url(#arrow-green)" />

    <path d="M 680 340 L 695 340" stroke="#1e4a1a" stroke-width="2" marker-end="url(#arrow-green)" />

    <rect x="700" y="240" width="140" height="200" fill="#eef6ef" stroke="#1e4a1a" stroke-width="2" rx="8" />
    <path d="M 755 280 H 775 C 778 280 780 282 780 285 V 295 C 780 298 778 300 775 300 H 765 L 755 305 V 300 H 755 C 752 300 750 298 750 295 V 285 C 750 282 752 280 755 280 Z" fill="none" stroke="#1e4a1a" stroke-width="2" />
    <path d="M 760 290 H 785 C 788 290 790 292 790 295 V 305 C 790 308 788 310 785 310 H 775 L 765 315 V 310 H 760 C 757 310 755 308 755 305 V 295 C 755 292 757 290 760 290 Z" fill="none" stroke="#1e4a1a" stroke-width="1.5" stroke-dasharray="2 2" />
    <text x="770" y="345" class="font-sys box-title">Generate Response</text>
    <text x="770" y="370" class="font-sys box-sub">(Generate</text>
    <text x="770" y="390" class="font-sys box-sub">Response)</text>

    <path d="M 840 340 L 855 340" stroke="#1e4a1a" stroke-width="2" marker-end="url(#arrow-green)" />

    <rect x="860" y="240" width="160" height="200" fill="#eef6ef" stroke="#1e4a1a" stroke-width="2" rx="8" />
    <path d="M 940 265 L 955 270 V 285 C 955 295 940 305 940 305 C 940 305 925 295 925 285 V 270 Z" fill="none" stroke="#1e4a1a" stroke-width="2" />
    <path d="M 932 285 L 938 291 L 948 277" fill="none" stroke="#1e4a1a" stroke-width="2" />
    <text x="940" y="335" class="font-sys box-text">QC Location:</text>
    <text x="940" y="360" class="font-sys box-title">Logical Contradiction &amp;</text>
    <text x="940" y="385" class="font-sys box-title">Intent Drift Check</text>
    <text x="940" y="410" class="font-sys box-sub">(Code Verification)</text>

    <path d="M 1020 340 L 1180 340" stroke="#1e4a1a" stroke-width="2" marker-end="url(#arrow-green)" />
    <text x="1100" y="325" class="font-sys flow-text">Complex Instruction</text>
    <text x="1100" y="348" class="font-sys flow-text">Data</text>


    <rect x="20" y="460" width="130" height="200" fill="#d3c1e2" rx="4" />
    <text x="85" y="550" class="font-sys banner-text">Magpie</text>
    <text x="85" y="575" class="font-sys banner-text">School</text>

    <rect x="160" y="460" width="160" height="200" fill="#f4eef9" stroke="#401c6e" stroke-width="2" rx="8" />
    <text x="240" y="550" class="font-sys box-text">Data Entry:</text>
    <text x="240" y="575" class="font-sys box-title">Seedless</text>
    <text x="240" y="600" class="font-sys box-sub">(System Mark Only</text>
    <text x="240" y="620" class="font-sys box-sub">[INST])</text>

    <path d="M 320 560 L 335 560" stroke="#401c6e" stroke-width="2" marker-end="url(#arrow-purple)" />

    <rect x="340" y="460" width="340" height="200" fill="#f4eef9" stroke="#401c6e" stroke-width="2" rx="8" />
    <text x="510" y="495" class="font-sys box-title">Generation Method: Utilizing Seedless Prior Self-Output</text>
    <text x="510" y="515" class="font-sys box-sub">(Model Priors)</text>
    
    <path d="M 410 560 C 410 550 420 540 430 550 C 440 540 450 550 450 560 C 460 570 450 580 440 570 C 430 580 420 570 410 560 Z" fill="none" stroke="#401c6e" stroke-width="3" />
    <circle cx="430" cy="560" r="5" fill="#401c6e" />
    <path d="M 580 575 C 580 565 590 555 600 555 C 610 555 620 565 620 575 V 585 H 580 Z" fill="#401c6e" />
    <circle cx="600" cy="542" r="10" fill="#401c6e" />

    <path d="M 470 550 L 560 550" stroke="#401c6e" stroke-width="2" marker-end="url(#arrow-purple)" />
    <path d="M 560 570 L 470 570" stroke="#401c6e" stroke-width="2" marker-end="url(#arrow-purple)" />

    <text x="510" y="610" class="font-sys box-title">Llama-3-Instruct etc.</text>
    <text x="510" y="630" class="font-sys box-title">Alignment Model Dialogue Priors</text>

    <path d="M 680 560 L 695 560" stroke="#401c6e" stroke-width="2" marker-end="url(#arrow-purple)" />

    <rect x="700" y="460" width="140" height="200" fill="#f4eef9" stroke="#401c6e" stroke-width="2" rx="8" />
    <text x="770" y="550" class="font-sys box-title">Generate User Query</text>
    <text x="770" y="575" class="font-sys box-title">&amp; Answer</text>
    <text x="770" y="600" class="font-sys box-sub">(Generate User</text>
    <text x="770" y="618" class="font-sys box-sub">Query &amp;</text>
    <text x="770" y="636" class="font-sys box-sub">Response)</text>

    <path d="M 840 560 L 855 560" stroke="#401c6e" stroke-width="2" marker-end="url(#arrow-purple)" />

    <rect x="860" y="460" width="160" height="200" fill="#f4eef9" stroke="#401c6e" stroke-width="2" rx="8" />
    <text x="940" y="535" class="font-sys box-text">QC Location:</text>
    <text x="940" y="560" class="font-sys box-title">Distribution Diversity &amp;</text>
    <text x="940" y="585" class="font-sys box-title">Strict Safety Filtering</text>
    <text x="940" y="610" class="font-sys box-sub">(Bias/Hallucination Detection)</text>

    <path d="M 1020 560 L 1180 560" stroke="#401c6e" stroke-width="2" marker-end="url(#arrow-purple)" />
    <text x="1100" y="545" class="font-sys flow-text">Large-scale Realistic</text>
    <text x="1100" y="568" class="font-sys flow-text">Dialogue</text>
    <text x="1100" y="591" class="font-sys flow-text">Data</text>


    <rect x="1190" y="20" width="130" height="640" fill="#f8fafc" stroke="#111827" stroke-width="2" rx="4" />
    <text x="1255" y="310" class="font-sys final-text">Final Output:</text>
    <text x="1255" y="340" class="font-sys final-text">High-quality SFT</text>
    <text x="1255" y="370" class="font-sys final-text">Training Data</text>
    <text x="1255" y="400" class="font-sys box-sub">(Hierarchical Hybrid)</text>

</svg>
