<svg xmlns="http://www.w3.org/2000/svg" width="2200" height="1050" viewBox="0 0 2200 1050" role="img">
<defs>
  <marker id="arrow" markerWidth="10" markerHeight="10" refX="9" refY="3" orient="auto" markerUnits="strokeWidth">
    <path d="M0,0 L0,6 L9,3 z" fill="#4b5563"/>
  </marker>
</defs>
<rect width="100%" height="100%" fill="#f7faff"/>
<g font-family="Arial, Helvetica, sans-serif" fill="#111827">
<text x="72" y="96" font-size="44" font-weight="700" fill="#111827">
<tspan x="72" dy="0">Figure 41-2 MedImage-ToolVQA Dataset Construction Flow</tspan>
</text>
<text x="72" y="140" font-size="24" font-weight="400" fill="#607086">
<tspan x="72" dy="0">From region-level visual evidence to trainable tool-use samples</tspan>
</text>
<rect x="65" y="210" width="265" height="340" rx="16" fill="#e8f3ff" stroke="#b9cce2" stroke-width="1.6"/>
<text x="93" y="258" font-size="27" font-weight="700" fill="#123b63">
<tspan x="93" dy="0">Region</tspan>
<tspan x="93" dy="31">samples</tspan>
</text>
<text x="93" y="327" font-size="21" font-weight="400" fill="#1f2937">
<tspan x="93" dy="0">medical image</tspan>
</text>
<text x="93" y="367" font-size="21" font-weight="400" fill="#1f2937">
<tspan x="93" dy="0">ROI / mask / bbox</tspan>
</text>
<text x="93" y="407" font-size="21" font-weight="400" fill="#1f2937">
<tspan x="93" dy="0">target description</tspan>
</text>
<line x1="330" y1="380" x2="425" y2="380" stroke="#4b5563" stroke-width="4" marker-end="url(#arrow)"/>
<rect x="425" y="210" width="265" height="340" rx="16" fill="#ecf8ef" stroke="#b7d2c0" stroke-width="1.6"/>
<text x="453" y="258" font-size="27" font-weight="700" fill="#0f5132">
<tspan x="453" dy="0">Question</tspan>
<tspan x="453" dy="31">generation</tspan>
</text>
<text x="453" y="327" font-size="21" font-weight="400" fill="#1f2937">
<tspan x="453" dy="0">multiple-choice</tspan>
<tspan x="453" dy="26">VQA</tspan>
</text>
<text x="453" y="393" font-size="21" font-weight="400" fill="#1f2937">
<tspan x="453" dy="0">no bbox leakage</tspan>
</text>
<text x="453" y="433" font-size="21" font-weight="400" fill="#1f2937">
<tspan x="453" dy="0">image-dependent</tspan>
</text>
<line x1="690" y1="380" x2="785" y2="380" stroke="#4b5563" stroke-width="4" marker-end="url(#arrow)"/>
<rect x="785" y="210" width="265" height="340" rx="16" fill="#fff7dc" stroke="#dec999" stroke-width="1.6"/>
<text x="813" y="258" font-size="27" font-weight="700" fill="#6d4c00">
<tspan x="813" dy="0">Quality</tspan>
<tspan x="813" dy="31">verification</tspan>
</text>
<text x="813" y="327" font-size="21" font-weight="400" fill="#1f2937">
<tspan x="813" dy="0">complete schema</tspan>
</text>
<text x="813" y="367" font-size="21" font-weight="400" fill="#1f2937">
<tspan x="813" dy="0">answer consistency</tspan>
</text>
<text x="813" y="407" font-size="21" font-weight="400" fill="#1f2937">
<tspan x="813" dy="0">local grounding</tspan>
</text>
<line x1="1050" y1="380" x2="1145" y2="380" stroke="#4b5563" stroke-width="4" marker-end="url(#arrow)"/>
<rect x="1145" y="210" width="265" height="340" rx="16" fill="#f0ebff" stroke="#c7bddf" stroke-width="1.6"/>
<text x="1173" y="258" font-size="27" font-weight="700" fill="#3d2476">
<tspan x="1173" dy="0">Tool</tspan>
<tspan x="1173" dy="31">observation</tspan>
</text>
<text x="1173" y="327" font-size="21" font-weight="400" fill="#1f2937">
<tspan x="1173" dy="0">zoom crop</tspan>
</text>
<text x="1173" y="367" font-size="21" font-weight="400" fill="#1f2937">
<tspan x="1173" dy="0">mask overlay</tspan>
</text>
<text x="1173" y="407" font-size="21" font-weight="400" fill="#1f2937">
<tspan x="1173" dy="0">segmentation image</tspan>
</text>
<line x1="1410" y1="380" x2="1505" y2="380" stroke="#4b5563" stroke-width="4" marker-end="url(#arrow)"/>
<rect x="1505" y="210" width="265" height="340" rx="16" fill="#fff0e5" stroke="#e4bf9d" stroke-width="1.6"/>
<text x="1533" y="258" font-size="27" font-weight="700" fill="#7a3d00">
<tspan x="1533" dy="0">Trajectory</tspan>
<tspan x="1533" dy="31">synthesis</tspan>
</text>
<text x="1533" y="327" font-size="21" font-weight="400" fill="#1f2937">
<tspan x="1533" dy="0">reasoning fragment</tspan>
</text>
<text x="1533" y="367" font-size="21" font-weight="400" fill="#1f2937">
<tspan x="1533" dy="0">tool call</tspan>
</text>
<text x="1533" y="407" font-size="21" font-weight="400" fill="#1f2937">
<tspan x="1533" dy="0">observation use</tspan>
</text>
<line x1="1770" y1="380" x2="1865" y2="380" stroke="#4b5563" stroke-width="4" marker-end="url(#arrow)"/>
<rect x="1865" y="210" width="265" height="340" rx="16" fill="#eaf7fa" stroke="#b7d4dc" stroke-width="1.6"/>
<text x="1893" y="258" font-size="27" font-weight="700" fill="#123b63">
<tspan x="1893" dy="0">Training</tspan>
<tspan x="1893" dy="31">packaging</tspan>
</text>
<text x="1893" y="327" font-size="21" font-weight="400" fill="#1f2937">
<tspan x="1893" dy="0">SFT dialogue</tspan>
</text>
<text x="1893" y="367" font-size="21" font-weight="400" fill="#1f2937">
<tspan x="1893" dy="0">RL environment</tspan>
<tspan x="1893" dy="26">input</tspan>
</text>
<text x="1893" y="433" font-size="21" font-weight="400" fill="#1f2937">
<tspan x="1893" dy="0">reward fields</tspan>
</text>
<rect x="145" y="700" width="1910" height="135" rx="14" fill="#ffffff" stroke="#b9c8dc" stroke-width="1.5"/>
<text x="175" y="745" font-size="24" font-weight="400" fill="#1f2937">
<tspan x="175" dy="0">Evidence line: every question must trace back to a reviewable local image region.     Behavior</tspan>
<tspan x="175" dy="30">line: every tool action must explain which visual uncertainty it resolves.</tspan>
</text>
</g>
</svg>
