<svg xmlns="http://www.w3.org/2000/svg" width="1800" height="1050" viewBox="0 0 1800 1050" role="img">
<defs>
  <marker id="arrow" markerWidth="10" markerHeight="10" refX="9" refY="3" orient="auto" markerUnits="strokeWidth">
    <path d="M0,0 L0,6 L9,3 z" fill="#4b5563"/>
  </marker>
</defs>
<rect width="100%" height="100%" fill="#f7faff"/>
<g font-family="SimSun, Songti SC, Noto Serif CJK SC, serif" fill="#111827">
<text x="72" y="96" font-size="52" font-weight="700" fill="#111827">
<tspan x="72" dy="0">图41-1 医学图像 Agent 的局部取证闭环</tspan>
</text>
<text x="72" y="140" font-size="28" font-weight="400" fill="#607086">
<tspan x="72" dy="0">从一次全图观察，进入可控的工具取证与结果复核</tspan>
</text>
<rect x="90" y="220" width="350" height="245" rx="18" fill="#e8f3ff" stroke="#b9cce2" stroke-width="1.6"/>
<text x="118" y="268" font-size="28" font-weight="700" fill="#123b63">
<tspan x="118" dy="0">全图问题</tspan>
</text>
<text x="118" y="306" font-size="22" font-weight="400" fill="#1f2937">
<tspan x="118" dy="0">原始医学图像</tspan>
</text>
<text x="118" y="347" font-size="22" font-weight="400" fill="#1f2937">
<tspan x="118" dy="0">多选问题</tspan>
</text>
<text x="118" y="388" font-size="22" font-weight="400" fill="#1f2937">
<tspan x="118" dy="0">候选答案</tspan>
</text>
<rect x="520" y="220" width="350" height="245" rx="18" fill="#ecf8ef" stroke="#b7d2c0" stroke-width="1.6"/>
<text x="548" y="268" font-size="28" font-weight="700" fill="#0f5132">
<tspan x="548" dy="0">初步观察</tspan>
</text>
<text x="548" y="306" font-size="21" font-weight="400" fill="#1f2937">
<tspan x="548" dy="0">识别模态与解剖区域</tspan>
</text>
<text x="548" y="346" font-size="21" font-weight="400" fill="#1f2937">
<tspan x="548" dy="0">判断局部证据需求</tspan>
</text>
<text x="548" y="386" font-size="21" font-weight="400" fill="#1f2937">
<tspan x="548" dy="0">形成候选关注区</tspan>
</text>
<rect x="950" y="220" width="350" height="245" rx="18" fill="#fff7dc" stroke="#dec999" stroke-width="1.6"/>
<text x="978" y="268" font-size="28" font-weight="700" fill="#6d4c00">
<tspan x="978" dy="0">工具决策</tspan>
</text>
<text x="978" y="306" font-size="21" font-weight="400" fill="#1f2937">
<tspan x="978" dy="0">判断放大、分割或细化</tspan>
</text>
<text x="978" y="346" font-size="21" font-weight="400" fill="#1f2937">
<tspan x="978" dy="0">生成结构化参数</tspan>
</text>
<rect x="1380" y="220" width="340" height="245" rx="18" fill="#f0ebff" stroke="#c7bddf" stroke-width="1.6"/>
<text x="1408" y="268" font-size="28" font-weight="700" fill="#3d2476">
<tspan x="1408" dy="0">局部观察</tspan>
</text>
<text x="1408" y="306" font-size="21" font-weight="400" fill="#1f2937">
<tspan x="1408" dy="0">crop / mask 图</tspan>
</text>
<text x="1408" y="346" font-size="21" font-weight="400" fill="#1f2937">
<tspan x="1408" dy="0">segmentation</tspan>
<tspan x="1408" dy="26">图</tspan>
</text>
<text x="1408" y="412" font-size="21" font-weight="400" fill="#1f2937">
<tspan x="1408" dy="0">返回视觉证据</tspan>
</text>
<rect x="520" y="600" width="350" height="245" rx="18" fill="#eaf7fa" stroke="#b7d4dc" stroke-width="1.6"/>
<text x="548" y="648" font-size="28" font-weight="700" fill="#123b63">
<tspan x="548" dy="0">证据整合</tspan>
</text>
<text x="548" y="686" font-size="21" font-weight="400" fill="#1f2937">
<tspan x="548" dy="0">比较全局与局部观察</tspan>
</text>
<text x="548" y="726" font-size="21" font-weight="400" fill="#1f2937">
<tspan x="548" dy="0">排除常识型答案</tspan>
</text>
<rect x="1380" y="600" width="340" height="245" rx="18" fill="#fff0e5" stroke="#e4bf9d" stroke-width="1.6"/>
<text x="1408" y="648" font-size="28" font-weight="700" fill="#7a3d00">
<tspan x="1408" dy="0">答案与边界</tspan>
</text>
<text x="1408" y="686" font-size="21" font-weight="400" fill="#1f2937">
<tspan x="1408" dy="0">输出选项</tspan>
</text>
<text x="1408" y="726" font-size="21" font-weight="400" fill="#1f2937">
<tspan x="1408" dy="0">保留不确定性</tspan>
</text>
<text x="1408" y="766" font-size="21" font-weight="400" fill="#1f2937">
<tspan x="1408" dy="0">进入质检或复核</tspan>
</text>
<line x1="440" y1="340" x2="520" y2="340" stroke="#4b5563" stroke-width="4" marker-end="url(#arrow)"/>
<line x1="870" y1="340" x2="950" y2="340" stroke="#4b5563" stroke-width="4" marker-end="url(#arrow)"/>
<line x1="1300" y1="340" x2="1380" y2="340" stroke="#4b5563" stroke-width="4" marker-end="url(#arrow)"/>
<line x1="1550" y1="465" x2="1550" y2="600" stroke="#4b5563" stroke-width="4" marker-end="url(#arrow)"/>
<line x1="1380" y1="722" x2="870" y2="722" stroke="#4b5563" stroke-width="4" marker-end="url(#arrow)"/>
<line x1="695" y1="600" x2="695" y2="465" stroke="#4b5563" stroke-width="4" marker-end="url(#arrow)"/>
<rect x="90" y="915" width="1620" height="80" rx="14" fill="#ffffff" stroke="#b9c8dc" stroke-width="1.5"/>
<text x="120" y="960" font-size="25" font-weight="400" fill="#1f2937">
<tspan x="120" dy="0">关注点：记录工具需求、工具选择、观察结果，以及观察如何改变答案。</tspan>
</text>
</g>
</svg>
