<?xml version="1.0" encoding="UTF-8" standalone="no"?>
<svg
   width="2048"
   height="1152"
   viewBox="0 0 2048 1152"
   version="1.1"
   id="svg78"
   sodipodi:docname="ch41_02_fineweb_ablation_loop.svg"
   inkscape:version="1.4.4 (dcaf3e7, 2026-05-05)"
   xmlns:inkscape="http://www.inkscape.org/namespaces/inkscape"
   xmlns:sodipodi="http://sodipodi.sourceforge.net/DTD/sodipodi-0.dtd"
   xmlns="http://www.w3.org/2000/svg"
   xmlns:svg="http://www.w3.org/2000/svg">
  <sodipodi:namedview
     id="namedview78"
     pagecolor="#ffffff"
     bordercolor="#000000"
     borderopacity="0.25"
     inkscape:showpageshadow="2"
     inkscape:pageopacity="0.0"
     inkscape:pagecheckerboard="0"
     inkscape:deskcolor="#d1d1d1"
     inkscape:zoom="0.37109375"
     inkscape:cx="-13.473684"
     inkscape:cy="181.89474"
     inkscape:window-width="1920"
     inkscape:window-height="1111"
     inkscape:window-x="-9"
     inkscape:window-y="-9"
     inkscape:window-maximized="1"
     inkscape:current-layer="svg78" />
  <title
     id="title1">图41-2 FineWeb 数据处理选择的消融评估回路</title>
  <defs
     id="defs2">
    <marker
       id="arrow"
       markerWidth="14"
       markerHeight="14"
       refX="11"
       refY="7"
       orient="auto">
      <path
         d="M2,2 L12,7 L2,12 Z"
         fill="#20344a"
         id="path1" />
    </marker>
    <marker
       id="arrowRed"
       markerWidth="14"
       markerHeight="14"
       refX="11"
       refY="7"
       orient="auto">
      <path
         d="M2,2 L12,7 L2,12 Z"
         fill="#b91c1c"
         id="path2" />
    </marker>
    <marker
       id="arrow-6"
       markerWidth="14"
       markerHeight="14"
       refX="11"
       refY="7"
       orient="auto">
      <path
         d="M 2,2 12,7 2,12 Z"
         fill="#20344a"
         id="path1-1" />
    </marker>
  </defs>
  <text
     x="428"
     y="90"
     fill="#102235"
     font-family="Microsoft YaHei,Noto Sans CJK SC,PingFang SC,Arial,sans-serif"
     font-size="64px"
     font-weight="800"
     letter-spacing="0"
     id="text2">FineWeb 数据处理策略用训练回验选择</text>
  <text
     x="555"
     y="146"
     fill="#263647"
     font-family="Microsoft YaHei,Noto Sans CJK SC,PingFang SC,Arial,sans-serif"
     font-size="32px"
     font-weight="400"
     letter-spacing="0"
     id="text3">只改变数据版本，固定模型、token 预算、评测集和随机性控制</text>
  <!-- Warning -->
  <g
     transform="translate(90,248)"
     id="g4">
    <path
       d="M42 0 L82 72 H2 Z"
       fill="#fff"
       stroke="#c82020"
       stroke-width="4"
       id="path3" />
    <line
       x1="42"
       y1="22"
       x2="42"
       y2="46"
       stroke="#c82020"
       stroke-width="5"
       stroke-linecap="round"
       id="line3" />
    <circle
       cx="42"
       cy="58"
       r="3.5"
       fill="#c82020"
       id="circle3" />
    <path
       d="M82 52 H245"
       fill="none"
       stroke="#c82020"
       stroke-width="3"
       marker-end="#ffffff"
       id="path4" />
    <text
       x="-36.294735"
       y="102.8"
       font-family="'Microsoft YaHei', 'Noto Sans CJK SC', 'PingFang SC', Arial, sans-serif"
       font-size="23px"
       font-weight="700"
       fill="#b91c1c"
       id="text4">过滤器不是越严越好</text>
  </g>
  <!-- Outer curved loop -->
  <path
     d="M800 250 C930 190 1115 190 1235 250"
     fill="none"
     stroke="#20344a"
     stroke-width="4"
     marker-end="#ffffff"
     id="path5" />
  <path
     d="M1555 400 C1610 500 1600 620 1540 720"
     fill="none"
     stroke="#20344a"
     stroke-width="4"
     marker-end="#ffffff"
     id="path6" />
  <path
     d="m 1214.0737,857.23158 c -215.00002,45 -415.00002,20 -555.00002,-85"
     fill="none"
     stroke="#20344a"
     stroke-width="4"
     marker-end="#ffffff"
     id="path7" />
  <path
     d="M 486.62401,733.12173 C 396.86457,646.6306 354.97683,529.24978 389.88328,401.98425"
     fill="none"
     stroke="#20344a"
     stroke-width="4.44033"
     marker-end="#ffffff"
     id="path8" />
  <path
     d="M610 360 C675 300 735 270 800 250"
     fill="none"
     stroke="#20344a"
     stroke-width="4"
     marker-end="#ffffff"
     id="path9" />
  <!-- Center fixed variables -->
  <circle
     cx="1024"
     cy="535"
     r="215"
     fill="#fbfcfd"
     stroke="#17304a"
     stroke-width="5"
     id="circle9" />
  <circle
     cx="1024"
     cy="535"
     r="198"
     fill="none"
     stroke="#a8b7c4"
     stroke-width="2"
     id="circle10" />
  <text
     x="957.62927"
     y="411.32349"
     fill="#142638"
     font-family="'Microsoft YaHei', 'Noto Sans CJK SC', 'PingFang SC', Arial, sans-serif"
     font-size="34px"
     font-weight="800"
     letter-spacing="0"
     id="text10">固定变量</text>
  <g
     fill="#1c2d3d"
     font-family="'Microsoft YaHei', 'Noto Sans CJK SC', 'PingFang SC', Arial, sans-serif"
     font-size="25px"
     font-weight="400"
     letter-spacing="0"
     id="g15"
     transform="translate(-0.95273335,-34.298401)">
    <text
       x="925"
       y="500"
       id="text11">• 1.82B Llama</text>
    <line
       x1="875"
       y1="526"
       x2="1173"
       y2="526"
       stroke="#9aa9b6"
       stroke-width="2"
       stroke-dasharray="5, 8"
       id="line11" />
    <text
       x="925"
       y="558"
       id="text12">• GPT-2 tokenizer</text>
    <line
       x1="875"
       y1="584"
       x2="1173"
       y2="584"
       stroke="#9aa9b6"
       stroke-width="2"
       stroke-dasharray="5, 8"
       id="line12" />
    <text
       x="925"
       y="616"
       id="text13">• 28B / 350B tokens</text>
    <line
       x1="875"
       y1="642"
       x2="1173"
       y2="642"
       stroke="#9aa9b6"
       stroke-width="2"
       stroke-dasharray="5, 8"
       id="line13" />
    <text
       x="970"
       y="674"
       id="text14">• 2 runs</text>
    <text
       x="940"
       y="722"
       id="text15">• lighteval tasks</text>
  </g>
  <!-- Card 01 -->
  <g
     transform="translate(340,180)"
     id="g22">
    <path
       d="M 18 0 H 442 A 18 18 0 0 1 460 18 V 197 A 18 18 0 0 1 442 215 H 18 A 18 18 0 0 1 0 197 V 18 A 18 18 0 0 1 18 0 Z"
       fill="#ffffff"
       stroke="#b8c3ce"
       stroke-width="2.2"
       id="path15" />
    <path
       d="M 29 18 H 83 A 11 11 0 0 1 94 29 V 59 A 11 11 0 0 1 83 70 H 29 A 11 11 0 0 1 18 59 V 29 A 11 11 0 0 1 29 18 Z"
       fill="#f7fbfc"
       stroke="#1d6f78"
       stroke-width="2.5"
       id="path16" />
    <text
       x="35"
       y="56"
       font-family="Arial"
       font-size="34"
       font-weight="800"
       fill="#126b73"
       id="text16">01</text>
    <text
       x="143.7164"
       y="51.330868"
       fill="#0f6972"
       font-family="'Microsoft YaHei', 'Noto Sans CJK SC', 'PingFang SC', Arial, sans-serif"
       font-size="34px"
       font-weight="800"
       letter-spacing="0"
       id="text17">候选处理策略</text>
    <g
       transform="translate(36,88)"
       id="g19">
      <circle
         cx="46.661732"
         cy="-4.7636666"
         r="6"
         fill="#126b73"
         id="circle17" />
      <circle
         cx="34.047268"
         cy="28.480066"
         r="6"
         fill="#126b73"
         id="circle18" />
      <circle
         cx="66.898064"
         cy="28.0037"
         r="6"
         fill="#126b73"
         id="circle19" />
      <path
         d="M -0.48376698,15.039866 H 99.516233 l -42,54 v 52.000004 l -25,-14 V 69.039866 Z"
         fill="none"
         stroke="#126b73"
         stroke-width="3.2"
         stroke-linecap="round"
         stroke-linejoin="round"
         id="path19" />
    </g>
    <text
       x="153.85512"
       y="96.718468"
       fill="#1c2d3d"
       font-family="'Microsoft YaHei', 'Noto Sans CJK SC', 'PingFang SC', Arial, sans-serif"
       font-size="23px"
       font-weight="400"
       letter-spacing="0"
       id="text19">WARC vs WET</text>
    <text
       x="153.85512"
       y="129.00208"
       fill="#1c2d3d"
       font-family="'Microsoft YaHei', 'Noto Sans CJK SC', 'PingFang SC', Arial, sans-serif"
       font-size="23px"
       font-weight="400"
       letter-spacing="0"
       id="text20">C4 filters</text>
    <text
       x="154.33148"
       y="163.66751"
       fill="#1c2d3d"
       font-family="'Microsoft YaHei', 'Noto Sans CJK SC', 'PingFang SC', Arial, sans-serif"
       font-size="23px"
       font-weight="400"
       letter-spacing="0"
       id="text21">FineWeb filters</text>
    <text
       x="154.80785"
       y="193.33295"
       fill="#1c2d3d"
       font-family="'Microsoft YaHei', 'Noto Sans CJK SC', 'PingFang SC', Arial, sans-serif"
       font-size="23px"
       font-weight="400"
       letter-spacing="0"
       id="text22">per-crawl vs global dedup</text>
  </g>
  <!-- Card 02 -->
  <g
     transform="translate(1235,180)"
     id="g28">
    <path
       d="M 18 0 H 432 A 18 18 0 0 1 450 18 V 197 A 18 18 0 0 1 432 215 H 18 A 18 18 0 0 1 0 197 V 18 A 18 18 0 0 1 18 0 Z"
       fill="#ffffff"
       stroke="#b8c3ce"
       stroke-width="2.2"
       id="path22" />
    <path
       d="M 29 18 H 83 A 11 11 0 0 1 94 29 V 59 A 11 11 0 0 1 83 70 H 29 A 11 11 0 0 1 18 59 V 29 A 11 11 0 0 1 29 18 Z"
       fill="#f7fbfc"
       stroke="#607386"
       stroke-width="2.5"
       id="path23" />
    <text
       x="35"
       y="56"
       font-family="Arial"
       font-size="34"
       font-weight="800"
       fill="#607386"
       id="text23">02</text>
    <text
       x="157.69473"
       y="55.305264"
       fill="#142638"
       font-family="'Microsoft YaHei', 'Noto Sans CJK SC', 'PingFang SC', Arial, sans-serif"
       font-size="34px"
       font-weight="800"
       letter-spacing="0"
       id="text24">冻结数据版本</text>
    <g
       transform="translate(46,88)"
       id="g26">
      <path
         d="M -11.902508,-0.94607405 H 34.227481 L 68.32356,28.336955 v 86.126555 h -80.226068 z"
         fill="none"
         stroke="#14324a"
         stroke-width="2.97393"
         stroke-linecap="round"
         stroke-linejoin="round"
         id="path24" />
      <text
         x="-1.1894737"
         y="61.021053"
         font-family="Consolas, monospace"
         font-size="36px"
         font-weight="700"
         fill="#17304a"
         id="text25">&lt;/&gt;</text>
      <line
         x1="9.2421055"
         y1="80.252632"
         x2="47.242104"
         y2="80.252632"
         fill="none"
         stroke="#14324a"
         stroke-width="3.2"
         stroke-linecap="round"
         stroke-linejoin="round"
         id="line25" />
      <line
         x1="8.4491854"
         y1="98.189476"
         x2="47.319237"
         y2="98.189476"
         fill="none"
         stroke="#14324a"
         stroke-width="3.07846"
         stroke-linecap="round"
         stroke-linejoin="round"
         id="line26" />
    </g>
    <text
       x="160"
       y="105"
       fill="#1c2d3d"
       font-family="Microsoft YaHei,Noto Sans CJK SC,PingFang SC,Arial,sans-serif"
       font-size="25px"
       font-weight="400"
       letter-spacing="0"
       id="text26">filter_config</text>
    <text
       x="160"
       y="143"
       fill="#1c2d3d"
       font-family="Microsoft YaHei,Noto Sans CJK SC,PingFang SC,Arial,sans-serif"
       font-size="25px"
       font-weight="400"
       letter-spacing="0"
       id="text27">dedup_policy</text>
    <text
       x="160"
       y="181"
       fill="#1c2d3d"
       font-family="Microsoft YaHei,Noto Sans CJK SC,PingFang SC,Arial,sans-serif"
       font-size="25px"
       font-weight="400"
       letter-spacing="0"
       id="text28">manifest diff</text>
  </g>
  <!-- Card 03 -->
  <g
     transform="translate(1395,470)"
     id="g33">
    <path
       d="M 18 0 H 427 A 18 18 0 0 1 445 18 V 180 A 18 18 0 0 1 427 198 H 18 A 18 18 0 0 1 0 180 V 18 A 18 18 0 0 1 18 0 Z"
       fill="#ffffff"
       stroke="#b8c3ce"
       stroke-width="2.2"
       id="path28" />
    <path
       d="M 29 18 H 83 A 11 11 0 0 1 94 29 V 59 A 11 11 0 0 1 83 70 H 29 A 11 11 0 0 1 18 59 V 29 A 11 11 0 0 1 29 18 Z"
       fill="#f7fbfc"
       stroke="#607386"
       stroke-width="2.5"
       id="path29" />
    <text
       x="35"
       y="56"
       font-family="Arial"
       font-size="34"
       font-weight="800"
       fill="#607386"
       id="text29">03</text>
    <text
       x="155"
       y="58"
       fill="#142638"
       font-family="Microsoft YaHei,Noto Sans CJK SC,PingFang SC,Arial,sans-serif"
       font-size="34px"
       font-weight="800"
       letter-spacing="0"
       id="text30">固定抽样 token</text>
    <g
       transform="translate(50,92)"
       id="g32">
      <ellipse
         rx="40"
         ry="16"
         cx="21.115789"
         cy="2.5052631"
         fill="none"
         stroke="#14324a"
         stroke-width="3.2"
         stroke-linecap="round"
         stroke-linejoin="round"
         id="ellipse30" />
      <path
         d="M -18.884211,2.5052631 V 72.505263 q 0,16 40,16 40,0 40,-16 V 2.5052631"
         fill="none"
         stroke="#14324a"
         stroke-width="3.2"
         stroke-linecap="round"
         stroke-linejoin="round"
         id="path30" />
      <path
         d="m -18.884211,26.505263 q 0,16 40,16 40,0 40,-16"
         fill="none"
         stroke="#14324a"
         stroke-width="3.2"
         stroke-linecap="round"
         stroke-linejoin="round"
         id="path31" />
      <path
         d="m -18.884211,50.505263 q 0,16 40,16 40,0 40,-16"
         fill="none"
         stroke="#14324a"
         stroke-width="3.2"
         stroke-linecap="round"
         stroke-linejoin="round"
         id="path32" />
    </g>
    <text
       x="160"
       y="112"
       fill="#1c2d3d"
       font-family="Microsoft YaHei,Noto Sans CJK SC,PingFang SC,Arial,sans-serif"
       font-size="25px"
       font-weight="400"
       letter-spacing="0"
       id="text32">same budget</text>
    <text
       x="160"
       y="152"
       fill="#1c2d3d"
       font-family="Microsoft YaHei,Noto Sans CJK SC,PingFang SC,Arial,sans-serif"
       font-size="25px"
       font-weight="400"
       letter-spacing="0"
       id="text33">same tokenizer</text>
  </g>
  <!-- Card 04 -->
  <g
     transform="translate(1175,725)"
     id="g49">
    <path
       d="M 18 0 H 462 A 18 18 0 0 1 480 18 V 160 A 18 18 0 0 1 462 178 H 18 A 18 18 0 0 1 0 160 V 18 A 18 18 0 0 1 18 0 Z"
       fill="#ffffff"
       stroke="#b8c3ce"
       stroke-width="2.2"
       id="path33" />
    <path
       d="M 29 18 H 83 A 11 11 0 0 1 94 29 V 59 A 11 11 0 0 1 83 70 H 29 A 11 11 0 0 1 18 59 V 29 A 11 11 0 0 1 29 18 Z"
       fill="#f7fbfc"
       stroke="#63599c"
       stroke-width="2.5"
       id="path34" />
    <text
       x="35"
       y="56"
       font-family="Arial"
       font-size="34"
       font-weight="800"
       fill="#5b4f91"
       id="text34">04</text>
    <text
       x="160"
       y="58"
       fill="#5b4f91"
       font-family="Microsoft YaHei,Noto Sans CJK SC,PingFang SC,Arial,sans-serif"
       font-size="34px"
       font-weight="800"
       letter-spacing="0"
       id="text35">训练 ablation 模型</text>
    <g
       transform="translate(46,88)"
       id="g48">
      <path
         d="m 29.807233,4.1853665 h 42 a 8,8 0 0 1 8,7.9999995 v 42 a 8,8 0 0 1 -8,8 h -42 a 8,8 0 0 1 -8,-8 v -42 a 8,8 0 0 1 8,-7.9999995 z"
         fill="none"
         stroke="#5b4f91"
         stroke-width="3.2"
         stroke-linecap="round"
         stroke-linejoin="round"
         id="path35" />
      <path
         d="m 37.807233,16.185366 h 26 a 4,4 0 0 1 4,4 v 26 a 4,4 0 0 1 -4,4 h -26 a 4,4 0 0 1 -4,-4 v -26 a 4,4 0 0 1 4,-4 z"
         fill="none"
         stroke="#5b4f91"
         stroke-width="3.2"
         stroke-linecap="round"
         stroke-linejoin="round"
         id="path36" />
      <g
         fill="none"
         stroke="#5b4f91"
         stroke-width="3.2"
         stroke-linecap="round"
         stroke-linejoin="round"
         id="g47">
        <line
           x1="-6.1927667"
           y1="16.185366"
           x2="17.807234"
           y2="16.185366"
           id="line36" />
        <line
           x1="-6.1927667"
           y1="32.185368"
           x2="17.807234"
           y2="32.185368"
           id="line37" />
        <line
           x1="-6.1927667"
           y1="48.185368"
           x2="17.807234"
           y2="48.185368"
           id="line38" />
        <line
           x1="83.807236"
           y1="16.185366"
           x2="107.80724"
           y2="16.185366"
           id="line39" />
        <line
           x1="83.807236"
           y1="32.185368"
           x2="107.80724"
           y2="32.185368"
           id="line40" />
        <line
           x1="83.807236"
           y1="48.185368"
           x2="107.80724"
           y2="48.185368"
           id="line41" />
        <line
           x1="33.807232"
           y1="-13.814633"
           x2="33.807232"
           y2="2.1853664"
           id="line42" />
        <line
           x1="49.807232"
           y1="-13.814633"
           x2="49.807232"
           y2="2.1853664"
           id="line43" />
        <line
           x1="65.807236"
           y1="-13.814633"
           x2="65.807236"
           y2="2.1853664"
           id="line44" />
        <line
           x1="33.807232"
           y1="66.185364"
           x2="33.807232"
           y2="82.185364"
           id="line45" />
        <line
           x1="49.807232"
           y1="66.185364"
           x2="49.807232"
           y2="82.185364"
           id="line46" />
        <line
           x1="65.807236"
           y1="66.185364"
           x2="65.807236"
           y2="82.185364"
           id="line47" />
      </g>
    </g>
    <text
       x="170"
       y="112"
       fill="#1c2d3d"
       font-family="Microsoft YaHei,Noto Sans CJK SC,PingFang SC,Arial,sans-serif"
       font-size="25px"
       font-weight="400"
       letter-spacing="0"
       id="text48">same architecture</text>
    <text
       x="170"
       y="152"
       fill="#1c2d3d"
       font-family="Microsoft YaHei,Noto Sans CJK SC,PingFang SC,Arial,sans-serif"
       font-size="25px"
       font-weight="400"
       letter-spacing="0"
       id="text49">two random seeds</text>
  </g>
  <!-- Card 05 -->
  <g
     transform="translate(350,725)"
     id="g58">
    <path
       d="M 18 0 H 447 A 18 18 0 0 1 465 18 V 160 A 18 18 0 0 1 447 178 H 18 A 18 18 0 0 1 0 160 V 18 A 18 18 0 0 1 18 0 Z"
       fill="#ffffff"
       stroke="#b8c3ce"
       stroke-width="2.2"
       id="path49" />
    <path
       d="M 29 18 H 83 A 11 11 0 0 1 94 29 V 59 A 11 11 0 0 1 83 70 H 29 A 11 11 0 0 1 18 59 V 29 A 11 11 0 0 1 29 18 Z"
       fill="#f7fbfc"
       stroke="#9a6b24"
       stroke-width="2.5"
       id="path50" />
    <text
       x="35"
       y="56"
       font-family="Arial"
       font-size="34"
       font-weight="800"
       fill="#9a6b24"
       id="text50">05</text>
    <text
       x="135"
       y="58"
       fill="#9a6b24"
       font-family="Microsoft YaHei,Noto Sans CJK SC,PingFang SC,Arial,sans-serif"
       font-size="34px"
       font-weight="800"
       letter-spacing="0"
       id="text51">固定任务评测</text>
    <g
       transform="translate(42,90)"
       id="g57">
      <line
         x1="-12.463158"
         y1="70.884216"
         x2="87.536842"
         y2="70.884216"
         fill="none"
         stroke="#9a6b24"
         stroke-width="3.2"
         stroke-linecap="round"
         stroke-linejoin="round"
         id="line51" />
      <rect
         x="-4.4631581"
         y="40.884209"
         width="14"
         height="30"
         fill="none"
         stroke="#9a6b24"
         stroke-width="3.2"
         stroke-linecap="round"
         stroke-linejoin="round"
         id="rect51" />
      <rect
         x="21.536842"
         y="28.884211"
         width="14"
         height="42"
         fill="none"
         stroke="#9a6b24"
         stroke-width="3.2"
         stroke-linecap="round"
         stroke-linejoin="round"
         id="rect52" />
      <rect
         x="47.536842"
         y="12.884211"
         width="14"
         height="58"
         fill="none"
         stroke="#9a6b24"
         stroke-width="3.2"
         stroke-linecap="round"
         stroke-linejoin="round"
         id="rect53" />
      <rect
         x="73.536842"
         y="-1.1157895"
         width="14"
         height="72"
         fill="none"
         stroke="#9a6b24"
         stroke-width="3.2"
         stroke-linecap="round"
         stroke-linejoin="round"
         id="rect54" />
      <polyline
         fill="none"
         stroke="#9a6b24"
         stroke-width="3.2"
         stroke-linecap="round"
         stroke-linejoin="round"
         points="10,34 36,24 62,30 88,2"
         id="polyline54"
         transform="translate(-16.842105,-16.168421)" />
      <circle
         cx="-2.4631579"
         cy="22.884211"
         r="4"
         fill="#ffffff"
         stroke="#9a6b24"
         stroke-width="3"
         id="circle54" />
      <circle
         cx="23.536842"
         cy="12.884211"
         r="4"
         fill="#ffffff"
         stroke="#9a6b24"
         stroke-width="3"
         id="circle55" />
      <circle
         cx="49.536842"
         cy="18.884211"
         r="4"
         fill="#ffffff"
         stroke="#9a6b24"
         stroke-width="3"
         id="circle56" />
      <circle
         cx="75.536842"
         cy="-9.1157894"
         r="4"
         fill="#ffffff"
         stroke="#9a6b24"
         stroke-width="3"
         id="circle57" />
    </g>
    <text
       x="183.44556"
       y="100.879"
       fill="#1c2d3d"
       font-family="'Microsoft YaHei', 'Noto Sans CJK SC', 'PingFang SC', Arial, sans-serif"
       font-size="22.5176px"
       font-weight="400"
       letter-spacing="0"
       id="text57"
       transform="scale(0.90070532,1.110241)"
       style="stroke-width:0.900705">CommonSenseQA, HellaSwag</text>
    <text
       x="165"
       y="152"
       fill="#1c2d3d"
       font-family="Microsoft YaHei,Noto Sans CJK SC,PingFang SC,Arial,sans-serif"
       font-size="25px"
       font-weight="400"
       letter-spacing="0"
       id="text58">ARC, MMLU, PIQA</text>
  </g>
  <!-- Card 06 -->
  <g
     transform="translate(169.91579,448.4421)"
     id="g63">
    <path
       d="m 18,0 h 399 a 18,18 0 0 1 18,18 v 162 a 18,18 0 0 1 -18,18 H 18 A 18,18 0 0 1 0,180 V 18 A 18,18 0 0 1 18,0 Z"
       fill="#ffffff"
       stroke="#b8c3ce"
       stroke-width="2.2"
       id="path58" />
    <path
       d="M 29,18 H 83 A 11,11 0 0 1 94,29 V 59 A 11,11 0 0 1 83,70 H 29 A 11,11 0 0 1 18,59 V 29 A 11,11 0 0 1 29,18 Z"
       fill="#f7fbfc"
       stroke="#2d7248"
       stroke-width="2.5"
       id="path59" />
    <text
       x="35"
       y="56"
       font-family="Arial"
       font-size="34px"
       font-weight="800"
       fill="#247047"
       id="text59">06</text>
    <text
       x="162.8582"
       y="52.2836"
       fill="#247047"
       font-family="'Microsoft YaHei', 'Noto Sans CJK SC', 'PingFang SC', Arial, sans-serif"
       font-size="34px"
       font-weight="800"
       letter-spacing="0"
       id="text60">冻结或回退</text>
    <g
       transform="matrix(0.78,0,0,0.78,36,92)"
       id="g60">
      <path
         d="m 56.272605,-19.865047 q 28,19.99999976 63.999995,25.9999998 V 44.134953 q 0,50 -63.999995,81.999997 Q -7.7273954,94.134953 -7.7273954,44.134953 V 6.1349528 Q 28.272605,0.13495276 56.272605,-19.865047 Z"
         fill="none"
         stroke="#287044"
         stroke-width="3.2"
         stroke-linecap="round"
         stroke-linejoin="round"
         id="path60" />
      <polyline
         fill="none"
         stroke="#287044"
         stroke-width="3.2"
         stroke-linecap="round"
         stroke-linejoin="round"
         points="28,76 50,98 96,48"
         id="polyline60"
         transform="translate(-1.7273954,-19.865047)" />
    </g>
    <text
       x="164.76181"
       y="101.33086"
       fill="#1c2d3d"
       font-family="'Microsoft YaHei', 'Noto Sans CJK SC', 'PingFang SC', Arial, sans-serif"
       font-size="23px"
       font-weight="400"
       letter-spacing="0"
       id="text61">score up: keep config</text>
    <text
       x="165.71455"
       y="138.04543"
       fill="#1c2d3d"
       font-family="'Microsoft YaHei', 'Noto Sans CJK SC', 'PingFang SC', Arial, sans-serif"
       font-size="23px"
       font-weight="400"
       letter-spacing="0"
       id="text62">score flat:</text>
    <text
       x="165.47636"
       y="173.71271"
       fill="#1c2d3d"
       font-family="'Microsoft YaHei', 'Noto Sans CJK SC', 'PingFang SC', Arial, sans-serif"
       font-size="23px"
       font-weight="400"
       letter-spacing="0"
       id="text63">rollback threshold</text>
  </g>
  <!-- Formula box -->
  <g
     transform="matrix(0.91646134,0,0,1.0006634,85.215521,956.52474)"
     id="g72">
    <path
       d="M 17.588068,-0.06990876 H 507.12063 A 17.658489,15.936834 0 0 1 524.77912,15.866925 V 97.32185 a 17.658489,15.936834 0 0 1 -17.65849,15.93683 H 17.588068 A 17.658489,15.936834 0 0 1 -0.07042095,97.32185 V 15.866925 A 17.658489,15.936834 0 0 1 17.588068,-0.06990876 Z"
       fill="#ffffff"
       stroke="#183049"
       stroke-width="1.86396"
       stroke-dasharray="8, 8"
       id="path63" />
    <g
       transform="translate(22,26)"
       id="g71">
      <path
         d="m 12.763667,-3.8109334 h 54 a 8,8 0 0 1 8,8 V 70.189067 a 8,8 0 0 1 -8,8 h -54 a 8,8 0 0 1 -8.0000003,-8 V 4.1890666 a 8,8 0 0 1 8.0000003,-8 z"
         fill="none"
         stroke="#14324a"
         stroke-width="3.2"
         stroke-linecap="round"
         stroke-linejoin="round"
         id="path64" />
      <rect
         x="16.763666"
         y="7.2363334"
         width="46"
         height="20"
         fill="none"
         stroke="#14324a"
         stroke-width="3.2"
         stroke-linecap="round"
         stroke-linejoin="round"
         id="rect64" />
      <g
         fill="none"
         stroke="#14324a"
         stroke-width="3.2"
         stroke-linecap="round"
         stroke-linejoin="round"
         id="g70">
        <rect
           x="12.336843"
           y="37.599998"
           width="12"
           height="12"
           id="rect65" />
        <rect
           x="34.336842"
           y="37.599998"
           width="12"
           height="12"
           id="rect66" />
        <rect
           x="56.336842"
           y="37.599998"
           width="12"
           height="12"
           id="rect67" />
        <rect
           x="12.336843"
           y="57.599998"
           width="12"
           height="12"
           id="rect68" />
        <rect
           x="34.336842"
           y="57.599998"
           width="12"
           height="12"
           id="rect69" />
        <rect
           x="56.336842"
           y="57.599998"
           width="12"
           height="12"
           id="rect70" />
      </g>
    </g>
    <text
       x="138"
       y="64"
       fill="#425466"
       font-family="'Microsoft YaHei', 'Noto Sans CJK SC', 'PingFang SC', Arial, sans-serif"
       font-size="22px"
       font-weight="400"
       letter-spacing="0"
       id="text71">平均得分 = mean(2 runs x k tasks)</text>
  </g>
  <!-- Decision diamond -->
  <g
     transform="translate(855,885)"
     id="g74">
    <path
       d="M165 0 L330 125 L165 250 L0 125 Z"
       fill="#fff"
       stroke="#17304a"
       stroke-width="5"
       id="path72" />
    <path
       d="M165 14 L312 125 L165 236 L18 125 Z"
       fill="none"
       stroke="#90b79f"
       stroke-width="3"
       id="path73" />
    <text
       x="93.473686"
       y="116.50526"
       fill="#142638"
       font-family="'Microsoft YaHei', 'Noto Sans CJK SC', 'PingFang SC', Arial, sans-serif"
       font-size="34px"
       font-weight="800"
       letter-spacing="0"
       id="text73">模型真的</text>
    <text
       x="108.04089"
       y="158.50526"
       fill="#142638"
       font-family="'Microsoft YaHei', 'Noto Sans CJK SC', 'PingFang SC', Arial, sans-serif"
       font-size="34px"
       font-weight="800"
       letter-spacing="0"
       id="text74">变好吗</text>
  </g>
  <g
     transform="translate(805,970)"
     id="g75">
    <circle
       cx="10.8"
       cy="33.36842"
       r="28"
       fill="#edf7ef"
       stroke="#247047"
       stroke-width="4"
       id="circle74" />
    <path
       d="m -2.2,33.368421 10,12 20,-26"
       fill="none"
       stroke="#247047"
       stroke-width="4"
       stroke-linecap="round"
       stroke-linejoin="round"
       id="path74" />
    <path
       d="M 41.56535,35.7164 H 52.359633"
       fill="none"
       stroke="#20344a"
       stroke-width="1.82245"
       marker-end="#ffffff"
       id="path75" />
    <text
       x="-205.95273"
       y="48.952732"
       font-family="'Microsoft YaHei', 'Noto Sans CJK SC', 'PingFang SC', Arial, sans-serif"
       font-size="28px"
       font-weight="800"
       fill="#247047"
       id="text75">是：冻结参数</text>
  </g>
  <g
     transform="translate(1245,970)"
     id="g78">
    <circle
       cx="30"
       cy="30"
       r="28"
       fill="#fff5f5"
       stroke="#c82020"
       stroke-width="4"
       id="circle75" />
    <path
       d="M18 18 L42 42 M42 18 L18 42"
       stroke="#c82020"
       stroke-width="4"
       stroke-linecap="round"
       id="path76" />
    <path
       d="M 2,30 H -65.227083"
       fill="none"
       stroke="#c82020"
       stroke-width="2.49751"
       marker-end="#ffffff"
       id="path77" />
    <path
       d="M 73.403977,14.531243 H 186.44488 V -59.53069"
       fill="none"
       stroke="#6b7d8d"
       stroke-width="1.5785"
       stroke-dasharray="10, 14"
       marker-end="url(#arrow)"
       id="path78" />
    <path
       d="M -511.11931,11.92099 H -637.92588 V -53.947981"
       fill="none"
       stroke="#6b7d8d"
       stroke-width="1.57667"
       stroke-dasharray="10, 14"
       marker-end="url(#arrow-6)"
       id="path78-2"
       style="marker-end:url(#arrow-6)" />
    <text
       x="80"
       y="52.71579"
       font-family="'Microsoft YaHei', 'Noto Sans CJK SC', 'PingFang SC', Arial, sans-serif"
       font-size="28px"
       font-weight="800"
       fill="#b91c1c"
       id="text78">否：回退阈值</text>
  </g>
</svg>
