<svg xmlns="http://www.w3.org/2000/svg" width="1800" height="1050" viewBox="0 0 1800 1050" role="img">
<defs>
  <marker id="arrow" markerWidth="10" markerHeight="10" refX="9" refY="3" orient="auto" markerUnits="strokeWidth">
    <path d="M0,0 L0,6 L9,3 z" fill="#4b5563"/>
  </marker>
</defs>
<rect width="100%" height="100%" fill="#f7faff"/>
<g font-family="Arial, Helvetica, sans-serif" fill="#111827">
<text x="72" y="96" font-size="44" font-weight="700" fill="#111827">
<tspan x="72" dy="0">Figure 41-1 Local Evidence Loop for a Medical Image Agent</tspan>
</text>
<text x="72" y="140" font-size="24" font-weight="400" fill="#607086">
<tspan x="72" dy="0">From whole-image inspection to controlled visual evidence and answer review</tspan>
</text>
<rect x="90" y="220" width="350" height="245" rx="18" fill="#e8f3ff" stroke="#b9cce2" stroke-width="1.6"/>
<text x="118" y="268" font-size="28" font-weight="700" fill="#123b63">
<tspan x="118" dy="0">Whole-image</tspan>
<tspan x="118" dy="32">question</tspan>
</text>
<text x="118" y="338" font-size="21" font-weight="400" fill="#1f2937">
<tspan x="118" dy="0">medical image</tspan>
</text>
<text x="118" y="378" font-size="21" font-weight="400" fill="#1f2937">
<tspan x="118" dy="0">question</tspan>
</text>
<text x="118" y="418" font-size="21" font-weight="400" fill="#1f2937">
<tspan x="118" dy="0">candidate answers</tspan>
</text>
<rect x="520" y="220" width="350" height="245" rx="18" fill="#ecf8ef" stroke="#b7d2c0" stroke-width="1.6"/>
<text x="548" y="268" font-size="28" font-weight="700" fill="#0f5132">
<tspan x="548" dy="0">Initial</tspan>
<tspan x="548" dy="32">observation</tspan>
</text>
<text x="548" y="338" font-size="21" font-weight="400" fill="#1f2937">
<tspan x="548" dy="0">modality and anatomy</tspan>
</text>
<text x="548" y="378" font-size="21" font-weight="400" fill="#1f2937">
<tspan x="548" dy="0">local evidence need</tspan>
</text>
<text x="548" y="418" font-size="21" font-weight="400" fill="#1f2937">
<tspan x="548" dy="0">candidate region</tspan>
</text>
<rect x="950" y="220" width="350" height="245" rx="18" fill="#fff7dc" stroke="#dec999" stroke-width="1.6"/>
<text x="978" y="268" font-size="28" font-weight="700" fill="#6d4c00">
<tspan x="978" dy="0">Tool</tspan>
<tspan x="978" dy="32">decision</tspan>
</text>
<text x="978" y="338" font-size="21" font-weight="400" fill="#1f2937">
<tspan x="978" dy="0">zoom / segment</tspan>
</text>
<text x="978" y="378" font-size="21" font-weight="400" fill="#1f2937">
<tspan x="978" dy="0">refine boundary</tspan>
</text>
<text x="978" y="418" font-size="21" font-weight="400" fill="#1f2937">
<tspan x="978" dy="0">JSON arguments</tspan>
</text>
<rect x="1380" y="220" width="340" height="245" rx="18" fill="#f0ebff" stroke="#c7bddf" stroke-width="1.6"/>
<text x="1408" y="268" font-size="28" font-weight="700" fill="#3d2476">
<tspan x="1408" dy="0">Local</tspan>
<tspan x="1408" dy="32">observation</tspan>
</text>
<text x="1408" y="338" font-size="21" font-weight="400" fill="#1f2937">
<tspan x="1408" dy="0">crop / mask</tspan>
</text>
<text x="1408" y="378" font-size="21" font-weight="400" fill="#1f2937">
<tspan x="1408" dy="0">segmentation image</tspan>
</text>
<text x="1408" y="418" font-size="21" font-weight="400" fill="#1f2937">
<tspan x="1408" dy="0">new visual evidence</tspan>
</text>
<rect x="520" y="600" width="350" height="245" rx="18" fill="#eaf7fa" stroke="#b7d4dc" stroke-width="1.6"/>
<text x="548" y="648" font-size="28" font-weight="700" fill="#123b63">
<tspan x="548" dy="0">Evidence</tspan>
<tspan x="548" dy="32">integration</tspan>
</text>
<text x="548" y="718" font-size="21" font-weight="400" fill="#1f2937">
<tspan x="548" dy="0">compare context</tspan>
</text>
<text x="548" y="758" font-size="21" font-weight="400" fill="#1f2937">
<tspan x="548" dy="0">consume observation</tspan>
</text>
<text x="548" y="798" font-size="21" font-weight="400" fill="#1f2937">
<tspan x="548" dy="0">reject text-only answer</tspan>
</text>
<rect x="1380" y="600" width="340" height="245" rx="18" fill="#fff0e5" stroke="#e4bf9d" stroke-width="1.6"/>
<text x="1408" y="648" font-size="28" font-weight="700" fill="#7a3d00">
<tspan x="1408" dy="0">Answer and</tspan>
<tspan x="1408" dy="32">boundary</tspan>
</text>
<text x="1408" y="718" font-size="21" font-weight="400" fill="#1f2937">
<tspan x="1408" dy="0">select option</tspan>
</text>
<text x="1408" y="758" font-size="21" font-weight="400" fill="#1f2937">
<tspan x="1408" dy="0">keep uncertainty</tspan>
</text>
<text x="1408" y="798" font-size="21" font-weight="400" fill="#1f2937">
<tspan x="1408" dy="0">quality review</tspan>
</text>
<line x1="440" y1="340" x2="520" y2="340" stroke="#4b5563" stroke-width="4" marker-end="url(#arrow)"/>
<line x1="870" y1="340" x2="950" y2="340" stroke="#4b5563" stroke-width="4" marker-end="url(#arrow)"/>
<line x1="1300" y1="340" x2="1380" y2="340" stroke="#4b5563" stroke-width="4" marker-end="url(#arrow)"/>
<line x1="1550" y1="465" x2="1550" y2="600" stroke="#4b5563" stroke-width="4" marker-end="url(#arrow)"/>
<line x1="1380" y1="722" x2="870" y2="722" stroke="#4b5563" stroke-width="4" marker-end="url(#arrow)"/>
<line x1="695" y1="600" x2="695" y2="465" stroke="#4b5563" stroke-width="4" marker-end="url(#arrow)"/>
<rect x="90" y="915" width="1620" height="80" rx="14" fill="#ffffff" stroke="#b9c8dc" stroke-width="1.5"/>
<text x="120" y="960" font-size="24" font-weight="400" fill="#1f2937">
<tspan x="120" dy="0">Focus: record tool need, tool choice, observation, and how it changes the answer.</tspan>
</text>
</g>
</svg>
