<svg xmlns="http://www.w3.org/2000/svg" width="1280" height="560" viewBox="0 0 1280 560">
<defs>
  <marker id="arrow" markerWidth="12" markerHeight="12" refX="10" refY="6" orient="auto"><path d="M2,2 L10,6 L2,10 Z" fill="#475569"/></marker>
  <style>.title{font-family:-apple-system,BlinkMacSystemFont,'Noto Sans CJK SC','Microsoft YaHei',sans-serif;font-size:20px;font-weight:700;fill:#0f172a}.item{font-family:-apple-system,BlinkMacSystemFont,'Noto Sans CJK SC','Microsoft YaHei',sans-serif;font-size:16px;fill:#334155}.caption{font-family:-apple-system,BlinkMacSystemFont,'Noto Sans CJK SC','Microsoft YaHei',sans-serif;font-size:18px;font-weight:700;fill:#0f172a}</style>
</defs>
<rect x="1" y="1" width="1278" height="558" rx="18" fill="white" stroke="#cbd5e1"/>
<text x="640" y="38" text-anchor="middle" class="caption">Dual-channel schema for semantic response and style control</text>
<g><rect x="60" y="90" width="330" height="170" rx="14" fill="#eff6ff" stroke="#334155" stroke-width="1.3"/><text x="78" y="120" class="title">Semantic Channel</text><text x="82" y="148" class="item">• query / spoken user query</text><text x="82" y="174" class="item">• answer / assistant response</text><text x="82" y="200" class="item">• task: S2S or TTS</text><text x="82" y="226" class="item">• language: zh</text></g>
<g><rect x="60" y="310" width="330" height="170" rx="14" fill="#f0fdf4" stroke="#334155" stroke-width="1.3"/><text x="78" y="340" class="title">Style Channel</text><text x="82" y="368" class="item">• query_gender / answer_gender</text><text x="82" y="394" class="item">• query_mood / answer_mood</text><text x="82" y="420" class="item">• gender / mood</text><text x="82" y="446" class="item">• query_id / answer_id</text></g>
<g><rect x="480" y="120" width="320" height="230" rx="14" fill="#fff7ed" stroke="#334155" stroke-width="1.3"/><text x="498" y="150" class="title">Acoustic Target</text><text x="502" y="178" class="item">• query_audio_path / answer_audio_path</text><text x="502" y="204" class="item">• query_token_25hz</text><text x="502" y="230" class="item">• answer_token_25hz</text><text x="502" y="256" class="item">• speech_token_25hz</text><text x="502" y="282" class="item">• sample_rate: 16000</text></g>
<g><rect x="900" y="165" width="310" height="200" rx="14" fill="#fdf2f8" stroke="#334155" stroke-width="1.3"/><text x="918" y="195" class="title">Training Record</text><text x="922" y="223" class="item">• Text loss: semantic match</text><text x="922" y="249" class="item">• Speech-token loss: pronounceable</text><text x="922" y="275" class="item">• Speaker constraint: identity</text><text x="922" y="301" class="item">• Emotion constraint: style</text></g>
<line x1="390" y1="175" x2="480" y2="200" stroke="#475569" stroke-width="1.8" marker-end="url(#arrow)"/><text x="435.0" y="166" text-anchor="middle" class="item">text</text><text x="435.0" y="184" text-anchor="middle" class="item">alignment</text>
<line x1="390" y1="395" x2="480" y2="280" stroke="#475569" stroke-width="1.8" marker-end="url(#arrow)"/><text x="435.0" y="318" text-anchor="middle" class="item">control</text><text x="435.0" y="336" text-anchor="middle" class="item">conditions</text>
<line x1="800" y1="235" x2="900" y2="255" stroke="#475569" stroke-width="1.8" marker-end="url(#arrow)"/><text x="850.0" y="226" text-anchor="middle" class="item">unified</text><text x="850.0" y="244" text-anchor="middle" class="item">package</text>
<text x="640" y="515" text-anchor="middle" class="item">Core principle: model semantic correctness and vocal expression separately, then merge them into one trainable record.</text>
</svg>
