<svg xmlns="http://www.w3.org/2000/svg" width="1320" height="380" viewBox="0 0 1320 380">
<defs>
  <marker id="arrow" markerWidth="12" markerHeight="12" refX="10" refY="6" orient="auto"><path d="M2,2 L10,6 L2,10 Z" fill="#475569"/></marker>
  <style>
  .title{font-family:-apple-system,BlinkMacSystemFont,'Noto Sans CJK SC','Microsoft YaHei',sans-serif;font-size:17px;font-weight:700;fill:#0f172a}
  .sub{font-family:-apple-system,BlinkMacSystemFont,'Noto Sans CJK SC','Microsoft YaHei',sans-serif;font-size:13px;fill:#475569}
  .note{font-family:-apple-system,BlinkMacSystemFont,'Noto Sans CJK SC','Microsoft YaHei',sans-serif;font-size:14px;fill:#334155;font-weight:600}
  </style>
</defs>
<rect x="1" y="1" width="1318" height="378" rx="18" fill="white" stroke="#cbd5e1"/>
<g>
  <rect x="35" y="155" width="180" height="78" rx="12" ry="12" fill="#eff6ff" stroke="#334155" stroke-width="1.4"/>
  <text x="125" y="187" text-anchor="middle" class="title">Text / style content</text>
  <text x="125" y="211" text-anchor="middle" class="sub">Qwen3-8B or human</text>
</g>
<g>
  <rect x="245" y="155" width="180" height="78" rx="12" ry="12" fill="#f0fdf4" stroke="#334155" stroke-width="1.4"/>
  <text x="335" y="187" text-anchor="middle" class="title">Style attributes</text>
  <text x="335" y="211" text-anchor="middle" class="sub">gender / mood / language</text>
</g>
<g>
  <rect x="475" y="35" width="210" height="78" rx="12" ry="12" fill="#fff7ed" stroke="#334155" stroke-width="1.4"/>
  <text x="580" y="67" text-anchor="middle" class="title">Authorized voice pool</text>
  <text x="580" y="91" text-anchor="middle" class="sub">multi-speaker x emotion</text>
</g>
<g>
  <rect x="475" y="155" width="210" height="78" rx="12" ry="12" fill="#fff7ed" stroke="#334155" stroke-width="1.4"/>
  <text x="580" y="187" text-anchor="middle" class="title">Speech synth / collect</text>
  <text x="580" y="211" text-anchor="middle" class="sub">CosyVoice2 zero-shot</text>
</g>
<g>
  <rect x="730" y="155" width="170" height="78" rx="12" ry="12" fill="#fefce8" stroke="#334155" stroke-width="1.4"/>
  <text x="815" y="187" text-anchor="middle" class="title">Speech tokens</text>
  <text x="815" y="211" text-anchor="middle" class="sub">S3Tokenizer 25 Hz</text>
</g>
<g>
  <rect x="935" y="155" width="170" height="78" rx="12" ry="12" fill="#fdf2f8" stroke="#334155" stroke-width="1.4"/>
  <text x="1020" y="187" text-anchor="middle" class="title">QC and balance</text>
  <text x="1020" y="211" text-anchor="middle" class="sub">ASR / voice / emotion</text>
</g>
<g>
  <rect x="1130" y="155" width="160" height="78" rx="12" ry="12" fill="#f8fafc" stroke="#334155" stroke-width="1.4"/>
  <text x="1210" y="187" text-anchor="middle" class="title">Package / release</text>
  <text x="1210" y="211" text-anchor="middle" class="sub">JSONL / audio / token</text>
</g>
<g>
  <line x1="215" y1="194" x2="245" y2="194" stroke="#475569" stroke-width="1.8" marker-end="url(#arrow)"/>
</g>
<g>
  <line x1="425" y1="194" x2="475" y2="194" stroke="#475569" stroke-width="1.8" marker-end="url(#arrow)"/>
  <text x="450" y="165" text-anchor="middle" class="sub">target</text>
  <text x="450" y="179" text-anchor="middle" class="sub">style</text>
</g>
<g>
  <line x1="580" y1="113" x2="580" y2="155" stroke="#475569" stroke-width="1.8" marker-end="url(#arrow)"/>
  <text x="648" y="139" text-anchor="middle" class="sub">reference choice</text>
</g>
<g>
  <line x1="685" y1="194" x2="730" y2="194" stroke="#475569" stroke-width="1.8" marker-end="url(#arrow)"/>
</g>
<g>
  <line x1="900" y1="194" x2="935" y2="194" stroke="#475569" stroke-width="1.8" marker-end="url(#arrow)"/>
</g>
<g>
  <line x1="1105" y1="194" x2="1130" y2="194" stroke="#475569" stroke-width="1.8" marker-end="url(#arrow)"/>
</g>
<text x="660" y="314" text-anchor="middle" class="note">S2SEmoControl: synthesize query and answer separately</text>
<text x="660" y="337" text-anchor="middle" class="note">TTSSpeakerControl: synthesize style description and answer</text>
</svg>
