<?xml version="1.0" encoding="UTF-8" standalone="no"?>
<svg
   width="2048"
   height="1152"
   viewBox="0 0 2048 1152"
   version="1.1"
   id="svg81"
   sodipodi:docname="ch42_02_dolma_source_mix_diagnosis_en.svg"
   inkscape:version="1.4.4 (dcaf3e7, 2026-05-05)"
   xmlns:inkscape="http://www.inkscape.org/namespaces/inkscape"
   xmlns:sodipodi="http://sodipodi.sourceforge.net/DTD/sodipodi-0.dtd"
   xmlns="http://www.w3.org/2000/svg"
   xmlns:svg="http://www.w3.org/2000/svg">
  <defs
     id="defs81" />
  <sodipodi:namedview
     id="namedview81"
     pagecolor="#ffffff"
     bordercolor="#000000"
     borderopacity="0.25"
     inkscape:showpageshadow="2"
     inkscape:pageopacity="0.0"
     inkscape:pagecheckerboard="0"
     inkscape:deskcolor="#d1d1d1"
     inkscape:zoom="0.74218749"
     inkscape:cx="1257.0947"
     inkscape:cy="478.98948"
     inkscape:window-width="1920"
     inkscape:window-height="1111"
     inkscape:window-x="-9"
     inkscape:window-y="-9"
     inkscape:window-maximized="1"
     inkscape:current-layer="svg81" />
  <title
     id="title1">Figure 42-2 Dolma Source Mix and Training Diagnosis Loop</title>
  <circle
     cx="365"
     cy="690"
     r="290"
     fill="none"
     stroke="#dfe6e2"
     stroke-width="1.2"
     opacity="0.48"
     id="circle1" />
  <circle
     cx="1188"
     cy="420"
     r="250"
     fill="none"
     stroke="#dfe6e2"
     stroke-width="1.2"
     opacity="0.44"
     id="circle2" />
  <ellipse
     cx="1580"
     cy="760"
     rx="360"
     ry="270"
     fill="none"
     stroke="#dfe6e2"
     stroke-width="1.2"
     opacity="0.40"
     id="ellipse2" />
  <text
     x="1024"
     y="86"
     text-anchor="middle"
     fill="#12243a"
     font-family="Microsoft YaHei,Noto Sans CJK SC,PingFang SC,Arial,sans-serif"
     font-size="68"
     font-weight="800"
     id="text2">Dolma Source Mix and Training Diagnosis Loop</text>
  <text
     x="1024"
     y="146"
     text-anchor="middle"
     fill="#4c5966"
     font-family="Microsoft YaHei,Noto Sans CJK SC,PingFang SC,Arial,sans-serif"
     font-size="34"
     font-weight="600"
     id="text3">Trace capability changes to sources, sampling proportions, seen tokens, and manifests</text>
  <!-- Source mix panel -->
  <path
     d="M 58 198 H 315 A 18 18 0 0 1 333 216 V 972 A 18 18 0 0 1 315 990 H 58 A 18 18 0 0 1 40 972 V 216 A 18 18 0 0 1 58 198 Z"
     fill="#ffffff"
     stroke="#738292"
     stroke-width="2"
     id="path3" />
  <text
     x="104"
     y="258"
     fill="#2f6d49"
     font-family="Microsoft YaHei,Noto Sans CJK SC,PingFang SC,Arial,sans-serif"
     font-size="32"
     font-weight="800"
     id="text4">Source mix</text>
  <path
     d="M 56 296 H317 A 8 8 0 0 1 325 304 V382 H48 V304 A 8 8 0 0 1 56 296 Z"
     fill="#eef7f2"
     stroke="#2f6d49"
     stroke-width="1.5"
     id="path4" />
  <rect
     x="48"
     y="382"
     width="277"
     height="114"
     fill="#eef7f2"
     stroke="#2f6d49"
     stroke-width="1.5"
     id="rect4" />
  <rect
     x="48"
     y="496"
     width="277"
     height="114"
     fill="#eef7f2"
     stroke="#2f6d49"
     stroke-width="1.5"
     id="rect5" />
  <rect
     x="48"
     y="610"
     width="277"
     height="114"
     fill="#eef7f2"
     stroke="#2f6d49"
     stroke-width="1.5"
     id="rect6" />
  <rect
     x="48"
     y="724"
     width="277"
     height="114"
     fill="#eef7f2"
     stroke="#2f6d49"
     stroke-width="1.5"
     id="rect7" />
  <path
     d="M 48 838 H325 V948 A 8 8 0 0 1 317 956 H56 A 8 8 0 0 1 48 948 Z"
     fill="#eef7f2"
     stroke="#2f6d49"
     stroke-width="1.5"
     id="path7" />
  <g
     fill="none"
     stroke="#2f6d49"
     stroke-width="3"
     stroke-linecap="round"
     stroke-linejoin="round"
     id="g13"
     transform="translate(-3.8109334,-10.480067)">
    <circle
       cx="98"
       cy="354"
       r="24"
       id="circle7" />
    <path
       d="m 74,354 h 48 M 98,330 q -20,24 0,48 m 0,-48 q 20,24 0,48"
       id="path8" />
    <path
       d="m 84.724651,448.21382 17.999999,-28 m 0,56 -17.999999,-28 m 49.999989,-28 -18,28 m 0,28 18,-28"
       id="path9" />
    <path
       d="m 82.381833,533.1455 h 38.999997 l 19,19 v 39 H 82.381833 Z"
       id="path10" />
    <path
       d="m 121.38183,533.1455 v 19 h 19"
       id="path11" />
    <line
       x1="96.381836"
       y1="561.14545"
       x2="125.38184"
       y2="561.14545"
       id="line11" />
    <line
       x1="96.381836"
       y1="577.14545"
       x2="121.38184"
       y2="577.14545"
       id="line12" />
    <path
       d="m 86.8,664.4421 q 24,-28 55,0 m -51,22 q 22,24 47,0 m -49,-11 h 50"
       id="path12" />
    <path
       d="m 78.461453,779.29403 q 17.220157,-17.28702 34.440307,0 v 37.71714 q -17.22015,-17.28702 -34.440307,0 z m 34.440307,0 q 17.22016,-17.28702 34.44032,0 v 37.71714 q -17.22016,-17.28702 -34.44032,0 z"
       id="path13"
       style="stroke-width:2.30104" />
    <text
       x="83.43158"
       y="924.77893"
       fill="#2f6d49"
       stroke="none"
       font-family="Georgia, 'Times New Roman', serif"
       font-size="52px"
       font-weight="800"
       id="text13">W</text>
  </g>
  <g
     fill="#1b2a38"
     font-family="Microsoft YaHei,Noto Sans CJK SC,PingFang SC,Arial,sans-serif"
     font-size="24"
     id="g19">
    <text
       x="135.04727"
       y="350.66171"
       id="text14">Common Crawl</text>
    <text
       x="187.4476"
       y="451.32346"
       id="text15">Code</text>
    <text
       x="188.40034"
       y="561.51251"
       id="text16">Papers</text>
    <text
       x="188.40033"
       y="680.27625"
       id="text17">Reddit</text>
    <text
       x="192.10933"
       y="794.27618"
       id="text18">Books</text>
    <text
       x="201.63666"
       y="902.55981"
       id="text19">Wiki</text>
  </g>
  <!-- Top cards -->
  <g
     id="g27">
    <path
       d="M 404 255 H 598 A 18 18 0 0 1 616 273 V612 A 18 18 0 0 1 598 630 H 404 A 18 18 0 0 1 386 612 V273 A 18 18 0 0 1 404 255 Z"
       fill="#ffffff"
       stroke="#8391a1"
       stroke-width="2"
       id="path19" />
    <circle
       cx="426"
       cy="300"
       r="25"
       fill="#ffffff"
       stroke="#2f7d41"
       stroke-width="3"
       id="circle19" />
    <text
       x="426"
       y="310"
       text-anchor="middle"
       fill="#2f7d41"
       font-family="Arial,sans-serif"
       font-size="25"
       font-weight="800"
       id="text20">01</text>
    <text
       x="474"
       y="291"
       fill="#12243a"
       font-family="Microsoft YaHei,Noto Sans CJK SC,PingFang SC,Arial,sans-serif"
       font-size="25"
       font-weight="800"
       id="text21">Source</text>
    <text
       x="474"
       y="326"
       fill="#12243a"
       font-family="Microsoft YaHei,Noto Sans CJK SC,PingFang SC,Arial,sans-serif"
       font-size="25"
       font-weight="800"
       id="text22">statistics</text>
    <rect
       x="434"
       y="416"
       width="14"
       height="38"
       fill="none"
       stroke="#2f6d49"
       stroke-width="3"
       id="rect22" />
    <rect
       x="458"
       y="394"
       width="14"
       height="60"
       fill="none"
       stroke="#2f6d49"
       stroke-width="3"
       id="rect23" />
    <rect
       x="482"
       y="372"
       width="14"
       height="82"
       fill="none"
       stroke="#2f6d49"
       stroke-width="3"
       id="rect24" />
    <path
       d="M512 360 H553 L575 382 V454 H512 Z"
       fill="none"
       stroke="#2f6d49"
       stroke-width="3"
       id="path24" />
    <path
       d="M553 360 V382 H575"
       fill="none"
       stroke="#2f6d49"
       stroke-width="3"
       id="path25" />
    <line
       x1="530"
       y1="400"
       x2="556"
       y2="400"
       stroke="#2f6d49"
       stroke-width="3"
       id="line25" />
    <line
       x1="530"
       y1="424"
       x2="550"
       y2="424"
       stroke="#2f6d49"
       stroke-width="3"
       id="line26" />
    <text
       x="501"
       y="538.18945"
       text-anchor="middle"
       fill="#12243a"
       font-family="'Microsoft YaHei', 'Noto Sans CJK SC', 'PingFang SC', Arial, sans-serif"
       font-size="22px"
       id="text26">documents /</text>
    <text
       x="501"
       y="568.18945"
       text-anchor="middle"
       fill="#12243a"
       font-family="'Microsoft YaHei', 'Noto Sans CJK SC', 'PingFang SC', Arial, sans-serif"
       font-size="22px"
       id="text27">tokens / cutoff</text>
  </g>
  <g
     id="g35">
    <path
       d="M 675 255 H 870 A 18 18 0 0 1 888 273 V612 A 18 18 0 0 1 870 630 H 675 A 18 18 0 0 1 657 612 V273 A 18 18 0 0 1 675 255 Z"
       fill="#ffffff"
       stroke="#8391a1"
       stroke-width="2"
       id="path27" />
    <circle
       cx="698"
       cy="300"
       r="25"
       fill="#ffffff"
       stroke="#2f7d41"
       stroke-width="3"
       id="circle27" />
    <text
       x="698"
       y="310"
       text-anchor="middle"
       fill="#2f7d41"
       font-family="Arial,sans-serif"
       font-size="25"
       font-weight="800"
       id="text28">02</text>
    <text
       x="738.37811"
       y="291.95273"
       fill="#12243a"
       font-family="'Microsoft YaHei', 'Noto Sans CJK SC', 'PingFang SC', Arial, sans-serif"
       font-size="25px"
       font-weight="800"
       id="text29">Sample</text>
    <text
       x="738.37811"
       y="326.95273"
       fill="#12243a"
       font-family="'Microsoft YaHei', 'Noto Sans CJK SC', 'PingFang SC', Arial, sans-serif"
       font-size="25px"
       font-weight="800"
       id="text30">proportion</text>
    <line
       x1="714"
       y1="394"
       x2="814"
       y2="394"
       stroke="#2f6d49"
       stroke-width="4"
       stroke-linecap="round"
       id="line30" />
    <line
       x1="714"
       y1="430"
       x2="814"
       y2="430"
       stroke="#2f6d49"
       stroke-width="4"
       stroke-linecap="round"
       id="line31" />
    <line
       x1="714"
       y1="466"
       x2="814"
       y2="466"
       stroke="#2f6d49"
       stroke-width="4"
       stroke-linecap="round"
       id="line32" />
    <circle
       cx="742"
       cy="394"
       r="9"
       fill="#ffffff"
       stroke="#2f6d49"
       stroke-width="4"
       id="circle32" />
    <circle
       cx="786"
       cy="430"
       r="9"
       fill="#ffffff"
       stroke="#2f6d49"
       stroke-width="4"
       id="circle33" />
    <circle
       cx="742"
       cy="466"
       r="9"
       fill="#ffffff"
       stroke="#2f6d49"
       stroke-width="4"
       id="circle34" />
    <text
       x="769.30524"
       y="538.18945"
       text-anchor="middle"
       fill="#12243a"
       font-family="'Microsoft YaHei', 'Noto Sans CJK SC', 'PingFang SC', Arial, sans-serif"
       font-size="22px"
       id="text34">mix config</text>
    <text
       x="769.30524"
       y="568.18945"
       text-anchor="middle"
       fill="#12243a"
       font-family="'Microsoft YaHei', 'Noto Sans CJK SC', 'PingFang SC', Arial, sans-serif"
       font-size="22px"
       id="text35">source weights</text>
    <text
       x="735.22687"
       y="918.73212"
       text-anchor="middle"
       fill="#12243a"
       font-family="'Microsoft YaHei', 'Noto Sans CJK SC', 'PingFang SC', Arial, sans-serif"
       font-size="22px"
       id="text35-9">With fixed model and budget, trace Delta_s back to source mix</text>
  </g>
  <g
     id="g41">
    <path
       d="M 946 255 H 1143 A 18 18 0 0 1 1161 273 V612 A 18 18 0 0 1 1143 630 H 946 A 18 18 0 0 1 928 612 V273 A 18 18 0 0 1 946 255 Z"
       fill="#ffffff"
       stroke="#8391a1"
       stroke-width="2"
       id="path35" />
    <circle
       cx="970"
       cy="300"
       r="25"
       fill="#ffffff"
       stroke="#a17000"
       stroke-width="3"
       id="circle35" />
    <text
       x="970"
       y="310"
       text-anchor="middle"
       fill="#a17000"
       font-family="Arial,sans-serif"
       font-size="25"
       font-weight="800"
       id="text36">03</text>
    <text
       x="1003.8035"
       y="293.85818"
       fill="#12243a"
       font-family="'Microsoft YaHei', 'Noto Sans CJK SC', 'PingFang SC', Arial, sans-serif"
       font-size="25px"
       font-weight="800"
       id="text37">Seen tokens</text>
    <text
       x="1003.8035"
       y="328.85818"
       fill="#12243a"
       font-family="'Microsoft YaHei', 'Noto Sans CJK SC', 'PingFang SC', Arial, sans-serif"
       font-size="25px"
       font-weight="800"
       id="text38">by source</text>
    <ellipse
       cx="1022"
       cy="384"
       rx="38"
       ry="14"
       fill="#ffffff"
       stroke="#a17000"
       stroke-width="3"
       id="ellipse38" />
    <path
       d="M984 384 V452 C984 471 1060 471 1060 452 V384"
       fill="none"
       stroke="#a17000"
       stroke-width="3"
       id="path38" />
    <path
       d="M984 408 C984 427 1060 427 1060 408 M984 432 C984 451 1060 451 1060 432"
       fill="none"
       stroke="#a17000"
       stroke-width="3"
       id="path39" />
    <circle
       cx="1076"
       cy="444"
       r="27"
       fill="#fffdf3"
       stroke="#a17000"
       stroke-width="3"
       id="circle39" />
    <path
       d="M1076 417 V444 H1100"
       fill="none"
       stroke="#a17000"
       stroke-width="3"
       id="path40" />
    <text
       x="1039.9579"
       y="540.21051"
       text-anchor="middle"
       fill="#12243a"
       font-family="'Microsoft YaHei', 'Noto Sans CJK SC', 'PingFang SC', Arial, sans-serif"
       font-size="22px"
       id="text40">training batches</text>
    <text
       x="1039.9579"
       y="570.21051"
       text-anchor="middle"
       fill="#12243a"
       font-family="'Microsoft YaHei', 'Noto Sans CJK SC', 'PingFang SC', Arial, sans-serif"
       font-size="22px"
       id="text41">token accounting</text>
  </g>
  <g
     id="g46">
    <path
       d="M 1218 255 H 1398 A 18 18 0 0 1 1416 273 V612 A 18 18 0 0 1 1398 630 H 1218 A 18 18 0 0 1 1200 612 V273 A 18 18 0 0 1 1218 255 Z"
       fill="#ffffff"
       stroke="#8391a1"
       stroke-width="2"
       id="path41" />
    <circle
       cx="1241"
       cy="300"
       r="25"
       fill="#ffffff"
       stroke="#36547d"
       stroke-width="3"
       id="circle41" />
    <text
       x="1241"
       y="310"
       text-anchor="middle"
       fill="#36547d"
       font-family="Arial,sans-serif"
       font-size="25"
       font-weight="800"
       id="text42">04</text>
    <text
       x="1292"
       y="300"
       fill="#12243a"
       font-family="'Microsoft YaHei', 'Noto Sans CJK SC', 'PingFang SC', Arial, sans-serif"
       font-size="25px"
       font-weight="800"
       id="text43"><tspan
         sodipodi:role="line"
         id="tspan81"
         x="1292"
         y="300">Training</tspan><tspan
         sodipodi:role="line"
         id="tspan82"
         x="1292"
         y="331.25">run</tspan></text>
    <path
       d="M1258 374 H1316 L1346 404 V468 H1258 Z"
       fill="none"
       stroke="#36547d"
       stroke-width="3"
       id="path43" />
    <path
       d="M1316 374 V404 H1346"
       fill="none"
       stroke="#36547d"
       stroke-width="3"
       id="path44" />
    <rect
       x="1276"
       y="394"
       width="18"
       height="14"
       fill="none"
       stroke="#36547d"
       stroke-width="3"
       id="rect44" />
    <line
       x1="1276"
       y1="426"
       x2="1324"
       y2="426"
       stroke="#36547d"
       stroke-width="3"
       id="line44" />
    <line
       x1="1276"
       y1="448"
       x2="1310"
       y2="448"
       stroke="#36547d"
       stroke-width="3"
       id="line45" />
    <path
       d="M1308 456 L1354 482 L1308 508 Z"
       fill="#e8eef6"
       stroke="#36547d"
       stroke-width="3"
       id="path45" />
    <text
       x="1307.0472"
       y="547.43774"
       text-anchor="middle"
       fill="#12243a"
       font-family="'Microsoft YaHei', 'Noto Sans CJK SC', 'PingFang SC', Arial, sans-serif"
       font-size="22px"
       id="text45">checkpoint</text>
    <text
       x="1308"
       y="577.43774"
       text-anchor="middle"
       fill="#12243a"
       font-family="'Microsoft YaHei', 'Noto Sans CJK SC', 'PingFang SC', Arial, sans-serif"
       font-size="22px"
       id="text46">same budget</text>
  </g>
  <g
     id="g58"
     transform="matrix(1.0001953,0,0,0.94898313,-0.30469323,12.979873)">
    <path
       d="m 1466,255 h 189 a 18,18 0 0 1 18,18 v 359 a 18,18 0 0 1 -18,18 h -189 a 18,18 0 0 1 -18,-18 V 273 a 18,18 0 0 1 18,-18 z"
       fill="#ffffff"
       stroke="#8391a1"
       stroke-width="2"
       id="path46" />
    <circle
       cx="1488"
       cy="300"
       r="25"
       fill="#ffffff"
       stroke="#6a5390"
       stroke-width="3"
       id="circle46" />
    <text
       x="1488"
       y="310"
       text-anchor="middle"
       fill="#6a5390"
       font-family="Arial, sans-serif"
       font-size="25px"
       font-weight="800"
       id="text47">05</text>
    <text
       x="1517.7118"
       y="297.02368"
       fill="#12243a"
       font-family="'Microsoft YaHei', 'Noto Sans CJK SC', 'PingFang SC', Arial, sans-serif"
       font-size="25px"
       font-weight="800"
       id="text48">Benchmark</text>
    <text
       x="1517.7118"
       y="332.02368"
       fill="#12243a"
       font-family="'Microsoft YaHei', 'Noto Sans CJK SC', 'PingFang SC', Arial, sans-serif"
       font-size="25px"
       font-weight="800"
       id="text49">groups</text>
    <polyline
       points="1505,420 1535,388 1565,414 1602,370"
       fill="none"
       stroke="#6a5390"
       stroke-width="4"
       id="polyline49" />
    <circle
       cx="1505"
       cy="420"
       r="6"
       fill="#c4bbd8"
       stroke="#6a5390"
       stroke-width="3"
       id="circle49" />
    <circle
       cx="1535"
       cy="388"
       r="6"
       fill="#c4bbd8"
       stroke="#6a5390"
       stroke-width="3"
       id="circle50" />
    <circle
       cx="1565"
       cy="414"
       r="6"
       fill="#c4bbd8"
       stroke="#6a5390"
       stroke-width="3"
       id="circle51" />
    <circle
       cx="1602"
       cy="370"
       r="6"
       fill="#c4bbd8"
       stroke="#6a5390"
       stroke-width="3"
       id="circle52" />
    <rect
       x="1500"
       y="448"
       width="14"
       height="32"
       fill="#c4bbd8"
       id="rect52" />
    <rect
       x="1530"
       y="420"
       width="14"
       height="60"
       fill="#c4bbd8"
       id="rect53" />
    <rect
       x="1560"
       y="435"
       width="14"
       height="45"
       fill="#c4bbd8"
       id="rect54" />
    <rect
       x="1590"
       y="398"
       width="14"
       height="82"
       fill="#c4bbd8"
       id="rect55" />
    <line
       x1="1488"
       y1="480"
       x2="1618"
       y2="480"
       stroke="#6a5390"
       stroke-width="3"
       id="line55" />
    <text
       x="1514.4437"
       y="528.41907"
       fill="#12243a"
       font-family="'Microsoft YaHei', 'Noto Sans CJK SC', 'PingFang SC', Arial, sans-serif"
       font-size="22px"
       id="text55">code</text>
    <text
       x="1514.4437"
       y="556.41907"
       fill="#12243a"
       font-family="'Microsoft YaHei', 'Noto Sans CJK SC', 'PingFang SC', Arial, sans-serif"
       font-size="22px"
       id="text56">science QA</text>
    <text
       x="1514.4437"
       y="584.41907"
       fill="#12243a"
       font-family="'Microsoft YaHei', 'Noto Sans CJK SC', 'PingFang SC', Arial, sans-serif"
       font-size="22px"
       id="text57">long text</text>
    <text
       x="1514.4437"
       y="612.41907"
       fill="#12243a"
       font-family="'Microsoft YaHei', 'Noto Sans CJK SC', 'PingFang SC', Arial, sans-serif"
       font-size="22px"
       id="text58">risk</text>
  </g>
  <!-- flow arrows -->
  <g
     fill="#1c324f"
     stroke="#1c324f"
     stroke-width="4"
     id="g61">
    <line
       x1="616"
       y1="414"
       x2="650"
       y2="414"
       id="line58" />
    <polygon
       points="650,414 631,402 631,426"
       id="polygon58" />
    <line
       x1="888"
       y1="414"
       x2="920"
       y2="414"
       id="line59" />
    <polygon
       points="920,414 901,402 901,426"
       id="polygon59" />
    <line
       x1="1161"
       y1="414"
       x2="1192"
       y2="414"
       id="line60" />
    <polygon
       points="1192,414 1173,402 1173,426"
       id="polygon60" />
    <line
       x1="1416"
       y1="414"
       x2="1440"
       y2="414"
       id="line61" />
    <polygon
       points="1440,414 1421,402 1421,426"
       id="polygon61" />
  </g>
  <!-- Source ablation card -->
  <path
     d="M 850 666 H 1200 A 14 14 0 0 1 1214 680 V784 A 14 14 0 0 1 1200 798 H850 A 14 14 0 0 1 836 784 V680 A 14 14 0 0 1 850 666 Z"
     fill="#ffffff"
     stroke="#1c324f"
     stroke-width="2"
     id="path61" />
  <text
     x="915.22668"
     y="707.33087"
     fill="#12243a"
     font-family="'Microsoft YaHei', 'Noto Sans CJK SC', 'PingFang SC', Arial, sans-serif"
     font-size="29px"
     font-weight="800"
     id="text63">Source ablation</text>
  <text
     x="928.79614"
     y="742.37811"
     fill="#12243a"
     font-family="'Microsoft YaHei', 'Noto Sans CJK SC', 'PingFang SC', Arial, sans-serif"
     font-size="23px"
     id="text64">M_all vs M_-s</text>
  <text
     x="928.79614"
     y="772.37811"
     fill="#12243a"
     font-family="'Microsoft YaHei', 'Noto Sans CJK SC', 'PingFang SC', Arial, sans-serif"
     font-size="23px"
     id="text65">Δ_s = task score gap</text>
  <path
     d="M772 630 V735 q0 24 24 24 H836"
     fill="none"
     stroke="#1c324f"
     stroke-width="2.4"
     stroke-dasharray="8 8"
     id="path65" />
  <path
     d="M1308 630 V735 q0 24 -24 24 H1214"
     fill="none"
     stroke="#1c324f"
     stroke-width="2.4"
     stroke-dasharray="8 8"
     id="path66" />
  <!-- Separate contamination check -->
  <path
     d="m 1556.0737,809.38947 h 193 a 10,10 0 0 1 10,10 v 64 a 10,10 0 0 1 -10,10 h -193 a 10,10 0 0 1 -10,-10 v -64 a 10,10 0 0 1 10,-10 z"
     fill="#fffafa"
     stroke="#cc2a2a"
     stroke-width="1.8"
     stroke-dasharray="8, 7"
     id="path68" />
  <path
     d="m 1560,845.33457 18,-32 18,32 z"
     fill="#cc2a2a"
     id="path69" />
  <line
     x1="1578"
     y1="824"
     x2="1578"
     y2="835"
     stroke="#ffffff"
     stroke-width="3"
     id="line69" />
  <circle
     cx="1578"
     cy="839"
     r="2.5"
     fill="#ffffff"
     id="circle69" />
  <text
     x="1674.3101"
     y="839.96039"
     text-anchor="middle"
     fill="#cc2a2a"
     font-family="'Microsoft YaHei', 'Noto Sans CJK SC', 'PingFang SC', Arial, sans-serif"
     font-size="20px"
     id="text69">contamination</text>
  <text
     x="1654.3026"
     y="874.67676"
     text-anchor="middle"
     fill="#cc2a2a"
     font-family="'Microsoft YaHei', 'Noto Sans CJK SC', 'PingFang SC', Arial, sans-serif"
     font-size="20px"
     id="text70">check: hash / n-gram</text>
  <path
     d="m 1673.0549,519.9386 h 35.464 q 14.1856,0 14.1856,18.00782 v 266.11545"
     fill="none"
     stroke="#cc2a2a"
     stroke-width="1.95346"
     stroke-dasharray="8, 7"
     id="path70" />
  <!-- Diagnosis action panel -->
  <path
     d="M 1780 290 H2010 A 18 18 0 0 1 2028 308 V814 A 18 18 0 0 1 2010 832 H1780 A 18 18 0 0 1 1762 814 V308 A 18 18 0 0 1 1780 290 Z"
     fill="#ffffff"
     stroke="#738292"
     stroke-width="2"
     id="path71" />
  <text
     x="1944.2122"
     y="369.75427"
     text-anchor="middle"
     fill="#12243a"
     font-family="'Microsoft YaHei', 'Noto Sans CJK SC', 'PingFang SC', Arial, sans-serif"
     font-size="30.2161px"
     font-weight="800"
     id="text71"
     transform="scale(0.9747116,1.0259445)"
     style="stroke-width:0.974712">Diagnosis actions</text>
  <line
     x1="1785"
     y1="432"
     x2="2005"
     y2="432"
     stroke="#a3acb8"
     stroke-width="1.5"
     id="line71" />
  <g
     fill="#12243a"
     font-family="Microsoft YaHei,Noto Sans CJK SC,PingFang SC,Arial,sans-serif"
     font-size="24"
     id="g75">
    <circle
       cx="1793.179"
       cy="498.65262"
       r="4"
       fill="#12243a"
       id="circle71" />
    <text
       x="2006.7867"
       y="454.76807"
       id="text72"
       transform="scale(0.90118832,1.109646)"
       style="font-size:21.6285px;stroke-width:0.901188">Adjust source weights</text>
    <circle
       cx="1793.179"
       cy="583.65265"
       r="4"
       fill="#12243a"
       id="circle72" />
    <text
       x="1941.7926"
       y="549.98236"
       id="text73"
       transform="scale(0.93169136,1.0733168)"
       style="font-size:22.3606px;stroke-width:0.931691">Add missing sources</text>
    <circle
       cx="1793.179"
       cy="668.65265"
       r="4"
       fill="#12243a"
       id="circle73" />
    <text
       x="1847.486"
       y="664.12"
       id="text74"
       transform="scale(0.97855566,1.0219143)"
       style="font-size:23.4853px;stroke-width:0.978556">Roll back manifest</text>
    <circle
       cx="1793.179"
       cy="753.65265"
       r="4"
       fill="#12243a"
       id="circle74" />
    <text
       x="1917.6777"
       y="715.91785"
       id="text75"
       transform="scale(0.94412865,1.0591777)"
       style="font-size:22.6591px;stroke-width:0.944128"><tspan
         sodipodi:role="line"
         id="tspan1"
         x="1917.6777"
         y="715.91785"
         style="stroke-width:0.944128">Decontaminate and</tspan><tspan
         sodipodi:role="line"
         id="tspan2"
         x="1917.6777"
         y="744.2417"
         style="stroke-width:0.944128">freeze version</tspan></text>
  </g>
  <!-- Bottom attribution rail -->
  <path
     d="M 1508.7112,634.48809 V 951.94043 H 360.0168"
     fill="none"
     stroke="#1c324f"
     stroke-width="3.08479"
     id="path77" />
  <polygon
     points="360,952 383,939 383,965"
     fill="#1c324f"
     id="polygon77" />
  <circle
     cx="1179.3263"
     cy="950.18945"
     r="12"
     fill="#f7faf8"
     stroke="#2f7d41"
     stroke-width="4"
     id="circle77" />
  <circle
     cx="1391.7618"
     cy="950.81647"
     r="12"
     fill="#fffafa"
     stroke="#cc2a2a"
     stroke-width="4"
     id="circle78" />
  <path
     d="m 1178.6526,962.98947 v 98.00003"
     fill="none"
     stroke="#2f7d41"
     stroke-width="2.2"
     stroke-dasharray="8, 7"
     id="path78" />
  <path
     d="m 1392,966.25633 v 67.78577"
     fill="none"
     stroke="#cc2a2a"
     stroke-width="1.82969"
     stroke-dasharray="8, 7"
     id="path79" />
  <path
     d="M 1106 1028 H1254 A 10 10 0 0 1 1264 1038 V1073 A 10 10 0 0 1 1254 1083 H1106 A 10 10 0 0 1 1096 1073 V1038 A 10 10 0 0 1 1106 1028 Z"
     fill="#f5fbf7"
     stroke="#2f7d41"
     stroke-width="1.5"
     id="path80" />
  <text
     x="1180"
     y="1062"
     text-anchor="middle"
     fill="#2f7d41"
     font-family="Microsoft YaHei,Noto Sans CJK SC,PingFang SC,Arial,sans-serif"
     font-size="20"
     id="text80">manifest diff</text>
  <path
     d="M 1324 1028 H1460 A 10 10 0 0 1 1470 1038 V1073 A 10 10 0 0 1 1460 1083 H1324 A 10 10 0 0 1 1314 1073 V1038 A 10 10 0 0 1 1324 1028 Z"
     fill="#fffafa"
     stroke="#cc2a2a"
     stroke-width="1.5"
     id="path81" />
  <text
     x="1392"
     y="1062"
     text-anchor="middle"
     fill="#cc2a2a"
     font-family="Microsoft YaHei,Noto Sans CJK SC,PingFang SC,Arial,sans-serif"
     font-size="20"
     id="text81">pollution check</text>
</svg>
