<?xml version="1.0" encoding="UTF-8" standalone="no"?>
<svg
   width="2048"
   height="1152"
   viewBox="0 0 2048 1152"
   version="1.1"
   id="svg124"
   sodipodi:docname="ch42_01_dolma_evidence_chain_en.svg"
   inkscape:version="1.4.4 (dcaf3e7, 2026-05-05)"
   xmlns:inkscape="http://www.inkscape.org/namespaces/inkscape"
   xmlns:sodipodi="http://sodipodi.sourceforge.net/DTD/sodipodi-0.dtd"
   xmlns="http://www.w3.org/2000/svg"
   xmlns:svg="http://www.w3.org/2000/svg">
  <defs
     id="defs124" />
  <sodipodi:namedview
     id="namedview124"
     pagecolor="#ffffff"
     bordercolor="#000000"
     borderopacity="0.25"
     inkscape:showpageshadow="2"
     inkscape:pageopacity="0.0"
     inkscape:pagecheckerboard="0"
     inkscape:deskcolor="#d1d1d1"
     inkscape:zoom="0.74218749"
     inkscape:cx="730.27369"
     inkscape:cy="990.98948"
     inkscape:window-width="1920"
     inkscape:window-height="1111"
     inkscape:window-x="-9"
     inkscape:window-y="-9"
     inkscape:window-maximized="1"
     inkscape:current-layer="svg124" />
  <title
     id="title1">Figure 42-1 Dolma Transparent Corpus Evidence Chain</title>
  <circle
     cx="420"
     cy="250"
     r="240"
     fill="none"
     stroke="#dfe6e2"
     stroke-width="1.2"
     opacity="0.50"
     id="circle1" />
  <circle
     cx="1215"
     cy="340"
     r="280"
     fill="none"
     stroke="#dfe6e2"
     stroke-width="1.2"
     opacity="0.42"
     id="circle2" />
  <circle
     cx="1605"
     cy="850"
     r="330"
     fill="none"
     stroke="#dfe6e2"
     stroke-width="1.2"
     opacity="0.38"
     id="circle3" />
  <text
     x="1024"
     y="92"
     text-anchor="middle"
     fill="#1c2630"
     font-family="Microsoft YaHei,Noto Sans CJK SC,PingFang SC,Arial,sans-serif"
     font-size="66"
     font-weight="800"
     id="text3">Dolma Transparent Corpus Evidence Chain</text>
  <text
     x="1024"
     y="150"
     text-anchor="middle"
     fill="#4d5964"
     font-family="Microsoft YaHei,Noto Sans CJK SC,PingFang SC,Arial,sans-serif"
     font-size="31"
     font-weight="500"
     id="text4">Sources, processing actions, and training consumption explain what the model saw</text>
  <!-- Source card -->
  <path
     d="M 68 198 H 295 A 22 22 0 0 1 317 220 V 641 A 22 22 0 0 1 295 663 H 68 A 22 22 0 0 1 46 641 V 220 A 22 22 0 0 1 68 198 Z"
     fill="#ffffff"
     stroke="#9fa5aa"
     stroke-width="2"
     id="path4" />
  <path
     d="M143 226 H184 L211 253 V309 H143 Z"
     fill="none"
     stroke="#2f5c44"
     stroke-width="4"
     id="path5" />
  <path
     d="M184 226 V253 H211"
     fill="none"
     stroke="#2f5c44"
     stroke-width="4"
     id="path6" />
  <line
     x1="159"
     y1="263"
     x2="193"
     y2="263"
     stroke="#2f5c44"
     stroke-width="4"
     stroke-linecap="round"
     id="line6" />
  <line
     x1="159"
     y1="282"
     x2="196"
     y2="282"
     stroke="#2f5c44"
     stroke-width="4"
     stroke-linecap="round"
     id="line7" />
  <line
     x1="159"
     y1="301"
     x2="184"
     y2="301"
     stroke="#2f5c44"
     stroke-width="4"
     stroke-linecap="round"
     id="line8" />
  <text
     x="181"
     y="357"
     text-anchor="middle"
     fill="#1c2630"
     font-family="Microsoft YaHei,Noto Sans CJK SC,PingFang SC,Arial,sans-serif"
     font-size="34"
     font-weight="800"
     id="text8">Source card</text>
  <line
     x1="70"
     y1="384"
     x2="293"
     y2="384"
     stroke="#9fa5aa"
     stroke-width="1.5"
     id="line9" />
  <g
     fill="#2f5c44"
     id="g12">
    <circle
       cx="74"
       cy="434"
       r="6"
       id="circle9" />
    <circle
       cx="74"
       cy="486"
       r="6"
       id="circle10" />
    <circle
       cx="74"
       cy="538"
       r="6"
       id="circle11" />
    <circle
       cx="74"
       cy="590"
       r="6"
       id="circle12" />
  </g>
  <g
     fill="#1c2630"
     font-family="Microsoft YaHei,Noto Sans CJK SC,PingFang SC,Arial,sans-serif"
     font-size="25"
     id="g15">
    <text
       x="98"
       y="443"
       id="text12">origin</text>
    <text
       x="98"
       y="495"
       id="text13">license</text>
    <text
       x="98"
       y="547"
       id="text14">cutoff</text>
    <text
       x="98"
       y="599"
       id="text15">raw / filtered size</text>
  </g>
  <!-- Top pipeline cards -->
  <g
     id="g25">
    <path
       d="M 418 216 H 645 A 20 20 0 0 1 665 236 V 654 A 20 20 0 0 1 645 674 H 418 A 20 20 0 0 1 398 654 V 236 A 20 20 0 0 1 418 216 Z"
       fill="#ffffff"
       stroke="#9fa5aa"
       stroke-width="2"
       id="path15" />
    <circle
       cx="436"
       cy="258"
       r="25"
       fill="#ffffff"
       stroke="#6b5c9c"
       stroke-width="2.4"
       id="circle15" />
    <text
       x="436"
       y="268"
       text-anchor="middle"
       fill="#5d4f90"
       font-family="Arial,sans-serif"
       font-size="25"
       font-weight="700"
       id="text16">01</text>
    <text
       x="476.22104"
       y="269.26315"
       fill="#1c2630"
       font-family="'Microsoft YaHei', 'Noto Sans CJK SC', 'PingFang SC', Arial, sans-serif"
       font-size="32px"
       font-weight="800"
       id="text17">Taggers</text>
    <path
       d="M525 310 L562 310 L579 336 L516 394 L486 356 Z"
       fill="none"
       stroke="#5d4f90"
       stroke-width="4"
       stroke-linejoin="round"
       id="path17" />
    <circle
       cx="544"
       cy="332"
       r="6"
       fill="none"
       stroke="#5d4f90"
       stroke-width="3"
       id="circle17" />
    <path
       d="M424 417 H639 A 10 10 0 0 1 649 427 V459 A 10 10 0 0 1 639 469 H424 A 10 10 0 0 1 414 459 V427 A 10 10 0 0 1 424 417 Z"
       fill="#f5f7fa"
       stroke="#c9ced6"
       id="path18" />
    <path
       d="M424 470 H639 A 10 10 0 0 1 649 480 V512 A 10 10 0 0 1 639 522 H424 A 10 10 0 0 1 414 512 V480 A 10 10 0 0 1 424 470 Z"
       fill="#f5f7fa"
       stroke="#c9ced6"
       id="path19" />
    <path
       d="M424 523 H639 A 10 10 0 0 1 649 533 V565 A 10 10 0 0 1 639 575 H424 A 10 10 0 0 1 414 565 V533 A 10 10 0 0 1 424 523 Z"
       fill="#f5f7fa"
       stroke="#c9ced6"
       id="path20" />
    <text
       x="532"
       y="450"
       text-anchor="middle"
       fill="#1c2630"
       font-family="Microsoft YaHei,Noto Sans CJK SC,PingFang SC,Arial,sans-serif"
       font-size="23"
       id="text20">language</text>
    <text
       x="532"
       y="503"
       text-anchor="middle"
       fill="#1c2630"
       font-family="Microsoft YaHei,Noto Sans CJK SC,PingFang SC,Arial,sans-serif"
       font-size="23"
       id="text21">toxicity</text>
    <text
       x="532"
       y="556"
       text-anchor="middle"
       fill="#1c2630"
       font-family="Microsoft YaHei,Noto Sans CJK SC,PingFang SC,Arial,sans-serif"
       font-size="23"
       id="text22">perplexity</text>
    <line
       x1="405"
       y1="590"
       x2="660"
       y2="590"
       stroke="#aab0b7"
       stroke-width="1.4"
       stroke-dasharray="6 7"
       id="line22" />
    <path
       d="M424 603 H639 A 10 10 0 0 1 649 613 V649 A 10 10 0 0 1 639 659 H424 A 10 10 0 0 1 414 649 V613 A 10 10 0 0 1 424 603 Z"
       fill="#fbfbfd"
       stroke="#6b5c9c"
       stroke-width="1.8"
       id="path22" />
    <path
       d="M438 613 H459 L473 627 V653 H438 Z"
       fill="none"
       stroke="#5d4f90"
       stroke-width="3"
       id="path23" />
    <path
       d="M459 613 V627 H473"
       fill="none"
       stroke="#5d4f90"
       stroke-width="3"
       id="path24" />
    <path
       d="M448 643 L454 636 L459 641 L466 632"
       fill="none"
       stroke="#5d4f90"
       stroke-width="2.4"
       id="path25" />
    <text
       x="568.40271"
       y="616.59357"
       text-anchor="middle"
       fill="#5d4f90"
       font-family="'Microsoft YaHei', 'Noto Sans CJK SC', 'PingFang SC', Arial, sans-serif"
       font-size="24.0481px"
       font-weight="800"
       id="text25"
       transform="scale(0.96192448,1.0395827)"
       style="stroke-width:0.961924">tag report</text>
  </g>
  <g
     id="g33">
    <path
       d="M 738 216 H 965 A 20 20 0 0 1 985 236 V 654 A 20 20 0 0 1 965 674 H 738 A 20 20 0 0 1 718 654 V 236 A 20 20 0 0 1 738 216 Z"
       fill="#ffffff"
       stroke="#9fa5aa"
       stroke-width="2"
       id="path26" />
    <circle
       cx="752"
       cy="258"
       r="25"
       fill="#ffffff"
       stroke="#6b5c9c"
       stroke-width="2.4"
       id="circle26" />
    <text
       x="752"
       y="268"
       text-anchor="middle"
       fill="#5d4f90"
       font-family="Arial,sans-serif"
       font-size="25"
       font-weight="700"
       id="text26">02</text>
    <text
       x="889.40906"
       y="242.3819"
       fill="#1c2630"
       font-family="'Microsoft YaHei', 'Noto Sans CJK SC', 'PingFang SC', Arial, sans-serif"
       font-size="28.3793px"
       font-weight="800"
       id="text27"
       transform="scale(0.8868541,1.1275812)"
       style="stroke-width:0.886854">Deduplication</text>
    <path
       d="M815 312 h18 M887 312 h18 M815 386 h18 M887 386 h18 M815 312 v18 M905 312 v18 M815 368 v18 M905 368 v18"
       fill="none"
       stroke="#5d4f90"
       stroke-width="3"
       id="path27" />
    <path
       d="M842 324 C822 344 822 371 842 391 M858 316 C831 344 831 371 858 399 M873 321 C849 344 849 371 873 394 M887 335 C876 348 876 366 887 380"
       fill="none"
       stroke="#5d4f90"
       stroke-width="4"
       stroke-linecap="round"
       id="path28" />
    <path
       d="M746 431 H957 A 10 10 0 0 1 967 441 V473 A 10 10 0 0 1 957 483 H746 A 10 10 0 0 1 736 473 V441 A 10 10 0 0 1 746 431 Z"
       fill="#f5f7fa"
       stroke="#c9ced6"
       id="path29" />
    <path
       d="M746 497 H957 A 10 10 0 0 1 967 507 V539 A 10 10 0 0 1 957 549 H746 A 10 10 0 0 1 736 539 V507 A 10 10 0 0 1 746 497 Z"
       fill="#f5f7fa"
       stroke="#c9ced6"
       id="path30" />
    <text
       x="852"
       y="464"
       text-anchor="middle"
       fill="#1c2630"
       font-family="Microsoft YaHei,Noto Sans CJK SC,PingFang SC,Arial,sans-serif"
       font-size="22"
       id="text30">keep / remove hash</text>
    <text
       x="852"
       y="530"
       text-anchor="middle"
       fill="#1c2630"
       font-family="Microsoft YaHei,Noto Sans CJK SC,PingFang SC,Arial,sans-serif"
       font-size="22"
       id="text31">priority</text>
    <line
       x1="725"
       y1="590"
       x2="980"
       y2="590"
       stroke="#aab0b7"
       stroke-width="1.4"
       stroke-dasharray="6 7"
       id="line31" />
    <path
       d="M746 603 H957 A 10 10 0 0 1 967 613 V649 A 10 10 0 0 1 957 659 H746 A 10 10 0 0 1 736 649 V613 A 10 10 0 0 1 746 603 Z"
       fill="#fbfbfd"
       stroke="#6b5c9c"
       stroke-width="1.8"
       id="path31" />
    <path
       d="M760 614 H795 V653 H760 Z"
       fill="none"
       stroke="#5d4f90"
       stroke-width="3"
       id="path32" />
    <line
       x1="770"
       y1="628"
       x2="790"
       y2="628"
       stroke="#5d4f90"
       stroke-width="2.5"
       id="line32" />
    <line
       x1="770"
       y1="641"
       x2="785"
       y2="641"
       stroke="#5d4f90"
       stroke-width="2.5"
       id="line33" />
    <text
       x="931.59485"
       y="603.76282"
       text-anchor="middle"
       fill="#5d4f90"
       font-family="'Microsoft YaHei', 'Noto Sans CJK SC', 'PingFang SC', Arial, sans-serif"
       font-size="23.5477px"
       font-weight="800"
       id="text33"
       transform="scale(0.9419077,1.0616752)"
       style="stroke-width:0.941908">dedup ledger</text>
  </g>
  <g
     id="g44">
    <path
       d="M 1060 216 H 1287 A 20 20 0 0 1 1307 236 V 654 A 20 20 0 0 1 1287 674 H 1060 A 20 20 0 0 1 1040 654 V 236 A 20 20 0 0 1 1060 216 Z"
       fill="#ffffff"
       stroke="#9fa5aa"
       stroke-width="2"
       id="path33" />
    <circle
       cx="1076"
       cy="258"
       r="25"
       fill="#ffffff"
       stroke="#6b5c9c"
       stroke-width="2.4"
       id="circle33" />
    <text
       x="1076"
       y="268"
       text-anchor="middle"
       fill="#5d4f90"
       font-family="Arial,sans-serif"
       font-size="25"
       font-weight="700"
       id="text34">03</text>
    <text
       x="1161.4736"
       y="271.95789"
       text-anchor="middle"
       fill="#1c2630"
       font-family="'Microsoft YaHei', 'Noto Sans CJK SC', 'PingFang SC', Arial, sans-serif"
       font-size="32px"
       font-weight="800"
       id="text35">Mixer</text>
    <line
       x1="1138"
       y1="314"
       x2="1138"
       y2="394"
       stroke="#5d4f90"
       stroke-width="4"
       id="line35" />
    <line
       x1="1168"
       y1="314"
       x2="1168"
       y2="394"
       stroke="#5d4f90"
       stroke-width="4"
       id="line36" />
    <line
       x1="1198"
       y1="314"
       x2="1198"
       y2="394"
       stroke="#5d4f90"
       stroke-width="4"
       id="line37" />
    <circle
       cx="1138"
       cy="358"
       r="9"
       fill="#ffffff"
       stroke="#5d4f90"
       stroke-width="4"
       id="circle37" />
    <circle
       cx="1168"
       cy="346"
       r="9"
       fill="#ffffff"
       stroke="#5d4f90"
       stroke-width="4"
       id="circle38" />
    <circle
       cx="1198"
       cy="354"
       r="9"
       fill="#ffffff"
       stroke="#5d4f90"
       stroke-width="4"
       id="circle39" />
    <path
       d="M1068 431 H1279 A 10 10 0 0 1 1289 441 V473 A 10 10 0 0 1 1279 483 H1068 A 10 10 0 0 1 1058 473 V441 A 10 10 0 0 1 1068 431 Z"
       fill="#f5f7fa"
       stroke="#c9ced6"
       id="path39" />
    <path
       d="M1068 497 H1279 A 10 10 0 0 1 1289 507 V539 A 10 10 0 0 1 1279 549 H1068 A 10 10 0 0 1 1058 539 V507 A 10 10 0 0 1 1068 497 Z"
       fill="#f5f7fa"
       stroke="#c9ced6"
       id="path40" />
    <text
       x="1174"
       y="464"
       text-anchor="middle"
       fill="#1c2630"
       font-family="Microsoft YaHei,Noto Sans CJK SC,PingFang SC,Arial,sans-serif"
       font-size="22"
       id="text40">sample proportion</text>
    <text
       x="1174"
       y="530"
       text-anchor="middle"
       fill="#1c2630"
       font-family="Microsoft YaHei,Noto Sans CJK SC,PingFang SC,Arial,sans-serif"
       font-size="22"
       id="text41">source mix</text>
    <line
       x1="1047"
       y1="590"
       x2="1302"
       y2="590"
       stroke="#aab0b7"
       stroke-width="1.4"
       stroke-dasharray="6 7"
       id="line41" />
    <path
       d="M1068 603 H1279 A 10 10 0 0 1 1289 613 V649 A 10 10 0 0 1 1279 659 H1068 A 10 10 0 0 1 1058 649 V613 A 10 10 0 0 1 1068 603 Z"
       fill="#fbfbfd"
       stroke="#6b5c9c"
       stroke-width="1.8"
       id="path41" />
    <path
       d="M1084 613 H1118 L1133 628 V653 H1084 Z"
       fill="none"
       stroke="#5d4f90"
       stroke-width="3"
       id="path42" />
    <path
       d="M1118 613 V628 H1133"
       fill="none"
       stroke="#5d4f90"
       stroke-width="3"
       id="path43" />
    <circle
       cx="1096"
       cy="634"
       r="3"
       fill="#5d4f90"
       id="circle43" />
    <line
       x1="1108"
       y1="634"
       x2="1123"
       y2="634"
       stroke="#5d4f90"
       stroke-width="2.5"
       id="line43" />
    <circle
       cx="1096"
       cy="648"
       r="3"
       fill="#5d4f90"
       id="circle44" />
    <text
       x="1250.8973"
       y="617.33557"
       text-anchor="middle"
       fill="#5d4f90"
       font-family="'Microsoft YaHei', 'Noto Sans CJK SC', 'PingFang SC', Arial, sans-serif"
       font-size="24.0771px"
       font-weight="800"
       id="text44"
       transform="scale(0.96308202,1.0383332)"
       style="stroke-width:0.963082">mix config</text>
  </g>
  <g
     id="g66">
    <path
       d="M 1380 216 H 1607 A 20 20 0 0 1 1627 236 V 654 A 20 20 0 0 1 1607 674 H 1380 A 20 20 0 0 1 1360 654 V 236 A 20 20 0 0 1 1380 216 Z"
       fill="#ffffff"
       stroke="#9fa5aa"
       stroke-width="2"
       id="path44" />
    <circle
       cx="1396"
       cy="258"
       r="25"
       fill="#ffffff"
       stroke="#6b5c9c"
       stroke-width="2.4"
       id="circle45" />
    <text
       x="1396"
       y="268"
       text-anchor="middle"
       fill="#5d4f90"
       font-family="Arial,sans-serif"
       font-size="25"
       font-weight="700"
       id="text45">04</text>
    <text
       x="1489.5123"
       y="260.85571"
       fill="#1c2630"
       font-family="'Microsoft YaHei', 'Noto Sans CJK SC', 'PingFang SC', Arial, sans-serif"
       font-size="30.6937px"
       font-weight="800"
       id="text46"
       transform="scale(0.95917682,1.0425606)"
       style="stroke-width:0.959177">Tokenization</text>
    <rect
       x="1466"
       y="320"
       width="74"
       height="74"
       fill="none"
       stroke="#5d4f90"
       stroke-width="4"
       id="rect46" />
    <text
       x="1503"
       y="371"
       text-anchor="middle"
       fill="#5d4f90"
       font-family="Georgia,Times New Roman,serif"
       font-size="38"
       id="text47">T</text>
    <g
       fill="#5d4f90"
       id="g62">
      <circle
         cx="1456"
         cy="330"
         r="3"
         id="circle47" />
      <circle
         cx="1456"
         cy="350"
         r="3"
         id="circle48" />
      <circle
         cx="1456"
         cy="370"
         r="3"
         id="circle49" />
      <circle
         cx="1456"
         cy="390"
         r="3"
         id="circle50" />
      <circle
         cx="1550"
         cy="330"
         r="3"
         id="circle51" />
      <circle
         cx="1550"
         cy="350"
         r="3"
         id="circle52" />
      <circle
         cx="1550"
         cy="370"
         r="3"
         id="circle53" />
      <circle
         cx="1550"
         cy="390"
         r="3"
         id="circle54" />
      <circle
         cx="1475"
         cy="310"
         r="3"
         id="circle55" />
      <circle
         cx="1495"
         cy="310"
         r="3"
         id="circle56" />
      <circle
         cx="1515"
         cy="310"
         r="3"
         id="circle57" />
      <circle
         cx="1535"
         cy="310"
         r="3"
         id="circle58" />
      <circle
         cx="1475"
         cy="404"
         r="3"
         id="circle59" />
      <circle
         cx="1495"
         cy="404"
         r="3"
         id="circle60" />
      <circle
         cx="1515"
         cy="404"
         r="3"
         id="circle61" />
      <circle
         cx="1535"
         cy="404"
         r="3"
         id="circle62" />
    </g>
    <path
       d="M1388 431 H1599 A 10 10 0 0 1 1609 441 V473 A 10 10 0 0 1 1599 483 H1388 A 10 10 0 0 1 1378 473 V441 A 10 10 0 0 1 1388 431 Z"
       fill="#f5f7fa"
       stroke="#c9ced6"
       id="path62" />
    <path
       d="M1388 497 H1599 A 10 10 0 0 1 1609 507 V539 A 10 10 0 0 1 1599 549 H1388 A 10 10 0 0 1 1378 539 V507 A 10 10 0 0 1 1388 497 Z"
       fill="#f5f7fa"
       stroke="#c9ced6"
       id="path63" />
    <text
       x="1494"
       y="464"
       text-anchor="middle"
       fill="#1c2630"
       font-family="Microsoft YaHei,Noto Sans CJK SC,PingFang SC,Arial,sans-serif"
       font-size="22"
       id="text63">tokenizer</text>
    <text
       x="1494"
       y="530"
       text-anchor="middle"
       fill="#1c2630"
       font-family="Microsoft YaHei,Noto Sans CJK SC,PingFang SC,Arial,sans-serif"
       font-size="22"
       id="text64">seen tokens</text>
    <line
       x1="1367"
       y1="590"
       x2="1622"
       y2="590"
       stroke="#aab0b7"
       stroke-width="1.4"
       stroke-dasharray="6 7"
       id="line64" />
    <path
       d="M1388 603 H1599 A 10 10 0 0 1 1609 613 V649 A 10 10 0 0 1 1599 659 H1388 A 10 10 0 0 1 1378 649 V613 A 10 10 0 0 1 1388 603 Z"
       fill="#fbfbfd"
       stroke="#6b5c9c"
       stroke-width="1.8"
       id="path64" />
    <rect
       x="1396"
       y="640"
       width="9"
       height="13"
       fill="none"
       stroke="#5d4f90"
       stroke-width="2.6"
       id="rect64" />
    <rect
       x="1412"
       y="625"
       width="9"
       height="28"
       fill="none"
       stroke="#5d4f90"
       stroke-width="2.6"
       id="rect65" />
    <rect
       x="1428"
       y="613"
       width="9"
       height="40"
       fill="none"
       stroke="#5d4f90"
       stroke-width="2.6"
       id="rect66" />
    <line
       x1="1390"
       y1="653"
       x2="1444"
       y2="653"
       stroke="#5d4f90"
       stroke-width="2.6"
       id="line66" />
    <text
       x="1553.2002"
       y="629.30273"
       text-anchor="middle"
       fill="#5d4f90"
       font-family="'Microsoft YaHei', 'Noto Sans CJK SC', 'PingFang SC', Arial, sans-serif"
       font-size="24.5438px"
       font-weight="800"
       id="text66"
       transform="scale(0.9817515,1.0185877)"
       style="stroke-width:0.981752">token report</text>
  </g>
  <!-- Training manifest -->
  <path
     d="M 1710 198 H 1980 A 22 22 0 0 1 2002 220 V 641 A 22 22 0 0 1 1980 663 H 1710 A 22 22 0 0 1 1688 641 V 220 A 22 22 0 0 1 1710 198 Z"
     fill="#ffffff"
     stroke="#9fa5aa"
     stroke-width="2"
     id="path66" />
  <path
     d="M1816 232 H1870 A 10 10 0 0 1 1880 242 V314 A 10 10 0 0 1 1870 324 H1816 A 10 10 0 0 1 1806 314 V242 A 10 10 0 0 1 1816 232 Z"
     fill="none"
     stroke="#2f5c44"
     stroke-width="4"
     id="path67" />
  <path
     d="M1832 222 H1854 A 8 8 0 0 1 1862 230 V244 A 8 8 0 0 1 1854 252 H1832 A 8 8 0 0 1 1824 244 V230 A 8 8 0 0 1 1832 222 Z"
     fill="#ffffff"
     stroke="#2f5c44"
     stroke-width="4"
     id="path68" />
  <circle
     cx="1828"
     cy="266"
     r="4"
     fill="none"
     stroke="#2f5c44"
     stroke-width="3"
     id="circle68" />
  <line
     x1="1842"
     y1="266"
     x2="1864"
     y2="266"
     stroke="#2f5c44"
     stroke-width="3"
     id="line68" />
  <circle
     cx="1828"
     cy="288"
     r="4"
     fill="none"
     stroke="#2f5c44"
     stroke-width="3"
     id="circle69" />
  <line
     x1="1842"
     y1="288"
     x2="1864"
     y2="288"
     stroke="#2f5c44"
     stroke-width="3"
     id="line69" />
  <circle
     cx="1828"
     cy="310"
     r="4"
     fill="none"
     stroke="#2f5c44"
     stroke-width="3"
     id="circle70" />
  <line
     x1="1842"
     y1="310"
     x2="1864"
     y2="310"
     stroke="#2f5c44"
     stroke-width="3"
     id="line70" />
  <text
     x="1884.8374"
     y="350.47443"
     text-anchor="middle"
     fill="#2f5c44"
     font-family="'Microsoft YaHei', 'Noto Sans CJK SC', 'PingFang SC', Arial, sans-serif"
     font-size="33.3785px"
     font-weight="800"
     id="text70"
     transform="scale(0.98172111,1.0186192)"
     style="stroke-width:0.981721">Training manifest</text>
  <line
     x1="1709"
     y1="384"
     x2="1980"
     y2="384"
     stroke="#9fa5aa"
     stroke-width="1.5"
     id="line71" />
  <g
     fill="#2f5c44"
     id="g75">
    <circle
       cx="1715"
       cy="424"
       r="6"
       id="circle71" />
    <circle
       cx="1715"
       cy="466"
       r="6"
       id="circle72" />
    <circle
       cx="1715"
       cy="508"
       r="6"
       id="circle73" />
    <circle
       cx="1715"
       cy="550"
       r="6"
       id="circle74" />
    <circle
       cx="1715"
       cy="592"
       r="6"
       id="circle75" />
  </g>
  <g
     fill="#1c2630"
     font-family="Microsoft YaHei,Noto Sans CJK SC,PingFang SC,Arial,sans-serif"
     font-size="23"
     id="g79">
    <text
       x="1745"
       y="433"
       id="text75">dolma_version</text>
    <text
       x="1745"
       y="475"
       id="text76">sample_seed</text>
    <text
       x="1745"
       y="517"
       id="text77">seen tokens by source</text>
    <text
       x="1745"
       y="559"
       id="text78">OLMo training run</text>
    <text
       x="1745"
       y="601"
       id="text79">removal ledger</text>
  </g>
  <!-- main arrows -->
  <g
     fill="#4a4f53"
     stroke="#4a4f53"
     stroke-width="3"
     id="g83">
    <line
       x1="317"
       y1="404"
       x2="390"
       y2="404"
       id="line79" />
    <polygon
       points="390,404 370,392 370,416"
       id="polygon79" />
    <line
       x1="665"
       y1="404"
       x2="710"
       y2="404"
       id="line80" />
    <polygon
       points="710,404 690,392 690,416"
       id="polygon80" />
    <line
       x1="985"
       y1="404"
       x2="1032"
       y2="404"
       id="line81" />
    <polygon
       points="1032,404 1012,392 1012,416"
       id="polygon81" />
    <line
       x1="1307"
       y1="404"
       x2="1352"
       y2="404"
       id="line82" />
    <polygon
       points="1352,404 1332,392 1332,416"
       id="polygon82" />
    <line
       x1="1627"
       y1="404"
       x2="1680"
       y2="404"
       id="line83" />
    <polygon
       points="1680,404 1660,392 1660,416"
       id="polygon83" />
  </g>
  <!-- evidence bus -->
  <g
     fill="none"
     stroke="#4a4f53"
     stroke-width="3"
     id="g92">
    <line
       x1="532"
       y1="674"
       x2="532"
       y2="707"
       id="line84" />
    <line
       x1="852"
       y1="674"
       x2="852"
       y2="707"
       id="line85" />
    <line
       x1="1174"
       y1="674"
       x2="1174"
       y2="707"
       id="line86" />
    <line
       x1="1494"
       y1="674"
       x2="1494"
       y2="707"
       id="line87" />
    <path
       d="M532 707 H1494"
       id="path87" />
    <circle
       cx="532"
       cy="707"
       r="6"
       fill="#4a4f53"
       id="circle87" />
    <circle
       cx="852"
       cy="707"
       r="6"
       fill="#4a4f53"
       id="circle88" />
    <circle
       cx="1174"
       cy="707"
       r="6"
       fill="#4a4f53"
       id="circle89" />
    <circle
       cx="1494"
       cy="707"
       r="6"
       fill="#4a4f53"
       id="circle90" />
    <path
       d="M852 707 V955 q0 20 20 20 h105"
       id="path90" />
    <path
       d="M852 778 q0 18 18 18 h105"
       id="path91" />
    <path
       d="M852 872 q0 18 18 18 h105"
       id="path92" />
  </g>
  <path
     d="M 990 752 H1174 A 7 7 0 0 1 1181 759 V800 A 7 7 0 0 1 1174 807 H990 A 7 7 0 0 1 983 800 V759 A 7 7 0 0 1 990 752 Z"
     fill="#ffffff"
     stroke="#9fa5aa"
     stroke-width="1.6"
     id="path93" />
  <path
     d="M 990 847 H1174 A 7 7 0 0 1 1181 854 V895 A 7 7 0 0 1 1174 902 H990 A 7 7 0 0 1 983 895 V854 A 7 7 0 0 1 990 847 Z"
     fill="#ffffff"
     stroke="#9fa5aa"
     stroke-width="1.6"
     id="path94" />
  <path
     d="M 990 942 H1174 A 7 7 0 0 1 1181 949 V990 A 7 7 0 0 1 1174 997 H990 A 7 7 0 0 1 983 990 V949 A 7 7 0 0 1 990 942 Z"
     fill="#ffffff"
     stroke="#9fa5aa"
     stroke-width="1.6"
     id="path95" />
  <text
     x="1271.6815"
     y="672.37128"
     text-anchor="middle"
     fill="#1c2630"
     font-family="'Microsoft YaHei', 'Noto Sans CJK SC', 'PingFang SC', Arial, sans-serif"
     font-size="23.3689px"
     id="text95"
     style="stroke-width:0.805823"
     transform="scale(0.85238179,1.1731832)">Source explainable</text>
  <text
     x="1322.734"
     y="722.64362"
     text-anchor="middle"
     fill="#1c2630"
     font-family="'Microsoft YaHei', 'Noto Sans CJK SC', 'PingFang SC', Arial, sans-serif"
     font-size="23.6893px"
     id="text96"
     transform="scale(0.81687181,1.2241823)"
     style="stroke-width:0.816872">Actions reproducible</text>
  <text
     x="1386.4355"
     y="763.34344"
     text-anchor="middle"
     fill="#1c2630"
     font-family="'Microsoft YaHei', 'Noto Sans CJK SC', 'PingFang SC', Arial, sans-serif"
     font-size="22.6189px"
     id="text97"
     transform="scale(0.77996064,1.282116)"
     style="stroke-width:0.779961">Consumption traceable</text>
  <g
     fill="#4a4f53"
     stroke="#4a4f53"
     stroke-width="3"
     id="g99">
    <line
       x1="1181"
       y1="779"
       x2="1380"
       y2="779"
       id="line97" />
    <polygon
       points="1380,779 1361,767 1361,791"
       id="polygon97" />
    <line
       x1="1181"
       y1="874"
       x2="1380"
       y2="874"
       id="line98" />
    <polygon
       points="1380,874 1361,862 1361,886"
       id="polygon98" />
    <line
       x1="1181"
       y1="969"
       x2="1380"
       y2="969"
       id="line99" />
    <polygon
       points="1380,969 1361,957 1361,981"
       id="polygon99" />
  </g>
  <!-- legend -->
  <path
     d="M 75 778 H486 A 18 18 0 0 1 504 796 V1028 A 18 18 0 0 1 486 1046 H75 A 18 18 0 0 1 57 1028 V796 A 18 18 0 0 1 75 778 Z"
     fill="#ffffff"
     stroke="#aab0b7"
     stroke-width="1.6"
     stroke-dasharray="7 7"
     id="path99" />
  <path
     d="M 85 805 H130 A 4 4 0 0 1 134 809 V831 A 4 4 0 0 1 130 835 H85 A 4 4 0 0 1 81 831 V809 A 4 4 0 0 1 85 805 Z"
     fill="#eef7f2"
     stroke="#2f5c44"
     stroke-width="2"
     id="path100" />
  <path
     d="M 85 865 H130 A 4 4 0 0 1 134 869 V891 A 4 4 0 0 1 130 895 H85 A 4 4 0 0 1 81 891 V869 A 4 4 0 0 1 85 865 Z"
     fill="#f3f1f8"
     stroke="#6b5c9c"
     stroke-width="2"
     id="path101" />
  <path
     d="M 85 925 H130 A 4 4 0 0 1 134 929 V951 A 4 4 0 0 1 130 955 H85 A 4 4 0 0 1 81 951 V929 A 4 4 0 0 1 85 925 Z"
     fill="#fffdf5"
     stroke="#ad7b08"
     stroke-width="2"
     id="path102" />
  <path
     d="M 85 985 H130 A 4 4 0 0 1 134 989 V1011 A 4 4 0 0 1 130 1015 H85 A 4 4 0 0 1 81 1011 V989 A 4 4 0 0 1 85 985 Z"
     fill="#f8f9fa"
     stroke="#9fa5aa"
     stroke-width="2"
     id="path103" />
  <g
     fill="#1c2630"
     font-family="Microsoft YaHei,Noto Sans CJK SC,PingFang SC,Arial,sans-serif"
     font-size="25"
     id="g106">
    <text
       x="158.62305"
       y="784.78186"
       id="text103"
       transform="scale(0.9466609,1.0563445)"
       style="font-size:23.6665px;stroke-width:0.946661">Source evidence</text>
    <text
       x="158.4001"
       y="843.23016"
       id="text104"
       transform="scale(0.94851534,1.0542792)"
       style="font-size:23.7129px;stroke-width:0.948515">Processing-action evidence</text>
    <text
       x="166.27391"
       y="858.64453"
       id="text105"
       transform="scale(0.90478876,1.1052304)"
       style="font-size:22.6197px;stroke-width:0.904789">License and consumption evidence</text>
    <text
       x="159.17975"
       y="952.49658"
       id="text106"
       transform="scale(0.94400057,1.0593214)"
       style="font-size:23.6px;stroke-width:0.944001">Reproduction and audit</text>
  </g>
  <!-- judgment panel -->
  <path
     d="M 1425 704 H1978 A 18 18 0 0 1 1996 722 V1054 A 18 18 0 0 1 1978 1072 H1425 A 18 18 0 0 1 1407 1054 V722 A 18 18 0 0 1 1425 704 Z"
     fill="#fffefa"
     stroke="#ad7b08"
     stroke-width="2"
     id="path106" />
  <text
     x="1702"
     y="760"
     text-anchor="middle"
     fill="#9d6d00"
     font-family="Microsoft YaHei,Noto Sans CJK SC,PingFang SC,Arial,sans-serif"
     font-size="35"
     font-weight="800"
     id="text107">Transparent judgments</text>
  <line
     x1="1428"
     y1="782"
     x2="1974"
     y2="782"
     stroke="#c7a65a"
     stroke-width="1.8"
     id="line107" />
  <line
     x1="1570"
     y1="792"
     x2="1570"
     y2="1060"
     stroke="#c7a65a"
     stroke-width="1.4"
     stroke-dasharray="6 7"
     id="line108" />
  <path
     d="m 1445.5366,851.44351 q 32.704,-12.70706 57.6213,-34.49059 24.9173,21.78353 57.6213,34.49059 v 44.47472 q 0,56.27412 -57.6213,82.59589 -57.6213,-26.32177 -57.6213,-82.59589 z"
     fill="none"
     stroke="#9d6d00"
     stroke-width="5.04412"
     id="path108" />
  <circle
     cx="1490.7053"
     cy="876.04211"
     r="25"
     fill="none"
     stroke="#9d6d00"
     stroke-width="5"
     id="circle108" />
  <line
     x1="1512.0526"
     y1="897.38947"
     x2="1542.0526"
     y2="927.38947"
     stroke="#9d6d00"
     stroke-width="5"
     stroke-linecap="round"
     id="line109" />
  <g
     font-family="Microsoft YaHei,Noto Sans CJK SC,PingFang SC,Arial,sans-serif"
     id="g116">
    <circle
       cx="1614"
       cy="825"
       r="15"
       fill="#ad7b08"
       id="circle109" />
    <text
       x="1614"
       y="834"
       text-anchor="middle"
       fill="#ffffff"
       font-size="22"
       font-weight="800"
       id="text109">1</text>
    <text
       x="1896.7479"
       y="726.40894"
       fill="#1c2630"
       font-size="21.7748px"
       font-weight="800"
       id="text110"
       transform="scale(0.87099394,1.1481136)"
       style="stroke-width:0.870994">Where did it come from?</text>
    <circle
       cx="1614"
       cy="891"
       r="15"
       fill="#ad7b08"
       id="circle110" />
    <text
       x="1614"
       y="900"
       text-anchor="middle"
       fill="#ffffff"
       font-size="22"
       font-weight="800"
       id="text111">2</text>
    <text
       x="1844.8439"
       y="805.94427"
       fill="#1c2630"
       font-size="22.3873px"
       font-weight="800"
       id="text112"
       transform="scale(0.89549363,1.1167025)"
       style="stroke-width:0.895494">Why was it kept?</text>
    <circle
       cx="1614"
       cy="957"
       r="15"
       fill="#ad7b08"
       id="circle112" />
    <text
       x="1614"
       y="966"
       text-anchor="middle"
       fill="#ffffff"
       font-size="22"
       font-weight="800"
       id="text113">3</text>
    <text
       x="1781.8539"
       y="895.76807"
       fill="#1c2630"
       font-size="23.1824px"
       font-weight="800"
       id="text114"
       transform="scale(0.92729611,1.0784042)"
       style="stroke-width:0.927296">How much was seen?</text>
    <circle
       cx="1614"
       cy="1023"
       r="15"
       fill="#ad7b08"
       id="circle114" />
    <text
       x="1614"
       y="1032"
       text-anchor="middle"
       fill="#ffffff"
       font-size="22"
       font-weight="800"
       id="text115">4</text>
    <text
       x="1736.7753"
       y="981.68274"
       fill="#1c2630"
       font-size="23.7811px"
       font-weight="800"
       id="text116"
       transform="scale(0.95124294,1.0512562)"
       style="stroke-width:0.951243">Can it be removed?</text>
  </g>
  <g
     fill="none"
     stroke="#ad7b08"
     stroke-width="3"
     stroke-linecap="round"
     stroke-linejoin="round"
     id="g122"
     transform="translate(0.47636667,0.47636667)">
    <circle
       cx="1918"
       cy="826"
       r="19"
       id="circle116" />
    <path
       d="m 1899,826 h 38 m -19,-19 q -16,19 0,38 m 0,-38 q 16,19 0,38"
       id="path116" />
    <path
       d="m 1896.782,874.39659 q 21.218,-7.22068 42.436,0 v 23.10617 q 0,14.44135 -21.218,21.66203 -21.218,-7.22068 -21.218,-21.66203 z"
       id="path117"
       style="stroke-width:2.56243" />
    <path
       d="m 1907.0473,897.23633 8,8 c 3.3802,-7.48619 7.7865,-11.9817 15,-17"
       id="path118"
       sodipodi:nodetypes="ccc" />
    <rect
       x="1893.8719"
       y="956.30847"
       width="7.5950799"
       height="24.674036"
       id="rect118"
       style="stroke-width:2.744" />
    <rect
       x="1910.0116"
       y="942.20905"
       width="7.5950799"
       height="38.773487"
       id="rect119"
       style="stroke-width:2.744" />
    <rect
       x="1926.1511"
       y="929.87201"
       width="7.5950799"
       height="51.110504"
       id="rect120"
       style="stroke-width:2.744" />
    <line
       x1="1887.4045"
       y1="984.90363"
       x2="1943.4045"
       y2="984.90363"
       id="line120" />
    <path
       d="m 1942.2033,1015.2405 q -10,-20.00002 -34,-14 -21,6 -22,28"
       id="path120" />
    <path
       d="m 1877.0105,1020.386 3,18 17,-6"
       id="path121" />
    <path
       d="m 1887.2033,1040.2405 q 12,18 35,11 18,-5 22,-24"
       id="path122" />
  </g>
  <line
     x1="1600"
     y1="858"
     x2="1960"
     y2="858"
     stroke="#c7a65a"
     stroke-width="1.4"
     id="line122" />
  <line
     x1="1600"
     y1="924"
     x2="1960"
     y2="924"
     stroke="#c7a65a"
     stroke-width="1.4"
     id="line123" />
  <line
     x1="1600"
     y1="990"
     x2="1960"
     y2="990"
     stroke="#c7a65a"
     stroke-width="1.4"
     id="line124" />
</svg>
