<?xml version="1.0" encoding="UTF-8" standalone="no"?>
<svg
   width="2048"
   height="1152"
   viewBox="0 0 2048 1152"
   version="1.1"
   id="svg92"
   sodipodi:docname="ch43_02_laion_quality_datacomp_loop_en.svg"
   inkscape:version="1.4.4 (dcaf3e7, 2026-05-05)"
   xmlns:inkscape="http://www.inkscape.org/namespaces/inkscape"
   xmlns:sodipodi="http://sodipodi.sourceforge.net/DTD/sodipodi-0.dtd"
   xmlns="http://www.w3.org/2000/svg"
   xmlns:svg="http://www.w3.org/2000/svg">
  <defs
     id="defs92" />
  <sodipodi:namedview
     id="namedview92"
     pagecolor="#ffffff"
     bordercolor="#000000"
     borderopacity="0.25"
     inkscape:showpageshadow="2"
     inkscape:pageopacity="0.0"
     inkscape:pagecheckerboard="0"
     inkscape:deskcolor="#d1d1d1"
     inkscape:zoom="0.7421875"
     inkscape:cx="1337.9368"
     inkscape:cy="527.49474"
     inkscape:window-width="1920"
     inkscape:window-height="1111"
     inkscape:window-x="-9"
     inkscape:window-y="-9"
     inkscape:window-maximized="1"
     inkscape:current-layer="svg92" />
  <title
     id="title1">Figure 43-2 Image-Text Candidate Pool Quality Evaluation and Closed-Loop Repair</title>
  <circle
     cx="465"
     cy="360"
     r="245"
     fill="none"
     stroke="#dce4ec"
     stroke-width="1.2"
     opacity="0.55"
     id="circle1" />
  <circle
     cx="1380"
     cy="365"
     r="300"
     fill="none"
     stroke="#dce4ec"
     stroke-width="1.2"
     opacity="0.45"
     id="circle2" />
  <circle
     cx="1670"
     cy="850"
     r="325"
     fill="none"
     stroke="#dce4ec"
     stroke-width="1.2"
     opacity="0.42"
     id="circle3" />
  <text
     x="1060.1825"
     y="75.977463"
     text-anchor="middle"
     fill="#13263a"
     font-family="'Microsoft YaHei', 'Noto Sans CJK SC', 'PingFang SC', Arial, sans-serif"
     font-size="56.4961px"
     font-weight="800"
     id="text3"
     transform="scale(0.97407008,1.0266202)"
     style="stroke-width:0.999997">Image-Text Candidate Pool Quality Evaluation and Closed-Loop Repair</text>
  <text
     x="1024"
     y="126"
     text-anchor="middle"
     fill="#506173"
     font-family="Microsoft YaHei,Noto Sans CJK SC,PingFang SC,Arial,sans-serif"
     font-size="30"
     font-weight="600"
     id="text4">Compare filtering strategies with channel checks and a fixed training protocol</text>
  <!-- top cards -->
  <g
     id="g9">
    <path
       d="M 88 190 H 354 A 16 16 0 0 1 370 206 V 480 A 16 16 0 0 1 354 496 H 88 A 16 16 0 0 1 72 480 V 206 A 16 16 0 0 1 88 190 Z"
       fill="#fbfcfd"
       stroke="#8f9dad"
       stroke-width="1.7"
       id="path4" />
    <circle
       cx="116"
       cy="228"
       r="26"
       fill="#526fa7"
       id="circle4" />
    <text
       x="116"
       y="239"
       text-anchor="middle"
       fill="#ffffff"
       font-family="Arial,sans-serif"
       font-size="30"
       font-weight="800"
       id="text5">01</text>
    <text
       x="152.61052"
       y="236.28421"
       fill="#18283b"
       font-family="'Microsoft YaHei', 'Noto Sans CJK SC', 'PingFang SC', Arial, sans-serif"
       font-size="20px"
       font-weight="700"
       id="text6">Candidate metadata</text>
    <path
       d="M170 274 H232 L265 307 V390 H170 Z"
       fill="none"
       stroke="#6d7ea0"
       stroke-width="4"
       id="path6" />
    <path
       d="M232 274 V307 H265"
       fill="none"
       stroke="#6d7ea0"
       stroke-width="4"
       id="path7" />
    <line
       x1="190"
       y1="328"
       x2="242"
       y2="328"
       stroke="#6d7ea0"
       stroke-width="4"
       stroke-linecap="round"
       id="line7" />
    <line
       x1="190"
       y1="352"
       x2="248"
       y2="352"
       stroke="#6d7ea0"
       stroke-width="4"
       stroke-linecap="round"
       id="line8" />
    <line
       x1="190"
       y1="376"
       x2="235"
       y2="376"
       stroke="#6d7ea0"
       stroke-width="4"
       stroke-linecap="round"
       id="line9" />
    <text
       x="221"
       y="438"
       text-anchor="middle"
       fill="#18283b"
       font-family="Microsoft YaHei,Noto Sans CJK SC,PingFang SC,Arial,sans-serif"
       font-size="22"
       id="text9">URL / text / scores</text>
  </g>
  <g
     id="g17">
    <path
       d="M 445 190 H 690 A 16 16 0 0 1 706 206 V 480 A 16 16 0 0 1 690 496 H 445 A 16 16 0 0 1 429 480 V 206 A 16 16 0 0 1 445 190 Z"
       fill="#fbfcfd"
       stroke="#8f9dad"
       stroke-width="1.7"
       id="path9" />
    <circle
       cx="473"
       cy="228"
       r="26"
       fill="#526fa7"
       id="circle9" />
    <text
       x="473"
       y="239"
       text-anchor="middle"
       fill="#ffffff"
       font-family="Arial,sans-serif"
       font-size="30"
       font-weight="800"
       id="text10">02</text>
    <text
       x="512.63159"
       y="236.28421"
       fill="#18283b"
       font-family="'Microsoft YaHei', 'Noto Sans CJK SC', 'PingFang SC', Arial, sans-serif"
       font-size="20px"
       font-weight="700"
       id="text11">Channel checks</text>
    <path
       d="M512 272 H610 A 8 8 0 0 1 618 280 V387 A 8 8 0 0 1 610 395 H512 A 8 8 0 0 1 504 387 V280 A 8 8 0 0 1 512 272 Z"
       fill="none"
       stroke="#526270"
       stroke-width="4"
       id="path11" />
    <path
       d="M526 310 L537 322 L555 295"
       fill="none"
       stroke="#5fa28f"
       stroke-width="5"
       stroke-linecap="round"
       stroke-linejoin="round"
       id="path12" />
    <path
       d="M526 340 L537 352 L555 325"
       fill="none"
       stroke="#5fa28f"
       stroke-width="5"
       stroke-linecap="round"
       stroke-linejoin="round"
       id="path13" />
    <path
       d="M526 370 L537 382 L555 355"
       fill="none"
       stroke="#5fa28f"
       stroke-width="5"
       stroke-linecap="round"
       stroke-linejoin="round"
       id="path14" />
    <line
       x1="572"
       y1="305"
       x2="606"
       y2="305"
       stroke="#526270"
       stroke-width="4"
       stroke-linecap="round"
       id="line14" />
    <line
       x1="572"
       y1="337"
       x2="606"
       y2="337"
       stroke="#526270"
       stroke-width="4"
       stroke-linecap="round"
       id="line15" />
    <line
       x1="572"
       y1="369"
       x2="606"
       y2="369"
       stroke="#526270"
       stroke-width="4"
       stroke-linecap="round"
       id="line16" />
    <text
       x="568"
       y="434"
       text-anchor="middle"
       fill="#18283b"
       font-family="Microsoft YaHei,Noto Sans CJK SC,PingFang SC,Arial,sans-serif"
       font-size="21"
       id="text16">text / visual / alignment /</text>
    <text
       x="568"
       y="464"
       text-anchor="middle"
       fill="#18283b"
       font-family="Microsoft YaHei,Noto Sans CJK SC,PingFang SC,Arial,sans-serif"
       font-size="21"
       id="text17">risk / release</text>
  </g>
  <g
     id="g25">
    <path
       d="M 786 190 H 1010 A 16 16 0 0 1 1026 206 V 480 A 16 16 0 0 1 1010 496 H 786 A 16 16 0 0 1 770 480 V 206 A 16 16 0 0 1 786 190 Z"
       fill="#fbfcfd"
       stroke="#8f9dad"
       stroke-width="1.7"
       id="path17" />
    <circle
       cx="814"
       cy="228"
       r="26"
       fill="#526fa7"
       id="circle17" />
    <text
       x="814"
       y="239"
       text-anchor="middle"
       fill="#ffffff"
       font-family="Arial,sans-serif"
       font-size="30"
       font-weight="800"
       id="text18">03</text>
    <text
       x="849.42542"
       y="234.33087"
       fill="#18283b"
       font-family="'Microsoft YaHei', 'Noto Sans CJK SC', 'PingFang SC', Arial, sans-serif"
       font-size="20px"
       font-weight="700"
       id="text19">Problem queue</text>
    <rect
       x="840"
       y="282"
       width="22"
       height="22"
       fill="none"
       stroke="#6d7ea0"
       stroke-width="4"
       id="rect19" />
    <rect
       x="840"
       y="320"
       width="22"
       height="22"
       fill="none"
       stroke="#6d7ea0"
       stroke-width="4"
       id="rect20" />
    <rect
       x="840"
       y="358"
       width="22"
       height="22"
       fill="none"
       stroke="#6d7ea0"
       stroke-width="4"
       id="rect21" />
    <line
       x1="880"
       y1="293"
       x2="966"
       y2="293"
       stroke="#6d7ea0"
       stroke-width="4"
       stroke-linecap="round"
       id="line21" />
    <line
       x1="880"
       y1="331"
       x2="966"
       y2="331"
       stroke="#6d7ea0"
       stroke-width="4"
       stroke-linecap="round"
       id="line22" />
    <line
       x1="880"
       y1="369"
       x2="966"
       y2="369"
       stroke="#6d7ea0"
       stroke-width="4"
       stroke-linecap="round"
       id="line23" />
    <text
       x="898"
       y="418"
       text-anchor="middle"
       fill="#18283b"
       font-family="Microsoft YaHei,Noto Sans CJK SC,PingFang SC,Arial,sans-serif"
       font-size="21"
       id="text23">bad caption</text>
    <text
       x="898"
       y="446"
       text-anchor="middle"
       fill="#18283b"
       font-family="Microsoft YaHei,Noto Sans CJK SC,PingFang SC,Arial,sans-serif"
       font-size="21"
       id="text24">dead URL</text>
    <text
       x="898"
       y="474"
       text-anchor="middle"
       fill="#18283b"
       font-family="Microsoft YaHei,Noto Sans CJK SC,PingFang SC,Arial,sans-serif"
       font-size="21"
       id="text25">high risk</text>
  </g>
  <g
     id="g32">
    <path
       d="M 1100 190 H 1320 A 16 16 0 0 1 1336 206 V 497 A 16 16 0 0 1 1320 513 H 1100 A 16 16 0 0 1 1084 497 V 206 A 16 16 0 0 1 1100 190 Z"
       fill="#fffaf8"
       stroke="#d86350"
       stroke-width="1.8"
       id="path25" />
    <circle
       cx="1128"
       cy="228"
       r="26"
       fill="#cd5145"
       id="circle25" />
    <text
       x="1128"
       y="239"
       text-anchor="middle"
       fill="#ffffff"
       font-family="Arial,sans-serif"
       font-size="30"
       font-weight="800"
       id="text26">04</text>
    <text
       x="1167.1891"
       y="237.18907"
       fill="#c72e24"
       font-family="'Microsoft YaHei', 'Noto Sans CJK SC', 'PingFang SC', Arial, sans-serif"
       font-size="20px"
       font-weight="700"
       id="text27">Repair actions</text>
    <text
       x="1210"
       y="392"
       text-anchor="middle"
       fill="#18283b"
       font-family="Microsoft YaHei,Noto Sans CJK SC,PingFang SC,Arial,sans-serif"
       font-size="21"
       id="text28">redownload</text>
    <text
       x="1210"
       y="420"
       text-anchor="middle"
       fill="#18283b"
       font-family="Microsoft YaHei,Noto Sans CJK SC,PingFang SC,Arial,sans-serif"
       font-size="21"
       id="text29">refilter</text>
    <text
       x="1210"
       y="448"
       text-anchor="middle"
       fill="#18283b"
       font-family="Microsoft YaHei,Noto Sans CJK SC,PingFang SC,Arial,sans-serif"
       font-size="21"
       id="text30">downweight</text>
    <text
       x="1210"
       y="476"
       text-anchor="middle"
       fill="#18283b"
       font-family="Microsoft YaHei,Noto Sans CJK SC,PingFang SC,Arial,sans-serif"
       font-size="21"
       id="text31">quarantine</text>
    <text
       x="1210"
       y="504"
       text-anchor="middle"
       fill="#18283b"
       font-family="Microsoft YaHei,Noto Sans CJK SC,PingFang SC,Arial,sans-serif"
       font-size="21"
       id="text32">remove</text>
  </g>
  <g
     id="g39">
    <path
       d="M 1407 190 H 1639 A 16 16 0 0 1 1655 206 V 484 A 16 16 0 0 1 1639 500 H 1407 A 16 16 0 0 1 1391 484 V 206 A 16 16 0 0 1 1407 190 Z"
       fill="#fbfcfd"
       stroke="#8f9dad"
       stroke-width="1.7"
       id="path32" />
    <circle
       cx="1435"
       cy="228"
       r="26"
       fill="#526fa7"
       id="circle32" />
    <text
       x="1435"
       y="239"
       text-anchor="middle"
       fill="#ffffff"
       font-family="Arial,sans-serif"
       font-size="30"
       font-weight="800"
       id="text33">05</text>
    <text
       x="1552.5079"
       y="221.70117"
       fill="#18283b"
       font-family="'Microsoft YaHei', 'Noto Sans CJK SC', 'PingFang SC', Arial, sans-serif"
       font-size="18.8733px"
       font-weight="700"
       id="text34"
       transform="scale(0.94366285,1.0597005)"
       style="stroke-width:1">Frozen training view</text>
    <path
       d="M1442 295 L1472 278 L1502 295 L1502 333 L1472 350 L1442 333 Z"
       fill="none"
       stroke="#526270"
       stroke-width="3.2"
       id="path34" />
    <path
       d="M1442 295 L1472 313 L1502 295 M1472 313 V350"
       fill="none"
       stroke="#526270"
       stroke-width="3.2"
       id="path35" />
    <path
       d="M1513 270 H1577 A 6 6 0 0 1 1583 276 V374 A 6 6 0 0 1 1577 380 H1513 A 6 6 0 0 1 1507 374 V276 A 6 6 0 0 1 1513 270 Z"
       fill="none"
       stroke="#526270"
       stroke-width="3"
       id="path36" />
    <line
       x1="1525"
       y1="294"
       x2="1568"
       y2="294"
       stroke="#526270"
       stroke-width="3"
       id="line36" />
    <line
       x1="1525"
       y1="318"
       x2="1568"
       y2="318"
       stroke="#526270"
       stroke-width="3"
       id="line37" />
    <path
       d="M1546 340 V372 M1532 348 L1560 364 M1560 348 L1532 364 M1530 356 H1562"
       stroke="#526fa7"
       stroke-width="2.4"
       fill="none"
       stroke-linecap="round"
       id="path37" />
    <text
       x="1523"
       y="421"
       text-anchor="middle"
       fill="#18283b"
       font-family="Microsoft YaHei,Noto Sans CJK SC,PingFang SC,Arial,sans-serif"
       font-size="21"
       id="text37">manifest</text>
    <text
       x="1523"
       y="449"
       text-anchor="middle"
       fill="#18283b"
       font-family="Microsoft YaHei,Noto Sans CJK SC,PingFang SC,Arial,sans-serif"
       font-size="21"
       id="text38">shards</text>
    <text
       x="1523"
       y="477"
       text-anchor="middle"
       fill="#18283b"
       font-family="Microsoft YaHei,Noto Sans CJK SC,PingFang SC,Arial,sans-serif"
       font-size="21"
       id="text39">sample seed</text>
  </g>
  <g
     id="g48">
    <path
       d="M 1729 190 H 1980 A 16 16 0 0 1 1996 206 V 480 A 16 16 0 0 1 1980 496 H 1729 A 16 16 0 0 1 1713 480 V 206 A 16 16 0 0 1 1729 190 Z"
       fill="#fbfcfd"
       stroke="#8f9dad"
       stroke-width="1.7"
       id="path39" />
    <circle
       cx="1757"
       cy="228"
       r="26"
       fill="#526fa7"
       id="circle39" />
    <text
       x="1757"
       y="239"
       text-anchor="middle"
       fill="#ffffff"
       font-family="Arial,sans-serif"
       font-size="30"
       font-weight="800"
       id="text40">06</text>
    <text
       x="1794.5895"
       y="237.63158"
       fill="#18283b"
       font-family="'Microsoft YaHei', 'Noto Sans CJK SC', 'PingFang SC', Arial, sans-serif"
       font-size="20px"
       font-weight="700"
       id="text41">Fixed protocol eval</text>
    <line
       x1="1780"
       y1="388"
       x2="1906"
       y2="388"
       stroke="#526270"
       stroke-width="4"
       id="line41" />
    <rect
       x="1792"
       y="360"
       width="18"
       height="28"
       fill="#aeb7d6"
       id="rect41" />
    <rect
       x="1824"
       y="338"
       width="18"
       height="50"
       fill="#aeb7d6"
       id="rect42" />
    <rect
       x="1856"
       y="318"
       width="18"
       height="70"
       fill="#aeb7d6"
       id="rect43" />
    <rect
       x="1888"
       y="292"
       width="18"
       height="96"
       fill="#aeb7d6"
       id="rect44" />
    <polyline
       points="1792,335 1824,302 1856,324 1888,286"
       fill="none"
       stroke="#6d7ea0"
       stroke-width="4"
       id="polyline44" />
    <circle
       cx="1792"
       cy="335"
       r="7"
       fill="#aeb7d6"
       stroke="#6d7ea0"
       stroke-width="3"
       id="circle44" />
    <circle
       cx="1824"
       cy="302"
       r="7"
       fill="#aeb7d6"
       stroke="#6d7ea0"
       stroke-width="3"
       id="circle45" />
    <circle
       cx="1856"
       cy="324"
       r="7"
       fill="#aeb7d6"
       stroke="#6d7ea0"
       stroke-width="3"
       id="circle46" />
    <circle
       cx="1888"
       cy="286"
       r="7"
       fill="#aeb7d6"
       stroke="#6d7ea0"
       stroke-width="3"
       id="circle47" />
    <text
       x="1854"
       y="430"
       text-anchor="middle"
       fill="#18283b"
       font-family="Microsoft YaHei,Noto Sans CJK SC,PingFang SC,Arial,sans-serif"
       font-size="21"
       id="text47">same model</text>
    <text
       x="1854"
       y="458"
       text-anchor="middle"
       fill="#18283b"
       font-family="Microsoft YaHei,Noto Sans CJK SC,PingFang SC,Arial,sans-serif"
       font-size="21"
       id="text48">same benchmarks</text>
  </g>
  <!-- arrow lines between top cards -->
  <g
     fill="#16559d"
     stroke="#16559d"
     stroke-width="4"
     id="g52">
    <line
       x1="370"
       y1="328"
       x2="420"
       y2="328"
       id="line48" />
    <polygon
       points="420,328 400,316 400,340"
       id="polygon48" />
    <line
       x1="706"
       y1="328"
       x2="760"
       y2="328"
       id="line49" />
    <polygon
       points="760,328 740,316 740,340"
       id="polygon49" />
    <line
       x1="1026"
       y1="328"
       x2="1075"
       y2="328"
       id="line50" />
    <polygon
       points="1075,328 1055,316 1055,340"
       id="polygon50" />
    <line
       x1="1336"
       y1="328"
       x2="1382"
       y2="328"
       id="line51" />
    <polygon
       points="1382,328 1362,316 1362,340"
       id="polygon51" />
    <line
       x1="1655"
       y1="328"
       x2="1704"
       y2="328"
       id="line52" />
    <polygon
       points="1704,328 1684,316 1684,340"
       id="polygon52" />
  </g>
  <text
     x="910"
     y="176"
     text-anchor="middle"
     fill="#d22924"
     font-family="Microsoft YaHei,Noto Sans CJK SC,PingFang SC,Arial,sans-serif"
     font-size="21"
     font-weight="800"
     id="text52">Candidate-pool gate</text>
  <!-- dashed routing -->
  <path
     d="M568 496 V530 H312 V558"
     fill="none"
     stroke="#526fa7"
     stroke-width="2.2"
     stroke-dasharray="10 8"
     id="path52" />
  <path
     d="M898 496 V552 H1395 V592"
     fill="none"
     stroke="#526fa7"
     stroke-width="2.2"
     stroke-dasharray="10 8"
     id="path53" />
  <path
     d="M1523 500 V592"
     fill="none"
     stroke="#526fa7"
     stroke-width="2.2"
     stroke-dasharray="10 8"
     id="path54" />
  <!-- quality table -->
  <path
     d="M 155 556 H 875 A 16 16 0 0 1 891 572 V 915 A 16 16 0 0 1 875 931 H 155 A 16 16 0 0 1 139 915 V 572 A 16 16 0 0 1 155 556 Z"
     fill="#f8fcfb"
     stroke="#6aa092"
     stroke-width="1.8"
     id="path55" />
  <text
     x="515"
     y="598"
     text-anchor="middle"
     fill="#367f73"
     font-family="Microsoft YaHei,Noto Sans CJK SC,PingFang SC,Arial,sans-serif"
     font-size="32"
     font-weight="800"
     id="text55">Five-channel quality checks</text>
  <path
     d="M 170 612 H 860 A 8 8 0 0 1 868 620 V 909 A 8 8 0 0 1 860 917 H 170 A 8 8 0 0 1 162 909 V 620 A 8 8 0 0 1 170 612 Z"
     fill="#ffffff"
     stroke="#6aa092"
     stroke-width="1.5"
     id="path56" />
  <line
     x1="312"
     y1="612"
     x2="312"
     y2="917"
     stroke="#6aa092"
     stroke-width="1.4"
     id="line56" />
  <line
     x1="162"
     y1="673"
     x2="868"
     y2="673"
     stroke="#6aa092"
     stroke-width="1.4"
     id="line57" />
  <line
     x1="162"
     y1="734"
     x2="868"
     y2="734"
     stroke="#6aa092"
     stroke-width="1.4"
     id="line58" />
  <line
     x1="162"
     y1="795"
     x2="868"
     y2="795"
     stroke="#6aa092"
     stroke-width="1.4"
     id="line59" />
  <line
     x1="162"
     y1="856"
     x2="868"
     y2="856"
     stroke="#6aa092"
     stroke-width="1.4"
     id="line60" />
  <g
     fill="none"
     stroke="#367f73"
     stroke-width="3"
     stroke-linecap="round"
     stroke-linejoin="round"
     id="g67"
     transform="translate(0,3.3684211)">
    <path
       d="m 218,624 h 27 l 13,13 v 25 h -40 z"
       id="path60" />
    <path
       d="m 245,624 v 13 h 13"
       id="path61" />
    <line
       x1="229"
       y1="644"
       x2="249"
       y2="644"
       id="line61" />
    <line
       x1="229"
       y1="655"
       x2="249"
       y2="655"
       id="line62" />
    <rect
       x="214"
       y="688"
       width="45"
       height="38"
       id="rect62" />
    <circle
       cx="228"
       cy="702"
       r="5"
       id="circle62" />
    <path
       d="m 216,724 16,-16 12,11 10,-8 6,13"
       id="path62" />
    <path
       d="m 218,760 c 14,-20 34,-19 45,-5 11,15 -6,30 -21,16"
       id="path63" />
    <path
       d="m 250,766 c -14,20 -34,19 -45,5 -11,-15 6,-30 21,-16"
       id="path64" />
    <line
       x1="234"
       y1="809.79999"
       x2="234"
       y2="827.79999"
       id="line65" />
    <circle
       cx="234"
       cy="836.77893"
       r="2"
       id="circle65" />
    <ellipse
       cx="234.33684"
       cy="874.56842"
       rx="28"
       ry="10"
       id="ellipse65" />
    <path
       d="m 206,875.57895 v 25 c 0,14 56,14 56,0 v -25"
       id="path66" />
    <path
       d="m 206,888.57895 c 0,14 56,14 56,0"
       id="path67" />
  </g>
  <g
     fill="#18283b"
     font-family="Microsoft YaHei,Noto Sans CJK SC,PingFang SC,Arial,sans-serif"
     font-size="21"
     id="g71">
    <text
       x="332"
       y="652"
       id="text67"><tspan
   font-weight="700"
   id="tspan67">Text:</tspan> caption noise / language confidence</text>
    <text
       x="332"
       y="713"
       id="text68"><tspan
   font-weight="700"
   id="tspan68">Visual:</tspan> download success / size / image hash</text>
    <text
       x="332"
       y="774"
       id="text69"><tspan
   font-weight="700"
   id="tspan69">Alignment:</tspan> CLIP score / human pass rate</text>
    <text
       x="332"
       y="835"
       id="text70"><tspan
   font-weight="700"
   id="tspan70">Risk:</tspan> NSFW / watermark / face privacy</text>
    <text
       x="348.05103"
       y="855.10083"
       id="text71"
       transform="scale(0.95435359,1.0478297)"
       style="font-size:20.0414px;stroke-width:1"><tspan
   font-weight="700"
   id="tspan71"
   style="stroke-width:1">Release:</tspan> manifest coverage / URL status / removal ledger</text>
  </g>
  <!-- risk queue -->
  <path
     d="M 1250 594 H 1770 A 16 16 0 0 1 1786 610 V 932 A 16 16 0 0 1 1770 948 H 1250 A 16 16 0 0 1 1234 932 V 610 A 16 16 0 0 1 1250 594 Z"
     fill="#fffdfc"
     stroke="#d85c4d"
     stroke-width="1.8"
     id="path71" />
  <text
     x="1516"
     y="638"
     text-anchor="middle"
     fill="#c72e24"
     font-family="Microsoft YaHei,Noto Sans CJK SC,PingFang SC,Arial,sans-serif"
     font-size="32"
     font-weight="800"
     id="text72">Risk queue</text>
  <path
     d="M1285 680 q50 -16 86 -40 q36 24 86 40 v56 q0 72 -86 100 q-86 -28 -86 -100z"
     fill="none"
     stroke="#c95445"
     stroke-width="8"
     id="path72" />
  <line
     x1="1371"
     y1="714"
     x2="1371"
     y2="764"
     stroke="#c95445"
     stroke-width="10"
     stroke-linecap="round"
     id="line72" />
  <line
     x1="1372"
     y1="707"
     x2="1372"
     y2="757"
     stroke="#c95445"
     stroke-width="10"
     stroke-linecap="round"
     id="line72-2" />
  <line
     x1="1210.0421"
     y1="263.07367"
     x2="1210.0421"
     y2="313.07367"
     stroke="#c95445"
     stroke-width="10"
     stroke-linecap="round"
     id="line72-1" />
  <circle
     cx="1371"
     cy="790"
     r="7"
     fill="#c95445"
     id="circle72" />
  <circle
     cx="1209.8933"
     cy="338.18103"
     r="7"
     fill="#c95445"
     id="circle72-8" />
  <g
     fill="#18283b"
     font-family="Microsoft YaHei,Noto Sans CJK SC,PingFang SC,Arial,sans-serif"
     font-size="23"
     id="g78">
    <circle
       cx="1490.0631"
       cy="671.30524"
       r="5"
       fill="#c95445"
       id="circle73" />
    <text
       x="1512.0631"
       y="679.30524"
       id="text73">URL decay</text>
    <circle
       cx="1490.0631"
       cy="704.30524"
       r="5"
       fill="#c95445"
       id="circle74" />
    <text
       x="1512.0631"
       y="712.30524"
       id="text74">caption noise</text>
    <circle
       cx="1490.0631"
       cy="737.30524"
       r="5"
       fill="#c95445"
       id="circle75" />
    <text
       x="1512.0631"
       y="745.30524"
       id="text75">watermark / copyright</text>
    <circle
       cx="1490.0631"
       cy="770.30524"
       r="5"
       fill="#c95445"
       id="circle76" />
    <text
       x="1512.0631"
       y="778.30524"
       id="text76">NSFW and minors</text>
    <circle
       cx="1490.0631"
       cy="803.30524"
       r="5"
       fill="#c95445"
       id="circle77" />
    <text
       x="1512.0631"
       y="811.30524"
       id="text77">faces and privacy</text>
    <circle
       cx="1490.0631"
       cy="836.30524"
       r="5"
       fill="#c95445"
       id="circle78" />
    <text
       x="1550.2219"
       y="823.55267"
       id="text78"
       transform="scale(0.97542053,1.0251988)"
       style="font-size:22.4347px;stroke-width:1">evaluation contamination</text>
  </g>
  <path
     d="M 1262 878 H 1394 A 8 8 0 0 1 1402 886 V 923 A 8 8 0 0 1 1394 931 H 1262 A 8 8 0 0 1 1254 923 V 886 A 8 8 0 0 1 1262 878 Z"
     fill="#fffaf8"
     stroke="#d85c4d"
     stroke-width="1.5"
     id="path78" />
  <path
     d="M 1448 878 H 1580 A 8 8 0 0 1 1588 886 V 923 A 8 8 0 0 1 1580 931 H 1448 A 8 8 0 0 1 1440 923 V 886 A 8 8 0 0 1 1448 878 Z"
     fill="#fffaf8"
     stroke="#d85c4d"
     stroke-width="1.5"
     id="path79" />
  <path
     d="M 1634 878 H 1766 A 8 8 0 0 1 1774 886 V 923 A 8 8 0 0 1 1766 931 H 1634 A 8 8 0 0 1 1626 923 V 886 A 8 8 0 0 1 1634 878 Z"
     fill="#fffaf8"
     stroke="#d85c4d"
     stroke-width="1.5"
     id="path80" />
  <text
     x="1328"
     y="913"
     text-anchor="middle"
     fill="#c72e24"
     font-family="Microsoft YaHei,Noto Sans CJK SC,PingFang SC,Arial,sans-serif"
     font-size="25"
     font-weight="800"
     id="text80">quarantine</text>
  <text
     x="1645.9338"
     y="840.76648"
     text-anchor="middle"
     fill="#c72e24"
     font-family="'Microsoft YaHei', 'Noto Sans CJK SC', 'PingFang SC', Arial, sans-serif"
     font-size="23.0221px"
     font-weight="800"
     id="text81"
     transform="scale(0.92088332,1.0859139)"
     style="stroke-width:1">downweight</text>
  <text
     x="1700"
     y="913"
     text-anchor="middle"
     fill="#c72e24"
     font-family="Microsoft YaHei,Noto Sans CJK SC,PingFang SC,Arial,sans-serif"
     font-size="25"
     font-weight="800"
     id="text82">remove</text>
  <!-- red warning box -->
  <path
     d="M 1726 516 H 1980 A 10 10 0 0 1 1990 526 V 562 A 10 10 0 0 1 1980 572 H 1726 A 10 10 0 0 1 1716 562 V 526 A 10 10 0 0 1 1726 516 Z"
     fill="#fffdfc"
     stroke="#d22924"
     stroke-width="1.8"
     stroke-dasharray="7 6"
     id="path82" />
  <circle
     cx="1752"
     cy="544"
     r="16"
     fill="none"
     stroke="#d22924"
     stroke-width="3"
     id="circle82" />
  <line
     x1="1741"
     y1="533"
     x2="1763"
     y2="555"
     stroke="#d22924"
     stroke-width="3"
     id="line82" />
  <text
     x="1866.1685"
     y="550.65265"
     text-anchor="middle"
     fill="#d22924"
     font-family="'Microsoft YaHei', 'Noto Sans CJK SC', 'PingFang SC', Arial, sans-serif"
     font-size="21px"
     font-weight="800"
     id="text83">Do not rely on post-training fallback</text>
  <path
     d="M1854 496 V516"
     fill="none"
     stroke="#d22924"
     stroke-width="2.2"
     stroke-dasharray="7 6"
     id="path83" />
  <!-- bottom protocol -->
  <path
     d="M 324 990 H 1556 A 12 12 0 0 1 1568 1002 V 1115 A 12 12 0 0 1 1556 1127 H 324 A 12 12 0 0 1 312 1115 V 1002 A 12 12 0 0 1 324 990 Z"
     fill="#fbf9ff"
     stroke="#7362a8"
     stroke-width="1.7"
     id="path84" />
  <path
     d="M360 1010 H414 A 8 8 0 0 1 422 1018 V1092 A 8 8 0 0 1 414 1100 H360 A 8 8 0 0 1 352 1092 V1018 A 8 8 0 0 1 360 1010 Z"
     fill="none"
     stroke="#7362a8"
     stroke-width="3"
     id="path85" />
  <rect
     x="365"
     y="1032"
     width="10"
     height="10"
     fill="none"
     stroke="#7362a8"
     stroke-width="3"
     id="rect85" />
  <rect
     x="365"
     y="1054"
     width="10"
     height="10"
     fill="none"
     stroke="#7362a8"
     stroke-width="3"
     id="rect86" />
  <rect
     x="365"
     y="1076"
     width="10"
     height="10"
     fill="none"
     stroke="#7362a8"
     stroke-width="3"
     id="rect87" />
  <line
     x1="386"
     y1="1037"
     x2="410"
     y2="1037"
     stroke="#7362a8"
     stroke-width="3"
     id="line87" />
  <line
     x1="386"
     y1="1059"
     x2="410"
     y2="1059"
     stroke="#7362a8"
     stroke-width="3"
     id="line88" />
  <line
     x1="386"
     y1="1081"
     x2="410"
     y2="1081"
     stroke="#7362a8"
     stroke-width="3"
     id="line89" />
  <circle
     cx="421"
     cy="1081"
     r="19"
     fill="#fbf9ff"
     stroke="#7362a8"
     stroke-width="3"
     id="circle89" />
  <path
     d="M421 1056 V1106 M396 1081 H446 M404 1064 L438 1098 M438 1064 L404 1098"
     stroke="#7362a8"
     stroke-width="3"
     fill="none"
     id="path89" />
  <text
     x="480"
     y="1032"
     fill="#584796"
     font-family="Microsoft YaHei,Noto Sans CJK SC,PingFang SC,Arial,sans-serif"
     font-size="22"
     font-weight="800"
     id="text89">DataComp fixed protocol:</text>
  <text
     x="730"
     y="1032"
     fill="#584796"
     font-family="Microsoft YaHei,Noto Sans CJK SC,PingFang SC,Arial,sans-serif"
     font-size="20"
     id="text90">fixed model + fixed hyperparams + fixed benchmarks； only data filter g changes</text>
  <path
     d="M 615 1055 H 1355 A 10 10 0 0 1 1365 1065 V 1104 A 10 10 0 0 1 1355 1114 H 615 A 10 10 0 0 1 605 1104 V 1065 A 10 10 0 0 1 615 1055 Z"
     fill="#ffffff"
     stroke="#8f7fc0"
     stroke-width="1.5"
     stroke-dasharray="6 5"
     id="path90" />
  <text
     x="985"
     y="1100"
     text-anchor="middle"
     fill="#584796"
     font-family="Georgia,Times New Roman,serif"
     font-size="32"
     font-style="italic"
     id="text91">S(g) = Σ w<tspan
   baseline-shift="sub"
   font-size="20"
   id="tspan90">j</tspan>b<tspan
   baseline-shift="sub"
   font-size="20"
   id="tspan91">j</tspan>( T(g(D) | D) )</text>
  <path
     d="M1420 948 V990"
     fill="none"
     stroke="#7362a8"
     stroke-width="2.2"
     stroke-dasharray="8 8"
     id="path91" />
  <path
     d="M1568 1060 H1694 V948"
     fill="none"
     stroke="#7362a8"
     stroke-width="2.2"
     stroke-dasharray="8 8"
     id="path92" />
</svg>
