<?xml version="1.0" encoding="UTF-8" standalone="no"?>
<svg
   width="2048"
   height="1152"
   viewBox="0 0 2048 1152"
   version="1.1"
   id="svg131"
   sodipodi:docname="ch43_01_laion_multichannel_schema.svg"
   inkscape:version="1.4.4 (dcaf3e7, 2026-05-05)"
   xmlns:inkscape="http://www.inkscape.org/namespaces/inkscape"
   xmlns:sodipodi="http://sodipodi.sourceforge.net/DTD/sodipodi-0.dtd"
   xmlns="http://www.w3.org/2000/svg"
   xmlns:svg="http://www.w3.org/2000/svg">
  <defs
     id="defs131" />
  <sodipodi:namedview
     id="namedview131"
     pagecolor="#ffffff"
     bordercolor="#000000"
     borderopacity="0.25"
     inkscape:showpageshadow="2"
     inkscape:pageopacity="0.0"
     inkscape:pagecheckerboard="0"
     inkscape:deskcolor="#d1d1d1"
     inkscape:zoom="0.45176267"
     inkscape:cx="965.10852"
     inkscape:cy="468.16617"
     inkscape:window-width="1920"
     inkscape:window-height="1111"
     inkscape:window-x="-9"
     inkscape:window-y="-9"
     inkscape:window-maximized="1"
     inkscape:current-layer="svg131" />
  <title
     id="title1">图43-1 LAION-5B 图文候选记录的多通道 schema</title>
  <circle
     cx="370"
     cy="310"
     r="235"
     fill="none"
     stroke="#dfe6ee"
     stroke-width="1.2"
     opacity="0.48"
     id="circle1" />
  <circle
     cx="1060"
     cy="610"
     r="340"
     fill="none"
     stroke="#dfe6ee"
     stroke-width="1.2"
     opacity="0.42"
     id="circle2" />
  <circle
     cx="1660"
     cy="745"
     r="315"
     fill="none"
     stroke="#dfe6ee"
     stroke-width="1.2"
     opacity="0.38"
     id="circle3" />
  <text
     x="1024"
     y="86"
     text-anchor="middle"
     fill="#10243a"
     font-family="Microsoft YaHei,Noto Sans CJK SC,PingFang SC,Arial,sans-serif"
     font-size="62"
     font-weight="800"
     id="text3">LAION-5B 图文候选记录的五条通道</text>
  <text
     x="1024"
     y="136"
     text-anchor="middle"
     fill="#4d5c6d"
     font-family="Microsoft YaHei,Noto Sans CJK SC,PingFang SC,Arial,sans-serif"
     font-size="30"
     font-weight="600"
     id="text4">一条样本不是图片加文本，而是可筛选、可治理的候选记录</text>
  <!-- Web trace -->
  <path
     d="M 64 280 H270 A 18 18 0 0 1 288 298 V864 A 18 18 0 0 1 270 882 H64 A 18 18 0 0 1 46 864 V298 A 18 18 0 0 1 64 280 Z"
     fill="#ffffff"
     stroke="#8b9bab"
     stroke-width="2"
     id="path4" />
  <g
     fill="none"
     stroke="#435c7a"
     stroke-width="3.2"
     stroke-linecap="round"
     stroke-linejoin="round"
     id="g5">
    <circle
       cx="166"
       cy="338"
       r="35"
       id="circle4" />
    <path
       d="M131 338 H201 M166 303 q-27 35 0 70 M166 303 q27 35 0 70"
       id="path5" />
    <circle
       cx="207"
       cy="371"
       r="12"
       id="circle5" />
    <line
       x1="216"
       y1="380"
       x2="230"
       y2="394"
       id="line5" />
  </g>
  <text
     x="167"
     y="428"
     text-anchor="middle"
     fill="#10243a"
     font-family="Microsoft YaHei,Noto Sans CJK SC,PingFang SC,Arial,sans-serif"
     font-size="32"
     font-weight="800"
     id="text5">网页 trace</text>
  <line
     x1="64"
     y1="464"
     x2="270"
     y2="464"
     stroke="#9aa9ba"
     stroke-width="1.6"
     stroke-dasharray="5 5"
     id="line6" />
  <line
     x1="64"
     y1="578"
     x2="270"
     y2="578"
     stroke="#9aa9ba"
     stroke-width="1.6"
     stroke-dasharray="5 5"
     id="line7" />
  <line
     x1="64"
     y1="692"
     x2="270"
     y2="692"
     stroke="#9aa9ba"
     stroke-width="1.6"
     stroke-dasharray="5 5"
     id="line8" />
  <line
     x1="64"
     y1="806"
     x2="270"
     y2="806"
     stroke="#9aa9ba"
     stroke-width="1.6"
     stroke-dasharray="5 5"
     id="line9" />
  <g
     fill="none"
     stroke="#435c7a"
     stroke-width="2.8"
     stroke-linecap="round"
     stroke-linejoin="round"
     id="g15">
    <path
       d="M73 501 H105 A 5 5 0 0 1 110 506 V545 A 5 5 0 0 1 105 550 H73 A 5 5 0 0 1 68 545 V506 A 5 5 0 0 1 73 501 Z"
       id="path9" />
    <line
       x1="78"
       y1="515"
       x2="100"
       y2="515"
       id="line10" />
    <line
       x1="78"
       y1="528"
       x2="100"
       y2="528"
       id="line11" />
    <line
       x1="78"
       y1="541"
       x2="94"
       y2="541"
       id="line12" />
    <path
       d="M74 640 C92 612 118 612 128 630 C138 648 117 666 100 650"
       id="path12" />
    <path
       d="m 120.4271,625.92196 c -18,28 -43.999997,28 -53.999997,10 -10,-18 11,-36 28,-20"
       id="path13" />
    <path
       d="M72 724 H106 A 4 4 0 0 1 110 728 V764 A 4 4 0 0 1 106 768 H72 A 4 4 0 0 1 68 764 V728 A 4 4 0 0 1 72 724 Z"
       id="path14" />
    <text
       x="89"
       y="757"
       text-anchor="middle"
       fill="#435c7a"
       stroke="none"
       font-family="Georgia,Times New Roman,serif"
       font-size="34"
       id="text14">T</text>
    <path
       d="m 71.446612,826.20894 h 37.999998 a 5,5 0 0 1 5,5 v 31 a 5,5 0 0 1 -5,5 H 71.446612 a 5,5 0 0 1 -5,-5 v -31 a 5,5 0 0 1 5,-5 z"
       id="path15" />
    <line
       x1="66.446609"
       y1="838.20892"
       x2="114.44661"
       y2="838.20892"
       id="line15" />
  </g>
  <g
     fill="#10243a"
     font-family="Microsoft YaHei,Noto Sans CJK SC,PingFang SC,Arial,sans-serif"
     font-size="19"
     id="g18">
    <text
       x="135.03989"
       y="480.62296"
       id="text15"
       transform="scale(0.911998,1.0964936)"
       style="font-size:17.328px;stroke-width:0.911998">Common Crawl WAT</text>
    <text
       x="137.38809"
       y="640.89325"
       id="text16">IMG URL</text>
    <text
       x="141"
       y="754.21741"
       id="text17">alt text</text>
    <text
       x="133.23767"
       y="851.88861"
       id="text18">page URL</text>
  </g>
  <!-- Channel card 1 -->
  <path
     d="M 410 181 H686 A 16 16 0 0 1 702 197 V376 A 16 16 0 0 1 686 392 H410 A 16 16 0 0 1 394 376 V197 A 16 16 0 0 1 410 181 Z"
     fill="#ffffff"
     stroke="#8b9bab"
     stroke-width="2"
     id="path18" />
  <circle
     cx="425"
     cy="214"
     r="22"
     fill="#36557d"
     id="circle18" />
  <text
     x="425"
     y="223"
     text-anchor="middle"
     fill="#ffffff"
     font-family="Arial,sans-serif"
     font-size="24"
     font-weight="800"
     id="text19">1</text>
  <text
     x="528"
     y="226"
     text-anchor="middle"
     fill="#10243a"
     font-family="Microsoft YaHei,Noto Sans CJK SC,PingFang SC,Arial,sans-serif"
     font-size="27"
     font-weight="800"
     id="text20">文本通道</text>
  <line
     x1="525"
     y1="248"
     x2="676"
     y2="248"
     stroke="#9aa9ba"
     stroke-width="1.3"
     stroke-dasharray="4 4"
     id="line20" />
  <path
     d="M419 256 H481 A 7 7 0 0 1 488 263 V330 A 7 7 0 0 1 481 337 H419 A 7 7 0 0 1 412 330 V263 A 7 7 0 0 1 419 256 Z"
     fill="none"
     stroke="#435c7a"
     stroke-width="4"
     id="path20" />
  <line
     x1="430"
     y1="279"
     x2="471"
     y2="279"
     stroke="#435c7a"
     stroke-width="4"
     stroke-linecap="round"
     id="line21" />
  <line
     x1="430"
     y1="298"
     x2="471"
     y2="298"
     stroke="#435c7a"
     stroke-width="4"
     stroke-linecap="round"
     id="line22" />
  <line
     x1="430"
     y1="317"
     x2="459"
     y2="317"
     stroke="#435c7a"
     stroke-width="4"
     stroke-linecap="round"
     id="line23" />
  <g
     fill="#10243a"
     font-family="Microsoft YaHei,Noto Sans CJK SC,PingFang SC,Arial,sans-serif"
     font-size="18"
     id="g25">
    <text
       x="525"
       y="287"
       id="text23">• language</text>
    <text
       x="525"
       y="322"
       id="text24">• text_hash</text>
    <text
       x="525"
       y="357"
       id="text25">• caption noise</text>
  </g>
  <!-- Channel card 3 -->
  <path
     d="M 1302 181 H1578 A 16 16 0 0 1 1594 197 V376 A 16 16 0 0 1 1578 392 H1302 A 16 16 0 0 1 1286 376 V197 A 16 16 0 0 1 1302 181 Z"
     fill="#ffffff"
     stroke="#8b9bab"
     stroke-width="2"
     id="path25" />
  <circle
     cx="1320"
     cy="214"
     r="22"
     fill="#36557d"
     id="circle25" />
  <text
     x="1320"
     y="223"
     text-anchor="middle"
     fill="#ffffff"
     font-family="Arial,sans-serif"
     font-size="24"
     font-weight="800"
     id="text26">3</text>
  <text
     x="1440"
     y="226"
     text-anchor="middle"
     fill="#10243a"
     font-family="Microsoft YaHei,Noto Sans CJK SC,PingFang SC,Arial,sans-serif"
     font-size="27"
     font-weight="800"
     id="text27">对齐通道</text>
  <line
     x1="1418"
     y1="248"
     x2="1565"
     y2="248"
     stroke="#9aa9ba"
     stroke-width="1.3"
     stroke-dasharray="4 4"
     id="line27" />
  <g
     fill="none"
     stroke="#435c7a"
     stroke-width="5"
     stroke-linecap="round"
     stroke-linejoin="round"
     id="g28">
    <path
       d="m 1312.2433,322.64065 49,-49 q 16,-16 34,-1 17,16 1,33 l -17,17"
       id="path27" />
    <path
       d="M1390 292 l-50 50 q-16 16 -34 0 q-17 -16 -1 -33 l17 -17"
       id="path28" />
  </g>
  <g
     fill="#10243a"
     font-family="Microsoft YaHei,Noto Sans CJK SC,PingFang SC,Arial,sans-serif"
     font-size="18"
     id="g30">
    <text
       x="1412"
       y="286"
       id="text28">• CLIP model</text>
    <text
       x="1412"
       y="321"
       id="text29">• clip_score</text>
    <text
       x="1412"
       y="356"
       id="text30">• threshold</text>
  </g>
  <!-- Warning notes -->
  <path
     d="M 1676 244 H1924 A 8 8 0 0 1 1932 252 V286 A 8 8 0 0 1 1924 294 H1676 A 8 8 0 0 1 1668 286 V252 A 8 8 0 0 1 1676 244 Z"
     fill="#fffafa"
     stroke="#dd2d26"
     stroke-width="1.8"
     stroke-dasharray="6 5"
     id="path30" />
  <path
     d="M 1644 311 H1924 A 8 8 0 0 1 1932 319 V353 A 8 8 0 0 1 1924 361 H1644 A 8 8 0 0 1 1636 353 V319 A 8 8 0 0 1 1644 311 Z"
     fill="#fffafa"
     stroke="#dd2d26"
     stroke-width="1.8"
     stroke-dasharray="6 5"
     id="path31" />
  <path
     d="M1688 272 l14 -25 l14 25 z"
     fill="#dd2d26"
     id="path32" />
  <line
     x1="1702"
     y1="258"
     x2="1702"
     y2="267"
     stroke="#ffffff"
     stroke-width="2.6"
     id="line32" />
  <circle
     cx="1702"
     cy="270"
     r="2"
     fill="#ffffff"
     id="circle32" />
  <path
     d="M1656 339 l14 -25 l14 25 z"
     fill="#dd2d26"
     id="path33" />
  <line
     x1="1670"
     y1="325"
     x2="1670"
     y2="334"
     stroke="#ffffff"
     stroke-width="2.6"
     id="line33" />
  <circle
     cx="1670"
     cy="337"
     r="2"
     fill="#ffffff"
     id="circle33" />
  <text
     x="1820"
     y="274"
     text-anchor="middle"
     fill="#dd2d26"
     font-family="Microsoft YaHei,Noto Sans CJK SC,PingFang SC,Arial,sans-serif"
     font-size="17"
     font-weight="800"
     id="text33">CLIP 分数只说明相关性</text>
  <text
     x="1815"
     y="341"
     text-anchor="middle"
     fill="#dd2d26"
     font-family="Microsoft YaHei,Noto Sans CJK SC,PingFang SC,Arial,sans-serif"
     font-size="17"
     font-weight="800"
     id="text34">CLIP 分数不是完整质量保证</text>
  <path
     d="M1594 302 H1668"
     fill="none"
     stroke="#dd2d26"
     stroke-width="1.8"
     stroke-dasharray="6 5"
     id="path34" />
  <path
     d="M1594 336 H1636"
     fill="none"
     stroke="#dd2d26"
     stroke-width="1.8"
     stroke-dasharray="6 5"
     id="path35" />
  <!-- Candidate record -->
  <path
     d="M 740 328 H1258 A 16 16 0 0 1 1274 344 V898 A 16 16 0 0 1 1258 914 H740 A 16 16 0 0 1 724 898 V344 A 16 16 0 0 1 740 328 Z"
     fill="#ffffff"
     stroke="#8b9bab"
     stroke-width="2"
     id="path36" />
  <path
     d="M724 344 A16 16 0 0 1 740 328 H1258 A16 16 0 0 1 1274 344 V379 H724 Z"
     fill="#082b4e"
     id="path37" />
  <circle
     cx="905.35938"
     cy="353"
     r="17"
     fill="none"
     stroke="#ffffff"
     stroke-width="2.4"
     id="circle37" />
  <path
     d="m 895.35935,353 8,8 16,-18"
     fill="none"
     stroke="#ffffff"
     stroke-width="2.6"
     stroke-linecap="round"
     stroke-linejoin="round"
     id="path38" />
  <text
     x="1015"
     y="364"
     text-anchor="middle"
     fill="#ffffff"
     font-family="Microsoft YaHei,Noto Sans CJK SC,PingFang SC,Arial,sans-serif"
     font-size="29"
     font-weight="800"
     id="text38">候选记录稳定</text>
  <text
     x="999"
     y="420"
     text-anchor="middle"
     fill="#10243a"
     font-family="Microsoft YaHei,Noto Sans CJK SC,PingFang SC,Arial,sans-serif"
     font-size="31"
     font-weight="800"
     id="text39">candidate record</text>
  <line
     x1="724"
     y1="438"
     x2="1274"
     y2="438"
     stroke="#8b9bab"
     stroke-width="1.6"
     id="line39" />
  <line
     x1="908"
     y1="438"
     x2="908"
     y2="720"
     stroke="#c9d2dc"
     stroke-width="1"
     id="line40" />
  <line
     x1="724"
     y1="476"
     x2="1274"
     y2="476"
     stroke="#d2dae2"
     stroke-width="1"
     id="line41" />
  <line
     x1="724"
     y1="514"
     x2="1274"
     y2="514"
     stroke="#d2dae2"
     stroke-width="1"
     id="line42" />
  <line
     x1="724"
     y1="552"
     x2="1274"
     y2="552"
     stroke="#d2dae2"
     stroke-width="1"
     id="line43" />
  <line
     x1="724"
     y1="590"
     x2="1274"
     y2="590"
     stroke="#d2dae2"
     stroke-width="1"
     id="line44" />
  <line
     x1="724"
     y1="628"
     x2="1274"
     y2="628"
     stroke="#d2dae2"
     stroke-width="1"
     id="line45" />
  <line
     x1="724"
     y1="666"
     x2="1274"
     y2="666"
     stroke="#d2dae2"
     stroke-width="1"
     id="line46" />
  <line
     x1="724"
     y1="704"
     x2="1274"
     y2="704"
     stroke="#d2dae2"
     stroke-width="1"
     id="line47" />
  <g
     fill="#10243a"
     font-family="Microsoft YaHei,Noto Sans CJK SC,PingFang SC,Arial,sans-serif"
     font-size="18"
     id="g62">
    <text
       x="748"
       y="464"
       font-weight="800"
       id="text47">uid</text>
    <text
       x="922"
       y="464"
       id="text48">F5C7A9B8C0123456</text>
    <text
       x="748"
       y="502"
       font-weight="800"
       id="text49">image_url</text>
    <text
       x="922"
       y="502"
       id="text50">s3://laion5b/img/7/7a/7a23.jpg</text>
    <text
       x="748"
       y="540"
       font-weight="800"
       id="text51">text</text>
    <text
       x="922"
       y="540"
       id="text52">一只白色猫坐在窗台上</text>
    <text
       x="748"
       y="578"
       font-weight="800"
       id="text53">clip_score</text>
    <text
       x="922"
       y="578"
       id="text54">0.312</text>
    <text
       x="748"
       y="616"
       font-weight="800"
       id="text55">nsfw_score</text>
    <text
       x="922"
       y="616"
       id="text56">0.012</text>
    <text
       x="748"
       y="654"
       font-weight="800"
       id="text57">watermark_score</text>
    <text
       x="922"
       y="654"
       id="text58">0.043</text>
    <text
       x="748"
       y="692"
       font-weight="800"
       id="text59">shard_id</text>
    <text
       x="922"
       y="692"
       id="text60">04217</text>
    <text
       x="747.21741"
       y="727.65216"
       font-weight="800"
       id="text61">removal_status</text>
    <text
       x="922"
       y="730"
       id="text62">active</text>
  </g>
  <g
     id="g71">
    <path
       d="M1118 527 H1250 A 8 8 0 0 1 1258 535 V574 A 8 8 0 0 1 1250 582 H1118 A 8 8 0 0 1 1110 574 V535 A 8 8 0 0 1 1118 527 Z"
       fill="#f7f9fb"
       stroke="#b9c5d2"
       id="path62" />
    <path
       d="M1118 593 H1250 A 8 8 0 0 1 1258 601 V640 A 8 8 0 0 1 1250 648 H1118 A 8 8 0 0 1 1110 640 V601 A 8 8 0 0 1 1118 593 Z"
       fill="#f7f9fb"
       stroke="#b9c5d2"
       id="path63" />
    <path
       d="M1118 659 H1250 A 8 8 0 0 1 1258 667 V706 A 8 8 0 0 1 1250 714 H1118 A 8 8 0 0 1 1110 706 V667 A 8 8 0 0 1 1118 659 Z"
       fill="#f7f9fb"
       stroke="#b9c5d2"
       id="path64" />
    <rect
       x="1126"
       y="553"
       width="8"
       height="16"
       fill="none"
       stroke="#435c7a"
       stroke-width="2"
       id="rect64" />
    <rect
       x="1139"
       y="541"
       width="8"
       height="28"
       fill="none"
       stroke="#435c7a"
       stroke-width="2"
       id="rect65" />
    <line
       x1="1120"
       y1="569.27667"
       x2="1151.1217"
       y2="569.27667"
       stroke="#435c7a"
       stroke-width="1.61043"
       id="line66" />
    <path
       d="m 1121.5924,604 h 17 l 11,11 v 23 h -28 z"
       fill="none"
       stroke="#435c7a"
       stroke-width="2.4"
       id="path66" />
    <path
       d="m 1125.0195,689.84497 8,9 18,-24"
       fill="none"
       stroke="#435c7a"
       stroke-width="2.4"
       id="path69" />
    <text
       x="1198"
       y="560"
       text-anchor="middle"
       fill="#10243a"
       font-family="Microsoft YaHei,Noto Sans CJK SC,PingFang SC,Arial,sans-serif"
       font-size="15"
       id="text69">训练视图预览</text>
    <text
       x="1198"
       y="626"
       text-anchor="middle"
       fill="#10243a"
       font-family="Microsoft YaHei,Noto Sans CJK SC,PingFang SC,Arial,sans-serif"
       font-size="15"
       id="text70">评测视图预览</text>
    <text
       x="1198"
       y="692"
       text-anchor="middle"
       fill="#10243a"
       font-family="Microsoft YaHei,Noto Sans CJK SC,PingFang SC,Arial,sans-serif"
       font-size="15"
       id="text71">治理视图预览</text>
  </g>
  <path
     d="M 748 736 H1250 A 10 10 0 0 1 1260 746 V884 A 10 10 0 0 1 1250 894 H748 A 10 10 0 0 1 738 884 V746 A 10 10 0 0 1 748 736 Z"
     fill="#f8fafc"
     stroke="#b9c5d2"
     id="path71" />
  <rect
     x="754"
     y="752"
     width="228"
     height="116"
     fill="#e9eef4"
     stroke="#b9c5d2"
     id="rect71" />
  <rect
     x="764"
     y="762"
     width="56"
     height="96"
     fill="#f6f8fa"
     stroke="#cad3dd"
     id="rect72" />
  <line
     x1="818"
     y1="800"
     x2="970"
     y2="800"
     stroke="#cad3dd"
     stroke-width="5"
     id="line72" />
  <line
     x1="850"
     y1="762"
     x2="850"
     y2="858"
     stroke="#cad3dd"
     stroke-width="5"
     id="line73" />
  <path
     d="M893 840 q28 -45 55 0"
     fill="#b7c2ce"
     id="path73" />
  <circle
     cx="912"
     cy="818"
     r="14"
     fill="#b7c2ce"
     id="circle73" />
  <text
     x="1102.271"
     y="784.42712"
     text-anchor="middle"
     fill="#10243a"
     font-family="'Microsoft YaHei', 'Noto Sans CJK SC', 'PingFang SC', Arial, sans-serif"
     font-size="20px"
     id="text73">caption（示意）</text>
  <text
     x="1107.8049"
     y="823.78644"
     text-anchor="middle"
     fill="#10243a"
     font-family="'Microsoft YaHei', 'Noto Sans CJK SC', 'PingFang SC', Arial, sans-serif"
     font-size="18px"
     id="text74">一只白色猫坐在窗台上，</text>
  <text
     x="1107.8049"
     y="859.10675"
     text-anchor="middle"
     fill="#10243a"
     font-family="'Microsoft YaHei', 'Noto Sans CJK SC', 'PingFang SC', Arial, sans-serif"
     font-size="18px"
     id="text75">窗外是柔和的光线。</text>
  <!-- Channel card 2 -->
  <path
     d="M 394 686 H670 A 16 16 0 0 1 686 702 V881 A 16 16 0 0 1 670 897 H394 A 16 16 0 0 1 378 881 V702 A 16 16 0 0 1 394 686 Z"
     fill="#ffffff"
     stroke="#8b9bab"
     stroke-width="2"
     id="path75" />
  <circle
     cx="413"
     cy="719"
     r="22"
     fill="#36557d"
     id="circle75" />
  <text
     x="413"
     y="728"
     text-anchor="middle"
     fill="#ffffff"
     font-family="Arial,sans-serif"
     font-size="24"
     font-weight="800"
     id="text76">2</text>
  <text
     x="548"
     y="731"
     text-anchor="middle"
     fill="#10243a"
     font-family="Microsoft YaHei,Noto Sans CJK SC,PingFang SC,Arial,sans-serif"
     font-size="27"
     font-weight="800"
     id="text77">视觉通道</text>
  <line
     x1="520"
     y1="753"
     x2="660"
     y2="753"
     stroke="#9aa9ba"
     stroke-width="1.3"
     stroke-dasharray="4 4"
     id="line77" />
  <rect
     x="404.06903"
     y="764.06903"
     width="87.949181"
     height="63.861912"
     fill="none"
     stroke="#435c7a"
     stroke-width="4.13809"
     id="rect77" />
  <circle
     cx="425"
     cy="784"
     r="8"
     fill="#435c7a"
     id="circle77" />
  <path
     d="M410 820 L440 790 L462 812 L480 794 L486 820 Z"
     fill="none"
     stroke="#435c7a"
     stroke-width="4"
     stroke-linejoin="round"
     id="path77" />
  <g
     fill="#10243a"
     font-family="Microsoft YaHei,Noto Sans CJK SC,PingFang SC,Arial,sans-serif"
     font-size="18"
     id="g80">
    <text
       x="506"
       y="787"
       id="text78">• download_status</text>
    <text
       x="506"
       y="822"
       id="text79">• width × height</text>
    <text
       x="506"
       y="857"
       id="text80">• image_hash</text>
  </g>
  <!-- Channel card 4 -->
  <path
     d="M 1350 686 H1626 A 16 16 0 0 1 1642 702 V881 A 16 16 0 0 1 1626 897 H1350 A 16 16 0 0 1 1334 881 V702 A 16 16 0 0 1 1350 686 Z"
     fill="#ffffff"
     stroke="#8b9bab"
     stroke-width="2"
     id="path80" />
  <circle
     cx="1370"
     cy="719"
     r="22"
     fill="#c9473b"
     id="circle80" />
  <text
     x="1370"
     y="728"
     text-anchor="middle"
     fill="#ffffff"
     font-family="Arial,sans-serif"
     font-size="24"
     font-weight="800"
     id="text81">4</text>
  <text
     x="1510"
     y="731"
     text-anchor="middle"
     fill="#c72e24"
     font-family="Microsoft YaHei,Noto Sans CJK SC,PingFang SC,Arial,sans-serif"
     font-size="27"
     font-weight="800"
     id="text82">风险通道</text>
  <line
     x1="1475"
     y1="753"
     x2="1607"
     y2="753"
     stroke="#9aa9ba"
     stroke-width="1.3"
     stroke-dasharray="4 4"
     id="line82" />
  <path
     d="m 1412.5534,779.1253 q 23.4041,15.71503 51.8233,19.85056 v 31.43007 q 0,38.04692 -51.8233,56.24327 -51.8232,-18.19635 -51.8232,-56.24327 v -31.43007 q 28.4192,-4.13553 51.8232,-19.85056 z"
     fill="none"
     stroke="#c9473b"
     stroke-width="3.32589"
     id="path82" />
  <line
     x1="1412"
     y1="811"
     x2="1412"
     y2="844"
     stroke="#c9473b"
     stroke-width="7"
     stroke-linecap="round"
     id="line83" />
  <circle
     cx="1412"
     cy="861"
     r="5"
     fill="#c9473b"
     id="circle83" />
  <g
     fill="#10243a"
     font-family="Microsoft YaHei,Noto Sans CJK SC,PingFang SC,Arial,sans-serif"
     font-size="18"
     id="g86">
    <text
       x="1482.2135"
       y="792.42712"
       id="text83">• NSFW</text>
    <text
       x="1478.8932"
       y="819.67969"
       id="text84">• watermark</text>
    <text
       x="1480"
       y="858"
       id="text85">• face privacy</text>
    <text
       x="1481.1068"
       y="883.039"
       id="text86">• license_hint</text>
  </g>
  <!-- Channel card 5 -->
  <path
     d="M 835 952 H1160 A 16 16 0 0 1 1176 968 V1115 A 16 16 0 0 1 1160 1131 H835 A 16 16 0 0 1 819 1115 V968 A 16 16 0 0 1 835 952 Z"
     fill="#ffffff"
     stroke="#8b9bab"
     stroke-width="2"
     id="path86" />
  <circle
     cx="856"
     cy="982"
     r="22"
     fill="#7462a7"
     id="circle86" />
  <text
     x="856"
     y="991"
     text-anchor="middle"
     fill="#ffffff"
     font-family="Arial,sans-serif"
     font-size="24"
     font-weight="800"
     id="text87">5</text>
  <text
     x="1010"
     y="994"
     text-anchor="middle"
     fill="#7462a7"
     font-family="Microsoft YaHei,Noto Sans CJK SC,PingFang SC,Arial,sans-serif"
     font-size="27"
     font-weight="800"
     id="text88">发布通道</text>
  <line
     x1="974"
     y1="1016"
     x2="1140"
     y2="1016"
     stroke="#9aa9ba"
     stroke-width="1.3"
     stroke-dasharray="4 4"
     id="line88" />
  <path
     d="M874 1015 H932 L960 1043 V1100 H874 Z"
     fill="none"
     stroke="#7462a7"
     stroke-width="4"
     id="path88" />
  <path
     d="M932 1015 V1043 H960"
     fill="none"
     stroke="#7462a7"
     stroke-width="4"
     id="path89" />
  <line
     x1="894"
     y1="1052"
     x2="936"
     y2="1052"
     stroke="#7462a7"
     stroke-width="4"
     id="line89" />
  <line
     x1="894"
     y1="1076"
     x2="930"
     y2="1076"
     stroke="#7462a7"
     stroke-width="4"
     id="line90" />
  <g
     fill="#10243a"
     font-family="Microsoft YaHei,Noto Sans CJK SC,PingFang SC,Arial,sans-serif"
     font-size="18"
     id="g92">
    <text
       x="978"
       y="1047"
       id="text90">• dataset_version</text>
    <text
       x="978"
       y="1082"
       id="text91">• shard_id</text>
    <text
       x="978"
       y="1117"
       id="text92">• removal_status</text>
  </g>
  <!-- Task views -->
  <path
     d="M 1724 405 H1978 A 18 18 0 0 1 1996 423 V952 A 18 18 0 0 1 1978 970 H1724 A 18 18 0 0 1 1706 952 V423 A 18 18 0 0 1 1724 405 Z"
     fill="#ffffff"
     stroke="#8b9bab"
     stroke-width="2"
     id="path92" />
  <text
     x="1851"
     y="468"
     text-anchor="middle"
     fill="#10243a"
     font-family="Microsoft YaHei,Noto Sans CJK SC,PingFang SC,Arial,sans-serif"
     font-size="32"
     font-weight="800"
     id="text93">任务视图</text>
  <g
     fill="none"
     stroke="#435c7a"
     stroke-width="3"
     stroke-linecap="round"
     stroke-linejoin="round"
     id="g98">
    <rect
       x="1842"
       y="494"
       width="16"
       height="16"
       id="rect93" />
    <rect
       x="1814"
       y="525"
       width="16"
       height="16"
       id="rect94" />
    <rect
       x="1842"
       y="525"
       width="16"
       height="16"
       id="rect95" />
    <rect
       x="1870"
       y="525"
       width="16"
       height="16"
       id="rect96" />
    <line
       x1="1850"
       y1="510"
       x2="1850"
       y2="525"
       id="line96" />
    <line
       x1="1850"
       y1="518"
       x2="1822"
       y2="518"
       id="line97" />
    <line
       x1="1850"
       y1="518"
       x2="1878"
       y2="518"
       id="line98" />
  </g>
  <line
     x1="1730"
     y1="568"
     x2="1970"
     y2="568"
     stroke="#9aa9ba"
     stroke-width="1.5"
     stroke-dasharray="5 5"
     id="line99" />
  <path
     d="M 1730 612 H1972 A 8 8 0 0 1 1980 620 V690 A 8 8 0 0 1 1972 698 H1730 A 8 8 0 0 1 1722 690 V620 A 8 8 0 0 1 1730 612 Z"
     fill="#f9fbfd"
     stroke="#b9c5d2"
     id="path99" />
  <path
     d="M 1730 725 H1972 A 8 8 0 0 1 1980 733 V803 A 8 8 0 0 1 1972 811 H1730 A 8 8 0 0 1 1722 803 V733 A 8 8 0 0 1 1730 725 Z"
     fill="#f9fbfd"
     stroke="#b9c5d2"
     id="path100" />
  <path
     d="M 1730 838 H1972 A 8 8 0 0 1 1980 846 V916 A 8 8 0 0 1 1972 924 H1730 A 8 8 0 0 1 1722 916 V846 A 8 8 0 0 1 1730 838 Z"
     fill="#f9fbfd"
     stroke="#b9c5d2"
     id="path101" />
  <rect
     x="1765"
     y="665"
     width="10"
     height="22"
     fill="none"
     stroke="#435c7a"
     stroke-width="2.6"
     id="rect101" />
  <rect
     x="1783"
     y="635"
     width="10"
     height="52"
     fill="none"
     stroke="#435c7a"
     stroke-width="2.6"
     id="rect102" />
  <rect
     x="1801"
     y="648"
     width="10"
     height="39"
     fill="none"
     stroke="#435c7a"
     stroke-width="2.6"
     id="rect103" />
  <rect
     x="1819"
     y="618"
     width="10"
     height="69"
     fill="none"
     stroke="#435c7a"
     stroke-width="2.6"
     id="rect104" />
  <line
     x1="1758"
     y1="687"
     x2="1838"
     y2="687"
     stroke="#435c7a"
     stroke-width="2.6"
     id="line104" />
  <path
     d="M1766 750 H1800 L1818 768 V800 H1766 Z"
     fill="none"
     stroke="#435c7a"
     stroke-width="2.8"
     id="path104" />
  <path
     d="M1800 750 V768 H1818"
     fill="none"
     stroke="#435c7a"
     stroke-width="2.8"
     id="path105" />
  <circle
     cx="1780"
     cy="778"
     r="3"
     fill="#435c7a"
     id="circle105" />
  <line
     x1="1792"
     y1="778"
     x2="1808"
     y2="778"
     stroke="#435c7a"
     stroke-width="2.5"
     id="line105" />
  <path
     d="m 1771.7864,887.99077 13,13 27,-39"
     fill="none"
     stroke="#435c7a"
     stroke-width="3"
     id="path107" />
  <text
     x="1863.3983"
     y="664.67969"
     fill="#435c7a"
     font-family="'Microsoft YaHei', 'Noto Sans CJK SC', 'PingFang SC', Arial, sans-serif"
     font-size="25px"
     font-weight="700"
     id="text107">训练视图</text>
  <text
     x="1861.1848"
     y="780.89325"
     fill="#435c7a"
     font-family="'Microsoft YaHei', 'Noto Sans CJK SC', 'PingFang SC', Arial, sans-serif"
     font-size="25px"
     font-weight="700"
     id="text108">评测视图</text>
  <text
     x="1862.2916"
     y="890.67969"
     fill="#435c7a"
     font-family="'Microsoft YaHei', 'Noto Sans CJK SC', 'PingFang SC', Arial, sans-serif"
     font-size="25px"
     font-weight="700"
     id="text109">治理视图</text>
  <!-- Connectors -->
  <g
     fill="none"
     stroke="#10243a"
     stroke-width="3"
     id="g116">
    <path
       d="M288 558 H458 q20 0 20 20 V686"
       id="path109" />
    <path
       d="M702 248 H992 q20 0 20 20 V328"
       id="path110" />
    <path
       d="M568 392 V502 q0 18 18 18 H724"
       id="path111" />
    <path
       d="M1286 258 H1216 q-20 0 -20 20 V328"
       id="path112" />
    <path
       d="M1435 392 V502 q0 18 -18 18 H1274"
       id="path113" />
    <path
       d="m 1642,797 h 29.6424 q 15.6013,0 15.6013,-20 V 560 q 0,-20 15.6013,-20 h -10.9209"
       id="path114"
       style="stroke-width:2.64964" />
    <path
       d="M997 914 V952"
       id="path115" />
    <path
       d="M1274 560 H1706"
       id="path116" />
  </g>
  <g
     fill="#10243a"
     id="g127">
    <circle
       cx="288"
       cy="558"
       r="5"
       id="circle116" />
    <circle
       cx="478"
       cy="686"
       r="5"
       id="circle117" />
    <circle
       cx="702"
       cy="248"
       r="5"
       id="circle118" />
    <circle
       cx="1012"
       cy="328"
       r="5"
       id="circle119" />
    <circle
       cx="724"
       cy="520"
       r="5"
       id="circle120" />
    <circle
       cx="1286"
       cy="258"
       r="5"
       id="circle121" />
    <circle
       cx="1196"
       cy="328"
       r="5"
       id="circle122" />
    <circle
       cx="1274"
       cy="520"
       r="5"
       id="circle123" />
    <circle
       cx="1642"
       cy="797"
       r="5"
       id="circle124" />
    <circle
       cx="1706"
       cy="560"
       r="5"
       id="circle125" />
    <circle
       cx="997"
       cy="914"
       r="5"
       id="circle126" />
    <circle
       cx="1274"
       cy="560"
       r="5"
       id="circle127" />
  </g>
  <!-- Legend -->
  <path
     d="M 54.362848,1038.013 H 727.11541 a 10.350039,9.99691 0 0 1 10.35004,9.9969 v 63.9802 a 10.350039,9.99691 0 0 1 -10.35004,9.9969 H 54.362848 a 10.350039,9.99691 0 0 1 -10.350039,-9.9969 v -63.9802 a 10.350039,9.99691 0 0 1 10.350039,-9.9969 z"
     fill="#ffffff"
     stroke="#b9c5d2"
     stroke-width="1.52579"
     stroke-dasharray="6, 6"
     id="path127" />
  <line
     x1="70"
     y1="1080"
     x2="120"
     y2="1080"
     stroke="#10243a"
     stroke-width="3"
     id="line127" />
  <circle
     cx="70"
     cy="1080"
     r="5"
     fill="#10243a"
     id="circle128" />
  <circle
     cx="120"
     cy="1080"
     r="5"
     fill="#10243a"
     id="circle129" />
  <text
     x="138"
     y="1087"
     fill="#10243a"
     font-family="Microsoft YaHei,Noto Sans CJK SC,PingFang SC,Arial,sans-serif"
     font-size="17"
     id="text129">数据关联（稳定）</text>
  <line
     x1="305"
     y1="1080"
     x2="360"
     y2="1080"
     stroke="#10243a"
     stroke-width="2"
     stroke-dasharray="8 7"
     id="line129" />
  <text
     x="378"
     y="1087"
     fill="#10243a"
     font-family="Microsoft YaHei,Noto Sans CJK SC,PingFang SC,Arial,sans-serif"
     font-size="17"
     id="text130">说明/提示（非通道）</text>
  <path
     d="M 567 1066 H601 A 5 5 0 0 1 606 1071 V1090 A 5 5 0 0 1 601 1095 H567 A 5 5 0 0 1 562 1090 V1071 A 5 5 0 0 1 567 1066 Z"
     fill="#f9fbfd"
     stroke="#8b9bab"
     id="path130" />
  <text
     x="620"
     y="1087"
     fill="#10243a"
     font-family="Microsoft YaHei,Noto Sans CJK SC,PingFang SC,Arial,sans-serif"
     font-size="17"
     id="text131">视图（可变）</text>
</svg>
